<svg width="105" height="40" viewBox="0 0 105 40" fill="none" xmlns="http://www.w3.org/2000/svg">
<g clip-path="url(#clip0_6309_21232)">
<rect width="105" height="40" rx="20" fill="#B57BFF"/>
<path d="M19.56 25C19.4747 25 19.3947 24.968 19.32 24.904C19.256 24.84 19.224 24.76 19.224 24.664C19.224 24.6213 19.2347 24.5733 19.256 24.52L23.112 14.2C23.144 14.0933 23.2027 14.0027 23.288 13.928C23.384 13.8427 23.512 13.8 23.672 13.8H25.416C25.576 13.8 25.6987 13.8427 25.784 13.928C25.8693 14.0027 25.9333 14.0933 25.976 14.2L29.832 24.52C29.8427 24.5733 29.848 24.6213 29.848 24.664C29.848 24.76 29.816 24.84 29.752 24.904C29.688 24.968 29.6133 25 29.528 25H28.136C27.9867 25 27.8747 24.968 27.8 24.904C27.736 24.8293 27.6933 24.76 27.672 24.696L26.92 22.744H22.168L21.416 24.696C21.3947 24.76 21.3467 24.8293 21.272 24.904C21.208 24.968 21.1013 25 20.952 25H19.56ZM22.728 20.904H26.36L24.536 15.96L22.728 20.904ZM31.5498 28.04C31.4431 28.04 31.3524 28.0027 31.2778 27.928C31.2031 27.8533 31.1658 27.7627 31.1658 27.656V17.064C31.1658 16.9573 31.2031 16.8667 31.2778 16.792C31.3524 16.7173 31.4431 16.68 31.5498 16.68H32.8138C32.9311 16.68 33.0218 16.7173 33.0858 16.792C33.1604 16.8667 33.1978 16.9573 33.1978 17.064V17.704C33.4538 17.3627 33.7898 17.08 34.2057 16.856C34.6218 16.632 35.1391 16.52 35.7578 16.52C36.3231 16.52 36.8138 16.6107 37.2298 16.792C37.6458 16.9733 37.9924 17.2347 38.2698 17.576C38.5471 17.9067 38.7604 18.3013 38.9097 18.76C39.0591 19.2187 39.1444 19.7253 39.1658 20.28C39.1764 20.4613 39.1818 20.648 39.1818 20.84C39.1818 21.032 39.1764 21.224 39.1658 21.416C39.1551 21.9493 39.0751 22.4453 38.9258 22.904C38.7764 23.352 38.5578 23.7467 38.2698 24.088C37.9924 24.4187 37.6458 24.68 37.2298 24.872C36.8138 25.064 36.3231 25.16 35.7578 25.16C35.1818 25.16 34.6911 25.0587 34.2858 24.856C33.8804 24.6427 33.5498 24.3653 33.2938 24.024V27.656C33.2938 27.7627 33.2564 27.8533 33.1818 27.928C33.1178 28.0027 33.0271 28.04 32.9098 28.04H31.5498ZM35.1658 23.448C35.6244 23.448 35.9818 23.352 36.2378 23.16C36.4938 22.9573 36.6751 22.696 36.7818 22.376C36.8991 22.056 36.9684 21.704 36.9898 21.32C37.0111 21 37.0111 20.68 36.9898 20.36C36.9684 19.976 36.8991 19.624 36.7818 19.304C36.6751 18.984 36.4938 18.728 36.2378 18.536C35.9818 18.3333 35.6244 18.232 35.1658 18.232C34.7284 18.232 34.3711 18.3333 34.0938 18.536C33.8271 18.7387 33.6298 19 33.5018 19.32C33.3844 19.6293 33.3151 19.9493 33.2938 20.28C33.2831 20.472 33.2778 20.6747 33.2778 20.888C33.2778 21.1013 33.2831 21.3093 33.2938 21.512C33.3044 21.832 33.3791 22.1413 33.5178 22.44C33.6564 22.728 33.8591 22.968 34.1258 23.16C34.3924 23.352 34.7391 23.448 35.1658 23.448ZM41.3779 28.04C41.2712 28.04 41.1805 28.0027 41.1059 27.928C41.0312 27.8533 40.9939 27.7627 40.9939 27.656V17.064C40.9939 16.9573 41.0312 16.8667 41.1059 16.792C41.1805 16.7173 41.2712 16.68 41.3779 16.68H42.6419C42.7592 16.68 42.8499 16.7173 42.9139 16.792C42.9885 16.8667 43.0259 16.9573 43.0259 17.064V17.704C43.2819 17.3627 43.6179 17.08 44.0339 16.856C44.4499 16.632 44.9672 16.52 45.5859 16.52C46.1512 16.52 46.6419 16.6107 47.0579 16.792C47.4739 16.9733 47.8205 17.2347 48.0979 17.576C48.3752 17.9067 48.5885 18.3013 48.7379 18.76C48.8872 19.2187 48.9725 19.7253 48.9939 20.28C49.0045 20.4613 49.0099 20.648 49.0099 20.84C49.0099 21.032 49.0045 21.224 48.9939 21.416C48.9832 21.9493 48.9032 22.4453 48.7539 22.904C48.6045 23.352 48.3859 23.7467 48.0979 24.088C47.8205 24.4187 47.4739 24.68 47.0579 24.872C46.6419 25.064 46.1512 25.16 45.5859 25.16C45.0099 25.16 44.5192 25.0587 44.1139 24.856C43.7085 24.6427 43.3779 24.3653 43.1219 24.024V27.656C43.1219 27.7627 43.0845 27.8533 43.0099 27.928C42.9459 28.0027 42.8552 28.04 42.7379 28.04H41.3779ZM44.9939 23.448C45.4525 23.448 45.8099 23.352 46.0659 23.16C46.3219 22.9573 46.5032 22.696 46.6099 22.376C46.7272 22.056 46.7965 21.704 46.8179 21.32C46.8392 21 46.8392 20.68 46.8179 20.36C46.7965 19.976 46.7272 19.624 46.6099 19.304C46.5032 18.984 46.3219 18.728 46.0659 18.536C45.8099 18.3333 45.4525 18.232 44.9939 18.232C44.5565 18.232 44.1992 18.3333 43.9219 18.536C43.6552 18.7387 43.4579 19 43.3299 19.32C43.2125 19.6293 43.1432 19.9493 43.1219 20.28C43.1112 20.472 43.1059 20.6747 43.1059 20.888C43.1059 21.1013 43.1112 21.3093 43.1219 21.512C43.1325 21.832 43.2072 22.1413 43.3459 22.44C43.4845 22.728 43.6872 22.968 43.9539 23.16C44.2205 23.352 44.5672 23.448 44.9939 23.448ZM51.19 25C51.0833 25 50.9927 24.9627 50.918 24.888C50.8433 24.8133 50.806 24.7227 50.806 24.616V17.08C50.806 16.9627 50.8433 16.8667 50.918 16.792C50.9927 16.7173 51.0833 16.68 51.19 16.68H52.486C52.5927 16.68 52.6833 16.7173 52.758 16.792C52.8433 16.8667 52.886 16.9627 52.886 17.08V17.736C53.1313 17.3947 53.446 17.1333 53.83 16.952C54.2247 16.7707 54.678 16.68 55.19 16.68H55.846C55.9633 16.68 56.054 16.7173 56.118 16.792C56.1927 16.8667 56.23 16.9573 56.23 17.064V18.216C56.23 18.3227 56.1927 18.4133 56.118 18.488C56.054 18.5627 55.9633 18.6 55.846 18.6H54.598C54.086 18.6 53.686 18.744 53.398 19.032C53.1207 19.32 52.982 19.7147 52.982 20.216V24.616C52.982 24.7227 52.9447 24.8133 52.87 24.888C52.7953 24.9627 52.6993 25 52.582 25H51.19ZM61.0485 25.16C60.1952 25.16 59.4752 25.0107 58.8885 24.712C58.3125 24.4133 57.8698 23.992 57.5605 23.448C57.2618 22.904 57.0912 22.2693 57.0485 21.544C57.0378 21.352 57.0325 21.1173 57.0325 20.84C57.0325 20.5627 57.0378 20.328 57.0485 20.136C57.0912 19.4 57.2672 18.7653 57.5765 18.232C57.8965 17.688 58.3445 17.2667 58.9205 16.968C59.5072 16.6693 60.2165 16.52 61.0485 16.52C61.8805 16.52 62.5845 16.6693 63.1605 16.968C63.7472 17.2667 64.1952 17.688 64.5045 18.232C64.8245 18.7653 65.0058 19.4 65.0485 20.136C65.0592 20.328 65.0645 20.5627 65.0645 20.84C65.0645 21.1173 65.0592 21.352 65.0485 21.544C65.0058 22.2693 64.8298 22.904 64.5205 23.448C64.2218 23.992 63.7792 24.4133 63.1925 24.712C62.6165 25.0107 61.9018 25.16 61.0485 25.16ZM61.0485 23.576C61.6138 23.576 62.0512 23.4 62.3605 23.048C62.6698 22.6853 62.8405 22.1573 62.8725 21.464C62.8832 21.304 62.8885 21.096 62.8885 20.84C62.8885 20.584 62.8832 20.376 62.8725 20.216C62.8405 19.5333 62.6698 19.0107 62.3605 18.648C62.0512 18.2853 61.6138 18.104 61.0485 18.104C60.4832 18.104 60.0458 18.2853 59.7365 18.648C59.4272 19.0107 59.2565 19.5333 59.2245 20.216C59.2138 20.376 59.2085 20.584 59.2085 20.84C59.2085 21.096 59.2138 21.304 59.2245 21.464C59.2565 22.1573 59.4272 22.6853 59.7365 23.048C60.0458 23.4 60.4832 23.576 61.0485 23.576ZM69.4844 25C69.3137 25 69.1857 24.9627 69.1004 24.888C69.0257 24.8027 68.9617 24.7067 68.9084 24.6L65.9164 17.176C65.895 17.1227 65.8844 17.0747 65.8844 17.032C65.8844 16.936 65.9164 16.856 65.9804 16.792C66.055 16.7173 66.1404 16.68 66.2364 16.68H67.5324C67.6604 16.68 67.7564 16.7173 67.8204 16.792C67.8844 16.856 67.927 16.92 67.9484 16.984L70.0764 22.6L72.2044 16.984C72.2257 16.92 72.2684 16.856 72.3324 16.792C72.3964 16.7173 72.4924 16.68 72.6204 16.68H73.9324C74.0177 16.68 74.0924 16.7173 74.1564 16.792C74.231 16.856 74.2684 16.936 74.2684 17.032C74.2684 17.0747 74.263 17.1227 74.2524 17.176L71.2444 24.6C71.2017 24.7067 71.1377 24.8027 71.0524 24.888C70.967 24.9627 70.839 25 70.6684 25H69.4844ZM79.015 25.16C77.831 25.16 76.8923 24.8187 76.199 24.136C75.5057 23.4533 75.1323 22.4827 75.079 21.224C75.0683 21.1173 75.063 20.984 75.063 20.824C75.063 20.6533 75.0683 20.52 75.079 20.424C75.1217 19.624 75.303 18.9307 75.623 18.344C75.9537 17.7573 76.407 17.3093 76.983 17C77.559 16.68 78.2363 16.52 79.015 16.52C79.879 16.52 80.6043 16.7013 81.191 17.064C81.7777 17.416 82.2203 17.912 82.519 18.552C82.8177 19.1813 82.967 19.912 82.967 20.744V21.08C82.967 21.1867 82.9297 21.2773 82.855 21.352C82.7803 21.4267 82.6843 21.464 82.567 21.464H77.255C77.255 21.464 77.255 21.48 77.255 21.512C77.255 21.544 77.255 21.5707 77.255 21.592C77.2657 21.9653 77.335 22.312 77.463 22.632C77.6017 22.9413 77.799 23.192 78.055 23.384C78.3217 23.576 78.6363 23.672 78.999 23.672C79.2977 23.672 79.5483 23.6293 79.751 23.544C79.9537 23.448 80.119 23.3413 80.247 23.224C80.375 23.1067 80.4657 23.0107 80.519 22.936C80.615 22.808 80.6897 22.7333 80.743 22.712C80.807 22.68 80.8977 22.664 81.015 22.664H82.391C82.4977 22.664 82.583 22.696 82.647 22.76C82.7217 22.824 82.7537 22.904 82.743 23C82.7323 23.1707 82.6417 23.3787 82.471 23.624C82.311 23.8693 82.0763 24.1093 81.767 24.344C81.4577 24.5787 81.0683 24.776 80.599 24.936C80.1403 25.0853 79.6123 25.16 79.015 25.16ZM77.255 20.12H80.791V20.072C80.791 19.656 80.7217 19.2933 80.583 18.984C80.4443 18.6747 80.2417 18.4293 79.975 18.248C79.7083 18.0667 79.3883 17.976 79.015 17.976C78.6417 17.976 78.3217 18.0667 78.055 18.248C77.7883 18.4293 77.5857 18.6747 77.447 18.984C77.319 19.2933 77.255 19.656 77.255 20.072V20.12Z" fill="white"/>
</g>
<defs>
<clipPath id="clip0_6309_21232">
<rect width="105" height="40" rx="20" fill="white"/>
</clipPath>
</defs>
</svg>
