<svg width="20" height="20" viewBox="0 0 20 20" fill="none" xmlns="http://www.w3.org/2000/svg">
<path opacity="0.4" d="M20 14.084V5.916C20 2.377 17.724 0 14.335 0H5.665C2.276 0 0 2.377 0 5.916V14.084C0 17.622 2.277 20 5.666 20H14.335C17.724 20 20 17.622 20 14.084Z" fill="#3E66FB"/>
<path d="M14.2792 9.14503L10.5312 5.38003C10.2492 5.09703 9.75018 5.09703 9.46718 5.38003L5.71918 9.14503C5.42718 9.43903 5.42818 9.91403 5.72218 10.206C6.01618 10.498 6.49018 10.498 6.78318 10.204L9.25018 7.72703V14.082C9.25018 14.497 9.58618 14.832 10.0002 14.832C10.4142 14.832 10.7502 14.497 10.7502 14.082V7.72703L13.2162 10.204C13.3632 10.351 13.5552 10.424 13.7482 10.424C13.9392 10.424 14.1312 10.351 14.2772 10.206C14.5702 9.91403 14.5712 9.43903 14.2792 9.14503Z" fill="#3E66FB"/>
</svg>
