<svg width="20" height="20" viewBox="0 0 20 20" fill="none" xmlns="http://www.w3.org/2000/svg">
<path opacity="0.4" d="M-5.17193e-07 5.916L-1.23126e-06 14.084C-1.54065e-06 17.623 2.276 20 5.665 20L14.335 20C17.724 20 20 17.623 20 14.084L20 5.916C20 2.378 17.723 1.54939e-06 14.334 1.25312e-06L5.665 4.9525e-07C2.276 1.98974e-07 -2.07891e-07 2.378 -5.17193e-07 5.916Z" fill="#3E66FB"/>
<path d="M5.72082 10.855L9.46882 14.62C9.75082 14.903 10.2498 14.903 10.5328 14.62L14.2808 10.855C14.5728 10.561 14.5718 10.086 14.2778 9.79397C13.9838 9.50197 13.5098 9.50197 13.2168 9.79597L10.7498 12.273L10.7498 5.91797C10.7498 5.50297 10.4138 5.16797 9.99982 5.16797C9.58582 5.16797 9.24982 5.50297 9.24982 5.91797L9.24982 12.273L6.78382 9.79597C6.63682 9.64897 6.44482 9.57597 6.25182 9.57597C6.06082 9.57597 5.86882 9.64897 5.72282 9.79397C5.42982 10.086 5.42882 10.561 5.72082 10.855Z" fill="#3E66FB"/>
</svg>
