<svg width="20" height="20" viewBox="0 0 20 20" fill="none" xmlns="http://www.w3.org/2000/svg">
<g opacity="0.4">
<path d="M5.91588 20H14.0839C17.6229 20 19.9999 17.724 19.9999 14.335V5.665C19.9999 2.276 17.6229 0 14.0839 0H5.91588C2.37788 0 -0.00012207 2.277 -0.00012207 5.666L-0.00012207 14.335C-0.00012207 17.724 2.37788 20 5.91588 20Z" fill="#3E66FB"/>
<path d="M5.91588 20H14.0839C17.6229 20 19.9999 17.724 19.9999 14.335V5.665C19.9999 2.276 17.6229 0 14.0839 0H5.91588C2.37788 0 -0.00012207 2.277 -0.00012207 5.666L-0.00012207 14.335C-0.00012207 17.724 2.37788 20 5.91588 20Z" fill="white" fill-opacity="0.5"/>
</g>
<path d="M10.8553 14.2797L14.6203 10.5317C14.9033 10.2497 14.9033 9.75067 14.6203 9.46767L10.8553 5.71967C10.5613 5.42767 10.0863 5.42867 9.79433 5.72267C9.50234 6.01667 9.50233 6.49067 9.79633 6.78367L12.2733 9.25067H5.91833C5.50333 9.25067 5.16833 9.58667 5.16833 10.0007C5.16833 10.4147 5.50333 10.7507 5.91833 10.7507H12.2733L9.79633 13.2167C9.64933 13.3637 9.57633 13.5557 9.57633 13.7487C9.57633 13.9397 9.64933 14.1317 9.79433 14.2777C10.0863 14.5707 10.5613 14.5717 10.8553 14.2797Z" fill="white"/>
</svg>
