<svg width="24" height="25" viewBox="0 0 24 25" fill="none" xmlns="http://www.w3.org/2000/svg">
<path d="M17.7391 14.4696C17.4609 14.3304 16 13.4957 15.7217 13.4261C15.4435 13.3565 15.2348 13.287 15.0261 13.5652C14.8174 13.8435 14.1913 14.5391 14.0522 14.6783C13.8435 14.887 13.7043 14.887 13.4261 14.7478C13.1478 14.6087 12.1739 14.2609 11.0609 13.1478C10.2261 12.313 9.6 11.3391 9.46087 10.9913C9.32174 10.713 9.46087 10.5043 9.6 10.3652C9.73913 10.2261 9.87826 10.0174 10.087 9.87826C10.2261 9.73913 10.2957 9.6 10.4348 9.3913C10.5739 9.18261 10.5043 9.04348 10.4348 8.83478C10.3652 8.62609 9.8087 7.16522 9.6 6.53913C9.3913 5.91304 9.11304 6.05217 8.97391 5.98261C8.76522 5.98261 8.62609 5.91304 8.41739 5.91304C8.13913 5.91304 7.7913 6.05217 7.58261 6.26087C7.30435 6.53913 6.46957 7.23478 6.46957 8.69565C6.4 10.1565 7.44348 11.687 7.58261 11.8261C7.72174 12.0348 9.53043 15.2348 12.5217 16.5565C15.513 17.8783 15.513 17.4609 16.0696 17.4609C16.6261 17.4609 17.8783 16.7652 18.1565 16.1391C18.4348 15.4435 18.4348 14.8174 18.3652 14.7478C18.2957 14.6783 18.0174 14.6087 17.7391 14.4696ZM12.1739 21.5652C10.2261 21.5652 8.41739 21.0087 6.81739 19.9652L3.06087 21.1478L4.31304 17.5304C3.13043 15.8609 2.43478 13.8435 2.43478 11.7565C2.43478 6.33043 6.81739 1.94783 12.2435 1.94783C17.6696 1.94783 22.0522 6.33043 22.0522 11.7565C22.0522 17.1826 17.6 21.5652 12.1739 21.5652ZM12.1739 0C5.70435 0 0.417391 5.28696 0.417391 11.7565C0.417391 13.913 0.973913 16 2.08696 17.8087L0 24.1391L6.53913 22.0522C8.27826 23.0261 10.2261 23.513 12.2435 23.513C18.713 23.513 24 18.2261 24 11.7565C24 5.28696 18.713 0 12.1739 0Z" fill="#C2C9D1"/>
<path d="M17.7391 14.4696C17.4609 14.3304 16 13.4957 15.7217 13.4261C15.4435 13.3565 15.2348 13.287 15.0261 13.5652C14.8174 13.8435 14.1913 14.5391 14.0522 14.6783C13.8435 14.887 13.7043 14.887 13.4261 14.7478C13.1478 14.6087 12.1739 14.2609 11.0609 13.1478C10.2261 12.313 9.6 11.3391 9.46087 10.9913C9.32174 10.713 9.46087 10.5043 9.6 10.3652C9.73913 10.2261 9.87826 10.0174 10.087 9.87826C10.2261 9.73913 10.2957 9.6 10.4348 9.3913C10.5739 9.18261 10.5043 9.04348 10.4348 8.83478C10.3652 8.62609 9.8087 7.16522 9.6 6.53913C9.3913 5.91304 9.11304 6.05217 8.97391 5.98261C8.76522 5.98261 8.62609 5.91304 8.41739 5.91304C8.13913 5.91304 7.7913 6.05217 7.58261 6.26087C7.30435 6.53913 6.46957 7.23478 6.46957 8.69565C6.4 10.1565 7.44348 11.687 7.58261 11.8261C7.72174 12.0348 9.53043 15.2348 12.5217 16.5565C15.513 17.8783 15.513 17.4609 16.0696 17.4609C16.6261 17.4609 17.8783 16.7652 18.1565 16.1391C18.4348 15.4435 18.4348 14.8174 18.3652 14.7478C18.2957 14.6783 18.0174 14.6087 17.7391 14.4696ZM12.1739 21.5652C10.2261 21.5652 8.41739 21.0087 6.81739 19.9652L3.06087 21.1478L4.31304 17.5304C3.13043 15.8609 2.43478 13.8435 2.43478 11.7565C2.43478 6.33043 6.81739 1.94783 12.2435 1.94783C17.6696 1.94783 22.0522 6.33043 22.0522 11.7565C22.0522 17.1826 17.6 21.5652 12.1739 21.5652ZM12.1739 0C5.70435 0 0.417391 5.28696 0.417391 11.7565C0.417391 13.913 0.973913 16 2.08696 17.8087L0 24.1391L6.53913 22.0522C8.27826 23.0261 10.2261 23.513 12.2435 23.513C18.713 23.513 24 18.2261 24 11.7565C24 5.28696 18.713 0 12.1739 0Z" fill="black" fill-opacity="0.25"/>
</svg>
