<svg width="21" height="20" viewBox="0 0 21 20" fill="none" xmlns="http://www.w3.org/2000/svg">
<path d="M18.4401 10.9994C18.2201 10.9994 17.9901 10.9294 17.7701 10.8794C17.3246 10.7812 16.8868 10.6509 16.4601 10.4894C15.9962 10.3206 15.4862 10.3294 15.0284 10.514C14.5706 10.6986 14.1972 11.046 13.9801 11.4894L13.7601 11.9394C12.7861 11.3976 11.8911 10.7246 11.1001 9.93938C10.3149 9.14839 9.64192 8.25338 9.1001 7.27938L9.5201 6.99938C9.96347 6.7823 10.3109 6.40891 10.4955 5.95107C10.6801 5.49323 10.6889 4.98329 10.5201 4.51938C10.3613 4.0918 10.231 3.65418 10.1301 3.20938C10.0801 2.98938 10.0401 2.75938 10.0101 2.52938C9.88866 1.825 9.51972 1.18712 8.96972 0.730619C8.41972 0.274116 7.7248 0.0289887 7.0101 0.0393798H4.0101C3.57913 0.0353333 3.15235 0.124193 2.75881 0.29991C2.36527 0.475627 2.01421 0.734076 1.72953 1.05766C1.44485 1.38125 1.23324 1.76237 1.10909 2.17509C0.984942 2.58781 0.95118 3.02244 1.0101 3.44938C1.54284 7.63876 3.45613 11.5313 6.44775 14.512C9.43937 17.4928 13.3388 19.3919 17.5301 19.9094H17.9101C18.6475 19.9105 19.3595 19.6399 19.9101 19.1494C20.2265 18.8664 20.4792 18.5196 20.6516 18.1317C20.8239 17.7438 20.9121 17.3238 20.9101 16.8994V13.8994C20.8979 13.2048 20.6449 12.5359 20.1944 12.007C19.744 11.4782 19.1239 11.122 18.4401 10.9994ZM18.9401 16.9994C18.9399 17.1414 18.9095 17.2817 18.8509 17.411C18.7923 17.5403 18.7068 17.6557 18.6001 17.7494C18.4887 17.8464 18.3581 17.9188 18.2168 17.9619C18.0755 18.005 17.9267 18.0177 17.7801 17.9994C14.035 17.5192 10.5563 15.8059 7.89282 13.1297C5.2293 10.4535 3.53251 6.96672 3.0701 3.21938C3.05419 3.0729 3.06813 2.92471 3.1111 2.78377C3.15407 2.64283 3.22517 2.51207 3.3201 2.39938C3.41381 2.29271 3.52916 2.20722 3.65848 2.1486C3.7878 2.08997 3.92812 2.05956 4.0701 2.05938H7.0701C7.30265 2.0542 7.52972 2.13026 7.71224 2.27445C7.89476 2.41864 8.02131 2.62195 8.0701 2.84938C8.1101 3.12271 8.1601 3.39271 8.2201 3.65938C8.33562 4.18652 8.48936 4.70456 8.6801 5.20938L7.2801 5.85938C7.1604 5.9143 7.05272 5.99233 6.96326 6.08897C6.87379 6.18562 6.8043 6.29899 6.75877 6.42257C6.71324 6.54615 6.69257 6.67751 6.69795 6.8091C6.70332 6.94069 6.73464 7.06992 6.7901 7.18938C8.2293 10.2721 10.7073 12.7502 13.7901 14.1894C14.0336 14.2894 14.3066 14.2894 14.5501 14.1894C14.6748 14.1448 14.7894 14.0758 14.8873 13.9866C14.9851 13.8973 15.0643 13.7895 15.1201 13.6694L15.7401 12.2694C16.2571 12.4543 16.7847 12.6079 17.3201 12.7294C17.5868 12.7894 17.8568 12.8394 18.1301 12.8794C18.3575 12.9282 18.5608 13.0547 18.705 13.2372C18.8492 13.4198 18.9253 13.6468 18.9201 13.8794L18.9401 16.9994Z" fill="#C2C9D1"/>
<path d="M18.4401 10.9994C18.2201 10.9994 17.9901 10.9294 17.7701 10.8794C17.3246 10.7812 16.8868 10.6509 16.4601 10.4894C15.9962 10.3206 15.4862 10.3294 15.0284 10.514C14.5706 10.6986 14.1972 11.046 13.9801 11.4894L13.7601 11.9394C12.7861 11.3976 11.8911 10.7246 11.1001 9.93938C10.3149 9.14839 9.64192 8.25338 9.1001 7.27938L9.5201 6.99938C9.96347 6.7823 10.3109 6.40891 10.4955 5.95107C10.6801 5.49323 10.6889 4.98329 10.5201 4.51938C10.3613 4.0918 10.231 3.65418 10.1301 3.20938C10.0801 2.98938 10.0401 2.75938 10.0101 2.52938C9.88866 1.825 9.51972 1.18712 8.96972 0.730619C8.41972 0.274116 7.7248 0.0289887 7.0101 0.0393798H4.0101C3.57913 0.0353333 3.15235 0.124193 2.75881 0.29991C2.36527 0.475627 2.01421 0.734076 1.72953 1.05766C1.44485 1.38125 1.23324 1.76237 1.10909 2.17509C0.984942 2.58781 0.95118 3.02244 1.0101 3.44938C1.54284 7.63876 3.45613 11.5313 6.44775 14.512C9.43937 17.4928 13.3388 19.3919 17.5301 19.9094H17.9101C18.6475 19.9105 19.3595 19.6399 19.9101 19.1494C20.2265 18.8664 20.4792 18.5196 20.6516 18.1317C20.8239 17.7438 20.9121 17.3238 20.9101 16.8994V13.8994C20.8979 13.2048 20.6449 12.5359 20.1944 12.007C19.744 11.4782 19.1239 11.122 18.4401 10.9994ZM18.9401 16.9994C18.9399 17.1414 18.9095 17.2817 18.8509 17.411C18.7923 17.5403 18.7068 17.6557 18.6001 17.7494C18.4887 17.8464 18.3581 17.9188 18.2168 17.9619C18.0755 18.005 17.9267 18.0177 17.7801 17.9994C14.035 17.5192 10.5563 15.8059 7.89282 13.1297C5.2293 10.4535 3.53251 6.96672 3.0701 3.21938C3.05419 3.0729 3.06813 2.92471 3.1111 2.78377C3.15407 2.64283 3.22517 2.51207 3.3201 2.39938C3.41381 2.29271 3.52916 2.20722 3.65848 2.1486C3.7878 2.08997 3.92812 2.05956 4.0701 2.05938H7.0701C7.30265 2.0542 7.52972 2.13026 7.71224 2.27445C7.89476 2.41864 8.02131 2.62195 8.0701 2.84938C8.1101 3.12271 8.1601 3.39271 8.2201 3.65938C8.33562 4.18652 8.48936 4.70456 8.6801 5.20938L7.2801 5.85938C7.1604 5.9143 7.05272 5.99233 6.96326 6.08897C6.87379 6.18562 6.8043 6.29899 6.75877 6.42257C6.71324 6.54615 6.69257 6.67751 6.69795 6.8091C6.70332 6.94069 6.73464 7.06992 6.7901 7.18938C8.2293 10.2721 10.7073 12.7502 13.7901 14.1894C14.0336 14.2894 14.3066 14.2894 14.5501 14.1894C14.6748 14.1448 14.7894 14.0758 14.8873 13.9866C14.9851 13.8973 15.0643 13.7895 15.1201 13.6694L15.7401 12.2694C16.2571 12.4543 16.7847 12.6079 17.3201 12.7294C17.5868 12.7894 17.8568 12.8394 18.1301 12.8794C18.3575 12.9282 18.5608 13.0547 18.705 13.2372C18.8492 13.4198 18.9253 13.6468 18.9201 13.8794L18.9401 16.9994Z" fill="black" fill-opacity="0.25"/>
</svg>
