<svg width="46" height="67" viewBox="0 0 46 67" fill="none" xmlns="http://www.w3.org/2000/svg">
<path fill-rule="evenodd" clip-rule="evenodd" d="M0.976534 0.29204C-0.0134989 0.859642 -0.0293235 0.948183 0.0114811 5.68478L0.0474468 9.86986L6.68472 21.7594C10.3353 28.2986 13.322 33.69 13.322 33.7403C13.322 33.7906 13.013 34.0379 12.6354 34.2901C10.4548 35.7458 8.16938 38.4077 6.8775 40.9964C4.40059 45.9593 4.44126 52.3377 6.98043 57.1186C7.90598 58.8615 8.72587 59.9948 10.0829 61.4076C12.6984 64.1306 15.9484 65.9044 19.6951 66.6538C21.4229 66.9995 24.8537 66.9658 26.6272 66.5858C32.0763 65.4182 36.7255 61.7946 39.1553 56.8212C41.6277 51.7607 41.5652 45.7647 38.9879 40.7546C37.7863 38.4185 35.7327 36.012 33.6478 34.4963C33.1235 34.1152 32.6907 33.7692 32.6862 33.7273C32.6817 33.6855 35.6648 28.3004 39.3153 21.7606L45.9526 9.86986L45.9885 5.68478C46.0293 0.948183 46.0135 0.859642 45.0235 0.29204L44.5139 0H23H1.48607L0.976534 0.29204ZM14.8914 16.1039C14.8914 22.8054 14.8574 28.2547 14.8159 28.2132C14.7745 28.1716 12.3035 23.7626 9.32459 18.4153L3.90871 8.69281L3.90714 6.306L3.90557 3.9192H9.39849H14.8914V16.1039ZM27.1851 17.6515C27.1851 25.2043 27.1358 31.3838 27.0756 31.3838C27.0153 31.3838 26.3827 31.2959 25.6697 31.1884C24.0172 30.9394 21.9828 30.9394 20.3303 31.1884C19.6173 31.2959 18.9847 31.3838 18.9244 31.3838C18.8642 31.3838 18.8149 25.2043 18.8149 17.6515V3.9192H23H27.1851V17.6515ZM42.0929 6.306L42.0913 8.69281L36.6754 18.4153C33.6965 23.7626 31.2255 28.1716 31.1841 28.2132C31.1426 28.2547 31.1086 22.8054 31.1086 16.1039V3.9192H36.6015H42.0944L42.0929 6.306ZM25.3956 35.1106C31.6193 36.196 36.3906 41.3548 36.9854 47.6418C37.6356 54.5145 33.2098 60.7956 26.4445 62.6015C25.3025 62.9064 24.9156 62.9449 23 62.9449C21.0844 62.9449 20.6976 62.9064 19.5555 62.6015C10.8081 60.2665 6.45141 50.7518 10.4414 42.6966C12.4125 38.7171 16.1595 35.9068 20.5583 35.1086C21.847 34.8748 24.0488 34.8757 25.3956 35.1106ZM14.58 43.1547C14.3728 43.2191 14.0562 43.4071 13.8765 43.5726C13.2186 44.1788 13.1912 44.396 13.1915 49.0027C13.1916 52.8234 13.2165 53.3396 13.4203 53.7452C14.1237 55.1454 16.1768 55.1454 16.8883 53.7452C17.0984 53.3319 17.1164 52.8792 17.0845 48.8202C17.0508 44.5384 17.038 44.3349 16.7797 43.9893C16.2104 43.2271 15.372 42.9091 14.58 43.1547ZM22.427 43.1547C22.2199 43.2191 21.9032 43.4071 21.7236 43.5726C21.0656 44.1788 21.0382 44.396 21.0385 49.0027C21.0386 52.8234 21.0635 53.3396 21.2674 53.7452C21.9707 55.1454 24.0238 55.1454 24.7354 53.7452C24.9454 53.3319 24.9635 52.8792 24.9315 48.8202C24.8978 44.5384 24.885 44.3349 24.6267 43.9893C24.0574 43.2271 23.2191 42.9091 22.427 43.1547ZM30.2741 43.1547C30.0669 43.2191 29.7503 43.4071 29.5706 43.5726C28.9126 44.1788 28.8853 44.396 28.8855 49.0027C28.8857 52.8234 28.9105 53.3396 29.1144 53.7452C29.8178 55.1454 31.8708 55.1454 32.5824 53.7452C32.7924 53.3319 32.8105 52.8792 32.7786 48.8202C32.7448 44.5384 32.732 44.3349 32.4737 43.9893C31.9044 43.2271 31.0661 42.9091 30.2741 43.1547Z" fill="#C2C9D1"/>
<path fill-rule="evenodd" clip-rule="evenodd" d="M0.976534 0.29204C-0.0134989 0.859642 -0.0293235 0.948183 0.0114811 5.68478L0.0474468 9.86986L6.68472 21.7594C10.3353 28.2986 13.322 33.69 13.322 33.7403C13.322 33.7906 13.013 34.0379 12.6354 34.2901C10.4548 35.7458 8.16938 38.4077 6.8775 40.9964C4.40059 45.9593 4.44126 52.3377 6.98043 57.1186C7.90598 58.8615 8.72587 59.9948 10.0829 61.4076C12.6984 64.1306 15.9484 65.9044 19.6951 66.6538C21.4229 66.9995 24.8537 66.9658 26.6272 66.5858C32.0763 65.4182 36.7255 61.7946 39.1553 56.8212C41.6277 51.7607 41.5652 45.7647 38.9879 40.7546C37.7863 38.4185 35.7327 36.012 33.6478 34.4963C33.1235 34.1152 32.6907 33.7692 32.6862 33.7273C32.6817 33.6855 35.6648 28.3004 39.3153 21.7606L45.9526 9.86986L45.9885 5.68478C46.0293 0.948183 46.0135 0.859642 45.0235 0.29204L44.5139 0H23H1.48607L0.976534 0.29204ZM14.8914 16.1039C14.8914 22.8054 14.8574 28.2547 14.8159 28.2132C14.7745 28.1716 12.3035 23.7626 9.32459 18.4153L3.90871 8.69281L3.90714 6.306L3.90557 3.9192H9.39849H14.8914V16.1039ZM27.1851 17.6515C27.1851 25.2043 27.1358 31.3838 27.0756 31.3838C27.0153 31.3838 26.3827 31.2959 25.6697 31.1884C24.0172 30.9394 21.9828 30.9394 20.3303 31.1884C19.6173 31.2959 18.9847 31.3838 18.9244 31.3838C18.8642 31.3838 18.8149 25.2043 18.8149 17.6515V3.9192H23H27.1851V17.6515ZM42.0929 6.306L42.0913 8.69281L36.6754 18.4153C33.6965 23.7626 31.2255 28.1716 31.1841 28.2132C31.1426 28.2547 31.1086 22.8054 31.1086 16.1039V3.9192H36.6015H42.0944L42.0929 6.306ZM25.3956 35.1106C31.6193 36.196 36.3906 41.3548 36.9854 47.6418C37.6356 54.5145 33.2098 60.7956 26.4445 62.6015C25.3025 62.9064 24.9156 62.9449 23 62.9449C21.0844 62.9449 20.6976 62.9064 19.5555 62.6015C10.8081 60.2665 6.45141 50.7518 10.4414 42.6966C12.4125 38.7171 16.1595 35.9068 20.5583 35.1086C21.847 34.8748 24.0488 34.8757 25.3956 35.1106ZM14.58 43.1547C14.3728 43.2191 14.0562 43.4071 13.8765 43.5726C13.2186 44.1788 13.1912 44.396 13.1915 49.0027C13.1916 52.8234 13.2165 53.3396 13.4203 53.7452C14.1237 55.1454 16.1768 55.1454 16.8883 53.7452C17.0984 53.3319 17.1164 52.8792 17.0845 48.8202C17.0508 44.5384 17.038 44.3349 16.7797 43.9893C16.2104 43.2271 15.372 42.9091 14.58 43.1547ZM22.427 43.1547C22.2199 43.2191 21.9032 43.4071 21.7236 43.5726C21.0656 44.1788 21.0382 44.396 21.0385 49.0027C21.0386 52.8234 21.0635 53.3396 21.2674 53.7452C21.9707 55.1454 24.0238 55.1454 24.7354 53.7452C24.9454 53.3319 24.9635 52.8792 24.9315 48.8202C24.8978 44.5384 24.885 44.3349 24.6267 43.9893C24.0574 43.2271 23.2191 42.9091 22.427 43.1547ZM30.2741 43.1547C30.0669 43.2191 29.7503 43.4071 29.5706 43.5726C28.9126 44.1788 28.8853 44.396 28.8855 49.0027C28.8857 52.8234 28.9105 53.3396 29.1144 53.7452C29.8178 55.1454 31.8708 55.1454 32.5824 53.7452C32.7924 53.3319 32.8105 52.8792 32.7786 48.8202C32.7448 44.5384 32.732 44.3349 32.4737 43.9893C31.9044 43.2271 31.0661 42.9091 30.2741 43.1547Z" fill="black" fill-opacity="0.25"/>
</svg>
