<svg width="9" height="6" viewBox="0 0 9 6" fill="none" xmlns="http://www.w3.org/2000/svg">
<path d="M8.5206 0.423589C8.3742 0.277999 8.1761 0.196289 7.9696 0.196289C7.7631 0.196289 7.5649 0.277999 7.4185 0.423589L4.61236 3.1906L1.84531 0.423589C1.69885 0.277999 1.50074 0.196289 1.29424 0.196289C1.08774 0.196289 0.889633 0.277999 0.743173 0.423589C0.669913 0.496249 0.611763 0.582699 0.572083 0.677959C0.532393 0.773209 0.511963 0.875369 0.511963 0.978559C0.511963 1.08175 0.532393 1.18392 0.572083 1.27917C0.611763 1.37442 0.669913 1.46087 0.743173 1.53354L4.05739 4.8477C4.13005 4.921 4.2165 4.9792 4.31175 5.0188C4.40701 5.0585 4.50917 5.079 4.61236 5.079C4.71555 5.079 4.81771 5.0585 4.91297 5.0188C5.0082 4.9792 5.0947 4.921 5.1673 4.8477L8.5206 1.53354C8.5939 1.46087 8.652 1.37442 8.6917 1.27917C8.7314 1.18392 8.7518 1.08175 8.7518 0.978559C8.7518 0.875369 8.7314 0.773209 8.6917 0.677959C8.652 0.582699 8.5939 0.496249 8.5206 0.423589Z" fill="#B57BFF"/>
</svg>
