<svg width="20" height="20" viewBox="0 0 20 20" fill="none" xmlns="http://www.w3.org/2000/svg">
<path d="M14.1666 7.64076C14.0105 7.48556 13.7993 7.39844 13.5791 7.39844C13.359 7.39844 13.1478 7.48556 12.9916 7.64076L9.99998 10.5908L7.04998 7.64076C6.89384 7.48556 6.68263 7.39844 6.46248 7.39844C6.24232 7.39844 6.03111 7.48556 5.87498 7.64076C5.79687 7.71823 5.73488 7.8104 5.69257 7.91195C5.65026 8.0135 5.62848 8.12242 5.62848 8.23243C5.62848 8.34244 5.65026 8.45136 5.69257 8.55291C5.73488 8.65446 5.79687 8.74663 5.87498 8.8241L9.40831 12.3574C9.48578 12.4355 9.57795 12.4975 9.6795 12.5398C9.78105 12.5821 9.88997 12.6039 9.99998 12.6039C10.11 12.6039 10.2189 12.5821 10.3205 12.5398C10.422 12.4975 10.5142 12.4355 10.5916 12.3574L14.1666 8.8241C14.2448 8.74663 14.3067 8.65446 14.3491 8.55291C14.3914 8.45136 14.4131 8.34244 14.4131 8.23243C14.4131 8.12242 14.3914 8.0135 14.3491 7.91195C14.3067 7.8104 14.2448 7.71823 14.1666 7.64076Z" fill="#ffffff"/>
</svg>
