<svg width="24" height="24" viewBox="0 0 24 24" fill="none" xmlns="http://www.w3.org/2000/svg">
<circle cx="12" cy="12" r="12" fill="#B57BFF"/>
<path fill-rule="evenodd" clip-rule="evenodd" d="M10.9741 9.90918C10.6812 9.61625 10.2064 9.61621 9.91345 9.90907C9.62053 10.2019 9.62048 10.6768 9.91334 10.9697L10.9385 11.9951L9.91498 13.0187C9.62209 13.3116 9.62209 13.7865 9.91498 14.0794C10.2079 14.3723 10.6827 14.3723 10.9756 14.0794L11.9991 13.0559L13.0243 14.0813C13.3171 14.3742 13.792 14.3743 14.0849 14.0814C14.3778 13.7885 14.3779 13.3137 14.085 13.0207L13.0598 11.9953L14.084 10.9711C14.3769 10.6782 14.3769 10.2033 14.084 9.91039C13.7911 9.6175 13.3162 9.6175 13.0233 9.91039L11.9992 10.9345L10.9741 9.90918Z" fill="white"/>
<path fill-rule="evenodd" clip-rule="evenodd" d="M14.8112 6H9.18811C7.22854 6 6 7.38746 6 9.35092V14.6491C6 16.6125 7.2227 18 9.18811 18H14.8106C16.7766 18 18 16.6125 18 14.6491V9.35092C18 7.38746 16.7766 6 14.8112 6Z" stroke="white" stroke-width="1.5" stroke-linecap="round" stroke-linejoin="round"/>
</svg>
