<svg xmlns="http://www.w3.org/2000/svg" xmlns:xlink="http://www.w3.org/1999/xlink" width="402" height="227" viewBox="0 0 402 227">
  <defs>
    <clipPath id="clip-path">
      <rect id="Rectangle_4" data-name="Rectangle 4" width="402" height="227" transform="translate(1075 447)" fill="none" stroke="#707070" stroke-width="1"/>
    </clipPath>
    <clipPath id="clip-path-2">
      <rect id="Rectangle_1" data-name="Rectangle 1" width="324" height="261.346" fill="#fff"/>
    </clipPath>
  </defs>
  <g id="crisis-left-card-img" transform="translate(-1075 -447)" clip-path="url(#clip-path)">
    <g id="crisis-icon-1">
      <g id="undraw_warning_cyit_1" data-name="undraw_warning_cyit 1" transform="translate(1103 427)" clip-path="url(#clip-path-2)">
        <path id="Path_1" data-name="Path 1" d="M53.987,205.887c29.817,0,53.988-3.747,53.988-8.369S83.8,189.15,53.987,189.15,0,192.9,0,197.518,24.171,205.887,53.987,205.887Z" fill="#f03738" opacity="0.1"/>
        <path id="Path_2" data-name="Path 2" d="M79.936,245.752c11.6,0,21-1.942,21-4.338s-9.4-4.338-21-4.338-21,1.942-21,4.338S68.339,245.752,79.936,245.752Z" fill="#f03738" opacity="0.1"/>
        <path id="Path_3" data-name="Path 3" d="M223.42,229.064c11.6,0,21-1.942,21-4.337s-9.4-4.338-21-4.338-21,1.942-21,4.338S211.823,229.064,223.42,229.064Z" fill="#f03738" opacity="0.1"/>
        <path id="Path_4" data-name="Path 4" d="M152.166,225.423c18.859,0,34.147-2.59,34.147-5.785s-15.288-5.784-34.147-5.784-34.147,2.589-34.147,5.784S133.307,225.423,152.166,225.423Z" fill="#f03738" opacity="0.1"/>
        <path id="Path_5" data-name="Path 5" d="M252.78,202.158C292.116,202.158,324,197.164,324,191s-31.887-11.155-71.223-11.155S181.558,184.842,181.558,191,213.445,202.158,252.78,202.158Z" fill="#f03738" opacity="0.1"/>
        <path id="Path_6" data-name="Path 6" d="M14.762,171.533a19.818,19.818,0,0,0,1.033,19.9,4.922,4.922,0,0,0,1.667,1.8c2.213.869,6.645,3.007,6.645,3.007l10.672-4.194s1.733-9.165,3.371-17.034c1.117-5.367,2.2-10.129,2.64-10.964,1.1-2.056,0-24.438,0-24.438s-10.672-.716-13.607,7.511L25.9,149.628Z" fill="#a8a8a8"/>
        <path id="Path_7" data-name="Path 7" d="M28.93,174.008c6.488,7.435,9.225,1,9.225,1,1.117-5.367,2.2-10.129,2.64-10.964,1.1-2.056,0-24.439,0-24.439s-10.672-.715-13.607,7.512L25.9,149.632C25.082,156.214,24.269,168.656,28.93,174.008Z" fill="#fff" opacity="0.1"/>
        <path id="Path_8" data-name="Path 8" d="M30.355,194.732l37.666-4.35,6.72-44.22L69.66,134.677a46.53,46.53,0,0,0-8.789-13.258,26.969,26.969,0,0,0-8.9-6.592,13.3,13.3,0,0,0-1.359-.464,3.521,3.521,0,0,0-3.139.555c-4.646,3.293-6.306,17.292-6.843,24.031a75.2,75.2,0,0,1-1.121,8.252Z" fill="#a8a8a8"/>
        <path id="Path_9" data-name="Path 9" d="M55.431,145.684l-7.847,19.3c4.112-3.007,10.2-19.382,10.2-19.382l5.458,18.669L58.9,144.6a61.547,61.547,0,0,0,.552-12.913c-.345-4.94-4.981-12.869-7.5-16.862a13.3,13.3,0,0,0-1.359-.464,3.517,3.517,0,0,0-3.139.556c1.977,3.97,6.921,13.9,8.428,16.849C57.792,135.48,55.431,145.684,55.431,145.684Z" fill="#fff" opacity="0.1"/>
        <path id="Path_10" data-name="Path 10" d="M61.838,196.236H82.274a6.2,6.2,0,0,0,6.193-6.513c-.452-8.764-1.6-24.389-4.322-34.308-1.472-5.351-3.183-8.16-4.752-9.545a4.637,4.637,0,0,0-2.7-1.271,3.55,3.55,0,0,0-2.2.534c-3.795,3.638-8.227,22.781-8.227,22.781Z" fill="#a8a8a8"/>
        <path id="Path_11" data-name="Path 11" d="M80.7,179.257a10.033,10.033,0,0,1,0,7.643l-4.554,2.251S63.909,183.962,65.4,173.328c0,0,.4-2.2,4.617-2.028A11.95,11.95,0,0,1,80.7,179.257Z" fill="#fff" opacity="0.1"/>
        <path id="Path_12" data-name="Path 12" d="M75.84,151.3c-.141-3.729,1.883-5.022,3.556-5.433a4.637,4.637,0,0,0-2.7-1.271,7.174,7.174,0,0,0-2.357,3.766l-4.269,20.807S76.078,157.551,75.84,151.3Z" fill="#fff" opacity="0.1"/>
        <path id="Path_13" data-name="Path 13" d="M56.461,167.756,66.58,181.6l1.755,11.425-6.5,3.211-9.376,2.072a9.029,9.029,0,0,1-2.753.179l-25.584-2.251,3.481-8.07,12.022-16.877Z" fill="#a8a8a8"/>
        <path id="Path_14" data-name="Path 14" d="M52.543,163.005s6.905.474,4.313,12.339S27.587,188.16,27.587,188.16a70.1,70.1,0,0,1,14.388-17.242c.979-.806,1.924-1.647,2.825-2.545C46.806,166.367,50.641,162.842,52.543,163.005Z" fill="#fff" opacity="0.1"/>
        <path id="Path_15" data-name="Path 15" d="M58.755,171.949s9.357,8.516,8.475,21.62Z" opacity="0.1"/>
        <path id="Path_16" data-name="Path 16" d="M74.5,145.133a65.371,65.371,0,0,0-10.92,33.149Z" opacity="0.1"/>
        <path id="Path_17" data-name="Path 17" d="M40.8,139.6s4.752,21.579-7.113,37.844Z" opacity="0.1"/>
        <path id="Path_18" data-name="Path 18" d="M127.351,219.519h51.206a2.868,2.868,0,0,0,2.511-4.228l-25.59-47.547a2.867,2.867,0,0,0-5.048,0l-25.6,47.547a2.869,2.869,0,0,0,2.524,4.228Zm28.861-8.688H149.7v-6.513h6.516Zm0-10.858H149.7V186.944h6.516Z" fill="#f03738"/>
        <path id="Path_19" data-name="Path 19" d="M127.351,219.519h51.206a2.868,2.868,0,0,0,2.511-4.228l-25.59-47.547a2.867,2.867,0,0,0-5.048,0l-25.6,47.547a2.869,2.869,0,0,0,2.524,4.228Zm28.861-8.688H149.7v-6.513h6.516Zm0-10.858H149.7V186.944h6.516Z" fill="rgba(255,255,255,0.5)"/>
        <g id="Group_1" data-name="Group 1" opacity="0.1">
          <path id="Path_20" data-name="Path 20" d="M127.351,219.519h51.206a2.868,2.868,0,0,0,2.511-4.228l-25.59-47.547a2.867,2.867,0,0,0-5.048,0l-25.6,47.547a2.869,2.869,0,0,0,2.524,4.228Zm28.861-8.688H149.7v-6.513h6.516Zm0-10.858H149.7V186.944h6.516Z" fill="#f03738"/>
          <path id="Path_21" data-name="Path 21" d="M127.351,219.519h51.206a2.868,2.868,0,0,0,2.511-4.228l-25.59-47.547a2.867,2.867,0,0,0-5.048,0l-25.6,47.547a2.869,2.869,0,0,0,2.524,4.228Zm28.861-8.688H149.7v-6.513h6.516Zm0-10.858H149.7V186.944h6.516Z" fill="rgba(255,255,255,0.5)"/>
        </g>
        <path id="Path_22" data-name="Path 22" d="M127.351,221.089h51.206a2.869,2.869,0,0,0,2.511-4.228l-25.59-47.547a2.867,2.867,0,0,0-5.048,0l-25.6,47.547a2.869,2.869,0,0,0,2.524,4.228Zm28.861-8.688H149.7v-6.513h6.516Zm0-10.857H149.7V188.515h6.516Z" fill="#f03738"/>
        <path id="Path_23" data-name="Path 23" d="M73.388,74.3a5.618,5.618,0,0,0,.483,1.883,6.664,6.664,0,0,1-.091,3.685c-.352,1.256-.942,2.583-.493,3.811.1.289.261.552.355.841.389,1.193-.333,2.448-1.124,3.424l3.1,2.175a3.569,3.569,0,0,0,1.569.75,1.228,1.228,0,0,0,1.375-.813c.041-.195,0-.4.038-.6a1.619,1.619,0,0,1,.869-1.205,2.843,2.843,0,0,1,1.5-.279c1.905.1,3.525,1.356,5.257,2.16a21.14,21.14,0,0,0,3.537,1.174,2.841,2.841,0,0,0,2.072,0,1.964,1.964,0,0,0,.86-1.855,6.067,6.067,0,0,0-.659-2.043,5.2,5.2,0,0,1-.606-2.056,17.118,17.118,0,0,1,.772-3.051A6.955,6.955,0,0,0,91.251,78a18.249,18.249,0,0,1-1.83-4.081,5.965,5.965,0,0,0-.342-1.29,2.937,2.937,0,0,0-.628-.841A7.027,7.027,0,0,0,84,69.971a20.166,20.166,0,0,0-4.881.427,10.2,10.2,0,0,0-1.811.43,11.505,11.505,0,0,0-2.382,1.29A3.1,3.1,0,0,0,73.388,74.3Z" fill="#464353"/>
        <g id="Group_2" data-name="Group 2" opacity="0.1">
          <path id="Path_24" data-name="Path 24" d="M91.43,84.712a1.374,1.374,0,0,0,.019.279c.1-.92.581-1.783.753-2.7a4.466,4.466,0,0,0,.06-1.117,3.065,3.065,0,0,1-.06.49A15.874,15.874,0,0,0,91.43,84.712Z" opacity="0.1"/>
          <path id="Path_25" data-name="Path 25" d="M74.082,77.44a5.623,5.623,0,0,0-.21-1.883,10.917,10.917,0,0,1-.455-1.463c0,.066-.025.129-.028.195a5.616,5.616,0,0,0,.483,1.883A5.305,5.305,0,0,1,74.082,77.44Z" opacity="0.1"/>
          <path id="Path_26" data-name="Path 26" d="M92.676,89.283a1.8,1.8,0,0,1-.841,1.384,2.842,2.842,0,0,1-2.072,0,20.884,20.884,0,0,1-3.537-1.177c-1.733-.8-3.352-2.053-5.257-2.156a2.844,2.844,0,0,0-1.5.279,1.62,1.62,0,0,0-.869,1.205c-.022.2,0,.4-.038.6a1.23,1.23,0,0,1-1.375.813,3.568,3.568,0,0,1-1.569-.75l-2.79-1.959c-.1.141-.207.279-.314.408l3.1,2.178a3.568,3.568,0,0,0,1.569.75,1.228,1.228,0,0,0,1.375-.813c.041-.195,0-.4.038-.6a1.619,1.619,0,0,1,.869-1.205,2.844,2.844,0,0,1,1.5-.279c1.905.1,3.525,1.356,5.257,2.156a20.876,20.876,0,0,0,3.537,1.177,2.842,2.842,0,0,0,2.072,0,1.965,1.965,0,0,0,.86-1.855C92.692,89.386,92.683,89.336,92.676,89.283Z" opacity="0.1"/>
          <path id="Path_27" data-name="Path 27" d="M73.643,84.505a2.427,2.427,0,0,1,.085.386,2.276,2.276,0,0,0-.085-1.014c-.094-.289-.251-.552-.355-.841a2.628,2.628,0,0,1-.144-.65,2.95,2.95,0,0,0,.144,1.277C73.392,83.953,73.549,84.22,73.643,84.505Z" opacity="0.1"/>
        </g>
        <path id="Path_28" data-name="Path 28" d="M77.328,203.609a.412.412,0,0,1-.144.226.475.475,0,0,1-.248.053c-1.117.025-2.235,0-3.349.079a15.956,15.956,0,0,1-3.164.194,1.623,1.623,0,0,1-1.569-1.032,4.082,4.082,0,0,1-.176-.421,6.25,6.25,0,0,1-.43-2.323v-.627a4.78,4.78,0,0,0-.091-.685,1.039,1.039,0,0,1,.031-.794,2.776,2.776,0,0,1,2.351-1.039,19.45,19.45,0,0,1,5.728.421c.147.722.314,1.438.49,2.153q.195.788.414,1.57a8.737,8.737,0,0,1,.239.982A2.512,2.512,0,0,1,77.328,203.609Z" fill="#464353"/>
        <path id="Path_29" data-name="Path 29" d="M77.327,203.609a.409.409,0,0,1-.144.226.486.486,0,0,1-.248.054c-1.117.025-2.235,0-3.349.078a16.033,16.033,0,0,1-3.164.2,1.622,1.622,0,0,1-1.569-1.033,4.138,4.138,0,0,1-.176-.42h.4c1.321,0,2.646-.048,3.967-.048a10.157,10.157,0,0,0,1.2-.065c.4-.048.719-.113,1.08-.157a14.71,14.71,0,0,1,1.626-.066h.446A2.508,2.508,0,0,1,77.327,203.609Z" opacity="0.06"/>
        <path id="Path_30" data-name="Path 30" d="M100.445,197.779a3.218,3.218,0,0,1-1.3.913c-2.235.942-4.818.518-7.125-.248a7.5,7.5,0,0,0-3.07-.559c-.355,0-.709-.028-1.064-.05-.9-.056-1.792-.144-2.684-.232a12.233,12.233,0,0,1-1.846-.279,1.992,1.992,0,0,1-.493-.2.758.758,0,0,1-.452-.675c.025-.4.439-.628.8-.8a39.3,39.3,0,0,1,10.223-2.489,4.057,4.057,0,0,0,1.026-.314c.392-.156.433.1.628.39a2.47,2.47,0,0,0,.314.37,3.74,3.74,0,0,0,1.306.766c.848.314,1.755.4,2.6.7a3.591,3.591,0,0,1,.731.351,1.514,1.514,0,0,1,.383,2.361Z" fill="#464353"/>
        <path id="Path_31" data-name="Path 31" d="M100.445,197.78a3.211,3.211,0,0,1-1.3.914c-2.235.941-4.818.518-7.125-.248a7.5,7.5,0,0,0-3.07-.559c-.355,0-.709-.028-1.064-.05.289-.273.584-.54.885-.8a2.625,2.625,0,0,1,.744-.49,2.145,2.145,0,0,1,1.058-.072c1.8.248,3.409,1.506,5.22,1.4a6.413,6.413,0,0,0,2.4-.775,4.187,4.187,0,0,0,1.569-1.117,1.822,1.822,0,0,0,.292-.562,1.513,1.513,0,0,1,.383,2.36Z" opacity="0.06"/>
        <path id="Path_32" data-name="Path 32" d="M99.814,143.231a2.6,2.6,0,0,1-1.394,1.5c-.986.283-1.934-.6-2.364-1.531a6.617,6.617,0,0,1-.314-4.319c.179-.725.452-1.422.606-2.15a13.105,13.105,0,0,0,.2-1.855,11.345,11.345,0,0,0-.066-2.788c-.505-2.7-2.825-4.708-3.6-7.357a13.734,13.734,0,0,1-.348-4.106,4.214,4.214,0,0,1,.107-1.035,1.608,1.608,0,0,1,.094-.27c.518-1.149,2.053-1.306,3.12-1.975.59-.367,1.93-1.55,2.426-.471a3.576,3.576,0,0,1,.239.751,19.945,19.945,0,0,1,.173,2.994c.191,3.428,1.045,6.849.65,10.258a10.7,10.7,0,0,0-.138,1.757c.085,1.476,1.008,2.753,1.432,4.166A9,9,0,0,1,99.814,143.231Z" fill="#fbbebe"/>
        <path id="Path_33" data-name="Path 33" d="M98.54,117.632a1.065,1.065,0,0,0-.722,0l-2.125.628a13.163,13.163,0,0,0-2.169.788,5.067,5.067,0,0,0-.863.537,1.607,1.607,0,0,1,.094-.27c.518-1.149,2.053-1.306,3.12-1.975.59-.367,1.93-1.55,2.426-.47A3.544,3.544,0,0,1,98.54,117.632Z" opacity="0.1"/>
        <path id="Path_34" data-name="Path 34" d="M98.678,117.394a.957.957,0,0,0-.86-.069l-2.125.627a13.251,13.251,0,0,0-2.169.788,5,5,0,0,0-1.033.672,13.952,13.952,0,0,1-1.438-5.744c-.1-1.152-.176-2.307-.22-3.453a15.5,15.5,0,0,1,.05-2.473c.119-.942.392-1.861.562-2.8a12.767,12.767,0,0,0,.195-1.657,16.206,16.206,0,0,0-.166-3.638,22.544,22.544,0,0,0-.873-3.767c-.2-.562-.443-1.1-.662-1.657l-.075-.195a22.887,22.887,0,0,1-.97-3.111c-.1-.433-.107-.888-.439-1.183A5.914,5.914,0,0,1,89.4,89.7h.188a7.041,7.041,0,0,1,3.591,1.256,8.39,8.39,0,0,1,2.976,3.936,18.111,18.111,0,0,1,.857,5.574q.254,5.562.314,11.13a3.553,3.553,0,0,0,.439,2.059,4.189,4.189,0,0,1,.314.456c.148.313.126.662.245.979a4.924,4.924,0,0,0,.3.552,2.025,2.025,0,0,1,.06,1.752Z" fill="#464353"/>
        <path id="Path_35" data-name="Path 35" d="M77.786,80.552c-.314-.1-.628-.214-.942-.314l.653.05A1.317,1.317,0,0,1,77.786,80.552Z" fill="#fbbebe"/>
        <path id="Path_36" data-name="Path 36" d="M90.639,91.88c-.063.213-.126.427-.195.628a12,12,0,0,1-.581,1.51,7.025,7.025,0,0,1-1.485,2.153,1.973,1.973,0,0,1-.741.49,2.354,2.354,0,0,1-.728.069q-1.255,0-2.511-.038a8.921,8.921,0,0,1-1.94-.191,6.93,6.93,0,0,1-1.978-.891,11.739,11.739,0,0,1-5.1-6.278,1.04,1.04,0,0,1,.053-.992,1.214,1.214,0,0,1,.8-.273h.038a5.056,5.056,0,0,0,1.912-.656,1.966,1.966,0,0,0,.873-.891,2.4,2.4,0,0,0-.028-1.387l-.7-3.164a3.277,3.277,0,0,0-.556-1.409c.2.072.408.138.628.195,1.94.524,4.062.207,5.964.895a2.541,2.541,0,0,1,1.676,1.494c.367,1.256-.86,2.558-.508,3.814.235.854,1.1,1.347,1.883,1.745l.524.267,1.453.738.2.1.031.016a1.972,1.972,0,0,1,1.1,1.014A1.883,1.883,0,0,1,90.639,91.88Z" fill="#fbbebe"/>
        <path id="Path_37" data-name="Path 37" d="M94.469,99.249a6.779,6.779,0,0,1-.577,2.323,9.485,9.485,0,0,0-.989,4.08c-.242,4.237-1.852,9.281.455,12.841.057.088.113.176.166.267a5,5,0,0,0-1.033.671,13.948,13.948,0,0,1-1.438-5.744c-.1-1.152-.176-2.307-.22-3.452a15.506,15.506,0,0,1,.05-2.474c.119-.941.392-1.861.562-2.8a12.8,12.8,0,0,0,.195-1.658,16.2,16.2,0,0,0-.166-3.638A22.544,22.544,0,0,0,90.6,95.9c-.2-.562-.442-1.1-.662-1.657l-.075-.195A7.025,7.025,0,0,1,88.38,96.2a1.972,1.972,0,0,1-.741.49,2.354,2.354,0,0,1-.728.069q-1.255,0-2.511-.038a8.927,8.927,0,0,1-1.94-.191,6.927,6.927,0,0,1-1.978-.891,11.739,11.739,0,0,1-5.1-6.278,1.04,1.04,0,0,1,.053-.992,1.214,1.214,0,0,1,.8-.273h.038L79.1,91.593a5.645,5.645,0,0,1,.816,1.221.728.728,0,0,0,.251.373.643.643,0,0,0,.314.057h8.839a2.294,2.294,0,0,0-.389-1.321c-.082.019-.191.025-.022-.025a8.894,8.894,0,0,0-.973-2.91,2.023,2.023,0,0,0-.1-.182,3.347,3.347,0,0,1-.465-1.017,1.289,1.289,0,0,1,1.786.97c.144.314.289.65.417.979,0,.035.031.072.044.107a7.1,7.1,0,0,1,.521,2.037c.019.257.082.584.295.669a.278.278,0,0,0,.107.025,1.187,1.187,0,0,1,1.284.314,2.825,2.825,0,0,1,.628,1.237,6.761,6.761,0,0,0,.446,1.331c.4.772-.213,1.118.518,1.591a2.549,2.549,0,0,1,.86.772A2.41,2.41,0,0,1,94.469,99.249Z" opacity="0.1"/>
        <path id="Path_38" data-name="Path 38" d="M76.238,197.673c.148.722.314,1.437.49,2.153l-.019.044a14.562,14.562,0,0,0-4.47-1.422,4.953,4.953,0,0,0-4.021,1.321,4.767,4.767,0,0,0-.091-.684,1.039,1.039,0,0,1,.031-.794,2.776,2.776,0,0,1,2.351-1.039A19.415,19.415,0,0,1,76.238,197.673Z" opacity="0.1"/>
        <path id="Path_39" data-name="Path 39" d="M88.6,92.5c.147,0,.094,0,.022.025S88.433,92.548,88.6,92.5Z" opacity="0.1"/>
        <path id="Path_40" data-name="Path 40" d="M95.423,193.6a27.214,27.214,0,0,0-3.93,3.042,4.127,4.127,0,0,1-1.24.907,3.618,3.618,0,0,1-1.494.153,50.648,50.648,0,0,1-5.895-.583.758.758,0,0,1-.452-.675c.025-.4.439-.628.8-.8a39.3,39.3,0,0,1,10.223-2.489,4.057,4.057,0,0,0,1.026-.314c.392-.156.433.1.628.39A2.448,2.448,0,0,0,95.423,193.6Z" opacity="0.1"/>
        <path id="Path_41" data-name="Path 41" d="M72.393,88.857c.461.411.989.744,1.456,1.142a13.176,13.176,0,0,1,2.825,4,2.617,2.617,0,0,1-1.441.1,10.331,10.331,0,0,0,.122,4.2,3.893,3.893,0,0,0-1.4,1.742,11.644,11.644,0,0,0-.458,2.2q-.678,4.9-1.362,9.8a1.519,1.519,0,0,1-.314.882,1.676,1.676,0,0,0-.239.235,1.3,1.3,0,0,0-.11.675c-.019.229-.169.5-.4.471a.5.5,0,0,1-.279-.182,6.386,6.386,0,0,1-.628-.779c-1.852,3.554-2.743,7.383-3.723,11.269a36.41,36.41,0,0,0-1.435,8.424,36.318,36.318,0,0,0,.254,4.043l.276,2.756c.223,2.216.446,4.435.687,6.651a16.751,16.751,0,0,0,.819,4.15c.753,2.012-.082,4.281.239,6.409.251,1.667.75,3.39.248,5-.2.643-.552,1.23-.816,1.852a13.9,13.9,0,0,0-.769,4.934,20.717,20.717,0,0,0,.163,4.394c.27,1.5.876,2.976.757,4.5-.166,2.163-1.761,4.012-1.955,6.171a9.055,9.055,0,0,0,1.416,4.915c.6,1.127-.235,2.584-.552,3.824-.628,2.429.418,4.971,1.7,7.128a.339.339,0,0,0,.163.169c.147.054.279-.091.377-.213a4.83,4.83,0,0,1,4.237-1.57,14.193,14.193,0,0,1,4.47,1.422l2.037-4.535a4.061,4.061,0,0,0,.524-2.427,7.027,7.027,0,0,0-.772-1.629,9.511,9.511,0,0,1-.665-4.187l-.038-8.067a17.637,17.637,0,0,0,3.17-6.848,21.973,21.973,0,0,1,.188,10.672,9.686,9.686,0,0,0-.314,1.625c-.122,2.238,1.632,4.131,2.1,6.322a1.359,1.359,0,0,1,.038.515,1.941,1.941,0,0,1-.26.6,9.187,9.187,0,0,0-.628,5.113,51.113,51.113,0,0,0,6.657.713,3.741,3.741,0,0,0,1.494-.154,4.131,4.131,0,0,0,1.24-.91,27.3,27.3,0,0,1,4.667-3.531,10.858,10.858,0,0,0-3.814-3.767c.505-.744,1.657-.684,2.329-1.281a2.193,2.193,0,0,0,.628-1.236,8.406,8.406,0,0,0-.37-3.72,44.246,44.246,0,0,0-2.2-7.015,26.943,26.943,0,0,1-1.18-2.841c-.822-2.705-.248-5.65-.869-8.415a5.8,5.8,0,0,1-.3-2.68c.345-1.359,1.883-2.166,2.222-3.528,1.215-4.85,1.431-9.875,2.122-14.825a19.04,19.04,0,0,0,.248-2.859c0-1-.179-1.994-.251-2.992-.283-3.995,1-7.982.669-11.974a15.068,15.068,0,0,0-2.36-6.906c-2.307-3.562-.7-8.6-.455-12.84a9.444,9.444,0,0,1,.986-4.081,6.7,6.7,0,0,0,.581-2.323,2.4,2.4,0,0,0-.176-1.466,2.478,2.478,0,0,0-.857-.772c-.731-.477-.113-.822-.518-1.594a6.692,6.692,0,0,1-.446-1.331,2.8,2.8,0,0,0-.628-1.234,1.187,1.187,0,0,0-1.284-.314c-.3,0-.38-.4-.4-.694a9.777,9.777,0,0,0-.979-3.123,1.7,1.7,0,0,0-.756-.97,1.729,1.729,0,0,0-1.033,0,3.336,3.336,0,0,0,.468,1.02A8.864,8.864,0,0,1,88.6,92.153c-.314.094.314,0,0,0A2.2,2.2,0,0,1,89.01,93.5H80.174a.628.628,0,0,1-.314-.056.753.753,0,0,1-.254-.374,5.438,5.438,0,0,0-.816-1.218l-3.107-3.832a.784.784,0,0,0-.267-.242.721.721,0,0,0-.392,0A7.059,7.059,0,0,0,72.393,88.857Z" fill="#3e66fb"/>
        <path id="Path_42" data-name="Path 42" d="M83.546,140.785a3,3,0,0,1,1.529.4,1.543,1.543,0,0,1,.76,1.325,3.51,3.51,0,0,1-.819,1.569,4.2,4.2,0,0,0-.483.992.4.4,0,0,0-.025.254c.038.119.166.179.276.232a2.358,2.358,0,0,1,1.384,2.059c-.028,1.224-1.224,2.216-1.158,3.453a7.085,7.085,0,0,0,.132.766,5.849,5.849,0,0,1-.424,3.1c-.38.986-.9,1.912-1.306,2.888a20.483,20.483,0,0,0-1.256,8.475,16.338,16.338,0,0,1-1.256,5.687,81.751,81.751,0,0,0,.282-11.3c-.044-1.023-.173-1.99-.125-3.016.075-1.629.986-3.11,1.218-4.708a23.209,23.209,0,0,0,.066-2.765c.044-1.884.555-3.742.59-5.631C82.974,143.231,82.852,141.856,83.546,140.785Z" opacity="0.1"/>
        <path id="Path_43" data-name="Path 43" d="M70.447,89.528a8.608,8.608,0,0,0-1.739,1.149,7.41,7.41,0,0,0-1.375,1.883A24.074,24.074,0,0,0,66.169,95a5.427,5.427,0,0,0-.505,3.4,11.717,11.717,0,0,0,1.6,2.721,23.15,23.15,0,0,1,1.271,2.966c.552,1.328,1.309,2.564,1.855,3.9a6.9,6.9,0,0,1,.53,4.209c-.1.409-.763.726-.763,1.143,0,.691,1,1.441,1.66,1.642a2.488,2.488,0,0,0,2.219-.628,8.16,8.16,0,0,0,2.357-3.635,37.18,37.18,0,0,0,1.67-6.846c.289-1.7.559-3.4.712-5.119a13.032,13.032,0,0,0-.223-4.62,7.846,7.846,0,0,0-2.144-3.566,5.96,5.96,0,0,0-3.34-1.868A5.5,5.5,0,0,0,70.447,89.528Z" fill="#464353"/>
        <path id="Path_44" data-name="Path 44" d="M79.371,127.366a1.5,1.5,0,0,1-.7,1.045,4.088,4.088,0,0,1-1.2.49,4.961,4.961,0,0,1-2.583.254,5.183,5.183,0,0,1-1.814-1.032l-9.5-7.276a12.813,12.813,0,0,1-2.094-1.858,13.346,13.346,0,0,1-.992-1.41,6.889,6.889,0,0,1-.923-1.833,3.353,3.353,0,0,1-.113-.882,1.658,1.658,0,0,1,.2-.806c.229-.383.719-.462,1.121-.568a11.751,11.751,0,0,1,4.134-.314.561.561,0,0,1,.559.379c.21.387.392.788.581,1.19a8.6,8.6,0,0,0,1.121,1.918,16.153,16.153,0,0,0,1.4,1.346c1,.942,1.827,2.072,2.9,2.938a24.17,24.17,0,0,0,4.159,2.339,7.677,7.677,0,0,1,3.515,3.123A1.829,1.829,0,0,1,79.371,127.366Z" fill="#fbbebe"/>
        <path id="Path_45" data-name="Path 45" d="M90.372,76.606a7.772,7.772,0,1,1-.217-1.821A7.772,7.772,0,0,1,90.372,76.606Z" opacity="0.1"/>
        <path id="Path_46" data-name="Path 46" d="M90.372,76.292a7.772,7.772,0,1,1-.217-1.821A7.772,7.772,0,0,1,90.372,76.292Z" fill="#fbbebe"/>
        <path id="Path_47" data-name="Path 47" d="M66.047,114.733a1.84,1.84,0,0,1-1.331.053c-1.745-.389-3.672-.669-5.264.078a1.658,1.658,0,0,1,.2-.806c.229-.383.719-.462,1.121-.568a11.751,11.751,0,0,1,4.134-.314.561.561,0,0,1,.559.379C65.676,113.929,65.858,114.331,66.047,114.733Z" opacity="0.1"/>
        <path id="Path_48" data-name="Path 48" d="M62.767,104.166a12.253,12.253,0,0,1-1.459,3.609,2.675,2.675,0,0,0-.553.967,3,3,0,0,1-.129.778c-.107.214-.333.355-.424.575-.135.314.041.719-.138,1.014a1.526,1.526,0,0,1-.3.314,2.2,2.2,0,0,0-.543,1.61,5.476,5.476,0,0,1-.144,1.729c1.657-.988,3.767-.693,5.65-.273.524.116,1.174.2,1.513-.216s.144-.973.191-1.479a5.881,5.881,0,0,1,.794-1.805,21.391,21.391,0,0,0,.662-2.131c.5-1.478,1.569-2.683,2.257-4.08a3.925,3.925,0,0,0,.446-1.551,4.625,4.625,0,0,0-.537-2.012,27.519,27.519,0,0,0-2.323-4.146c-.4-.587-1.086-1.673-1.7-.735a17.581,17.581,0,0,0-1.186,2.549A46.574,46.574,0,0,0,62.767,104.166Z" fill="#464353"/>
        <path id="Path_49" data-name="Path 49" d="M91.088,91.979a6.344,6.344,0,0,1-5.078-2.006.778.778,0,0,1-.226-.367.737.737,0,0,1,.144-.515c.377-.581,1.026-.964,1.328-1.588a5.044,5.044,0,0,0,.226-2.028c.05-1.227.534-2.442.574-3.65a3.814,3.814,0,0,0-.069-.923,5.787,5.787,0,0,1-.264-1.391c.041-.92.869-1.635,1.008-2.542.179-1.155-.778-2.16-1.742-2.825a10.382,10.382,0,0,0-2.373-1.227,7.724,7.724,0,0,0-1.594-.386,6.215,6.215,0,0,0-3,.336,4.907,4.907,0,0,0-1.117.6,1.513,1.513,0,0,0-.5.518,1.685,1.685,0,0,0-.132.75,8,8,0,0,1-.487,3.766c-.314.6-.847,1.086-1.108,1.72a2.858,2.858,0,0,0-.2.826,8.337,8.337,0,0,0-.047.885,9.232,9.232,0,0,0,.841,4.834,12.592,12.592,0,0,1,.807,1.353,1.541,1.541,0,0,1-.078,1.5,1.709,1.709,0,0,1-.628.471,5.022,5.022,0,0,1-4.015.144,5.088,5.088,0,0,0,1.187-5.675A3.35,3.35,0,0,1,74.11,83.3a3.187,3.187,0,0,1,.314-1.149,6.277,6.277,0,0,0,.191-3.679,13.417,13.417,0,0,1-.584-2.238,6.772,6.772,0,0,1,.075-1.739,5.65,5.65,0,0,1,3.87-4.454c.16-.053.314-.1.49-.147a10.447,10.447,0,0,1,2.32-.248A17.607,17.607,0,0,1,85.975,70a6.962,6.962,0,0,1,2.687,1.381,4.848,4.848,0,0,1,1.3,1.717,5.961,5.961,0,0,1,.367,1.186c.072.336.126.675.179,1.014a22.773,22.773,0,0,1,.355,7.285c-.16.942-.439,1.883-.565,2.844A17.187,17.187,0,0,0,91.088,91.979Z" fill="#464353"/>
        <path id="Path_50" data-name="Path 50" d="M79.936,95.082a.584.584,0,1,0-.584-.584A.584.584,0,0,0,79.936,95.082Z" fill="#fff"/>
        <path id="Path_51" data-name="Path 51" d="M89.789,94.8a.584.584,0,1,0-.584-.584A.584.584,0,0,0,89.789,94.8Z" fill="#fff"/>
        <path id="Path_52" data-name="Path 52" d="M79.936,64.992l-1.256-2.37a2.3,2.3,0,0,1,.261-.264,1,1,0,0,1,.606-.144Z" opacity="0.1"/>
        <path id="Path_53" data-name="Path 53" d="M83.4,62.1l-1.422,2.1-.81-2.307a2.567,2.567,0,0,1,1.1-.207A3.64,3.64,0,0,1,83.4,62.1Z" opacity="0.1"/>
        <g id="Group_3" data-name="Group 3" opacity="0.1">
          <path id="Path_54" data-name="Path 54" d="M78,89a1.711,1.711,0,0,1-.628.471,5.044,5.044,0,0,1-3.569.3,4.87,4.87,0,0,1-.446.474,5.023,5.023,0,0,0,4.015-.144A1.71,1.71,0,0,0,78,89.627a1.353,1.353,0,0,0,.2-1.086A1.113,1.113,0,0,1,78,89Z" opacity="0.1"/>
          <path id="Path_55" data-name="Path 55" d="M74.594,78.487a6.186,6.186,0,0,1,.179,1.256,6.257,6.257,0,0,0-.179-1.883,13.433,13.433,0,0,1-.584-2.238,1.878,1.878,0,0,0-.016-.295,7.017,7.017,0,0,0,.016.923A13.436,13.436,0,0,0,74.594,78.487Z" opacity="0.1"/>
          <path id="Path_56" data-name="Path 56" d="M90.84,82.593a13.735,13.735,0,0,0,.169-2.511,13.089,13.089,0,0,1-.169,1.883c-.16.942-.44,1.883-.565,2.844a9.9,9.9,0,0,0-.072,1.554,9.223,9.223,0,0,1,.072-.926C90.4,84.476,90.68,83.544,90.84,82.593Z" opacity="0.1"/>
          <path id="Path_57" data-name="Path 57" d="M74.531,83.939a5.166,5.166,0,0,1-.4-.97,1.417,1.417,0,0,0-.038.345,3.35,3.35,0,0,0,.433,1.256,4.743,4.743,0,0,1,.392,1.664A4.864,4.864,0,0,0,74.531,83.939Z" opacity="0.1"/>
          <path id="Path_58" data-name="Path 58" d="M87.987,80.892a4.127,4.127,0,0,1,.06.433v-.138a3.815,3.815,0,0,0-.069-.923c-.069-.33-.182-.656-.235-.989a1.386,1.386,0,0,0-.028.226A5.784,5.784,0,0,0,87.987,80.892Z" opacity="0.1"/>
          <path id="Path_59" data-name="Path 59" d="M86.01,89.334a1.651,1.651,0,0,1-.135-.16.65.65,0,0,0-.091.421.778.778,0,0,0,.226.367,6.344,6.344,0,0,0,5.079,2.006c-.053-.207-.107-.411-.157-.628a6.334,6.334,0,0,1-4.922-2.006Z" opacity="0.1"/>
          <path id="Path_60" data-name="Path 60" d="M88.725,76.374a.133.133,0,0,1,0-.035c.179-1.155-.778-2.16-1.742-2.825a10.38,10.38,0,0,0-2.373-1.227,7.724,7.724,0,0,0-1.594-.386,6.214,6.214,0,0,0-3,.336,4.9,4.9,0,0,0-1.117.6,1.512,1.512,0,0,0-.5.518,1.685,1.685,0,0,0-.132.75v.628a1.686,1.686,0,0,1,.132-.75,1.514,1.514,0,0,1,.5-.518,4.9,4.9,0,0,1,1.117-.6,6.214,6.214,0,0,1,3-.336,7.724,7.724,0,0,1,1.594.386,10.38,10.38,0,0,1,2.373,1.227A3.749,3.749,0,0,1,88.725,76.374Z" opacity="0.1"/>
          <path id="Path_61" data-name="Path 61" d="M77.783,77.878c-.314.6-.847,1.086-1.108,1.72a2.858,2.858,0,0,0-.2.826,8.337,8.337,0,0,0-.047.885v.628a8.336,8.336,0,0,1,.047-.885,2.858,2.858,0,0,1,.2-.826,19.721,19.721,0,0,1,1.108-1.72,6.3,6.3,0,0,0,.487-3.1A5.237,5.237,0,0,1,77.783,77.878Z" opacity="0.1"/>
        </g>
        <path id="Path_62" data-name="Path 62" d="M90.307,74.305a.912.912,0,0,1-.151.166,1.436,1.436,0,0,1-.367.22c-.913.4-.876-.895-1.353-1.337a1.623,1.623,0,0,0-1.061-.314q-1.378-.069-2.759-.122c-1.535-.056-3.067-.085-4.6-.05q-1.1.019-2.2.091a5.985,5.985,0,0,0-2.48.568,2.632,2.632,0,0,0-.662.518c-.173.188-.355.427-.593.471a5.65,5.65,0,0,1,3.87-4.454A7.769,7.769,0,0,1,88.627,71.4a4.851,4.851,0,0,1,1.3,1.717A5.97,5.97,0,0,1,90.307,74.305Z" opacity="0.1"/>
        <path id="Path_63" data-name="Path 63" d="M89.789,74.063c-.913.4-.876-.895-1.353-1.337a1.623,1.623,0,0,0-1.061-.314,83.646,83.646,0,0,0-9.554-.082,4.509,4.509,0,0,0-3.139,1.086c-.195.213-.4.49-.691.48-.1-.628-.166-1.281-.213-1.924a2.139,2.139,0,0,1,.038-.722c.078-.27.257-.5.348-.763a3.057,3.057,0,0,0,.094-1.03,7.439,7.439,0,0,1,3.66-6.328,3.32,3.32,0,0,0,.763-.515,2.3,2.3,0,0,1,.261-.264,1,1,0,0,1,.606-.144h.446a4.05,4.05,0,0,0,1.177-.314,2.567,2.567,0,0,1,1.1-.207A3.641,3.641,0,0,1,83.4,62.1a2.747,2.747,0,0,0,.53.192c.286.066.581.063.866.119a4.226,4.226,0,0,1,1.3.578,6.2,6.2,0,0,1,1.306.942,5.78,5.78,0,0,1,1.011,1.645,11.782,11.782,0,0,1,.942,2.611c.254,1.3.129,2.706.731,3.886C90.454,72.811,90.79,73.633,89.789,74.063Z" fill="#fed253"/>
        <path id="Path_64" data-name="Path 64" d="M73.878,73.077s6.507-5.92,16.2-1.011C90.074,72.067,79.135,69.577,73.878,73.077Z" opacity="0.1"/>
        <path id="Path_65" data-name="Path 65" d="M2.979,103.327C2.094,101.877.763,100.549.97,98.9a12.935,12.935,0,0,0,6.978-1.347,57.669,57.669,0,0,0,6.394-3.688c.822-.518,1.642-1.026,2.458-1.5,1.293-.741,2.577-1.569,3.892-2.294a14.689,14.689,0,0,1,5.92-2.047A10.8,10.8,0,0,1,27.763,88c2.605.05,5.3.75,7.6-.418l.141-.075A20.267,20.267,0,0,0,38.858,84.6a15,15,0,0,1,2.6-1.808c1.692-.942,3.525-1.695,5.254-2.583a7.974,7.974,0,0,0,1.255-.8l.3-.235.066-.056c.072-.06.144-.119.214-.182l.135-.119.138-.126.107-.1.173-.163.019-.022.273-.27.11-.11.191-.2.113-.113c.192-.2.383-.4.578-.593s.458-.458.694-.675l.226-.2.066-.056.182-.151.085-.072.179-.138.088-.069c.088-.066.179-.129.27-.192a1.972,1.972,0,0,1,.264-.154l-.587-1.422,1.689-.7,23.29,56.514-1.692.7L61.812,98.176l-.094.094A26.741,26.741,0,0,1,50.7,104.824h-.025c-2.32.7-4.915,1.2-6.868,2.5a6.594,6.594,0,0,0-1.774,1.7c-.458.653-.778,1.4-1.256,2.024-.091.116-.191.229-.292.336a10.9,10.9,0,0,1-1.883,1.494l-.3.2A60.96,60.96,0,0,1,32,116.965a24.827,24.827,0,0,1-3.92,1.632c-.983.314-2,.543-2.979.854a11.713,11.713,0,0,0-1.918.772,14.047,14.047,0,0,0-4.149,3.685c-1.058,1.275-2.062,2.624-3.224,3.786-.728.721-1.836,1.406-2.715.982l-.179-.1c.028-.047.05-.094.075-.144.694-1.453-.16-3.249-1.309-4.413-.119-.123-.242-.242-.367-.355s-.351-.314-.53-.471a12.775,12.775,0,0,1-2.709-2.718,8.869,8.869,0,0,1-1.042-2.953,12.552,12.552,0,0,0-1.328-4.26c-.527-.832-1.312-1.541-1.883-2.338a3.566,3.566,0,0,1-.691-1.614,10.469,10.469,0,0,1,.524-3.035,3.787,3.787,0,0,0,.066-.841A4.455,4.455,0,0,0,2.979,103.327Z" fill="#fff"/>
        <path id="Path_66" data-name="Path 66" d="M74.541,130.021l1.663-.685L53.3,73.772l-1.663.685Z" fill="#d6d8e1"/>
        <path id="Path_67" data-name="Path 67" d="M6.268,113.062a12.3,12.3,0,0,1,1.3,4.187A8.821,8.821,0,0,0,8.6,120.155a12.6,12.6,0,0,0,2.662,2.671c.176.154.352.314.521.465.122.11.245.229.361.345,1.13,1.146,1.968,2.913,1.287,4.341a1.127,1.127,0,0,1-.072.141,1.437,1.437,0,0,0,.173.1c.866.42,1.955-.251,2.671-.964,1.142-1.142,2.131-2.467,3.17-3.719a13.739,13.739,0,0,1,4.08-3.626,11.3,11.3,0,0,1,1.883-.759c.964-.314,1.962-.537,2.928-.838a24.65,24.65,0,0,0,3.854-1.6,60.512,60.512,0,0,0,6.215-3.826l.3-.2a10.812,10.812,0,0,0,1.852-1.466c.1-.107.2-.217.289-.333.483-.628.8-1.346,1.256-1.99a6.494,6.494,0,0,1,1.745-1.67c1.921-1.277,4.47-1.767,6.751-2.454h.025a26.354,26.354,0,0,0,10.829-6.444,1.765,1.765,0,0,0,.543-.8,1.841,1.841,0,0,0-.37-1.271c-.267-.458-.527-.917-.785-1.381a61.657,61.657,0,0,1-3.095-6.507c-.2-.49-.389-.976-.574-1.469q-.713-1.883-1.3-3.82c-.129-.427-.254-.857-.374-1.287-.022-.082-.047-.17-.069-.264-.521-2.094-1.218-6.993-3.365-5.527a12.424,12.424,0,0,0-1.774,1.541c-.417.424-.825.86-1.255,1.281a12.7,12.7,0,0,1-1.108.97,8.134,8.134,0,0,1-1.256.791c-1.7.873-3.506,1.6-5.167,2.539A14.689,14.689,0,0,0,38.865,84.9a19.883,19.883,0,0,1-3.3,2.859l-.138.075c-2.254,1.146-4.906.458-7.47.408a11.27,11.27,0,0,0-1.13.028A14.3,14.3,0,0,0,21,90.283c-1.293.716-2.555,1.525-3.826,2.257-.8.461-1.607.961-2.417,1.472a55.28,55.28,0,0,1-6.278,3.629A12.9,12.9,0,0,1,1.62,98.962c-.2,1.617,1.1,2.922,1.974,4.347a4.318,4.318,0,0,1,.738,2.062,3.647,3.647,0,0,1-.06.826,10.782,10.782,0,0,0-.515,2.988,3.465,3.465,0,0,0,.675,1.579C4.978,111.546,5.747,112.245,6.268,113.062Z" fill="#f86d70"/>
        <path id="Path_68" data-name="Path 68" d="M70.083,119.6a27.345,27.345,0,0,0,5.537,3.675c2.787,1.278.942,5.86.942,5.86a5.054,5.054,0,0,1-5.022-2.2C69.471,124.061,70.083,119.6,70.083,119.6Z" fill="#fbbebe"/>
        <path id="Path_69" data-name="Path 69" d="M218.247,160.419s-7.282,9.582-13.324,9.661-9.589,4.036-6.72,6.51,34.131-1.413,34.131-1.413.295-11.776-2.413-13.5S218.247,160.419,218.247,160.419Z" fill="#444176"/>
        <path id="Path_70" data-name="Path 70" d="M296.545,171.922s1.114,7.59-2.329,12.765,6.221,7.173,6.221,7.173,7.022,1.955,7.533-4.982.346-12.241-.314-12.806-1.208-4.467-1.208-4.467Z" fill="#444176"/>
        <path id="Path_71" data-name="Path 71" d="M186.31,186.256s-.254-24.549,24.037-34.527L215.988,141l2.7-6.592a16.042,16.042,0,0,1,11.328-9.561l4.376-.982,1.352-5.7a16.035,16.035,0,0,1,12.81-12.1,44.924,44.924,0,0,1,8.067-.754,6.943,6.943,0,0,1,5.9,3.453s23.014-.254,24.034,12.276c0,0,2.3,11.5,5.628,13.55,0,0,5.625-1.277,11.25,6.906l6.136,20.967s16.108,15.085,11.249,28.877c0,0-6.647,9.46-40.4,3.066,0,0-36.052,10.986-55.243-4.08C225.175,190.346,193.216,196.482,186.31,186.256Z" fill="#a8a8a8"/>
        <path id="Path_72" data-name="Path 72" d="M202.418,182.422s5.117-7.16,4.859-12.276,1.206-17.578,1.206-17.578" fill="none" stroke="#000" stroke-miterlimit="10" stroke-width="0.314" opacity="0.1"/>
        <path id="Path_73" data-name="Path 73" d="M221.085,163.244s5.113-9.461,4.6-14.574c0,0,5.371-9.73,9.461-8.952" fill="none" stroke="#000" stroke-miterlimit="10" stroke-width="0.314" opacity="0.1"/>
        <path id="Path_74" data-name="Path 74" d="M249.212,136.394s14.062-5.113,14.831-9.2" fill="none" stroke="#000" stroke-miterlimit="10" stroke-width="0.314" opacity="0.1"/>
        <path id="Path_75" data-name="Path 75" d="M254.325,148.157s14.831-6.648,14.831-8.44h7.41s10.741,14.065,9.464,20.2" fill="none" stroke="#000" stroke-miterlimit="10" stroke-width="0.314" opacity="0.1"/>
        <path id="Path_76" data-name="Path 76" d="M271.714,158.385s-14.319-1.023-19.436,3.07-14.319,6.136-14.319,6.136-5.37,11.507-7.417,13.551-5.37,9.206-5.37,9.206" fill="none" stroke="#000" stroke-miterlimit="10" stroke-width="0.314" opacity="0.1"/>
        <path id="Path_77" data-name="Path 77" d="M271.714,171.938a37.425,37.425,0,0,0,3.578,8.437c2.047,3.069,5.113,14.061,5.113,14.061" fill="none" stroke="#000" stroke-miterlimit="10" stroke-width="0.314" opacity="0.1"/>
        <path id="Path_78" data-name="Path 78" d="M295.748,187.533s3.245,9.031,6.1,9.118" fill="none" stroke="#000" stroke-miterlimit="10" stroke-width="0.314" opacity="0.1"/>
        <path id="Path_79" data-name="Path 79" d="M274.489,148.773s8.43,2.279,11.955,7.8S300.735,167.1,300.735,167.1" fill="none" stroke="#000" stroke-miterlimit="10" stroke-width="0.314" opacity="0.1"/>
        <path id="Path_80" data-name="Path 80" d="M278.1,121.572s0,11.761,3.324,11.761a94.187,94.187,0,0,1,10.741,1.278" fill="none" stroke="#000" stroke-miterlimit="10" stroke-width="0.314" opacity="0.1"/>
        <path id="Path_81" data-name="Path 81" d="M261.814,107.605s-.851,20.318-5.2,25.579" fill="none" stroke="#000" stroke-miterlimit="10" stroke-width="0.314" opacity="0.1"/>
        <g id="Group_4" data-name="Group 4" opacity="0.05">
          <path id="Path_82" data-name="Path 82" d="M309.044,162.22l-6.137-20.967c-5.625-8.183-11.249-6.906-11.249-6.906-3.324-2.046-5.625-13.553-5.625-13.553C285.01,108.264,262,108.521,262,108.521a6.946,6.946,0,0,0-5.91-3.453c-1.086,0-2.2.035-3.309.126q.942.095,1.805.267l1.789,3.069s23.011-.257,24.034,12.273c0,0,2.3,11.507,5.628,13.554,0,0,5.625-1.281,11.249,6.9l6.137,20.967s16.108,15.085,11.249,28.877c0,0-3.28,4.668-16.924,5.233,18.4.674,22.549-5.233,22.549-5.233C325.152,177.3,309.044,162.22,309.044,162.22Z" opacity="0.05"/>
          <path id="Path_83" data-name="Path 83" d="M219.038,190.09a119.315,119.315,0,0,1-16.381,1.792,104.458,104.458,0,0,0,17.364-1.039C219.688,190.589,219.362,190.344,219.038,190.09Z" opacity="0.05"/>
          <path id="Path_84" data-name="Path 84" d="M274.269,194.182A105.052,105.052,0,0,1,250.125,198a102.366,102.366,0,0,0,27.553-3.211C276.567,194.6,275.44,194.392,274.269,194.182Z" opacity="0.05"/>
        </g>
        <path id="Path_85" data-name="Path 85" d="M69.948,234.065s7.034-.217,9.153-1.727,10.816-3.311,11.344-.891,10.568,12.037,2.627,12.1-18.447-1.237-20.562-2.527S69.948,234.065,69.948,234.065Z" fill="#a8a8a8"/>
        <path id="Path_86" data-name="Path 86" d="M93.216,242.706c-7.941.066-18.45-1.236-20.565-2.511-1.61-.982-2.254-4.5-2.467-6.127h-.236s.446,5.672,2.561,6.959,12.624,2.59,20.562,2.527c2.295-.019,3.086-.835,3.041-2.044C95.8,242.239,94.921,242.694,93.216,242.706Z" opacity="0.2"/>
        <path id="Path_87" data-name="Path 87" d="M241.434,216.425s-8.283-1.657-10.49-3.867-12.147-6.07-13.252-3.311-14.906,12.147-5.521,13.81,22.084,2.2,24.847,1.1S241.434,216.425,241.434,216.425Z" fill="#a8a8a8"/>
        <path id="Path_88" data-name="Path 88" d="M212.171,222.015c9.388,1.654,22.084,2.2,24.846,1.1,2.1-.841,3.563-4.88,4.141-6.761l.276.06s-1.658,6.623-4.417,7.728-15.458.552-24.846-1.105c-2.709-.477-3.484-1.6-3.193-3.02C209.211,220.954,210.156,221.666,212.171,222.015Z" opacity="0.2"/>
        <path id="Path_89" data-name="Path 89" d="M162.119,36.049h-1.971a1.381,1.381,0,1,0,0-2.762h-15.97a1.381,1.381,0,1,0,0,2.762h1.971a1.381,1.381,0,0,0,0,2.759H143.39a1.381,1.381,0,0,0,0,2.762h15.97a1.381,1.381,0,1,0,0-2.762h2.759a1.381,1.381,0,1,0,0-2.759Z" fill="#f03738" opacity="0.1"/>
        <path id="Path_90" data-name="Path 90" d="M224.148,84.641h-1.971a1.381,1.381,0,0,0,0-2.759H206.191a1.381,1.381,0,1,0,0,2.759h1.971a1.381,1.381,0,0,0,0,2.759H205.4a1.381,1.381,0,0,0,0,2.762H221.37a1.381,1.381,0,1,0,0-2.762h2.778a1.381,1.381,0,1,0,0-2.759Z" fill="#f03738" opacity="0.1"/>
        <path id="Path_91" data-name="Path 91" d="M132.235,75.653h-1.971a1.381,1.381,0,1,0,0-2.759H114.29a1.381,1.381,0,1,0,0,2.759h1.971a1.381,1.381,0,1,0,0,2.759H113.5a1.381,1.381,0,0,0,0,2.762h15.97a1.381,1.381,0,1,0,0-2.762h2.759a1.381,1.381,0,1,0,0-2.759Z" fill="#f03738" opacity="0.1"/>
      </g>
    </g>
  </g>
</svg>
