<svg xmlns="http://www.w3.org/2000/svg" xmlns:xlink="http://www.w3.org/1999/xlink" width="402" height="227" viewBox="0 0 402 227">
  <defs>
    <clipPath id="clip-path">
      <rect id="Rectangle_3" data-name="Rectangle 3" width="402" height="227" transform="translate(1111 686)" fill="none" stroke="#707070" stroke-width="1"/>
    </clipPath>
    <clipPath id="clip-path-2">
      <rect id="Rectangle_2" data-name="Rectangle 2" width="311" height="172.029" transform="translate(8)" fill="#fff"/>
    </clipPath>
  </defs>
  <g id="crisis-right-card-img" transform="translate(-1111 -686)" clip-path="url(#clip-path)">
    <g id="crisis-icon-2" transform="translate(0 29)">
      <g id="Group_296" data-name="Group 296" transform="translate(1102.999 684)">
        <g id="Group_5" data-name="Group 5" clip-path="url(#clip-path-2)">
          <path id="Path_92" data-name="Path 92" d="M168.031,171.149a76.031,76.031,0,0,1-14.856.718,68.227,68.227,0,0,1-33.8-10.631c-4.46-2.9-8.714-6.468-11.023-11.257a19.827,19.827,0,0,1,2.437-20.4,20.52,20.52,0,0,1,5.915-5.046q.505-.287,1.03-.55A22.186,22.186,0,0,1,130,121.733a24.35,24.35,0,0,1,17.623,11.29c3.408,5.46,4.6,11.9,5.295,18.359.132,1.217.246,2.437.356,3.65a53.7,53.7,0,0,1-2.862,10.283,3.525,3.525,0,0,0-.161.5q1.1,2.387,2.092,4.816a4.244,4.244,0,0,0,2.027.513H168Z" fill="#f2f2f2"/>
          <path id="Path_93" data-name="Path 93" d="M152.065,171.461a.765.765,0,0,1-.287.065.751.751,0,0,1-.289-.052.743.743,0,0,1-.247-.159.731.731,0,0,1-.166-.242c-.059-.14-.114-.279-.173-.418q-.79-1.925-1.66-3.811a116.089,116.089,0,0,0-32.31-41.813.54.54,0,0,1-.227-.5.745.745,0,0,1,.382-.523.747.747,0,0,1,.648-.026.711.711,0,0,1,.153.095,116.352,116.352,0,0,1,16.22,16.106A118.209,118.209,0,0,1,146.9,159.112q1.49,2.748,2.828,5.573c.177.374.352.752.525,1.129q1.1,2.385,2.092,4.815c.011.026.022.055.033.081a.55.55,0,0,1,.055.222.543.543,0,0,1-.043.225.546.546,0,0,1-.327.3Z" fill="#fff"/>
          <path id="Path_94" data-name="Path 94" d="M103.462,123.13A14.292,14.292,0,1,0,89.17,108.839,14.291,14.291,0,0,0,103.462,123.13Z" fill="#3e66fb"/>
          <path id="Path_95" data-name="Path 95" d="M102.045,114.289a1.477,1.477,0,0,1-.891-.3l-.016-.012-3.359-2.571a1.493,1.493,0,0,1,.712-2.665,1.518,1.518,0,0,1,.581.038,1.486,1.486,0,0,1,.522.258l2.176,1.668L106.911,104a1.494,1.494,0,0,1,2.092-.276l-.032.043.032-.042a1.494,1.494,0,0,1,.277,2.092l-6.047,7.886a1.491,1.491,0,0,1-1.188.582Z" fill="#fff"/>
          <path id="Path_96" data-name="Path 96" d="M98.2,100.44A3.936,3.936,0,0,0,95.9,94.856L80.581,62.439l-7.01,4.915L90.838,97.673A3.958,3.958,0,0,0,98.2,100.44Z" fill="#ffb8b8"/>
          <path id="Path_97" data-name="Path 97" d="M84.095,67.847l-8.138,3.639a1.765,1.765,0,0,1-2.42-1.135l-2.4-8.558A4.9,4.9,0,0,1,80.1,57.818l4.764,7.469a1.765,1.765,0,0,1-.768,2.56Z" fill="#ccc"/>
          <path id="Path_98" data-name="Path 98" d="M46.509,103.654a3.937,3.937,0,0,0,2.728-5.385L63.749,65.482l-8.3-2.091L43.793,96.277a3.958,3.958,0,0,0,2.716,7.377Z" fill="#ffb8b8"/>
          <path id="Path_99" data-name="Path 99" d="M42.553,163.084l4.222,1.537,7.938-15.552L48.481,146.8Z" fill="#ffb8b8"/>
          <path id="Path_100" data-name="Path 100" d="M53.488,171.506l-13.268-4.831,1.867-5.126,8.141,2.964a5.456,5.456,0,0,1,3.26,6.993Z" fill="#2f2e41"/>
          <path id="Path_101" data-name="Path 101" d="M52.538,154.135a1.733,1.733,0,0,1-.749-.168l-4.852-2.3a1.758,1.758,0,0,1-.9-2.2l13.692-37.916a1.765,1.765,0,0,1,3.174-.308l7.242,12.07a1.768,1.768,0,0,1,.019,1.784L54.077,153.248a1.774,1.774,0,0,1-1.539.887Z" fill="#2f2e41"/>
          <path id="Path_102" data-name="Path 102" d="M81.734,82.666,65.8,78.283,57.322,61.332A5.341,5.341,0,0,1,62.1,53.6H74.779a5.334,5.334,0,0,1,3.566,1.364c3.4,3.047,10.547,11.831,3.459,27.548Z" fill="#ccc"/>
          <path id="Path_103" data-name="Path 103" d="M61.784,71.347,53.71,67.567a1.765,1.765,0,0,1-.724-2.573l4.907-7.411a4.9,4.9,0,0,1,8.867,4.183l-2.537,8.488a1.765,1.765,0,0,1-2.439,1.093Z" fill="#ccc"/>
          <path id="Path_104" data-name="Path 104" d="M71.553,167.335h4.492l2.137-17.329H71.552Z" fill="#ffb8b8"/>
          <path id="Path_105" data-name="Path 105" d="M84.71,171.506H70.591v-5.456h8.664a5.454,5.454,0,0,1,5.456,5.455Z" fill="#2f2e41"/>
          <path id="Path_106" data-name="Path 106" d="M73.25,160.73a1.756,1.756,0,0,1-1.722-1.4c-1.291-6.085-8-37.251-13.233-53.3C52.969,89.7,62.04,82.256,63.912,80.93a1.377,1.377,0,0,0,.459-.554l1.36-2.992a1.771,1.771,0,0,1,1.611-1.036h.011c10.2.061,13.626,3.275,14.627,4.655a1.745,1.745,0,0,1,.276,1.439L75.8,109.062a1.375,1.375,0,0,0-.027.505L82.2,157.9a1.766,1.766,0,0,1-1.548,1.986l-7.193.83A1.8,1.8,0,0,1,73.25,160.73Z" fill="#2f2e41"/>
          <path id="Path_107" data-name="Path 107" d="M224.759,75.123a4.764,4.764,0,1,0-4.764-4.764A4.763,4.763,0,0,0,224.759,75.123Z" fill="#3e66fb"/>
          <path id="Path_108" data-name="Path 108" d="M224.286,72.178a.493.493,0,0,1-.3-.1l-.006,0-1.119-.857a.5.5,0,0,1-.192-.33.508.508,0,0,1,.013-.194.5.5,0,0,1,.086-.174.483.483,0,0,1,.146-.128.5.5,0,0,1,.378-.05.5.5,0,0,1,.174.086l.725.556,1.714-2.235a.484.484,0,0,1,.146-.128.5.5,0,0,1,.551.036l-.011.014.011-.014a.5.5,0,0,1,.092.7l-2.015,2.629a.5.5,0,0,1-.4.194Z" fill="#fff"/>
          <path id="Path_109" data-name="Path 109" d="M224.759,89.049a4.764,4.764,0,1,0-4.764-4.764A4.763,4.763,0,0,0,224.759,89.049Z" fill="#3e66fb"/>
          <path id="Path_110" data-name="Path 110" d="M224.286,86.1a.492.492,0,0,1-.3-.1l-.006,0-1.119-.857a.5.5,0,0,1-.192-.33.507.507,0,0,1,.013-.194.5.5,0,0,1,.086-.174.483.483,0,0,1,.146-.128.5.5,0,0,1,.378-.049.5.5,0,0,1,.174.086l.725.556,1.714-2.235a.483.483,0,0,1,.146-.128.5.5,0,0,1,.551.036l-.011.015.011-.014a.5.5,0,0,1,.092.7l-2.015,2.629a.5.5,0,0,1-.4.194Z" fill="#fff"/>
          <path id="Path_111" data-name="Path 111" d="M227.323,105.174a4.764,4.764,0,1,0-4.763-4.764A4.764,4.764,0,0,0,227.323,105.174Z" fill="#3e66fb"/>
          <path id="Path_112" data-name="Path 112" d="M226.851,102.227a.5.5,0,0,1-.3-.1l-.005,0-1.12-.857a.5.5,0,0,1-.128-.146.5.5,0,0,1-.051-.378.5.5,0,0,1,.416-.365.488.488,0,0,1,.194.013.5.5,0,0,1,.174.086l.725.556,1.714-2.235a.5.5,0,0,1,.146-.128.5.5,0,0,1,.184-.062.5.5,0,0,1,.367.1l-.01.015.011-.014a.5.5,0,0,1,.092.7l-2.016,2.629a.506.506,0,0,1-.175.143A.511.511,0,0,1,226.851,102.227Z" fill="#fff"/>
          <path id="Path_113" data-name="Path 113" d="M273.261,140.183c-.05,0-.081,0-.091,0h-5.915v-.872h5.936c.137,0,2.941.084,5.525-3.051,3.85-4.672,7.011-16.238.21-44.8-9.146-38.412-1.518-72.347,2.186-85.154A4.252,4.252,0,0,0,277.021.872H188.693a4.273,4.273,0,0,0-3.445,1.753c-1.569,2.158-3.722,6.3-5.069,13.8l-.859-.154c1.377-7.66,3.6-11.929,5.223-14.161A5.145,5.145,0,0,1,188.693,0h88.328a5.125,5.125,0,0,1,4.929,6.544c-3.685,12.741-11.274,46.5-2.176,84.709,6.9,28.968,3.582,40.784-.414,45.6A8.265,8.265,0,0,1,273.261,140.183Z" fill="#e6e6e6"/>
          <path id="Path_114" data-name="Path 114" d="M257.346,156.1c-.049,0-.081,0-.091,0H251.34v-.872h5.936c.138,0,2.941.084,5.525-3.051,3.85-4.672,7.011-16.237.21-44.8-9.146-38.412-1.518-72.347,2.186-85.154a4.252,4.252,0,0,0-4.091-5.429H172.778a4.273,4.273,0,0,0-3.445,1.753c-1.569,2.158-3.722,6.3-5.069,13.8l-.859-.154c1.377-7.661,3.6-11.929,5.223-14.161a5.144,5.144,0,0,1,4.15-2.113h88.328a5.125,5.125,0,0,1,4.929,6.544c-3.685,12.74-11.274,46.5-2.176,84.709,6.9,28.968,3.582,40.784-.414,45.6A8.265,8.265,0,0,1,257.346,156.1Z" fill="#ccc"/>
          <path id="Path_115" data-name="Path 115" d="M247.944,123.086c-9.1-38.21-1.51-71.971,2.177-84.709a5.128,5.128,0,0,0-4.929-6.545h-88.33a5.139,5.139,0,0,0-4.148,2.111c-3.566,4.9-10.965,21.163-2.7,66.152,4.419,24.069,4.353,40.478,2.91,51.289a57.7,57.7,0,0,1-3.192,13.3l-.121.308a5,5,0,0,0-.367,1.85,5.077,5.077,0,0,0,1.66,3.812,4.861,4.861,0,0,0,1.162.806,4.927,4.927,0,0,0,1.11.407,5.047,5.047,0,0,0,1.2.142H241.34c.011,0,.041,0,.092,0a8.264,8.264,0,0,0,6.1-3.335C251.524,163.869,254.84,152.054,247.944,123.086Zm-1.059,45c-2.584,3.137-5.387,3.057-5.523,3.053H154.374a4.258,4.258,0,0,1-3.529-1.873,4.156,4.156,0,0,1-.59-3.455,3.5,3.5,0,0,1,.161-.5,53.692,53.692,0,0,0,2.862-10.282c2.067-11.269,2.452-28.657-2.408-55.1-8.2-44.656-.949-60.67,2.547-65.482a4.282,4.282,0,0,1,3.445-1.752h88.33a4.251,4.251,0,0,1,4.089,5.427c-3.7,12.807-11.33,46.745-2.184,85.157C253.9,151.853,250.736,163.418,246.885,168.09Z" fill="#3f3d56"/>
          <path id="Path_116" data-name="Path 116" d="M205.981,73.437H160.473a3.488,3.488,0,1,1,0-6.976h45.508a3.488,3.488,0,0,1,0,6.976Z" fill="#ccc"/>
          <path id="Path_117" data-name="Path 117" d="M205.981,88.463H160.473a3.488,3.488,0,1,1,0-6.976h45.508a3.488,3.488,0,0,1,0,6.976Z" fill="#ccc"/>
          <path id="Path_118" data-name="Path 118" d="M209.645,103.853H164.137a3.488,3.488,0,0,1,0-6.976h45.508a3.488,3.488,0,1,1,0,6.976Z" fill="#ccc"/>
          <path id="Path_119" data-name="Path 119" d="M212.211,119.978H166.7a3.488,3.488,0,1,1,0-6.976h45.508a3.488,3.488,0,1,1,0,6.976Z" fill="#ccc"/>
          <path id="Path_120" data-name="Path 120" d="M212.23,46.353h-32.7a3.488,3.488,0,1,1,0-6.976h32.7a3.488,3.488,0,1,1,0,6.976Z" fill="#3e66fb"/>
          <path id="Path_121" data-name="Path 121" d="M230.255,121.254a4.764,4.764,0,1,0-4.764-4.764A4.764,4.764,0,0,0,230.255,121.254Z" fill="#ccc"/>
          <path id="Path_122" data-name="Path 122" d="M214.41,135.736H168.9a3.488,3.488,0,1,1,0-6.976H214.41a3.488,3.488,0,0,1,0,6.976Z" fill="#ccc"/>
          <path id="Path_123" data-name="Path 123" d="M232.454,137.01a4.764,4.764,0,1,0-4.764-4.764A4.764,4.764,0,0,0,232.454,137.01Z" fill="#ccc"/>
        </g>
      </g>
      <path id="Vector" d="M22,10.5a10.247,10.247,0,0,1-2.994,7.2,11.226,11.226,0,0,1-7.354,3.281,11.344,11.344,0,0,1-7.709-2.427A10.375,10.375,0,0,1,.077,11.74,10.149,10.149,0,0,1,2.16,4.251,11.082,11.082,0,0,1,9.058.165a11.43,11.43,0,0,1,7.955,1.542,10.524,10.524,0,0,1,4.681,6.331A10,10,0,0,1,22,10.5Z" transform="translate(1160 714)" fill="#fbbebe"/>
      <path id="Vector-2" data-name="Vector" d="M1.206,5.863a7.371,7.371,0,0,0,.67,2.532,8.7,8.7,0,0,1-.126,4.954c-.488,1.688-1.306,3.473-.683,5.123.144.388.361.743.492,1.131.54,1.6-.461,3.292-1.558,4.6l4.3,2.924A5.017,5.017,0,0,0,6.481,28.14a1.709,1.709,0,0,0,1.907-1.093c.057-.262,0-.536.052-.8a2.142,2.142,0,0,1,.4-.952,2.229,2.229,0,0,1,.806-.668,4.052,4.052,0,0,1,2.085-.376c2.642.139,4.888,1.823,7.291,2.9a29.982,29.982,0,0,0,4.906,1.578,4.056,4.056,0,0,0,2.873,0,2.612,2.612,0,0,0,1.193-2.494,7.984,7.984,0,0,0-.914-2.747,6.83,6.83,0,0,1-.84-2.764c0-1.418.8-2.709,1.071-4.1a9.119,9.119,0,0,0-1.332-5.79A24.17,24.17,0,0,1,23.44,5.348a7.823,7.823,0,0,0-.475-1.734,3.963,3.963,0,0,0-.871-1.131A9.909,9.909,0,0,0,15.923.039,28.824,28.824,0,0,0,9.154.613a14.524,14.524,0,0,0-2.512.578,16.118,16.118,0,0,0-3.3,1.734A4.177,4.177,0,0,0,1.206,5.863Z" transform="translate(1157 714)" fill="#464353"/>
      <path id="Vector-3" data-name="Vector" d="M22,10.5a10.247,10.247,0,0,1-2.994,7.2,11.226,11.226,0,0,1-7.354,3.281,11.344,11.344,0,0,1-7.709-2.427A10.375,10.375,0,0,1,.077,11.74,10.149,10.149,0,0,1,2.16,4.251,11.082,11.082,0,0,1,9.058.165a11.43,11.43,0,0,1,7.955,1.542,10.524,10.524,0,0,1,4.681,6.331A10,10,0,0,1,22,10.5Z" transform="translate(1160 712)" fill="#fbbebe"/>
      <path id="Vector-1" d="M25,30.979a9.088,9.088,0,0,1-3.9-.594,8.951,8.951,0,0,1-3.26-2.185,1.075,1.075,0,0,1-.319-.509,1.009,1.009,0,0,1,.2-.713c.531-.8,1.447-1.335,1.872-2.2a6.869,6.869,0,0,0,.319-2.809c.071-1.7.752-3.382.81-5.056a5.194,5.194,0,0,0-.1-1.278,7.886,7.886,0,0,1-.372-1.926c.057-1.274,1.226-2.265,1.421-3.522.252-1.6-1.1-2.991-2.456-3.913a14.731,14.731,0,0,0-3.346-1.7,11.054,11.054,0,0,0-2.248-.535,8.909,8.909,0,0,0-4.235.465,6.959,6.959,0,0,0-1.575.826,2.113,2.113,0,0,0-.7.717,2.3,2.3,0,0,0-.186,1.039C6.9,8.867,7.1,10.758,6.24,12.306c-.443.83-1.195,1.5-1.562,2.383A3.9,3.9,0,0,0,4.4,15.832a11.321,11.321,0,0,0-.066,1.226c-.027,2.291,0,4.709,1.186,6.7a17.393,17.393,0,0,1,1.137,1.874,2.1,2.1,0,0,1-.111,2.083,2.409,2.409,0,0,1-.885.652,7.2,7.2,0,0,1-5.66.2,7.016,7.016,0,0,0,2.088-3.673A6.933,6.933,0,0,0,1.673,20.7a4.584,4.584,0,0,1-.611-1.739A4.353,4.353,0,0,1,1.5,17.371a8.55,8.55,0,0,0,.27-5.1,18.325,18.325,0,0,1-.823-3.1,9.215,9.215,0,0,1,.106-2.409A7.767,7.767,0,0,1,2.9,2.927,7.979,7.979,0,0,1,6.514.6c.226-.074.443-.143.69-.2A14.973,14.973,0,0,1,10.475.05a25.263,25.263,0,0,1,7.316.483,9.881,9.881,0,0,1,3.788,1.913,6.73,6.73,0,0,1,1.832,2.378,8.151,8.151,0,0,1,.518,1.643c.1.465.177.935.252,1.4.536,3.343,1.071,6.752.5,10.091-.226,1.3-.62,2.609-.8,3.939C23.455,24.966,24.23,28.014,25,30.979Z" transform="translate(1158 712)" fill="#464353"/>
    </g>
  </g>
</svg>
