<svg width="33" height="32" viewBox="0 0 33 32" fill="none" xmlns="http://www.w3.org/2000/svg">
<ellipse cx="16.0236" cy="16" rx="15.9865" ry="16" fill="#3E66FB"/>
<ellipse cx="16.0236" cy="16" rx="15.9865" ry="16" fill="white" fill-opacity="0.5"/>
<path fill-rule="evenodd" clip-rule="evenodd" d="M10.1179 6.4336C9.24562 6.59133 8.56796 7.30427 8.46405 8.1736C8.44983 8.29238 8.44297 9.34871 8.44293 11.4176L8.44287 14.4855H7.85977C7.38336 14.4855 7.25721 14.4912 7.17044 14.5167C6.80061 14.6255 6.51725 14.9321 6.44881 15.2978C6.43295 15.3825 6.42843 16.2985 6.43264 18.5858L6.43845 21.7565L6.48241 21.8731C6.57084 22.1077 6.75288 22.3214 6.95721 22.4304C7.16025 22.5387 7.24008 22.5491 7.86833 22.5491H8.43933L8.44756 23.2097C8.45544 23.8444 8.45775 23.8776 8.50621 24.0585C8.71615 24.8421 9.33633 25.417 10.1191 25.5536C10.3695 25.5973 21.6501 25.5977 21.8993 25.554C22.5696 25.4366 23.1411 24.987 23.4031 24.3712C23.5532 24.0182 23.5787 23.8329 23.5787 23.0928V22.5491H24.1515C24.7817 22.5491 24.8612 22.5388 25.0644 22.4304C25.2687 22.3214 25.4507 22.1077 25.5392 21.8731L25.5831 21.7565L25.5883 18.5705C25.594 15.0514 25.6007 15.2525 25.4703 15.0064C25.3504 14.7803 25.0962 14.5803 24.8426 14.5127C24.7686 14.493 24.5897 14.4859 24.1605 14.4858L23.5787 14.4855V12.4647V10.4439L21.5596 8.4231L19.5405 6.40234L14.9059 6.40411C10.9972 6.40557 10.2473 6.41019 10.1179 6.4336ZM18.5334 8.51354C18.5334 9.38729 18.5392 9.63996 18.5621 9.77103C18.6993 10.5552 19.2705 11.1757 20.0504 11.3877L20.2445 11.4405L21.4032 11.4473L22.5618 11.4541V12.9698V14.4855H16.0108H9.45975V11.3721V8.25879L9.50942 8.11067C9.62084 7.7785 9.86978 7.54062 10.2029 7.44805C10.2719 7.42885 11.1799 7.42321 14.4121 7.42182L18.5334 7.42008V8.51354ZM10.8091 15.5309C11.2021 15.5934 11.4803 15.6932 11.7362 15.8636C12.2615 16.2135 12.5381 16.8617 12.4708 17.5854C12.4222 18.1079 12.2466 18.5068 11.9303 18.8133C11.6373 19.0972 11.2948 19.2643 10.8044 19.3627C10.616 19.4005 10.5213 19.4069 10.1492 19.4074L9.7143 19.4078L9.70925 20.4745L9.70419 21.5412L9.07347 21.5463L8.44275 21.5515L8.4477 18.5818L8.45265 15.612L8.54065 15.5969C9.15154 15.4925 10.348 15.4576 10.8091 15.5309ZM15.6979 15.5038C16.2851 15.5447 16.7059 15.6443 17.0969 15.835C17.6288 16.0944 18.0259 16.4917 18.2599 16.9986C18.6467 17.8366 18.6171 19.1176 18.1912 19.9677C17.6912 20.9659 16.8242 21.4377 15.3133 21.5338C14.8635 21.5624 13.9095 21.5237 13.5517 21.4622L13.4881 21.4513V18.529V15.6066L13.5908 15.5938C14.3928 15.4942 15.1163 15.4633 15.6979 15.5038ZM23.5741 16.0464L23.5689 16.6091L22.3027 16.6141L21.0365 16.6192V17.304V17.9889H22.2196H23.4027V18.5467V19.1045H22.2196H21.0365V20.3277V21.551H20.2934H19.5503V18.5173V15.4837H21.5648H23.5793L23.5741 16.0464ZM9.81634 16.5408C9.77046 16.5504 9.72425 16.5636 9.71367 16.5701C9.70149 16.5776 9.69441 16.9052 9.69441 17.4607V18.3394L9.76774 18.3547C9.90365 18.3832 10.3592 18.371 10.4921 18.3354C10.9826 18.2039 11.2431 17.8422 11.2137 17.3332C11.1918 16.9514 11.0118 16.7047 10.6624 16.5772C10.5627 16.5408 10.4966 16.5335 10.2224 16.5289C10.0449 16.5259 9.86222 16.5312 9.81634 16.5408ZM14.9646 16.5432C14.8893 16.5527 14.8167 16.5645 14.8032 16.5695C14.7839 16.5766 14.7788 16.9841 14.7788 18.5173C14.7788 20.3454 14.7808 20.457 14.813 20.4702C14.8754 20.4959 15.5625 20.4857 15.7077 20.4571C16.4906 20.3023 16.9685 19.7984 17.1155 18.9725C17.1603 18.7206 17.1741 18.3272 17.1463 18.0894C17.1121 17.7954 17.061 17.6146 16.9465 17.3822C16.8584 17.2033 16.8223 17.1538 16.6676 16.9999C16.4761 16.8094 16.3251 16.716 16.064 16.6264C15.7868 16.5313 15.3322 16.4969 14.9646 16.5432ZM22.5618 23.1327C22.5618 23.7718 22.556 23.8154 22.4396 24.0464C22.3661 24.1923 22.1777 24.38 22.0308 24.4537C21.7936 24.5726 22.2299 24.5645 16.0045 24.5648L10.2978 24.565L10.1522 24.5161C9.82547 24.4064 9.61854 24.1998 9.50942 23.8744C9.46061 23.7289 9.45975 23.7161 9.45975 23.1377V22.5491H16.0108H22.5618V23.1327Z" fill="white"/>
</svg>
