<svg xmlns="http://www.w3.org/2000/svg" xmlns:xlink="http://www.w3.org/1999/xlink" width="279.007" height="185.698" viewBox="0 0 279.007 185.698">
  <defs>
    <clipPath id="clip-path">
      <rect id="Rectangle_1" data-name="Rectangle 1" width="216.425" height="165.5" transform="translate(32.766 19.754)" fill="#fff"/>
    </clipPath>
  </defs>
  <g id="download-illustration" transform="translate(-0.993)">
    <path id="Path_1" data-name="Path 1" d="M.993,23.828A23.828,23.828,0,0,1,24.821,0H254.175A23.828,23.828,0,0,1,278,23.828V184.369H.993Z" transform="translate(1 1)" fill="#3e66fb"/>
    <path id="Path_2" data-name="Path 2" d="M.993,24a24,24,0,0,1,24-24H256a24,24,0,0,1,24,24V185.7H.993Z" fill="rgba(255,255,255,0.95)"/>
    <g id="Group_2" data-name="Group 2" clip-path="url(#clip-path)">
      <g id="Group_1" data-name="Group 1">
        <path id="Path_3" data-name="Path 3" d="M91.136,125.677A12.87,12.87,0,1,0,78.2,112.807,12.9,12.9,0,0,0,91.136,125.677Z"/>
        <path id="Path_4" data-name="Path 4" d="M92.223,125.7a10.536,10.536,0,1,0-10.591-10.536A10.564,10.564,0,0,0,92.223,125.7Z" fill="#a0616a"/>
        <path id="Path_5" data-name="Path 5" d="M132.558,147.211a4.591,4.591,0,0,0-.462.542L110.724,147l-2.445-4.561-7.4,2.771,3.538,8.494a3.455,3.455,0,0,0,3.564,2.1l24.185-2.642a4.5,4.5,0,1,0,.392-5.948Z" fill="#a0616a"/>
        <path id="Path_6" data-name="Path 6" d="M98.032,149.318a2.065,2.065,0,0,1-1.14-1.294l-2.975-9.939a5.732,5.732,0,0,1,2.761-7.64,5.776,5.776,0,0,1,7.678,2.753l5.766,8.68a2.06,2.06,0,0,1-.15,2.478,2.1,2.1,0,0,1-.7.534l-9.5,4.414a2.083,2.083,0,0,1-1.73.012Z" fill="#ccc"/>
        <path id="Path_7" data-name="Path 7" d="M100.839,160.215l1.724,20.591L121.8,238.228a1.713,1.713,0,0,1-1.091,2.171,1.435,1.435,0,0,1-.146.041l-5.9,1.4a1.727,1.727,0,0,1-1.94-.9L88.132,192.4a.864.864,0,0,0-.878-.465.859.859,0,0,0-.734.667L75.7,241.659a1.714,1.714,0,0,1-.6.969,1.732,1.732,0,0,1-1.081.379H68.523a1.751,1.751,0,0,1-.659-.129,1.725,1.725,0,0,1-.559-.371,1.708,1.708,0,0,1-.507-1.21c0-.01,0-.019,0-.029.5-34.019-1.156-72.779,12.047-78.91L81,156.781Z"/>
        <path id="Path_8" data-name="Path 8" d="M80.381,158.239l-2.223-13.375A13.229,13.229,0,0,1,94.588,129.88c.126.033.252.068.379.1a13.222,13.222,0,0,1,9.583,11.731c.424,5.808.043,14.235-4.174,21.393l-.082.139Z" fill="#ccc"/>
        <path id="Path_9" data-name="Path 9" d="M102.759,109.564a14.459,14.459,0,0,1-8.233,2.531,8.855,8.855,0,0,0,3.5,1.432,29.2,29.2,0,0,1-11.865.066,7.724,7.724,0,0,1-2.484-.848,3.131,3.131,0,0,1-1.533-2.04c-.259-1.48.9-2.824,2.1-3.729a15.571,15.571,0,0,1,13.033-2.591,7.147,7.147,0,0,1,3.86,2.17,3.483,3.483,0,0,1,.324,4.154Z"/>
        <path id="Path_10" data-name="Path 10" d="M90.966,99.876c1.228-4.933-3.173-10.411-8.28-10.308-5.18.1-8.993,4.762-11.613,9.208s-5.224,9.488-10.034,11.4a10.378,10.378,0,0,1-13.088-4.906,10.263,10.263,0,0,1-1.119-4.915c-.647,5.4.249,11.247,3.752,15.426s10.019,6.062,14.7,3.253c2.674-1.6,4.385-4.391,5.795-7.164s2.664-5.7,4.8-7.963,5.438-3.772,8.411-2.818a29.254,29.254,0,0,0,3.457,1.341c1.219.225,2.754-.352,2.92-1.574Z"/>
        <path id="Path_11" data-name="Path 11" d="M65.438,189.291a4.6,4.6,0,0,1,1.183-6.968l9.187-40.968,9.32,3.806L73.167,184.233a4.619,4.619,0,0,1-1.6,5.951,4.673,4.673,0,0,1-6.128-.893Z" fill="#a0616a"/>
        <path id="Path_12" data-name="Path 12" d="M72.169,147.237a2.055,2.055,0,0,1-.145-1.716l3.533-9.757a5.768,5.768,0,0,1,11.317,2.231l-.537,10.391a2.062,2.062,0,0,1-.8,1.525,2.082,2.082,0,0,1-1.684.394l-10.285-2.059a2.07,2.07,0,0,1-1.4-1.011Z" fill="#ccc"/>
        <path id="Path_13" data-name="Path 13" d="M176.126,37.492a2.581,2.581,0,0,0-2.358-1.57H126.695a2.558,2.558,0,0,0-1.8.744,2.53,2.53,0,0,0-.748,1.795V97.7a2.529,2.529,0,0,0,.748,1.795,2.556,2.556,0,0,0,1.8.744h47.073a2.562,2.562,0,0,0,1.8-.744,2.536,2.536,0,0,0,.748-1.794V38.461A2.465,2.465,0,0,0,176.126,37.492ZM175.753,97.7a1.982,1.982,0,0,1-1.984,1.973H126.695a1.978,1.978,0,0,1-1.983-1.973V38.461a1.971,1.971,0,0,1,.582-1.394,1.993,1.993,0,0,1,1.4-.579h47.073a1.993,1.993,0,0,1,1.842,1.244,2.177,2.177,0,0,1,.075.223,1.95,1.95,0,0,1,.068.51Z" fill="#ccc"/>
        <path id="Path_14" data-name="Path 14" d="M166.3,49.909H152.123a1.14,1.14,0,0,1-.8-.33,1.129,1.129,0,0,1,.8-1.926H166.3a1.138,1.138,0,0,1,.788.338,1.126,1.126,0,0,1,0,1.58,1.137,1.137,0,0,1-.788.338Z" fill="#ccc"/>
        <path id="Path_15" data-name="Path 15" d="M166.3,55.831H152.123a1.14,1.14,0,0,1-.8-.331,1.125,1.125,0,0,1,0-1.6,1.14,1.14,0,0,1,.8-.331H166.3a1.129,1.129,0,0,1,0,2.257Z" fill="#ccc"/>
        <path id="Path_16" data-name="Path 16" d="M144.85,59.207H134.486a1.281,1.281,0,0,1-.9-.372,1.267,1.267,0,0,1-.374-.9V45.773a1.266,1.266,0,0,1,.374-.9,1.281,1.281,0,0,1,.9-.372H144.85a1.276,1.276,0,0,1,1.276,1.269V57.937a1.274,1.274,0,0,1-1.276,1.269Z" fill="#ccc"/>
        <path id="Path_17" data-name="Path 17" d="M166.2,67.964H134.16a1.14,1.14,0,0,1-.8-.33,1.125,1.125,0,0,1,0-1.6,1.14,1.14,0,0,1,.8-.33H166.2a1.128,1.128,0,1,1,0,2.257Z" fill="#ccc"/>
        <path id="Path_18" data-name="Path 18" d="M166.2,73.89H134.16a1.14,1.14,0,0,1-.8-.331,1.125,1.125,0,0,1,0-1.6,1.14,1.14,0,0,1,.8-.331H166.2a1.128,1.128,0,1,1,0,2.257Z" fill="#ccc"/>
        <path id="Path_19" data-name="Path 19" d="M166.2,79.812H134.16a1.131,1.131,0,0,1-1.135-1.129,1.128,1.128,0,0,1,.332-.8,1.14,1.14,0,0,1,.8-.33H166.2a1.128,1.128,0,1,1,0,2.257Z" fill="#ccc"/>
        <path id="Path_20" data-name="Path 20" d="M166.2,85.733H134.16a1.128,1.128,0,1,1,0-2.257H166.2a1.128,1.128,0,1,1,0,2.257Z" fill="#ccc"/>
        <path id="Path_21" data-name="Path 21" d="M166.2,91.659H134.16a1.128,1.128,0,1,1,0-2.257H166.2a1.128,1.128,0,1,1,0,2.257Z" fill="#ccc"/>
        <path id="Path_22" data-name="Path 22" d="M204.555,72.471a3.277,3.277,0,0,0-3-1.995H141.737a3.251,3.251,0,0,0-2.292.945,3.217,3.217,0,0,0-.95,2.281v75.286a3.235,3.235,0,0,0,3.242,3.226h59.824a3.238,3.238,0,0,0,3.242-3.226V73.7a3.155,3.155,0,0,0-.245-1.231Z" fill="#e6e6e6"/>
        <path id="Path_23" data-name="Path 23" d="M199.684,147.987h-55.9c-.806,0-1.437-.878-1.437-2V76.152c0-1.119.633-2,1.437-2h55.9c.806,0,1.437.878,1.437,2v69.839C201.12,147.11,200.489,147.987,199.684,147.987Z" fill="#fff"/>
        <path id="Path_24" data-name="Path 24" d="M204.555,72.471a3.277,3.277,0,0,0-3-1.995H141.737a3.251,3.251,0,0,0-2.292.945,3.217,3.217,0,0,0-.95,2.281v75.286a3.235,3.235,0,0,0,3.242,3.226h59.824a3.238,3.238,0,0,0,3.242-3.226V73.7a3.155,3.155,0,0,0-.245-1.231Zm-.474,76.518a2.509,2.509,0,0,1-.74,1.774,2.535,2.535,0,0,1-1.783.736H141.737a2.53,2.53,0,0,1-1.783-.735,2.5,2.5,0,0,1-.739-1.774V73.7a2.52,2.52,0,0,1,2.522-2.51h59.824a2.536,2.536,0,0,1,2.341,1.579,2.813,2.813,0,0,1,.1.283,2.486,2.486,0,0,1,.086.648Z"/>
        <path id="Path_25" data-name="Path 25" d="M192.071,88.251H174.052a1.434,1.434,0,1,1,0-2.868h18.019a1.447,1.447,0,0,1,1.02.42,1.429,1.429,0,0,1,0,2.028A1.447,1.447,0,0,1,192.071,88.251Z"/>
        <path id="Path_26" data-name="Path 26" d="M192.071,95.778H174.052a1.434,1.434,0,1,1,0-2.868h18.019a1.447,1.447,0,0,1,1.02.42,1.429,1.429,0,0,1,0,2.028A1.447,1.447,0,0,1,192.071,95.778Z"/>
        <path id="Path_27" data-name="Path 27" d="M164.807,100.068H151.639a1.619,1.619,0,0,1-1.622-1.613V83a1.62,1.62,0,0,1,1.622-1.613h13.168A1.62,1.62,0,0,1,166.429,83V98.455a1.619,1.619,0,0,1-1.622,1.613Z" fill="#3e66fb"/>
        <path id="Path_28" data-name="Path 28" d="M191.946,111.192H151.224a1.447,1.447,0,0,1-1.02-.42,1.429,1.429,0,0,1,0-2.028,1.447,1.447,0,0,1,1.02-.42h40.722a1.447,1.447,0,0,1,1.02.42,1.429,1.429,0,0,1,0,2.028A1.447,1.447,0,0,1,191.946,111.192Z" fill="#e6e6e6"/>
        <path id="Path_29" data-name="Path 29" d="M191.946,118.72H151.224a1.434,1.434,0,1,1-.008-2.868h40.73a1.447,1.447,0,0,1,1.02.42,1.429,1.429,0,0,1,0,2.028A1.447,1.447,0,0,1,191.946,118.72Z" fill="#e6e6e6"/>
        <path id="Path_30" data-name="Path 30" d="M191.946,126.251H151.224a1.447,1.447,0,0,1-1.02-.42,1.429,1.429,0,0,1,0-2.028,1.447,1.447,0,0,1,1.02-.42h40.722a1.446,1.446,0,0,1,1.021.417,1.429,1.429,0,0,1,.006,2.028,1.445,1.445,0,0,1-1.019.423Z" fill="#e6e6e6"/>
        <path id="Path_31" data-name="Path 31" d="M191.946,133.782H151.224a1.434,1.434,0,0,1-1.446-1.43,1.418,1.418,0,0,1,.108-.549,1.444,1.444,0,0,1,1.33-.889h40.73a1.447,1.447,0,0,1,1.02.42,1.429,1.429,0,0,1,0,2.028A1.447,1.447,0,0,1,191.946,133.782Z" fill="#e6e6e6"/>
        <path id="Path_32" data-name="Path 32" d="M191.946,141.31H151.224a1.435,1.435,0,1,1-.008-2.869h40.73a1.447,1.447,0,0,1,1.02.42,1.43,1.43,0,0,1,0,2.029A1.451,1.451,0,0,1,191.946,141.31Z" fill="#e6e6e6"/>
        <path id="Path_33" data-name="Path 33" d="M212.033,88.1a23.165,23.165,0,1,0-23.286-23.165A23.225,23.225,0,0,0,212.033,88.1Z" fill="#3e66fb"/>
        <path id="Path_34" data-name="Path 34" d="M215.7,65.7V52.922h-6.616V65.7H206l3.2,5.51,3.2,5.511,3.2-5.511,3.2-5.511Z" fill="#fff"/>
      </g>
    </g>
  </g>
</svg>
