<svg width="16" height="15" viewBox="0 0 16 15" fill="none" xmlns="http://www.w3.org/2000/svg">
<path opacity="0.4" d="M12.1655 4.06641C14.0037 4.06641 15.5 5.57357 15.5 7.42599L15.5 11.1082C15.5 12.9561 14.0075 14.4594 12.173 14.4594L3.836 14.4594C1.997 14.4594 0.5 12.953 0.5 11.1006L0.5 7.41844C0.5 5.57055 1.99325 4.06641 3.8285 4.06641H4.5335L12.1655 4.06641Z" fill="#B57BFF"/>
<path d="M8.4097 10.464L10.5914 8.29236C10.8164 8.06792 10.8164 7.70672 10.5899 7.48302C10.3634 7.26006 9.9982 7.2608 9.7732 7.4845L8.57845 8.67363L8.57845 1.13086C8.57845 0.814999 8.3197 0.558594 8.0002 0.558594C7.68145 0.558594 7.42345 0.814999 7.42345 1.13086L7.42345 8.67363L6.22795 7.4845C6.00295 7.2608 5.6377 7.26006 5.4112 7.48302C5.29795 7.59524 5.24095 7.74165 5.24095 7.88881C5.24095 8.03447 5.29795 8.18088 5.4097 8.29236L7.59145 10.464C7.7002 10.5718 7.8472 10.6327 8.0002 10.6327C8.15395 10.6327 8.30095 10.5718 8.4097 10.464Z" fill="#B57BFF"/>
</svg>
