<svg width="10" height="10" viewBox="0 0 10 10" fill="none" xmlns="http://www.w3.org/2000/svg">
<path opacity="0.4" d="M4.7885 1.16211H3.23058C1.94933 1.16211 1.146 2.06919 1.146 3.35336V6.81753C1.146 8.10169 1.94558 9.00878 3.23058 9.00878H6.90725C8.19266 9.00878 8.99225 8.10169 8.99225 6.81753V5.13919" stroke="black" stroke-width="0.75" stroke-linecap="round" stroke-linejoin="round"/>
<path fill-rule="evenodd" clip-rule="evenodd" d="M3.67826 4.55086L6.79201 1.43711C7.17993 1.04961 7.80868 1.04961 8.19659 1.43711L8.70368 1.94419C9.09159 2.33211 9.09159 2.96128 8.70368 3.34878L5.57493 6.47753C5.40535 6.64711 5.17535 6.74253 4.93535 6.74253H3.37451L3.41368 5.16753C3.41951 4.93586 3.5141 4.71503 3.67826 4.55086Z" stroke="black" stroke-width="0.75" stroke-linecap="round" stroke-linejoin="round"/>
<path d="M6.31885 1.91797L8.22135 3.82047" stroke="black" stroke-width="0.75" stroke-linecap="round" stroke-linejoin="round"/>
</svg>
