<svg width="58" height="112" viewBox="0 0 58 112" fill="none" xmlns="http://www.w3.org/2000/svg">
<path d="M22.2499 105.17C22.1783 105.313 22.0674 105.41 21.9171 105.46C21.7669 105.51 21.6202 105.499 21.4771 105.428L7.50306 98.4394C7.34565 98.3607 7.23833 98.2534 7.18109 98.1174C7.13102 97.9672 7.14534 97.8133 7.22406 97.6559L11.9581 88.1896C12.0368 88.0322 12.1513 87.9285 12.3016 87.8784C12.4518 87.8283 12.6057 87.8426 12.7631 87.9214L14.2013 88.6406C14.3587 88.7193 14.4624 88.8338 14.5125 88.9841C14.5483 89.1272 14.5268 89.2775 14.4481 89.4349L10.9271 96.4755L14.6835 98.3541L17.9684 91.7857C18.0471 91.6283 18.1616 91.5245 18.3118 91.4744C18.4621 91.4244 18.6159 91.4387 18.7734 91.5174L20.1257 92.1937C20.2831 92.2724 20.3868 92.3869 20.4369 92.5372C20.4727 92.6803 20.4512 92.8306 20.3725 92.988L17.0877 99.5564L20.9729 101.499L24.5798 94.287C24.6585 94.1296 24.773 94.0258 24.9233 93.9758C25.0592 93.9185 25.2059 93.9293 25.3633 94.008L26.823 94.7379C26.9804 94.8167 27.0841 94.9312 27.1342 95.0814C27.17 95.2245 27.1485 95.3748 27.0698 95.5322L22.2499 105.17Z" fill="white"/>
<path d="M30.9155 86.8257C30.8614 86.9762 30.7626 87.0852 30.6193 87.1527C30.476 87.2202 30.3291 87.2268 30.1786 87.1727L15.4768 81.8843C15.3112 81.8247 15.1919 81.7308 15.119 81.6026C15.0515 81.4593 15.0476 81.3048 15.1072 81.1392L15.7652 79.31C15.8681 79.0239 16.0923 78.8495 16.438 78.7868L26.0906 77.3364L19.5736 70.0696C19.3471 69.8011 19.2853 69.5238 19.3882 69.2378L20.0381 67.4311C20.0977 67.2655 20.1991 67.1489 20.3424 67.0815C20.4857 67.014 20.6402 67.01 20.8058 67.0696L35.5076 72.358C35.6732 72.4176 35.7897 72.519 35.8572 72.6623C35.9096 72.8002 35.9061 72.9519 35.8465 73.1175L35.1479 75.0597C35.0937 75.2103 34.995 75.3193 34.8517 75.3868C34.7084 75.4543 34.5615 75.4609 34.4109 75.4068L24.7 71.9136L29.5329 77.1973C29.8045 77.4821 29.8808 77.7901 29.7617 78.1213L29.4205 79.0698C29.3067 79.386 29.0491 79.5824 28.6474 79.6589L21.5563 80.6534L31.2671 84.1465C31.4177 84.2007 31.5267 84.2994 31.5942 84.4427C31.6671 84.5709 31.6737 84.7179 31.6141 84.8835L30.9155 86.8257Z" fill="white"/>
<path d="M38.7928 62.7904C38.7576 62.9465 38.6731 63.0668 38.5392 63.1515C38.4053 63.2361 38.2603 63.2609 38.1042 63.2257L22.8624 59.7914C22.6907 59.7527 22.5607 59.6743 22.4726 59.556C22.3879 59.4221 22.3649 59.2693 22.4036 59.0976L23.9335 52.3079C24.345 50.4816 25.0585 49.2073 26.0742 48.4849C27.0742 47.7589 28.2688 47.5525 29.658 47.8655C30.4696 48.0484 31.1185 48.4078 31.6046 48.9437C32.0785 49.4606 32.3806 50.0125 32.5108 50.5994C32.9551 50.0107 33.5638 49.5656 34.3369 49.2642C35.1101 48.9627 35.9259 48.9087 36.7844 49.1022C38.236 49.4292 39.2959 50.1847 39.964 51.3685C40.6321 52.5523 40.7675 54.0261 40.3701 55.7899L38.7928 62.7904ZM30.5581 54.2433C30.7374 53.4473 30.6795 52.7946 30.3842 52.2852C30.0925 51.7602 29.6188 51.4239 28.9633 51.2762C28.3077 51.1285 27.7529 51.2249 27.299 51.5655C26.845 51.906 26.5266 52.4821 26.3437 53.2938L25.526 56.9228L29.7404 57.8723L30.5581 54.2433ZM37.7752 55.6234C37.9581 54.8118 37.882 54.1304 37.547 53.5793C37.1963 53.0246 36.6776 52.6699 35.9908 52.5152C35.304 52.3605 34.6893 52.468 34.1468 52.8378C33.5922 53.1884 33.2251 53.7618 33.0458 54.5578L32.1754 58.421L36.9048 59.4866L37.7752 55.6234Z" fill="white"/>
<path d="M43.0826 40.9465C43.0648 41.1055 42.9941 41.2344 42.8704 41.3333C42.7466 41.4322 42.6053 41.4728 42.4462 41.4551L26.9186 39.723C26.7436 39.7035 26.6059 39.6398 26.5052 39.532C26.4063 39.4082 26.3666 39.2589 26.3861 39.084L27.5595 28.5652C27.579 28.3903 27.6506 28.2534 27.7743 28.1545C27.8981 28.0556 28.0474 28.0159 28.2223 28.0355L29.8204 28.2137C29.9953 28.2332 30.1322 28.3049 30.2311 28.4286C30.3141 28.5505 30.3458 28.699 30.3263 28.8739L29.4536 36.6974L33.6277 37.163L34.4419 29.8642C34.4614 29.6893 34.533 29.5524 34.6567 29.4535C34.7805 29.3546 34.9298 29.3149 35.1047 29.3345L36.6074 29.5021C36.7823 29.5216 36.9192 29.5932 37.0181 29.7169C37.1011 29.8389 37.1328 29.9873 37.1133 30.1622L36.2991 37.461L40.6164 37.9425L41.5104 29.9283C41.5299 29.7533 41.6015 29.6164 41.7252 29.5175C41.833 29.4169 41.9744 29.3763 42.1493 29.3958L43.7713 29.5767C43.9462 29.5962 44.0831 29.6679 44.182 29.7916C44.265 29.9135 44.2967 30.062 44.2772 30.2369L43.0826 40.9465Z" fill="white"/>
<path d="M44.8251 20.7558C44.825 20.9158 44.7689 21.0518 44.6569 21.1637C44.5448 21.2756 44.4088 21.3316 44.2488 21.3315L28.6248 21.3227C28.4488 21.3226 28.3048 21.2745 28.1929 21.1784C28.0809 21.0664 28.025 20.9223 28.0251 20.7463L28.0284 14.8903C28.0311 10.1703 30.2084 7.76356 34.5605 7.67002C35.4885 7.63854 36.1125 7.62289 36.4325 7.62307C36.7365 7.62324 37.3525 7.63959 38.2805 7.67211C40.5204 7.73737 42.1761 8.34631 43.2474 9.49891C44.3028 10.6355 44.8298 12.3958 44.8285 14.7798L44.8251 20.7558ZM42.0444 14.8982C42.0452 13.5702 41.7497 12.6101 41.158 12.0177C40.5664 11.4254 39.5825 11.1128 38.2066 11.0801C37.2466 11.0475 36.6466 11.0312 36.4066 11.0311C36.1506 11.0309 35.5586 11.0466 34.6306 11.0781C33.3185 11.1093 32.3584 11.4368 31.75 12.0604C31.1257 12.6841 30.8131 13.6679 30.8123 15.0119L30.8107 17.9399L42.0427 17.9462L42.0444 14.8982Z" fill="white"/>
</svg>
