<svg width="371" height="253" viewBox="0 0 371 253" fill="none" xmlns="http://www.w3.org/2000/svg">
<g clip-path="url(#clip0_147_15211)">
<path d="M80.5374 26.8906C85.6648 46.6306 102.206 59.3894 117.52 55.4169L80.5374 26.8906Z" fill="#3F3D56"/>
<path d="M117.52 55.4172C112.335 35.4554 121.969 15.7153 139.059 11.2822L117.52 55.4172Z" fill="#3CC13B"/>
<path d="M91.0405 26.0762C95.9111 44.8271 107.754 57.9502 117.52 55.417L91.0405 26.0762Z" fill="#3CC13B"/>
<path d="M117.52 55.4167C110.895 29.91 121.518 5.12399 141.271 0L117.52 55.4167Z" fill="#3F3D56"/>
<path d="M111.757 57.1805C111.757 57.1805 115.654 56.0403 116.62 54.8905C117.585 53.7407 122.184 51.4738 122.828 52.749C123.473 54.0243 130.479 57.9388 126.052 59.1253C121.626 60.3118 115.566 61.1085 114.197 60.6957C112.828 60.2828 111.757 57.1805 111.757 57.1805Z" fill="#A8A8A8"/>
<path opacity="0.2" d="M126.009 58.6345C121.583 59.821 115.523 60.6178 114.154 60.2049C113.111 59.8905 112.242 58.0175 111.886 57.1416C111.804 57.1667 111.757 57.1807 111.757 57.1807C111.757 57.1807 112.828 60.283 114.197 60.6959C115.566 61.1088 121.626 60.312 126.052 59.1255C127.33 58.783 127.654 58.213 127.455 57.545C127.383 57.9985 126.961 58.3796 126.009 58.6345Z" fill="black"/>
<path d="M371 40.6816H110.751V191.369H371V40.6816Z" fill="#F2F2F2"/>
<g opacity="0.3">
<path d="M259.603 86.4209H116.885V161.119H259.603V86.4209Z" fill="#3CC13B"/>
<path d="M259.603 86.4209H116.885V161.119H259.603V86.4209Z" fill="white" fill-opacity="0.5"/>
</g>
<path d="M327.823 83.1641H270.581V86.3285H327.823V83.1641Z" fill="#3F3D56"/>
<path d="M353.887 89.0068H270.581V92.1713H353.887V89.0068Z" fill="#3F3D56"/>
<path d="M327.823 103.125H270.581V106.289H327.823V103.125Z" fill="#3F3D56"/>
<path d="M327.823 126.493H270.581V129.658H327.823V126.493Z" fill="#3F3D56"/>
<path d="M353.887 108.967H270.581V112.131H353.887V108.967Z" fill="#3F3D56"/>
<path d="M353.887 114.809H270.581V117.973H353.887V114.809Z" fill="#3F3D56"/>
<path d="M353.887 120.65H270.581V123.815H353.887V120.65Z" fill="#3F3D56"/>
<path d="M300.542 140.611H270.581V148.888H300.542V140.611Z" fill="#B57BFF"/>
<path d="M115.751 78.9268H248.468C251.091 78.9268 253.218 81.0534 253.218 83.6768V148.375C253.218 150.999 251.091 153.125 248.468 153.125H115.751C113.128 153.125 111.001 150.999 111.001 148.375V83.6768C111.001 81.0534 113.128 78.9268 115.751 78.9268Z" fill="white" stroke="#CCCCCC" stroke-width="0.5"/>
<path d="M180.034 132.331C179.395 132.329 178.768 132.166 178.21 131.856C177.613 131.534 177.115 131.056 176.769 130.473C176.424 129.889 176.244 129.223 176.249 128.545V97.332C176.249 96.6552 176.431 95.9909 176.776 95.4084C177.121 94.8259 177.616 94.3466 178.209 94.0207C178.803 93.6948 179.473 93.5341 180.15 93.5556C180.827 93.5771 181.486 93.7799 182.057 94.1428L211.686 109.749C212.223 110.09 212.666 110.561 212.972 111.119C213.279 111.676 213.439 112.302 213.439 112.938C213.439 113.574 213.279 114.2 212.972 114.758C212.666 115.315 212.223 115.786 211.686 116.128L182.057 131.734C181.454 132.122 180.751 132.329 180.034 132.331Z" fill="#F2F2F2"/>
<path d="M159.812 141.103C159.174 141.101 158.547 140.938 157.988 140.629C157.391 140.307 156.893 139.828 156.548 139.245C156.203 138.662 156.023 137.995 156.028 137.317V106.104C156.028 105.428 156.21 104.763 156.555 104.181C156.9 103.598 157.395 103.119 157.988 102.793C158.582 102.467 159.252 102.307 159.929 102.328C160.606 102.35 161.265 102.552 161.836 102.915L191.465 118.522C192.002 118.863 192.444 119.334 192.751 119.891C193.057 120.449 193.218 121.075 193.218 121.711C193.218 122.347 193.057 122.973 192.751 123.53C192.444 124.088 192.002 124.559 191.465 124.9L161.836 140.506C161.232 140.894 160.53 141.101 159.812 141.103Z" fill="#B57BFF"/>
<path d="M185.532 241.471C185.532 248.063 154.596 253.41 116.433 253.41C78.271 253.41 47.335 248.063 47.335 241.471C47.335 239.822 49.2658 238.254 52.7595 236.828C62.9305 232.669 86.3497 229.713 113.876 229.542C114.725 229.535 115.578 229.532 116.433 229.532C154.596 229.532 185.532 234.879 185.532 241.471Z" fill="#3F3D56"/>
<path opacity="0.1" d="M113.876 229.542C110.779 234.586 106.58 238.865 101.594 242.056C96.6073 245.248 90.9624 247.27 85.0824 247.971C79.2024 248.672 73.2399 248.034 67.6419 246.104C62.044 244.174 56.9558 241.003 52.759 236.828C62.9301 232.669 86.3492 229.713 113.876 229.542Z" fill="black"/>
<path d="M81.2383 241.794C101.211 241.794 117.402 224.458 117.402 203.073C117.402 181.688 101.211 164.353 81.2383 164.353C61.2657 164.353 45.0747 181.688 45.0747 203.073C45.0747 224.458 61.2657 241.794 81.2383 241.794Z" fill="#3F3D56"/>
<path d="M146.62 132.032C146.62 132.032 151.998 116.804 155.882 121.581C159.767 126.359 149.906 134.421 149.906 134.421L146.62 132.032Z" fill="#A0616A"/>
<path d="M121.222 117.103L124.457 118.301C124.457 118.301 126.002 125.165 125.405 126.359C124.807 127.553 124.509 126.658 125.405 129.046C126.301 131.435 128.99 137.706 129.289 138.601C129.588 139.497 146.619 132.928 146.619 129.644C146.619 129.644 150.205 133.824 151.998 134.72C151.998 134.72 132.277 149.052 129.588 150.844C126.899 152.635 125.405 151.74 123.015 149.649C120.624 147.559 110.465 130.241 110.465 130.241L121.222 117.103Z" fill="#575A89"/>
<path d="M129.887 223.103C129.887 223.103 129.588 226.388 128.991 226.686C128.393 226.985 123.911 234.45 128.991 235.943C134.07 237.436 137.058 236.839 138.253 237.436C139.448 238.033 160.364 239.227 160.663 235.943C160.962 232.658 150.504 232.061 150.504 232.061C150.504 232.061 140.942 225.791 139.448 222.506C137.954 219.222 129.887 223.103 129.887 223.103Z" fill="#2F2E41"/>
<path d="M69.2312 229.075C69.2312 229.075 62.0601 241.318 63.8529 242.811C65.6457 244.304 83.1053 249.744 85.665 249.977C88.9518 250.275 91.3422 247.588 88.653 246.095C85.9638 244.602 80.2867 238.332 80.2867 236.241V230.867L69.2312 229.075Z" fill="#2F2E41"/>
<path d="M62.3586 149.052C62.3586 149.052 56.0839 156.815 65.9442 169.356L82.378 190.258C82.378 190.258 72.2189 206.382 71.9201 214.743C71.6213 223.103 69.5297 221.312 68.9321 224.895C68.3345 228.478 65.6454 226.686 67.737 229.374C69.8285 232.061 77.5972 234.45 79.9876 232.36C82.378 230.269 82.378 227.582 82.378 226.388C82.378 225.193 86.5611 218.326 86.8599 216.236C87.1587 214.145 98.2142 197.125 98.2142 197.125C98.2142 197.125 101.8 186.973 97.6166 181.3C93.4334 175.627 90.6692 167.58 90.6692 167.58C90.6692 167.58 102.995 182.494 111.66 186.077C111.66 186.077 114.947 186.675 114.349 188.168C113.752 189.661 114.349 190.556 115.246 192.049C116.142 193.542 122.417 210.861 124.508 215.34C126.6 219.819 125.703 222.506 128.094 223.999C130.484 225.492 141.241 224.298 141.241 222.805C141.241 221.312 139.747 217.43 138.85 215.34C137.954 213.25 130.783 189.063 131.381 184.883C131.978 180.703 131.082 175.029 126.6 172.641C122.118 170.252 99.4094 150.843 98.2142 150.843C97.019 150.843 62.3586 149.052 62.3586 149.052Z" fill="#2F2E41"/>
<path d="M122.417 102.173C129.347 102.173 134.966 96.558 134.966 89.6318C134.966 82.7056 129.347 77.0908 122.417 77.0908C115.486 77.0908 109.867 82.7056 109.867 89.6318C109.867 96.558 115.486 102.173 122.417 102.173Z" fill="#A0616A"/>
<path d="M112.258 90.8262C112.258 90.8262 108.374 97.6938 103.593 98.5896C98.8122 99.4854 116.142 113.221 116.142 113.221C116.142 113.221 120.325 100.083 123.911 99.4854C127.497 98.8882 112.258 90.8262 112.258 90.8262Z" fill="#A0616A"/>
<path d="M124.509 118.894C124.509 122.775 112.856 133.823 112.856 133.823L101.8 143.08C101.8 143.08 101.501 146.364 100.306 146.663C99.111 146.961 97.617 146.961 98.8122 148.753C100.007 150.545 102.995 154.426 100.306 155.023C99.4954 155.147 98.6785 155.224 97.859 155.256C97.1419 155.298 96.2993 155.337 95.3521 155.373C93.141 155.45 90.3742 155.501 87.3772 155.48C86.5256 155.477 85.6591 155.467 84.7777 155.45C73.4802 155.227 60.3929 153.928 61.4626 149.649C63.2554 142.483 62.0602 140.094 65.9446 136.212C69.8289 132.33 76.1037 118.894 76.1037 118.894C76.1037 118.894 88.6531 97.6933 99.111 97.6933L101.283 97.123C102.293 96.8573 103.36 96.9156 104.334 97.2896C105.309 97.6637 106.141 98.3345 106.712 99.2072C108.81 102.399 112.118 107.195 114.051 108.741C117.039 111.13 117.505 109.416 117.505 109.416C117.505 109.416 124.509 115.012 124.509 118.894Z" fill="#575A89"/>
<path d="M97.9155 164.28C97.9155 164.28 106.581 177.717 101.202 180.106C95.8239 182.495 92.8359 166.072 92.8359 166.072L97.9155 164.28Z" fill="#A0616A"/>
<path d="M114.213 88.2151C114.695 88.1544 114.847 87.5471 114.928 87.0688C115.363 84.5073 117.273 82.0784 119.839 81.6649C120.82 81.5345 121.818 81.6148 122.765 81.9006C124.122 82.2727 125.396 82.8994 126.519 83.7472C127.112 84.1952 127.682 84.7152 128.395 84.9245C128.866 85.0627 130.866 85.951 131.333 86.1013C132.36 86.4317 133.21 87.5061 134.268 87.2934C135.28 87.0899 135.664 85.8686 135.827 84.8498C136.198 82.5289 134.868 79.0659 133.547 77.1218C132.544 75.6466 130.846 74.7976 129.149 74.2452C127.161 73.6422 125.118 73.2365 123.051 73.0342C120.259 72.7048 117.368 72.53 114.693 73.3923C112.018 74.2545 109.582 76.3637 109.083 79.1279C108.979 79.7037 108.959 80.2935 108.832 80.8646C108.521 82.2577 107.599 83.4287 107.06 84.751C106.672 85.722 106.492 86.7636 106.531 87.8086C106.571 88.8535 106.829 89.8786 107.289 90.8178C108.034 92.3151 109.33 93.754 109.05 95.4027L111.356 93.5858C111.689 93.3966 111.947 93.0989 112.087 92.7425C112.227 92.386 112.241 91.9923 112.125 91.6271L111.79 88.7419C111.729 88.2136 111.675 87.6435 111.94 87.182C112.965 85.393 113.41 88.3164 114.213 88.2151Z" fill="#2F2E41"/>
<path opacity="0.1" d="M92.5377 143.677L95.3524 155.373C92.5138 155.475 88.758 155.528 84.778 155.451C83.774 152.441 82.8149 149.303 82.0798 146.364C79.3907 135.615 83.8726 119.192 86.263 111.429C88.6534 103.665 94.6293 101.575 94.6293 101.575C94.6293 101.575 97.6173 102.471 101.502 105.158C105.386 107.846 92.5377 143.677 92.5377 143.677Z" fill="black"/>
<path opacity="0.1" d="M94.9281 143.08L97.8593 155.256C97.1422 155.298 96.2996 155.337 95.3524 155.373C93.1413 155.45 90.3745 155.501 87.3775 155.48C86.2989 152.282 85.256 148.908 84.4702 145.767C81.7811 135.018 86.263 118.595 88.6534 110.831C91.0437 103.068 96.2727 111.578 96.2727 111.578C96.2727 111.578 94.1811 106.502 98.0655 109.189C101.95 111.877 94.9281 143.08 94.9281 143.08Z" fill="black"/>
<path d="M95.8236 100.979C95.8236 100.979 89.8477 103.069 87.4573 110.832C85.067 118.596 80.585 135.018 83.2742 145.768C85.9633 156.517 91.6405 169.954 91.6405 169.954C91.6405 169.954 97.3176 165.774 99.4092 166.669L93.7321 143.08C93.7321 143.08 106.58 107.249 102.696 104.562C98.8116 101.874 95.8236 100.979 95.8236 100.979Z" fill="#575A89"/>
</g>
<defs>
<clipPath id="clip0_147_15211">
<rect width="371" height="253" fill="white"/>
</clipPath>
</defs>
</svg>
