<svg width="21" height="20" viewBox="0 0 21 20" fill="none" xmlns="http://www.w3.org/2000/svg">
<path d="M18.44 10.9994C18.22 10.9994 17.99 10.9294 17.77 10.8794C17.3245 10.7812 16.8867 10.6509 16.46 10.4894C15.9961 10.3206 15.4862 10.3294 15.0283 10.514C14.5705 10.6986 14.1971 11.046 13.98 11.4894L13.76 11.9394C12.786 11.3976 11.891 10.7246 11.1 9.93938C10.3148 9.14839 9.64183 8.25338 9.10001 7.27938L9.52001 6.99938C9.96337 6.7823 10.3108 6.40891 10.4954 5.95107C10.68 5.49323 10.6888 4.98329 10.52 4.51938C10.3612 4.0918 10.2309 3.65418 10.13 3.20938C10.08 2.98938 10.04 2.75938 10.01 2.52938C9.88857 1.825 9.51963 1.18712 8.96963 0.730619C8.41963 0.274116 7.7247 0.0289887 7.01001 0.0393798H4.01001C3.57904 0.0353333 3.15226 0.124193 2.75872 0.29991C2.36518 0.475627 2.01412 0.734076 1.72944 1.05766C1.44476 1.38125 1.23314 1.76237 1.109 2.17509C0.984851 2.58781 0.951089 3.02244 1.01001 3.44938C1.54275 7.63876 3.45604 11.5313 6.44766 14.512C9.43928 17.4928 13.3387 19.3919 17.53 19.9094H17.91C18.6474 19.9105 19.3594 19.6399 19.91 19.1494C20.2264 18.8664 20.4791 18.5196 20.6515 18.1317C20.8239 17.7438 20.912 17.3238 20.91 16.8994V13.8994C20.8978 13.2048 20.6448 12.5359 20.1943 12.007C19.7439 11.4782 19.1238 11.122 18.44 10.9994ZM18.94 16.9994C18.9398 17.1414 18.9094 17.2817 18.8508 17.411C18.7922 17.5403 18.7067 17.6557 18.6 17.7494C18.4886 17.8464 18.358 17.9188 18.2167 17.9619C18.0754 18.005 17.9266 18.0177 17.78 17.9994C14.0349 17.5192 10.5562 15.8059 7.89272 13.1297C5.2292 10.4535 3.53242 6.96672 3.07001 3.21938C3.05409 3.0729 3.06804 2.92471 3.11101 2.78377C3.15398 2.64283 3.22508 2.51207 3.32001 2.39938C3.41372 2.29271 3.52907 2.20722 3.65839 2.1486C3.7877 2.08997 3.92802 2.05956 4.07001 2.05938H7.07001C7.30256 2.0542 7.52963 2.13026 7.71215 2.27445C7.89467 2.41864 8.02122 2.62195 8.07001 2.84938C8.11001 3.12271 8.16001 3.39271 8.22001 3.65938C8.33553 4.18652 8.48927 4.70456 8.68001 5.20938L7.28001 5.85938C7.16031 5.9143 7.05263 5.99233 6.96317 6.08897C6.8737 6.18562 6.80421 6.29899 6.75868 6.42257C6.71315 6.54615 6.69248 6.67751 6.69786 6.8091C6.70323 6.94069 6.73455 7.06992 6.79001 7.18938C8.22921 10.2721 10.7073 12.7502 13.79 14.1894C14.0335 14.2894 14.3065 14.2894 14.55 14.1894C14.6747 14.1448 14.7893 14.0758 14.8872 13.9866C14.985 13.8973 15.0642 13.7895 15.12 13.6694L15.74 12.2694C16.257 12.4543 16.7846 12.6079 17.32 12.7294C17.5867 12.7894 17.8567 12.8394 18.13 12.8794C18.3574 12.9282 18.5607 13.0547 18.7049 13.2372C18.8491 13.4198 18.9252 13.6468 18.92 13.8794L18.94 16.9994Z" fill="#3E66FB"/>
</svg>
