<svg width="47" height="64" viewBox="0 0 47 64" fill="none" xmlns="http://www.w3.org/2000/svg">
<path fill-rule="evenodd" clip-rule="evenodd" d="M2.62368 0.117981C1.98483 0.285746 1.48989 0.576525 1.00058 1.07165C0.556473 1.52099 0.194811 2.18676 0.071666 2.78151C0.0231265 3.01598 0 4.82461 0 8.38622C0 12.9233 0.0141764 13.7133 0.103155 14.1443C0.359832 15.3868 1.13241 16.8434 1.97346 17.6703C2.54816 18.2354 5.89118 20.9443 6.20626 21.1002C6.639 21.3145 7.29954 21.3013 7.74933 21.0696C8.37192 20.7488 8.68589 20.218 8.68589 19.4862C8.68589 18.9709 8.56007 18.6247 8.25766 18.3077C8.15339 18.1985 7.30379 17.4879 6.36958 16.7287C5.43538 15.9696 4.57741 15.2505 4.46295 15.1308C4.15767 14.8116 3.80248 14.1879 3.65608 13.7141C3.53339 13.3171 3.52777 13.0842 3.52777 8.40569V3.51254L9.09707 3.5292L14.6664 3.54593L14.699 9.29488C14.729 14.563 14.741 15.061 14.8437 15.2483C15.1714 15.847 15.6664 16.1856 16.2859 16.2348C17.0293 16.2938 17.6077 16.0027 17.9968 15.3734L18.1941 15.0542L18.2268 9.30005L18.2595 3.54593H23.3551H28.4508L28.4835 9.30005L28.5161 15.0542L28.7135 15.3734C29.1005 15.9993 29.6812 16.2938 30.4136 16.2356C31.0249 16.1871 31.4766 15.8977 31.8002 15.3473L31.9786 15.0438L32.0112 9.29488L32.0439 3.54593L37.3861 3.5292L42.7283 3.51248L42.7104 8.65753L42.6925 13.8026L42.5164 14.1784C42.2587 14.7282 41.8443 15.129 39.8834 16.7251C38.9133 17.5147 38.053 18.2385 37.9717 18.3335C37.3996 19.0023 37.406 19.9943 37.987 20.6817C38.3878 21.1559 39.1668 21.3769 39.7943 21.1944C40.0937 21.1075 40.4329 20.8603 42.0082 19.582C43.9725 17.9878 44.5164 17.4968 44.9849 16.8942C45.3357 16.4431 45.7478 15.6911 45.9303 15.1692C46.2489 14.258 46.253 14.1733 46.253 8.43293C46.253 3.7263 46.2398 2.99122 46.1495 2.64073C45.8626 1.52824 45.0443 0.627286 43.9259 0.192782L43.4765 0.0181577L23.2898 0.00509192C3.54469 -0.00764724 3.09261 -0.00516473 2.62368 0.117981ZM20.84 17.8254C15.7492 18.3782 11.1159 20.4669 7.48018 23.8482C3.12123 27.9021 0.552945 33.1388 0.0608214 38.9759C-0.0380868 40.1488 0.0152217 42.7095 0.160905 43.7886C0.864303 48.9974 3.12704 53.5677 6.82369 57.2464C8.68354 59.0973 10.5748 60.4549 12.9025 61.6102C17.2556 63.7708 22.1571 64.4876 27.0136 63.6739C31.7125 62.8867 36.0293 60.647 39.461 57.2158C43.1329 53.5445 45.3889 48.9762 46.0917 43.7886C46.2377 42.711 46.2911 40.1501 46.1922 38.9759C45.6639 32.7104 42.688 27.046 37.7836 22.9709C35.0784 20.723 31.4714 18.9745 28.0514 18.2531C26.2605 17.8753 25.5796 17.8065 23.4205 17.7852C22.3066 17.7741 21.1454 17.7923 20.84 17.8254ZM26.0673 21.4685C29.8849 22.0915 33.1103 23.5943 36.0117 26.1021C38.3811 28.15 40.3815 31.0479 41.513 34.0714C43.2123 38.6127 43.1002 43.9025 41.2094 48.3943C38.4365 54.9818 32.3889 59.5105 25.2823 60.3209C23.9935 60.468 21.4459 60.4225 20.2193 60.2305C14.644 59.3581 9.817 56.2539 6.72942 51.5553C4.05471 47.4851 3.00298 42.515 3.79235 37.6764C4.8386 31.2635 9.08995 25.7142 15.0257 23.0134C17.03 22.1013 18.8851 21.6063 21.3626 21.3222C21.4884 21.3078 22.4144 21.3048 23.4205 21.3156C24.8816 21.3311 25.4142 21.3619 26.0673 21.4685ZM22.2563 25.066C21.6295 25.2724 21.0639 25.728 20.7303 26.2955C20.6107 26.4989 18.0961 34.0378 18.0961 34.193C18.0961 34.2067 16.3543 34.2183 14.2254 34.2187C10.0991 34.2196 10.0375 34.2237 9.36969 34.547C8.96249 34.7441 8.36094 35.3141 8.14882 35.7038C7.54355 36.8159 7.69936 38.2658 8.5061 39.0284C8.62455 39.1403 10.1264 40.2522 11.8436 41.4993C14.2351 43.2361 14.9575 43.7923 14.9308 43.8757C14.3762 45.6024 12.8166 50.4056 12.6787 50.8115C12.4344 51.5306 12.3824 51.9506 12.479 52.4241C12.7075 53.5451 13.6514 54.4142 14.8573 54.614C15.3866 54.7017 15.979 54.6169 16.4989 54.3788C16.8798 54.2044 16.9292 54.1698 20.3827 51.6603C21.5864 50.7856 22.693 49.9835 22.8419 49.8778L23.1126 49.6856L26.1512 51.8981C27.8223 53.115 29.408 54.2229 29.6747 54.36C31.3515 55.2222 33.2155 54.4352 33.675 52.6711C33.7856 52.2463 33.8017 51.75 33.7162 51.3995C33.6856 51.2737 33.1281 49.5137 32.4775 47.4883C31.8268 45.4629 31.3101 43.7805 31.3292 43.7496C31.3483 43.7187 31.7227 43.4329 32.1612 43.1145C33.3595 42.2444 36.3405 40.0675 37.0135 39.571C37.4138 39.2758 37.6824 39.0188 37.8414 38.7793C38.9957 37.0403 38.0944 34.7992 36.0466 34.3164C35.7105 34.2372 34.9666 34.2197 31.9023 34.2189L28.1677 34.2179L27.8708 33.3196C27.7076 32.8256 27.1451 31.0987 26.6211 29.4821C26.097 27.8655 25.5974 26.422 25.5109 26.2744C25.2654 25.8555 24.6229 25.3 24.1904 25.1328C23.6568 24.9266 22.7726 24.8961 22.2563 25.066ZM24.3658 34.0214L25.5684 37.7447L29.5038 37.7615L33.4392 37.7784L30.3939 39.9995C28.719 41.2212 27.2917 42.2665 27.2222 42.3224C27.0991 42.4215 27.1234 42.5094 28.145 45.6542C29.5388 49.9451 29.5257 49.9025 29.44 49.8512C29.399 49.8267 27.9772 48.798 26.2805 47.5652C24.5838 46.3325 23.1657 45.3239 23.1292 45.3239C23.0926 45.3239 21.6483 46.3547 19.9195 47.6146C18.1907 48.8746 16.7693 49.8961 16.7606 49.8848C16.752 49.8735 17.2841 48.2032 17.943 46.1731C18.602 44.143 19.1289 42.449 19.1138 42.4086C19.0988 42.3682 17.6766 41.3098 15.9534 40.0568L12.8203 37.7784L16.7485 37.7615L20.6766 37.7446L21.8826 34.0214C22.5459 31.9736 23.1054 30.2982 23.126 30.2982C23.1465 30.2982 23.7045 31.9737 24.3658 34.0214Z" fill="#3E66FB"/>
</svg>
