<svg width="20" height="20" viewBox="0 0 20 20" fill="none" xmlns="http://www.w3.org/2000/svg">
<path fill-rule="evenodd" clip-rule="evenodd" d="M9.99988 0.75C15.1089 0.75 19.2499 4.892 19.2499 10C19.2499 15.108 15.1089 19.25 9.99988 19.25C4.89188 19.25 0.749878 15.108 0.749878 10C0.749878 4.892 4.89188 0.75 9.99988 0.75Z" fill="#F03738"/>
<path fill-rule="evenodd" clip-rule="evenodd" d="M9.99988 0.75C15.1089 0.75 19.2499 4.892 19.2499 10C19.2499 15.108 15.1089 19.25 9.99988 19.25C4.89188 19.25 0.749878 15.108 0.749878 10C0.749878 4.892 4.89188 0.75 9.99988 0.75Z" fill="white" fill-opacity="0.9"/>
<path fill-rule="evenodd" clip-rule="evenodd" d="M9.99988 0.75C15.1089 0.75 19.2499 4.892 19.2499 10C19.2499 15.108 15.1089 19.25 9.99988 19.25C4.89188 19.25 0.749878 15.108 0.749878 10C0.749878 4.892 4.89188 0.75 9.99988 0.75Z" stroke="#F03738" stroke-linecap="round" stroke-linejoin="round"/>
<path d="M9.995 6.2041V10.6231" stroke="#F03738" stroke-width="1.5" stroke-linecap="round" stroke-linejoin="round"/>
<path d="M9.995 13.7959H10.005" stroke="#F03738" stroke-width="1.5" stroke-linecap="round" stroke-linejoin="round"/>
</svg>
