<svg width="181" height="187" viewBox="0 0 181 187" fill="none" xmlns="http://www.w3.org/2000/svg">
<path d="M91.5944 178.998H91.5476C89.802 178.998 88.0349 178.946 86.2962 178.843L86.3221 178.404C88.0527 178.506 89.8109 178.558 91.548 178.558H91.5947L91.5944 178.998ZM96.8943 178.837L96.868 178.398C98.617 178.293 100.384 178.134 102.121 177.924L102.174 178.361C100.428 178.572 98.6522 178.732 96.896 178.838L96.8943 178.837ZM81.0157 178.372C79.2678 178.163 77.5037 177.898 75.7732 177.585L75.8517 177.151C77.5734 177.463 79.3285 177.727 81.068 177.937L81.0157 178.372ZM107.416 177.567L107.336 177.134C109.059 176.82 110.794 176.448 112.494 176.03L112.599 176.457C110.892 176.877 109.147 177.251 107.415 177.567L107.416 177.567ZM70.588 176.479C68.8786 176.06 67.1596 175.583 65.4793 175.062L65.61 174.641C67.2829 175.161 68.9923 175.635 70.6931 176.052L70.588 176.479ZM117.706 175.033L117.575 174.613C119.245 174.093 120.921 173.513 122.56 172.891L122.716 173.302C121.07 173.929 119.384 174.511 117.706 175.034V175.033ZM60.4566 173.333C58.8103 172.709 57.1597 172.026 55.5503 171.302L55.7309 170.9C57.3321 171.621 58.9742 172.3 60.6129 172.921L60.4566 173.333ZM127.606 171.273L127.425 170.872C129.019 170.155 130.612 169.376 132.16 168.562L132.364 168.951C130.809 169.771 129.208 170.552 127.606 171.274V171.273ZM50.7779 168.976C49.217 168.157 47.6622 167.279 46.1563 166.367L46.384 165.991C47.8824 166.898 49.4293 167.772 50.9824 168.588L50.7779 168.976ZM136.976 166.346L136.749 165.97C138.245 165.063 139.734 164.099 141.173 163.104L141.423 163.466C139.976 164.465 138.479 165.434 136.976 166.346ZM41.7038 163.485C40.2542 162.483 38.8169 161.424 37.4318 160.339L37.7049 159.993C39.0828 161.073 40.513 162.126 41.9554 163.123L41.7038 163.485ZM145.689 160.321L145.416 159.975C146.797 158.891 148.16 157.756 149.466 156.595L149.758 156.924C148.445 158.088 147.076 159.231 145.688 160.32L145.689 160.321ZM33.3579 156.941C32.0397 155.774 30.7404 154.552 29.496 153.308L29.807 152.997C31.0452 154.234 32.3381 155.451 33.6494 156.612L33.3579 156.941ZM153.619 153.288L153.308 152.977C154.548 151.737 155.766 150.445 156.927 149.136L157.256 149.429C156.09 150.744 154.866 152.043 153.62 153.288H153.619ZM25.8601 149.448C24.6911 148.131 23.5481 146.762 22.4628 145.38L22.8086 145.106C23.8888 146.482 25.0277 147.844 26.1885 149.155L25.8601 149.448ZM160.652 145.36L160.306 145.087C161.39 143.705 162.443 142.276 163.438 140.838L163.8 141.089C162.801 142.535 161.742 143.972 160.652 145.36ZM19.3151 141.119C18.313 139.671 17.3428 138.176 16.4323 136.674L16.8078 136.445C17.7142 137.94 18.6794 139.428 19.6756 140.868L19.3151 141.119ZM166.685 136.637L166.31 136.41C167.219 134.91 168.093 133.363 168.909 131.813L169.298 132.017C168.477 133.575 167.6 135.129 166.685 136.637ZM13.8229 132.065C13.0036 130.509 12.2214 128.908 11.4983 127.307L11.8991 127.126C12.6188 128.719 13.3969 130.312 14.2121 131.859L13.8229 132.065ZM171.625 127.246L171.223 127.065C171.946 125.461 172.627 123.82 173.247 122.183L173.658 122.339C173.035 123.983 172.35 125.634 171.625 127.245L171.625 127.246ZM9.46666 122.42C8.84053 120.774 8.25708 119.089 7.73269 117.41L8.15261 117.278C8.67461 118.949 9.255 120.626 9.87771 122.263L9.46666 122.42ZM175.391 117.319L174.971 117.188C175.491 115.516 175.966 113.806 176.384 112.106L176.811 112.211C176.391 113.919 175.914 115.638 175.391 117.319V117.319ZM6.307 112.303C5.88571 110.596 5.51154 108.852 5.19437 107.119L5.62727 107.04C5.94307 108.764 6.31554 110.499 6.73443 112.197L6.307 112.303ZM177.918 107.026L177.485 106.947C177.798 105.225 178.063 103.471 178.27 101.732L178.707 101.784C178.499 103.532 178.233 105.297 177.918 107.026V107.026ZM4.39788 101.879C4.18656 100.133 4.02542 98.3574 3.91992 96.5992L4.35896 96.5726C4.4648 98.3216 4.62526 100.089 4.83693 101.825L4.39788 101.879ZM179.182 96.5043L178.743 96.4784C178.845 94.7324 178.899 92.9589 178.899 91.2058V91.0197H179.34V91.2058C179.34 92.9674 179.287 94.7498 179.182 96.5043ZM4.19544 91.2993H3.75537V91.2061C3.75537 89.4749 3.80624 87.7238 3.90695 86.0011L4.34599 86.0271C4.24596 87.7412 4.19509 89.4837 4.19509 91.2064L4.19544 91.2993ZM178.731 85.7471C178.624 83.9961 178.461 82.2286 178.249 80.4947L178.686 80.4414C178.899 82.1842 179.062 83.9602 179.171 85.7201L178.731 85.7471ZM4.81201 80.7729L4.37501 80.721C4.58326 78.973 4.84717 77.209 5.16023 75.4781L5.59347 75.5563C5.28177 77.2787 5.0189 79.0338 4.81201 80.7729V80.7729ZM177.451 75.2808C177.132 73.5543 176.758 71.8193 176.338 70.1256L176.765 70.0198C177.187 71.7234 177.564 73.4679 177.884 75.2019L177.451 75.2808ZM6.68971 70.3957L6.26227 70.2912C6.67981 68.5842 7.15572 66.8635 7.67704 65.1818L8.0973 65.3119C7.57871 66.9847 7.10519 68.6955 6.69005 70.3957H6.68971ZM174.914 65.0456C174.391 63.3748 173.808 61.6982 173.184 60.0611L173.594 59.9044C174.222 61.5483 174.807 63.2334 175.335 64.9128L174.914 65.0456ZM9.81524 60.3141L9.4035 60.1584C10.0266 58.5115 10.709 56.8605 11.4321 55.2508L11.8336 55.4314C11.1139 57.0329 10.4349 58.6757 9.81524 60.3141ZM171.158 55.2013C170.437 53.609 169.656 52.0174 168.839 50.4705L169.229 50.2657C170.05 51.8201 170.833 53.4199 171.558 55.0203L171.158 55.2013ZM14.1439 50.6822L13.754 50.4773C14.5706 48.9202 15.4477 47.3648 16.3609 45.8544L16.7365 46.0821C15.8294 47.5853 14.9567 49.1329 14.1439 50.6822ZM166.238 45.8872C165.33 44.3946 164.363 42.9074 163.364 41.4678L163.726 41.2168C164.73 42.664 165.701 44.1583 166.614 45.6588L166.238 45.8872ZM19.6029 41.6487L19.2406 41.3985C20.2396 39.9513 21.2972 38.5136 22.3839 37.1251L22.7304 37.3962C21.6513 38.7782 20.5977 40.2087 19.6029 41.6487ZM160.229 37.2276C159.145 35.851 158.006 34.4902 156.844 33.1826L157.173 32.8904C158.341 34.2038 159.485 35.5714 160.575 36.9555L160.229 37.2276ZM26.1086 33.3417L25.7791 33.0498C26.9454 31.732 28.1689 30.432 29.4106 29.1865L29.7223 29.4972C28.4847 30.7368 27.269 32.0301 26.1086 33.3417ZM153.224 29.3473C151.98 28.1087 150.686 26.8934 149.377 25.7357L149.668 25.4062C150.984 26.5697 152.285 27.7909 153.534 29.036L153.224 29.3473ZM33.559 25.8767L33.2667 25.5476C34.5801 24.3806 35.9484 23.237 37.3335 22.1479L37.6066 22.4937C36.2291 23.5773 34.8662 24.7156 33.559 25.8767ZM145.32 22.3602C143.941 21.2814 142.51 20.2299 141.066 19.2347L141.316 18.8725C142.767 19.8725 144.206 20.9294 145.591 22.0134L145.32 22.3602ZM41.8468 19.36L41.5962 18.9981C43.0424 17.9961 44.5371 17.0252 46.0399 16.1129L46.2683 16.4885C44.7733 17.3963 43.2858 18.3624 41.8468 19.3597V19.36ZM136.631 16.371C135.129 15.4643 133.581 14.5927 132.03 13.7798L132.235 13.3899C133.794 14.2069 135.35 15.0829 136.859 15.9941L136.631 16.371ZM50.853 13.8911L50.6481 13.5019C52.2032 12.6826 53.8034 11.8973 55.4042 11.1746L55.5855 11.5754C53.9925 12.2957 52.4005 13.0748 50.8537 13.8911H50.853ZM127.281 11.4726C125.679 10.7557 124.037 10.076 122.397 9.45836L122.553 9.04663C124.2 9.66867 125.851 10.3501 127.461 11.0725L127.281 11.4726ZM60.448 9.55259L60.2913 9.14291C61.9376 8.51576 63.6231 7.93162 65.3011 7.40655L65.4325 7.82647C63.7617 8.3471 62.0847 8.92851 60.447 9.55259H60.448ZM117.397 7.74316C115.725 7.2256 114.013 6.7531 112.313 6.3383L112.417 5.91087C114.124 6.32738 115.845 6.8026 117.528 7.3229L117.397 7.74316ZM70.5119 6.40487L70.406 5.97778C72.1151 5.55513 73.8589 5.17993 75.5888 4.86243L75.6684 5.29532C73.9474 5.61112 72.2124 5.98461 70.5132 6.40522L70.5119 6.40487ZM107.153 5.24411C105.433 4.93378 103.678 4.67158 101.936 4.46538L101.988 4.02838C103.738 4.23561 105.502 4.49884 107.231 4.81088L107.153 5.24411ZM80.8826 4.49884L80.8293 4.06184C82.5735 3.84949 84.3495 3.6863 86.1084 3.57978L86.135 4.01882C84.385 4.12568 82.6186 4.28682 80.8826 4.49678V4.49884ZM96.6809 4.00312C94.9814 3.90479 93.2546 3.85495 91.5476 3.85495H91.4076V3.41489H91.5476C93.2628 3.41489 94.9988 3.46507 96.7062 3.56408L96.6809 4.00312Z" fill="#3F3B56"/>
<path d="M180.126 146.889H127.956V186.017H180.126V146.889Z" fill="#3E66FB"/>
<path d="M173.605 157.324H134.477V159.932H173.605V157.324Z" fill="white"/>
<path d="M173.605 165.149H134.477V167.758H173.605V165.149Z" fill="white"/>
<path d="M173.605 172.975H134.477V175.583H173.605V172.975Z" fill="white"/>
<path d="M39.172 0H2.73122V27.3305H39.172V0Z" fill="#E6E6E6"/>
<path d="M34.6167 7.28816H7.2862V9.11022H34.6167V7.28816Z" fill="white"/>
<path d="M34.6167 12.754H7.2862V14.5761H34.6167V12.754Z" fill="white"/>
<path d="M34.6167 18.2202H7.2862V20.0422H34.6167V18.2202Z" fill="white"/>
<path d="M54.6593 14.1206H18.2186V41.4511H54.6593V14.1206Z" fill="#3E66FB"/>
<path d="M50.1039 21.4088H22.7734V23.2309H50.1039V21.4088Z" fill="white"/>
<path d="M50.1039 26.8752H22.7734V28.6972H50.1039V26.8752Z" fill="white"/>
<path d="M50.1039 32.3408H22.7734V34.1629H50.1039V32.3408Z" fill="white"/>
<path d="M141.34 128.367H41.9922V53.9413H141.34V128.367ZM43.0165 54.9655V127.342H140.316V54.9655H43.0165Z" fill="#E6E6E6"/>
<path d="M91.6351 110.21C102.082 110.21 110.552 101.741 110.552 91.2936C110.552 80.8462 102.082 72.3769 91.6351 72.3769C81.1877 72.3769 72.7184 80.8462 72.7184 91.2936C72.7184 101.741 81.1877 110.21 91.6351 110.21Z" fill="#3E66FB"/>
<path d="M99.4902 89.7049H93.0586V83.2732C93.0586 82.8718 92.8991 82.4869 92.6153 82.2031C92.3315 81.9192 91.9465 81.7598 91.5452 81.7598V81.7598C91.1438 81.7598 90.7588 81.9192 90.475 82.2031C90.1912 82.4869 90.0317 82.8718 90.0317 83.2732V89.7049H83.6001C83.1987 89.7049 82.8137 89.8643 82.5299 90.1482C82.2461 90.432 82.0866 90.8169 82.0866 91.2183V91.2183C82.0866 91.6197 82.2461 92.0046 82.5299 92.2885C82.8137 92.5723 83.1987 92.7317 83.6001 92.7317H90.0317V99.1634C90.0317 99.5648 90.1912 99.9497 90.475 100.234C90.7588 100.517 91.1438 100.677 91.5452 100.677V100.677C91.9465 100.677 92.3315 100.517 92.6153 100.234C92.8991 99.9497 93.0586 99.5648 93.0586 99.1634V92.7317H99.4902C99.8916 92.7317 100.277 92.5723 100.56 92.2885C100.844 92.0046 101.004 91.6197 101.004 91.2183V91.2183C101.004 90.8169 100.844 90.432 100.56 90.1482C100.277 89.8643 99.8916 89.7049 99.4902 89.7049V89.7049Z" fill="white"/>
<path d="M36.4408 140.316H0V167.646H36.4408V140.316Z" fill="#E6E6E6"/>
<path d="M31.8855 147.604H4.55498V149.426H31.8855V147.604Z" fill="white"/>
<path d="M31.8855 153.07H4.55498V154.892H31.8855V153.07Z" fill="white"/>
<path d="M31.8855 158.536H4.55498V160.358H31.8855V158.536Z" fill="white"/>
</svg>
