<svg width="24" height="24" viewBox="0 0 24 24" fill="none" xmlns="http://www.w3.org/2000/svg">
<path d="M12 24C18.6274 24 24 18.6274 24 12C24 5.37258 18.6274 0 12 0C5.37258 0 0 5.37258 0 12C0 18.6274 5.37258 24 12 24Z" fill="#F03738"/>
<path d="M12 24C18.6274 24 24 18.6274 24 12C24 5.37258 18.6274 0 12 0C5.37258 0 0 5.37258 0 12C0 18.6274 5.37258 24 12 24Z" fill="white" fill-opacity="0.75"/>
<path opacity="0.5" fill-rule="evenodd" clip-rule="evenodd" d="M12 2.75C17.109 2.75 21.25 6.892 21.25 12C21.25 17.108 17.109 21.25 12 21.25C6.892 21.25 2.75 17.108 2.75 12C2.75 6.892 6.892 2.75 12 2.75Z" stroke="#F03738" stroke-width="1.4" stroke-linecap="round" stroke-linejoin="round"/>
<path d="M11.9951 8.2041V12.6231" stroke="#F03738" stroke-width="1.4" stroke-linecap="round" stroke-linejoin="round"/>
<path d="M11.995 15.7959H12.005" stroke="#F03738" stroke-width="1.4" stroke-linecap="round" stroke-linejoin="round"/>
</svg>
