<svg width="28" height="28" viewBox="0 0 28 28" fill="none" xmlns="http://www.w3.org/2000/svg">
<path opacity="0.4" d="M8.5545 27.3335H19.4452C24.1638 27.3335 27.3332 24.2988 27.3332 19.7802V8.22016C27.3332 3.7015 24.1638 0.666831 19.4452 0.666831H8.5545C3.83717 0.666831 0.666504 3.70283 0.666504 8.2215L0.666504 19.7802C0.666504 24.2988 3.83717 27.3335 8.5545 27.3335" fill="#B57BFF"/>
<path d="M15.1405 19.7059L20.1605 14.7086C20.5378 14.3326 20.5378 13.6672 20.1605 13.2899L15.1405 8.29256C14.7485 7.90323 14.1152 7.90456 13.7258 8.29656C13.3365 8.68856 13.3365 9.32056 13.7285 9.71123L17.0312 13.0006H8.55784C8.0045 13.0006 7.55784 13.4486 7.55784 14.0006C7.55784 14.5526 8.0045 15.0006 8.55784 15.0006H17.0312L13.7285 18.2886C13.5325 18.4846 13.4352 18.7406 13.4352 18.9979C13.4352 19.2526 13.5325 19.5086 13.7258 19.7032C14.1152 20.0939 14.7485 20.0952 15.1405 19.7059" fill="#B57BFF"/>
</svg>
