<svg width="40" height="40" viewBox="0 0 40 40" fill="none" xmlns="http://www.w3.org/2000/svg">
<path d="M20 40C31.0457 40 40 31.0457 40 20C40 8.9543 31.0457 0 20 0C8.9543 0 0 8.9543 0 20C0 31.0457 8.9543 40 20 40Z" fill="#B57BFF"/>
<path opacity="0.4" d="M19.5769 12.3242H16.461C13.8985 12.3242 12.2919 14.1384 12.2919 16.7067V23.6351C12.2919 26.2034 13.891 28.0176 16.461 28.0176H23.8144C26.3852 28.0176 27.9844 26.2034 27.9844 23.6351V20.2784" stroke="white" stroke-width="1.5" stroke-linecap="round" stroke-linejoin="round"/>
<path fill-rule="evenodd" clip-rule="evenodd" d="M17.3564 19.1007L23.5839 12.8732C24.3597 12.0982 25.6172 12.0982 26.3931 12.8732L27.4072 13.8874C28.1831 14.6632 28.1831 15.9216 27.4072 16.6966L21.1497 22.9541C20.8106 23.2932 20.3506 23.4841 19.8706 23.4841H16.7489L16.8272 20.3341C16.8389 19.8707 17.0281 19.4291 17.3564 19.1007Z" stroke="white" stroke-width="1.5" stroke-linecap="round" stroke-linejoin="round"/>
<path d="M22.6376 13.835L26.4426 17.64" stroke="white" stroke-width="1.5" stroke-linecap="round" stroke-linejoin="round"/>
</svg>
