<svg width="321" height="220" viewBox="0 0 321 220" fill="none" xmlns="http://www.w3.org/2000/svg">
<path d="M121.528 208.714C121.528 214.422 94.7611 219.051 61.742 219.051C28.7228 219.051 1.95605 214.422 1.95605 208.714C1.95605 207.286 3.62671 205.929 6.64953 204.694C15.4498 201.093 35.7127 198.534 59.5293 198.386C60.2641 198.38 61.0016 198.377 61.742 198.377C94.7611 198.377 121.528 203.006 121.528 208.714Z" fill="#3F3D56"/>
<path opacity="0.1" d="M59.5282 198.385C56.8493 202.753 53.2163 206.457 48.9018 209.221C44.5873 211.984 39.7031 213.735 34.6156 214.342C29.528 214.949 24.3691 214.396 19.5255 212.725C14.682 211.054 10.2796 208.308 6.64844 204.694C15.4487 201.093 35.7116 198.534 59.5282 198.385Z" fill="black"/>
<path d="M31.2898 208.993C48.5707 208.993 62.5796 193.984 62.5796 175.469C62.5796 156.953 48.5707 141.944 31.2898 141.944C14.0089 141.944 0 156.953 0 175.469C0 193.984 14.0089 208.993 31.2898 208.993Z" fill="#3F3D56"/>
<path d="M69.6836 23.2821C74.12 40.3732 88.432 51.42 101.682 47.9805L69.6836 23.2821Z" fill="#3F3D56"/>
<path d="M101.682 47.9806C97.1954 30.6974 105.53 13.6062 120.317 9.76794L101.682 47.9806Z" fill="#3CC13B"/>
<path d="M78.7715 22.5768C82.9856 38.8116 93.2329 50.1737 101.682 47.9805L78.7715 22.5768Z" fill="#3CC13B"/>
<path d="M101.682 47.9805C95.95 25.8965 105.141 4.43642 122.232 0L101.682 47.9805Z" fill="#3F3D56"/>
<path d="M96.6953 49.5076C96.6953 49.5076 100.068 48.5204 100.903 47.5248C101.738 46.5293 105.717 44.5666 106.275 45.6707C106.833 46.7749 112.895 50.1641 109.065 51.1914C105.234 52.2187 99.991 52.9085 98.8067 52.551C97.6224 52.1936 96.6953 49.5076 96.6953 49.5076Z" fill="#A8A8A8"/>
<path opacity="0.2" d="M109.027 50.7662C105.197 51.7935 99.9537 52.4834 98.7694 52.1259C97.8675 51.8537 97.1153 50.232 96.8077 49.4736C96.7366 49.4954 96.6953 49.5075 96.6953 49.5075C96.6953 49.5075 97.6224 52.1935 98.8067 52.551C99.991 52.9085 105.234 52.2186 109.065 51.1913C110.17 50.8948 110.451 50.4013 110.278 49.8229C110.216 50.2156 109.85 50.5455 109.027 50.7662Z" fill="black"/>
<path d="M321 35.2231H95.8252V165.691H321V35.2231Z" fill="#F2F2F2"/>
<g opacity="0.3">
<path opacity="0.3" d="M224.616 74.8243H101.133V139.499H224.616V74.8243Z" fill="#3CC13B"/>
<path opacity="0.3" d="M224.616 74.8243H101.133V139.499H224.616V74.8243Z" fill="white" fill-opacity="0.5"/>
</g>
<path d="M283.643 72.0048H234.115V74.7446H283.643V72.0048Z" fill="#3F3D56"/>
<path d="M306.194 77.063H234.115V79.8028H306.194V77.063Z" fill="#3F3D56"/>
<path d="M283.643 89.2869H234.115V92.0267H283.643V89.2869Z" fill="#3F3D56"/>
<path d="M283.643 109.519H234.115V112.259H283.643V109.519Z" fill="#3F3D56"/>
<path d="M306.194 94.345H234.115V97.0848H306.194V94.345Z" fill="#3F3D56"/>
<path d="M306.194 99.4031H234.115V102.143H306.194V99.4031Z" fill="#3F3D56"/>
<path d="M306.194 104.461H234.115V107.201H306.194V104.461Z" fill="#3F3D56"/>
<path d="M260.038 121.743H234.115V128.909H260.038V121.743Z" fill="#3CC13B"/>
<path d="M87.8594 113.96C87.8594 113.96 92.5129 100.775 95.8737 104.912C99.2346 109.048 90.7032 116.028 90.7032 116.028L87.8594 113.96Z" fill="#A0616A"/>
<path d="M65.8841 101.034L68.6835 102.071C68.6835 102.071 70.0206 108.014 69.5035 109.048C68.9865 110.082 68.7279 109.307 69.5035 111.375C70.2791 113.443 72.6058 118.872 72.8644 119.648C73.1229 120.423 87.8589 114.736 87.8589 111.892C87.8589 111.892 90.9613 115.511 92.5124 116.287C92.5124 116.287 75.4496 128.696 73.1229 130.247C70.7962 131.799 69.5035 131.023 67.4353 129.213C65.3671 127.404 56.5771 112.409 56.5771 112.409L65.8841 101.034Z" fill="#575A89"/>
<path d="M73.3822 192.811C73.3822 192.811 73.1236 195.655 72.6066 195.913C72.0895 196.172 68.2116 202.635 72.6066 203.928C77.0015 205.22 79.5868 204.703 80.6209 205.22C81.655 205.737 99.7519 206.771 100.01 203.928C100.269 201.084 91.2205 200.567 91.2205 200.567C91.2205 200.567 82.9477 195.138 81.655 192.294C80.3624 189.45 73.3822 192.811 73.3822 192.811Z" fill="#2F2E41"/>
<path d="M20.9015 197.981C20.9015 197.981 14.6968 208.581 16.248 209.874C17.7991 211.166 32.9057 215.877 35.1205 216.078C37.9643 216.337 40.0325 214.01 37.7057 212.717C35.379 211.425 30.467 205.996 30.467 204.186V199.533L20.9015 197.981Z" fill="#2F2E41"/>
<path d="M14.9545 128.696C14.9545 128.696 9.52543 135.418 18.0568 146.276L32.2758 164.373C32.2758 164.373 23.4859 178.333 23.2274 185.572C22.9688 192.811 21.1592 191.26 20.6421 194.362C20.1251 197.464 17.7983 195.913 19.608 198.24C21.4177 200.567 28.1394 202.635 30.2076 200.825C32.2758 199.016 32.2758 196.689 32.2758 195.655C32.2758 194.621 35.8952 188.674 36.1537 186.865C36.4123 185.055 45.9778 170.319 45.9778 170.319C45.9778 170.319 49.0801 161.529 45.4607 156.617C41.8413 151.705 39.4496 144.738 39.4496 144.738C39.4496 144.738 50.1142 157.651 57.6115 160.754C57.6115 160.754 60.4553 161.271 59.9383 162.563C59.4212 163.856 59.9383 164.631 60.7138 165.924C61.4894 167.217 66.9185 182.211 68.7282 186.089C70.5379 189.967 69.7623 192.294 71.8305 193.587C73.8987 194.879 83.2057 193.845 83.2057 192.552C83.2057 191.26 81.9131 187.899 81.1375 186.089C80.3619 184.28 74.1572 163.339 74.6743 159.719C75.1914 156.1 74.4158 151.188 70.5379 149.12C66.66 147.052 47.0119 130.247 45.9778 130.247C44.9437 130.247 14.9545 128.696 14.9545 128.696Z" fill="#2F2E41"/>
<path d="M66.9187 88.1074C72.9155 88.1074 77.7768 83.246 77.7768 77.2493C77.7768 71.2525 72.9155 66.3911 66.9187 66.3911C60.9219 66.3911 56.0605 71.2525 56.0605 77.2493C56.0605 83.246 60.9219 88.1074 66.9187 88.1074Z" fill="#A0616A"/>
<path d="M58.1291 78.2834C58.1291 78.2834 54.7683 84.2296 50.6318 85.0052C46.4954 85.7808 61.49 97.673 61.49 97.673C61.49 97.673 65.1094 86.2978 68.2117 85.7808C71.3141 85.2637 58.1291 78.2834 58.1291 78.2834Z" fill="#A0616A"/>
<path d="M68.7285 102.585C68.7285 105.946 58.6459 115.511 58.6459 115.511L49.0804 123.526C49.0804 123.526 48.8218 126.37 47.7877 126.628C46.7536 126.887 45.461 126.887 46.4951 128.438C47.5292 129.989 50.1145 133.35 47.7877 133.867C47.0863 133.973 46.3794 134.041 45.6704 134.068C45.0499 134.105 44.3209 134.138 43.5013 134.169C41.5883 134.236 39.1943 134.28 36.6013 134.262C35.8644 134.26 35.1147 134.251 34.3521 134.236C24.5772 134.043 13.2536 132.918 14.1792 129.213C15.7304 123.009 14.6963 120.94 18.0571 117.58C21.418 114.219 26.847 102.585 26.847 102.585C26.847 102.585 37.7052 84.2295 46.7536 84.2295L48.6331 83.7357C49.5064 83.5057 50.43 83.5562 51.273 83.88C52.1161 84.2039 52.8359 84.7847 53.3306 85.5403C55.1454 88.3039 58.0073 92.4559 59.68 93.7951C62.2653 95.8633 62.6686 94.3793 62.6686 94.3793C62.6686 94.3793 68.7285 99.2241 68.7285 102.585Z" fill="#575A89"/>
<path d="M45.7192 141.881C45.7192 141.881 53.2165 153.515 48.563 155.583C43.9095 157.651 41.3242 143.432 41.3242 143.432L45.7192 141.881Z" fill="#A0616A"/>
<path d="M59.8202 76.0228C60.2369 75.9703 60.3687 75.4444 60.4388 75.0303C60.8145 72.8126 62.4672 70.7096 64.6878 70.3516C65.5366 70.2387 66.3997 70.3082 67.2194 70.5556C68.3937 70.8779 69.496 71.4204 70.4677 72.1545C70.9805 72.5423 71.474 72.9926 72.0909 73.1738C72.4984 73.2934 74.2283 74.0625 74.6325 74.1927C75.5212 74.4788 76.2567 75.409 77.1719 75.2248C78.0476 75.0486 78.3802 73.9912 78.5209 73.1091C78.8415 71.0997 77.6913 68.1013 76.5478 66.4181C75.68 65.1408 74.2114 64.4058 72.7431 63.9275C71.023 63.4054 69.2556 63.0542 67.4665 62.879C65.0513 62.5938 62.5499 62.4425 60.2353 63.189C57.9208 63.9356 55.8132 65.7618 55.3812 68.155C55.2911 68.6536 55.2743 69.1642 55.164 69.6587C54.8949 70.8649 54.0968 71.8787 53.6313 73.0235C53.2954 73.8643 53.1395 74.7661 53.1735 75.6708C53.2076 76.5756 53.4308 77.4631 53.8289 78.2763C54.4736 79.5727 55.5947 80.8185 55.3527 82.246L57.3477 80.6729C57.636 80.5091 57.8594 80.2513 57.9806 79.9427C58.1018 79.6341 58.1135 79.2932 58.0137 78.977L57.7236 76.4789C57.6705 76.0215 57.6243 75.528 57.853 75.1283C58.7398 73.5794 59.1254 76.1105 59.8202 76.0228Z" fill="#2F2E41"/>
<path opacity="0.1" d="M41.0664 124.043L43.5017 134.169C41.0457 134.257 37.7961 134.304 34.3525 134.236C33.4838 131.63 32.6539 128.913 32.018 126.369C29.6912 117.062 33.5691 102.843 35.6374 96.1217C37.7056 89.4 42.8761 87.5903 42.8761 87.5903C42.8761 87.5903 45.4614 88.3659 48.8223 90.6927C52.1831 93.0194 41.0664 124.043 41.0664 124.043Z" fill="black"/>
<path opacity="0.1" d="M43.1348 123.526L45.671 134.068C45.0505 134.105 44.3215 134.138 43.5019 134.169C41.5888 134.236 39.1948 134.28 36.6018 134.262C35.6686 131.493 34.7662 128.572 34.0863 125.852C31.7596 116.545 35.6375 102.326 37.7057 95.6047C39.7739 88.883 44.2982 96.251 44.2982 96.251C44.2982 96.251 42.4885 91.8561 45.8493 94.1828C49.2102 96.5096 43.1348 123.526 43.1348 123.526Z" fill="black"/>
<path d="M43.9093 87.0732C43.9093 87.0732 38.7388 88.8829 36.6705 95.6046C34.6023 102.326 30.7244 116.545 33.0512 125.852C35.3779 135.159 40.2899 146.793 40.2899 146.793C40.2899 146.793 45.2019 143.174 47.0117 143.949L42.0996 123.526C42.0996 123.526 53.2163 92.5023 49.8555 90.1756C46.4946 87.8488 43.9093 87.0732 43.9093 87.0732Z" fill="#575A89"/>
<path d="M219.308 68.1194H95.8252V132.794H219.308V68.1194Z" fill="#3F3D56"/>
<path d="M159.864 115.722C167.581 115.722 173.838 109.454 173.838 101.723C173.838 93.9915 167.581 87.724 159.864 87.724C152.147 87.724 145.891 93.9915 145.891 101.723C145.891 109.454 152.147 115.722 159.864 115.722Z" fill="white"/>
<path d="M159.864 85.3383C156.561 85.3383 153.332 86.3177 150.586 88.1527C147.84 89.9878 145.699 92.5959 144.435 95.6475C143.171 98.699 142.841 102.057 143.485 105.296C144.129 108.536 145.72 111.511 148.055 113.847C150.391 116.183 153.367 117.773 156.606 118.417C159.846 119.062 163.203 118.731 166.255 117.467C169.306 116.203 171.915 114.063 173.75 111.316C175.585 108.57 176.564 105.341 176.564 102.038C176.551 97.6132 174.788 93.373 171.659 90.2439C168.529 87.1148 164.289 85.3512 159.864 85.3383ZM156.436 110.942L147.877 102.384L150.278 99.9829L156.444 106.149L169.459 93.1343L171.859 95.5349L156.436 110.942Z" fill="#3CC13B"/>
</svg>
