<svg width="18" height="18" viewBox="0 0 18 18" fill="none" xmlns="http://www.w3.org/2000/svg">
<path d="M2.81589 14.2594C2.93894 14.3438 3.41355 14.5793 3.81433 14.0731L6.52839 10.1075L9.40066 12.8778C9.55183 13.0219 9.75925 13.0993 9.97019 13.0747C10.1776 13.0536 10.3675 12.9446 10.4905 12.7723L15.2542 5.94146L15.4264 8.22661C15.4686 8.80669 16.0135 8.90162 16.1964 8.88755C16.5901 8.85591 16.8889 8.5149 16.8573 8.11763L16.555 4.09927C16.5268 3.70552 16.1823 3.40669 15.785 3.43833L11.7667 3.74068C11.3729 3.7688 11.0741 4.11333 11.1057 4.5106C11.1339 4.90435 11.4749 5.19966 11.8757 5.17154L14.1608 4.99927L9.79441 11.2571L6.91511 8.47974C6.76394 8.33208 6.553 8.25826 6.34558 8.28287C6.13464 8.30396 5.9448 8.41646 5.82527 8.59224L2.62956 13.261C2.40456 13.5879 2.48894 14.0344 2.81589 14.2594Z" fill="white"/>
<path d="M16.8961 16.1789H1.82109V1.10391C1.82109 0.706641 1.50117 0.386719 1.10391 0.386719C0.706641 0.386719 0.386719 0.706641 0.386719 1.10391V16.8961C0.386719 17.2934 0.706641 17.6133 1.10391 17.6133H16.8961C17.2934 17.6133 17.6133 17.2934 17.6133 16.8961C17.6133 16.4988 17.2934 16.1789 16.8961 16.1789Z" fill="white"/>
</svg>
