<svg width="20" height="20" viewBox="0 0 20 20" fill="none" xmlns="http://www.w3.org/2000/svg">
<g clip-path="url(#clip0)">
<path d="M18.8232 16.5753V15.884C18.8232 15.1175 18.3312 14.4639 17.6465 14.2218V8.22777H18.2373C18.5609 8.22777 18.8232 7.96543 18.8232 7.64184V5.68383C18.8232 5.4809 18.7182 5.29238 18.5457 5.18559L10.3084 0.0879297C10.1194 -0.0289844 9.88062 -0.0289844 9.69168 0.0879297L1.45437 5.18559C1.2818 5.29238 1.1768 5.4809 1.1768 5.68383V7.64184C1.1768 7.96543 1.43914 8.22777 1.76273 8.22777H2.35352V14.2218C1.66879 14.4639 1.17676 15.1174 1.17676 15.884V16.5753C0.492031 16.8175 0 17.471 0 18.2375V19.4143C0 19.7379 0.262344 20.0002 0.585938 20.0002H19.4141C19.7377 20.0002 20 19.7379 20 19.4143V18.2375C20 17.471 19.508 16.8175 18.8232 16.5753ZM8.2373 8.22777V14.1213H5.87891V8.22777H8.2373ZM10.5908 14.1213H9.40918V8.22777H10.5908V14.1213ZM11.7627 8.22777H14.1211V14.1213H11.7627V8.22777ZM16.4746 14.1213H15.293V8.22777H16.4746V14.1213ZM2.34863 6.01031L10 1.27523L17.6514 6.01027V7.0559H2.34863V6.01031ZM4.70703 8.22777V14.1213H3.52539V8.22777H4.70703ZM2.34863 15.884C2.34863 15.5582 2.61367 15.2932 2.93945 15.2932H17.0605C17.3863 15.2932 17.6514 15.5582 17.6514 15.884V16.4748H2.34863V15.884ZM18.8281 18.8284H1.17188V18.2375C1.17188 17.9118 1.43691 17.6467 1.7627 17.6467H18.2373C18.5631 17.6467 18.8281 17.9118 18.8281 18.2375V18.8284Z" fill="white"/>
<path d="M10 2.74414C9.02805 2.74414 8.2373 3.53488 8.2373 4.50684C8.2373 5.47879 9.02805 6.26953 10 6.26953C10.972 6.26953 11.7627 5.47879 11.7627 4.50684C11.7627 3.53488 10.972 2.74414 10 2.74414ZM10 5.09766C9.67422 5.09766 9.40918 4.83262 9.40918 4.50684C9.40918 4.18105 9.67422 3.91602 10 3.91602C10.3258 3.91602 10.5908 4.18105 10.5908 4.50684C10.5908 4.83262 10.3258 5.09766 10 5.09766Z" fill="white"/>
</g>
<defs>
<clipPath id="clip0">
<rect width="20" height="20" fill="white"/>
</clipPath>
</defs>
</svg>
