<svg width="28" height="24" viewBox="0 0 28 24" fill="none" xmlns="http://www.w3.org/2000/svg">
<g opacity="0.4">
<path opacity="0.4" d="M11.4443 17.2773H2.67699C1.56736 17.2773 0.666626 18.1623 0.666626 19.2524C0.666626 20.3412 1.56736 21.2275 2.67699 21.2275H11.4443C12.554 21.2275 13.4547 20.3412 13.4547 19.2524C13.4547 18.1623 12.554 17.2773 11.4443 17.2773Z" fill="#B57BFF"/>
<path opacity="0.4" d="M11.4443 17.2773H2.67699C1.56736 17.2773 0.666626 18.1623 0.666626 19.2524C0.666626 20.3412 1.56736 21.2275 2.67699 21.2275H11.4443C12.554 21.2275 13.4547 20.3412 13.4547 19.2524C13.4547 18.1623 12.554 17.2773 11.4443 17.2773Z" fill="white" fill-opacity="0.5"/>
</g>
<g opacity="0.4">
<path opacity="0.4" d="M27.3335 4.50465C27.3335 3.41594 26.4327 2.53101 25.3246 2.53101H16.5572C15.4476 2.53101 14.5469 3.41594 14.5469 4.50465C14.5469 5.59482 15.4476 6.47976 16.5572 6.47976H25.3246C26.4327 6.47976 27.3335 5.59482 27.3335 4.50465Z" fill="#B57BFF"/>
<path opacity="0.4" d="M27.3335 4.50465C27.3335 3.41594 26.4327 2.53101 25.3246 2.53101H16.5572C15.4476 2.53101 14.5469 3.41594 14.5469 4.50465C14.5469 5.59482 15.4476 6.47976 16.5572 6.47976H25.3246C26.4327 6.47976 27.3335 5.59482 27.3335 4.50465Z" fill="white" fill-opacity="0.5"/>
</g>
<path d="M9.83694 4.50475C9.83694 6.99364 7.7851 9.01095 5.25179 9.01095C2.71995 9.01095 0.666626 6.99364 0.666626 4.50475C0.666626 2.01731 2.71995 0 5.25179 0C7.7851 0 9.83694 2.01731 9.83694 4.50475Z" fill="#B57BFF"/>
<path d="M27.3333 19.1991C27.3333 21.6865 25.2814 23.7038 22.7481 23.7038C20.2163 23.7038 18.163 21.6865 18.163 19.1991C18.163 16.7102 20.2163 14.6929 22.7481 14.6929C25.2814 14.6929 27.3333 16.7102 27.3333 19.1991Z" fill="#B57BFF"/>
</svg>
