<svg width="48" height="48" viewBox="0 0 48 48" fill="none" xmlns="http://www.w3.org/2000/svg">
<path d="M34.8889 0.666748H13.1111C5.16737 0.666748 0.66663 5.16749 0.66663 13.1112V34.889C0.66663 42.8119 5.14663 47.3334 13.1111 47.3334H34.8889C42.8326 47.3334 47.3333 42.8119 47.3333 34.889V13.1112C47.3333 5.16749 42.8326 0.666748 34.8889 0.666748Z" fill="#B57BFF"/>
<path d="M31.7477 25.6529H25.7488V31.5997C25.7488 32.5572 24.9658 33.3334 24 33.3334C23.0341 33.3334 22.2511 32.5572 22.2511 31.5997V25.6529H16.2522C15.3513 25.5604 14.6666 24.8077 14.6666 23.9098C14.6666 23.0119 15.3513 22.2593 16.2522 22.1668H22.2323V16.2386C22.3256 15.3455 23.0848 14.6667 23.9906 14.6667C24.8963 14.6667 25.6555 15.3455 25.7488 16.2386V22.1668H31.7477C32.6486 22.2593 33.3333 23.0119 33.3333 23.9098C33.3333 24.8077 32.6486 25.5604 31.7477 25.6529Z" fill="white"/>
</svg>
