<svg width="32" height="32" viewBox="0 0 32 32" fill="none" xmlns="http://www.w3.org/2000/svg">
<g opacity="0.4">
<mask id="path-1-outside-1" maskUnits="userSpaceOnUse" x="0.333466" y="0.333466" width="31" height="31" fill="black">
<rect fill="white" x="0.333466" y="0.333466" width="31" height="31"/>
<path d="M21.4455 29.3335H10.5548C5.83613 29.3335 2.6668 26.2988 2.6668 21.7801V10.2201C2.6668 5.70147 5.83613 2.6668 10.5548 2.6668H21.4455C26.1628 2.6668 29.3335 5.7028 29.3335 10.2215V21.7801C29.3335 26.2988 26.1628 29.3335 21.4455 29.3335"/>
</mask>
<path d="M21.4455 31.3335H10.5548V27.3335H21.4455V31.3335ZM10.5548 31.3335C7.76268 31.3335 5.26821 30.4291 3.45807 28.6958C1.64035 26.9553 0.666798 24.5246 0.666798 21.7801H4.6668C4.6668 23.5544 5.27791 24.9003 6.22452 25.8068C7.17872 26.7205 8.62825 27.3335 10.5548 27.3335V31.3335ZM0.666798 21.7801V10.2201H4.6668V21.7801H0.666798ZM0.666798 10.2201C0.666798 7.4757 1.64035 5.04499 3.45807 3.30443C5.26821 1.57112 7.76268 0.6668 10.5548 0.6668V4.6668C8.62825 4.6668 7.17872 5.27981 6.22452 6.19351C5.27791 7.09994 4.6668 8.4459 4.6668 10.2201H0.666798ZM10.5548 0.6668H21.4455V4.6668H10.5548V0.6668ZM21.4455 0.6668C24.2373 0.6668 26.7317 1.57168 28.5418 3.30519C30.3594 5.04592 31.3335 7.47682 31.3335 10.2215H27.3335C27.3335 8.44745 26.7222 7.10101 25.7751 6.19408C24.8206 5.27992 23.371 4.6668 21.4455 4.6668V0.6668ZM31.3335 10.2215V21.7801H27.3335V10.2215H31.3335ZM31.3335 21.7801C31.3335 24.5248 30.3594 26.9555 28.5416 28.6959C26.7314 30.4291 24.237 31.3335 21.4455 31.3335V27.3335C23.3712 27.3335 24.8209 26.7205 25.7753 25.8067C26.7222 24.9001 27.3335 23.5541 27.3335 21.7801H31.3335Z" fill="#B57BFF" mask="url(#path-1-outside-1)"/>
</g>
<path d="M14.8595 21.7059L9.83947 16.7085C9.46214 16.3325 9.46214 15.6672 9.83947 15.2899L14.8595 10.2925C15.2515 9.9032 15.8848 9.90453 16.2741 10.2965C16.6635 10.6885 16.6635 11.3205 16.2715 11.7112L12.9688 15.0005H21.4421C21.9955 15.0005 22.4421 15.4485 22.4421 16.0005C22.4421 16.5525 21.9955 17.0005 21.4421 17.0005H12.9688L16.2715 20.2885C16.4675 20.4845 16.5648 20.7405 16.5648 20.9979C16.5648 21.2525 16.4675 21.5085 16.2741 21.7032C15.8848 22.0939 15.2515 22.0952 14.8595 21.7059" fill="#B57BFF"/>
</svg>
