<svg width="16" height="16" viewBox="0 0 16 16" fill="none" xmlns="http://www.w3.org/2000/svg">
<path d="M6.23281 9.90527C3.59027 9.90527 1.33325 10.3135 1.33325 11.945C1.33325 13.5779 3.57592 14.0001 6.23281 14.0001C8.87535 14.0001 11.1324 13.5919 11.1324 11.9604C11.1324 10.3275 8.8897 9.90527 6.23281 9.90527Z" fill="#B57BFF"/>
<path opacity="0.4" d="M6.23274 8.34988C8.03249 8.34988 9.47476 6.93745 9.47476 5.17494C9.47476 3.41243 8.03249 2 6.23274 2C4.43365 2 2.99072 3.41243 2.99072 5.17494C2.99072 6.93745 4.43365 8.34988 6.23274 8.34988Z" fill="#B57BFF"/>
<path opacity="0.4" d="M10.7825 5.23249C10.7825 6.13003 10.5072 6.96753 10.0245 7.6632C9.97429 7.73475 10.0186 7.83121 10.106 7.84654C10.2274 7.86635 10.352 7.87848 10.4792 7.88104C11.7447 7.91362 12.8803 7.11573 13.1941 5.91411C13.6592 4.13116 12.2946 2.53027 10.5561 2.53027C10.3676 2.53027 10.1869 2.54944 10.0108 2.58457C9.98668 2.58968 9.96059 2.60118 9.94755 2.62162C9.93059 2.64782 9.94298 2.68167 9.95994 2.70403C10.4824 3.42143 10.7825 4.2947 10.7825 5.23249Z" fill="#B57BFF"/>
<path d="M14.5195 10.1125C14.288 9.62892 13.7289 9.29737 12.8783 9.13447C12.4771 9.03865 11.3904 8.90258 10.3799 8.92175C10.3649 8.92366 10.3565 8.93388 10.3552 8.94027C10.3532 8.95049 10.3578 8.96582 10.3773 8.97668C10.8444 9.20283 12.6494 10.1866 12.4223 12.2615C12.4126 12.3522 12.4863 12.4289 12.5782 12.4161C13.0225 12.3541 14.1653 12.1133 14.5195 11.3646C14.7159 10.9685 14.7159 10.5086 14.5195 10.1125Z" fill="#B57BFF"/>
</svg>
