<svg width="16" height="16" viewBox="0 0 16 16" fill="none" xmlns="http://www.w3.org/2000/svg">
<path opacity="0.4" d="M7.6615 1.85938H5.16883C3.11883 1.85938 1.8335 3.31071 1.8335 5.36537V10.908C1.8335 12.9627 3.11283 14.414 5.16883 14.414H11.0515C13.1082 14.414 14.3875 12.9627 14.3875 10.908V8.22271" stroke="#B57BFF" stroke-width="1.5" stroke-linecap="round" stroke-linejoin="round"/>
<path fill-rule="evenodd" clip-rule="evenodd" d="M5.88517 7.28098L10.8672 2.29898C11.4878 1.67898 12.4938 1.67898 13.1145 2.29898L13.9258 3.11032C14.5465 3.73098 14.5465 4.73765 13.9258 5.35765L8.91984 10.3637C8.6485 10.635 8.2805 10.7877 7.8965 10.7877H5.39917L5.46184 8.26765C5.47117 7.89698 5.6225 7.54365 5.88517 7.28098Z" stroke="#B57BFF" stroke-width="1.5" stroke-linecap="round" stroke-linejoin="round"/>
<path d="M10.1101 3.06836L13.1541 6.11236" stroke="#B57BFF" stroke-width="1.5" stroke-linecap="round" stroke-linejoin="round"/>
</svg>
