<svg width="251" height="227" viewBox="0 0 251 227" fill="none" xmlns="http://www.w3.org/2000/svg">
<g clip-path="url(#clip0)">
<path d="M155.951 131.493H64.012C60.8943 131.49 57.9052 130.25 55.7006 128.045C53.496 125.841 52.256 122.852 52.2524 119.734V11.7596C52.256 8.64182 53.496 5.65277 55.7006 3.44819C57.9052 1.2436 60.8943 0.00352181 64.012 0H149.546L167.71 14.4781V119.734C167.707 122.852 166.466 125.841 164.262 128.045C162.057 130.25 159.068 131.49 155.951 131.493Z" fill="#E6E6E6"/>
<path d="M64.0122 3.38525C61.792 3.38776 59.6634 4.27084 58.0935 5.84078C56.5235 7.41071 55.6404 9.53928 55.6379 11.7595V119.734C55.6404 121.954 56.5235 124.083 58.0935 125.652C59.6634 127.222 61.792 128.106 64.0122 128.108H155.951C158.171 128.106 160.299 127.222 161.869 125.652C163.439 124.083 164.322 121.954 164.325 119.734V16.109L148.362 3.38525H64.0122Z" fill="white"/>
<path d="M138.069 34.7813H96.2102C95.9531 34.7813 95.6984 34.7307 95.4608 34.6322C95.2232 34.5338 95.0074 34.3896 94.8255 34.2077C94.6437 34.0259 94.4994 33.81 94.401 33.5724C94.3026 33.3348 94.252 33.0802 94.252 32.823C94.252 32.5659 94.3026 32.3112 94.401 32.0736C94.4994 31.836 94.6437 31.6202 94.8255 31.4383C95.0074 31.2565 95.2232 31.1122 95.4608 31.0138C95.6984 30.9154 95.9531 30.8647 96.2102 30.8647H138.069C138.326 30.8647 138.58 30.9154 138.818 31.0138C139.056 31.1122 139.271 31.2565 139.453 31.4383C139.635 31.6202 139.779 31.836 139.878 32.0736C139.976 32.3112 140.027 32.5659 140.027 32.823C140.027 33.0802 139.976 33.3348 139.878 33.5724C139.779 33.81 139.635 34.0259 139.453 34.2077C139.271 34.3896 139.056 34.5338 138.818 34.6322C138.58 34.7307 138.326 34.7813 138.069 34.7813Z" fill="#CCCCCC"/>
<path d="M146.146 41.3907H96.2102C95.6909 41.3907 95.1928 41.1844 94.8255 40.8171C94.4583 40.4499 94.252 39.9518 94.252 39.4324C94.252 38.913 94.4583 38.4149 94.8255 38.0477C95.1928 37.6804 95.6909 37.4741 96.2102 37.4741H146.146C146.666 37.4741 147.164 37.6804 147.531 38.0477C147.898 38.4149 148.105 38.913 148.105 39.4324C148.105 39.9518 147.898 40.4499 147.531 40.8171C147.164 41.1844 146.666 41.3907 146.146 41.3907Z" fill="#CCCCCC"/>
<path d="M138.069 64.4004H96.2102C95.6909 64.4004 95.1928 64.1941 94.8255 63.8269C94.4583 63.4596 94.252 62.9615 94.252 62.4422C94.252 61.9228 94.4583 61.4247 94.8255 61.0575C95.1928 60.6902 95.6909 60.4839 96.2102 60.4839H138.069C138.588 60.4839 139.086 60.6902 139.453 61.0575C139.821 61.4247 140.027 61.9228 140.027 62.4422C140.027 62.9615 139.821 63.4596 139.453 63.8269C139.086 64.1941 138.588 64.4004 138.069 64.4004Z" fill="#CCCCCC"/>
<path d="M146.146 71.0093H96.2102C95.6909 71.0093 95.1928 70.803 94.8255 70.4358C94.4583 70.0685 94.252 69.5704 94.252 69.0511C94.252 68.5317 94.4583 68.0336 94.8255 67.6663C95.1928 67.2991 95.6909 67.0928 96.2102 67.0928H146.146C146.666 67.0928 147.164 67.2991 147.531 67.6663C147.898 68.0336 148.105 68.5317 148.105 69.0511C148.105 69.5704 147.898 70.0685 147.531 70.4358C147.164 70.803 146.666 71.0093 146.146 71.0093Z" fill="#CCCCCC"/>
<path d="M138.069 94.0191H96.2102C95.6909 94.0191 95.1928 93.8128 94.8255 93.4455C94.4583 93.0783 94.252 92.5802 94.252 92.0608C94.252 91.5415 94.4583 91.0434 94.8255 90.6761C95.1928 90.3089 95.6909 90.1025 96.2102 90.1025H138.069C138.588 90.1025 139.086 90.3089 139.453 90.6761C139.821 91.0434 140.027 91.5415 140.027 92.0608C140.027 92.5802 139.821 93.0783 139.453 93.4455C139.086 93.8128 138.588 94.0191 138.069 94.0191Z" fill="#CCCCCC"/>
<path d="M146.146 100.629H96.2102C95.6909 100.629 95.1928 100.423 94.8255 100.055C94.4583 99.6881 94.252 99.1901 94.252 98.6707C94.252 98.1513 94.4583 97.6532 94.8255 97.286C95.1928 96.9187 95.6909 96.7124 96.2102 96.7124H146.146C146.666 96.7124 147.164 96.9187 147.531 97.286C147.898 97.6532 148.105 98.1513 148.105 98.6707C148.105 99.1901 147.898 99.6881 147.531 100.055C147.164 100.423 146.666 100.629 146.146 100.629Z" fill="#CCCCCC"/>
<path d="M78.7796 43.049C82.6022 43.049 85.7011 39.9501 85.7011 36.1275C85.7011 32.3049 82.6022 29.2061 78.7796 29.2061C74.957 29.2061 71.8582 32.3049 71.8582 36.1275C71.8582 39.9501 74.957 43.049 78.7796 43.049Z" fill="#3CC13B"/>
<path d="M78.0937 38.768C77.9379 38.7683 77.7864 38.7179 77.6618 38.6245L77.6541 38.6187L76.0274 37.3744C75.8755 37.2577 75.7761 37.0854 75.7511 36.8954C75.7261 36.7054 75.7775 36.5133 75.8941 36.3613C76.0106 36.2092 76.1828 36.1096 76.3728 36.0845C76.5627 36.0593 76.7549 36.1106 76.907 36.227L77.9606 37.035L80.4504 33.7868C80.5081 33.7115 80.5801 33.6483 80.6622 33.6009C80.7444 33.5534 80.8351 33.5226 80.9292 33.5101C81.0233 33.4977 81.1189 33.5039 81.2105 33.5284C81.3022 33.553 81.3881 33.5953 81.4634 33.653L81.4636 33.6532L81.4482 33.6747L81.4641 33.6532C81.616 33.77 81.7154 33.9422 81.7404 34.1322C81.7655 34.3221 81.7142 34.5143 81.5977 34.6665L78.6693 38.4852C78.6015 38.5732 78.5144 38.6444 78.4147 38.6933C78.315 38.7422 78.2053 38.7675 78.0943 38.7671L78.0937 38.768Z" fill="white"/>
<path d="M79.4923 72.6681C83.3149 72.6681 86.4137 69.5693 86.4137 65.7467C86.4137 61.924 83.3149 58.8252 79.4923 58.8252C75.6696 58.8252 72.5708 61.924 72.5708 65.7467C72.5708 69.5693 75.6696 72.6681 79.4923 72.6681Z" fill="#CCCCCC"/>
<path d="M78.7796 102.287C82.6022 102.287 85.7011 99.1884 85.7011 95.3658C85.7011 91.5432 82.6022 88.4443 78.7796 88.4443C74.957 88.4443 71.8582 91.5432 71.8582 95.3658C71.8582 99.1884 74.957 102.287 78.7796 102.287Z" fill="#CCCCCC"/>
<path d="M167.357 14.9439H153.128C152.089 14.9439 151.093 14.5313 150.359 13.7968C149.624 13.0623 149.211 12.0661 149.211 11.0274V0.518227C149.211 0.472217 149.224 0.427135 149.249 0.388157C149.273 0.34918 149.308 0.317882 149.35 0.297852C149.391 0.277822 149.437 0.26987 149.483 0.274911C149.529 0.279952 149.572 0.297779 149.608 0.32635L167.509 14.5073C167.549 14.5388 167.578 14.582 167.592 14.6308C167.606 14.6796 167.605 14.7316 167.588 14.7796C167.571 14.8276 167.54 14.8692 167.499 14.8987C167.457 14.9281 167.408 14.9439 167.357 14.9439Z" fill="#E6E6E6"/>
<path d="M71.0378 151.724L16.6423 163.19C15.0704 163.519 13.4319 163.212 12.0864 162.335C10.7409 161.458 9.79818 160.083 9.46515 158.511L0.130971 114.228C-0.198524 112.656 0.10898 111.017 0.98602 109.672C1.86306 108.326 3.23801 107.384 4.80922 107.051L59.2047 95.5851C60.7766 95.2556 62.4151 95.5631 63.7606 96.4401C65.1062 97.3172 66.0488 98.6921 66.3819 100.263L75.7161 144.547C76.0456 146.119 75.738 147.757 74.861 149.103C73.984 150.448 72.609 151.391 71.0378 151.724Z" fill="white"/>
<path d="M71.0378 151.724L16.6423 163.19C15.0704 163.519 13.4319 163.212 12.0864 162.335C10.7409 161.458 9.79818 160.083 9.46515 158.511L0.130971 114.228C-0.198524 112.656 0.10898 111.017 0.98602 109.672C1.86306 108.326 3.23801 107.384 4.80922 107.051L59.2047 95.5851C60.7766 95.2556 62.4151 95.5631 63.7606 96.4401C65.1062 97.3172 66.0488 98.6921 66.3819 100.263L75.7161 144.547C76.0456 146.119 75.738 147.757 74.861 149.103C73.984 150.448 72.609 151.391 71.0378 151.724ZM4.95622 107.748C3.56986 108.042 2.35667 108.874 1.58282 110.061C0.808958 111.248 0.537624 112.694 0.828344 114.081L10.1625 158.364C10.4564 159.751 11.2882 160.964 12.4754 161.738C13.6626 162.512 15.1083 162.783 16.4953 162.492L70.8908 151.027C72.2772 150.733 73.4903 149.901 74.2642 148.714C75.0381 147.527 75.3094 146.081 75.0187 144.694L65.6845 100.41C65.3906 99.024 64.5589 97.8108 63.3716 97.0369C62.1844 96.2631 60.7387 95.9918 59.3517 96.2825L4.95622 107.748Z" fill="#3F3D56"/>
<path d="M55.825 110.187L28.3723 115.974C28.1321 116.029 27.8796 115.992 27.666 115.869C27.4524 115.745 27.2935 115.546 27.2216 115.31C27.1886 115.187 27.1811 115.058 27.1995 114.932C27.2178 114.806 27.2617 114.685 27.3283 114.577C27.395 114.468 27.483 114.374 27.5871 114.301C27.6912 114.228 27.8092 114.176 27.9338 114.15L55.8789 108.26C56.97 108.875 56.6252 110.018 55.8247 110.187H55.825Z" fill="#CCCCCC"/>
<path d="M56.8399 115.002L29.3872 120.789C29.147 120.845 28.8945 120.807 28.6809 120.684C28.4673 120.561 28.3084 120.361 28.2365 120.125C28.2035 120.002 28.196 119.874 28.2144 119.748C28.2327 119.622 28.2766 119.501 28.3432 119.392C28.4099 119.284 28.4979 119.19 28.602 119.117C28.7061 119.043 28.8241 118.992 28.9487 118.966L56.8938 113.075C57.9849 113.69 57.6401 114.834 56.8396 115.003L56.8399 115.002Z" fill="#CCCCCC"/>
<path d="M24.0304 124.782L15.6521 126.548C15.3785 126.605 15.0933 126.552 14.8591 126.399C14.6249 126.246 14.4608 126.007 14.4029 125.733L12.3189 115.846C12.2615 115.573 12.315 115.287 12.4676 115.053C12.6203 114.819 12.8597 114.655 13.1332 114.597L21.5114 112.831C21.7851 112.774 22.0702 112.827 22.3044 112.98C22.5386 113.133 22.7027 113.372 22.7607 113.645L24.8447 123.532C24.9021 123.806 24.8486 124.091 24.6959 124.325C24.5433 124.56 24.3039 124.724 24.0304 124.782Z" fill="#CCCCCC"/>
<path d="M58.8383 124.879L16.9404 133.71C16.7002 133.766 16.4478 133.728 16.2341 133.605C16.0205 133.482 15.8617 133.282 15.7897 133.046C15.7568 132.923 15.7492 132.795 15.7676 132.669C15.786 132.543 15.8298 132.422 15.8964 132.313C15.9631 132.205 16.0511 132.111 16.1552 132.037C16.2593 131.964 16.3773 131.913 16.5019 131.886L58.8925 122.951C59.9836 123.566 59.6388 124.71 58.8383 124.879Z" fill="#CCCCCC"/>
<path d="M59.8536 129.695L17.9558 138.527C17.7156 138.583 17.4631 138.545 17.2495 138.422C17.0359 138.299 16.877 138.099 16.8051 137.863C16.7721 137.74 16.7646 137.611 16.783 137.485C16.8013 137.359 16.8452 137.238 16.9118 137.13C16.9785 137.021 17.0665 136.928 17.1706 136.854C17.2747 136.781 17.3927 136.73 17.5173 136.703L59.9079 127.768C60.999 128.383 60.6541 129.527 59.8536 129.695Z" fill="#CCCCCC"/>
<path d="M60.8683 134.509L18.9705 143.34C18.7302 143.396 18.4778 143.358 18.2642 143.235C18.0505 143.112 17.8917 142.912 17.8197 142.676C17.7868 142.553 17.7793 142.425 17.7976 142.299C17.816 142.173 17.8598 142.052 17.9265 141.943C17.9931 141.835 18.0812 141.741 18.1853 141.668C18.2894 141.594 18.4073 141.543 18.5319 141.517L60.9225 132.582C62.0137 133.196 61.6688 134.34 60.8683 134.509Z" fill="#CCCCCC"/>
<path d="M61.8834 139.325L19.9856 148.157C19.7454 148.212 19.4929 148.175 19.2793 148.052C19.0657 147.928 18.9068 147.729 18.8348 147.493C18.8019 147.37 18.7944 147.241 18.8128 147.115C18.8311 146.989 18.875 146.868 18.9416 146.76C19.0082 146.651 19.0963 146.558 19.2004 146.484C19.3045 146.411 19.4224 146.359 19.547 146.333L61.9377 137.398C63.0288 138.013 62.6839 139.157 61.8834 139.325Z" fill="#CCCCCC"/>
<path d="M62.8981 144.14L21.0002 152.971C20.76 153.027 20.5076 152.989 20.294 152.866C20.0803 152.743 19.9215 152.543 19.8495 152.307C19.8166 152.184 19.8091 152.056 19.8274 151.93C19.8458 151.804 19.8896 151.683 19.9563 151.574C20.0229 151.466 20.111 151.372 20.215 151.299C20.3191 151.225 20.4371 151.174 20.5617 151.148L62.9523 142.212C64.0435 142.827 63.6986 143.971 62.8981 144.14Z" fill="#CCCCCC"/>
<path d="M70.294 122.093C70.1988 122.266 70.1174 122.446 70.0505 122.632L52.8981 126.888L49.9142 123.801L44.667 127.695L49.4183 133.673C49.8021 134.156 50.3323 134.502 50.9291 134.658C51.526 134.814 52.1574 134.772 52.7284 134.539L71.3404 126.933C71.9521 127.384 72.6865 127.637 73.4458 127.66C74.205 127.683 74.9533 127.474 75.5909 127.061C76.2285 126.648 76.7254 126.051 77.0153 125.349C77.3053 124.647 77.3746 123.873 77.2141 123.13C77.0535 122.388 76.6708 121.712 76.1167 121.192C75.5626 120.673 74.8635 120.334 74.1122 120.221C73.361 120.109 72.5933 120.228 71.9112 120.562C71.2292 120.896 70.6651 121.431 70.294 122.093Z" fill="#A0616A"/>
<path d="M11.7467 159.971C12.2814 159.806 12.7734 159.525 13.1881 159.15C13.6027 158.774 13.9299 158.312 14.1466 157.796C14.3633 157.28 14.4643 156.722 14.4423 156.163C14.4204 155.604 14.2761 155.056 14.0196 154.559L25.8234 121.751L17.626 120.298L8.60088 153.004C7.7938 153.49 7.19314 154.256 6.9127 155.155C6.63227 156.055 6.69155 157.026 7.07931 157.885C7.46707 158.744 8.15637 159.43 9.0166 159.815C9.87682 160.199 10.8482 160.255 11.7467 159.971Z" fill="#A0616A"/>
<path d="M24.3244 127.574L16.2308 124.468C16.0005 124.38 15.792 124.243 15.6194 124.066C15.4469 123.89 15.3143 123.679 15.2308 123.447C15.1473 123.215 15.1148 122.967 15.1354 122.721C15.1561 122.476 15.2296 122.237 15.3507 122.022L19.5967 114.494C20.0556 113.319 20.962 112.373 22.117 111.865C23.272 111.356 24.5815 111.327 25.7583 111.782C26.9351 112.238 27.8833 113.142 28.3949 114.295C28.9065 115.449 28.9398 116.758 28.4876 117.936L26.6148 126.345C26.5611 126.586 26.4561 126.812 26.3071 127.009C26.158 127.206 25.9684 127.368 25.751 127.484C25.5336 127.601 25.2937 127.669 25.0475 127.685C24.8014 127.7 24.5547 127.663 24.3244 127.574Z" fill="#3CC13B"/>
<path d="M42.5928 221.567L46.9616 221.566L49.0399 204.715L42.592 204.716L42.5928 221.567Z" fill="#A0616A"/>
<path d="M41.4783 220.141L50.0819 220.14H50.0823C50.8023 220.14 51.5153 220.282 52.1805 220.557C52.8458 220.833 53.4502 221.237 53.9594 221.746C54.4685 222.255 54.8724 222.86 55.1479 223.525C55.4235 224.19 55.5653 224.903 55.5653 225.623V225.801L41.4785 225.802L41.4783 220.141Z" fill="#2F2E41"/>
<path d="M18.0046 221.567L22.3735 221.566L24.4517 204.715L18.0039 204.716L18.0046 221.567Z" fill="#A0616A"/>
<path d="M16.8901 220.141L25.4938 220.14H25.4942C26.2142 220.14 26.9272 220.282 27.5924 220.557C28.2576 220.833 28.8621 221.237 29.3712 221.746C29.8804 222.255 30.2842 222.86 30.5598 223.525C30.8353 224.19 30.9771 224.903 30.9771 225.623V225.801L16.8904 225.802L16.8901 220.141Z" fill="#2F2E41"/>
<path d="M22.5844 214.784H17.0557C16.8387 214.784 16.624 214.74 16.4245 214.655C16.225 214.57 16.045 214.445 15.8952 214.287C15.7455 214.13 15.6292 213.945 15.5533 213.741C15.4775 213.538 15.4437 213.321 15.454 213.105L18.08 156.683L18.2455 156.678L44.943 155.982L50.1673 212.437C50.1874 212.648 50.1652 212.862 50.102 213.065C50.0388 213.268 49.9359 213.456 49.7993 213.619C49.6626 213.782 49.495 213.916 49.306 214.013C49.1171 214.111 48.9107 214.17 48.6988 214.187L42.4889 214.683C42.0988 214.714 41.7108 214.602 41.398 214.367C41.0851 214.131 40.8689 213.79 40.7902 213.407L32.847 173.219C32.8253 173.097 32.7606 172.986 32.6645 172.908C32.5685 172.83 32.4475 172.788 32.3235 172.791H32.3214C32.197 172.789 32.0757 172.831 31.9798 172.91C31.8839 172.989 31.8196 173.1 31.7988 173.223L24.1578 213.491C24.0854 213.855 23.8891 214.183 23.6023 214.419C23.3154 214.655 22.9557 214.784 22.5844 214.784Z" fill="#2F2E41"/>
<path d="M32.7121 106.362C37.5458 106.362 41.4644 102.443 41.4644 97.6093C41.4644 92.7755 37.5458 88.8569 32.7121 88.8569C27.8783 88.8569 23.9597 92.7755 23.9597 97.6093C23.9597 102.443 27.8783 106.362 32.7121 106.362Z" fill="#A0616A"/>
<path d="M29.7772 163.295C25.6057 163.295 21.3209 162.198 17.7689 158.956C17.5799 158.785 17.434 158.571 17.343 158.333C17.252 158.094 17.2185 157.838 17.2453 157.584C17.6255 154.168 19.4697 136.531 18.4311 124.749C18.2284 122.548 18.54 120.331 19.3412 118.271C20.1424 116.211 21.4113 114.366 23.0478 112.881C24.6557 111.399 26.5859 110.311 28.6862 109.703C30.7865 109.095 32.9994 108.983 35.1503 109.376C35.2594 109.396 35.3683 109.416 35.4774 109.437C42.4845 110.793 47.3531 117.278 46.8022 124.522C45.9983 135.091 45.2777 149.388 46.4092 157.473C46.4561 157.804 46.3984 158.141 46.244 158.437C46.0897 158.733 45.8466 158.974 45.5487 159.125C42.9741 160.426 36.5237 163.295 29.7772 163.295Z" fill="#3CC13B"/>
<path d="M41.1978 128.204C40.9924 128.067 40.819 127.888 40.6892 127.678C40.5595 127.468 40.4766 127.233 40.4461 126.988L39.3798 118.439C39.0413 117.223 39.1987 115.923 39.8175 114.823C40.4362 113.723 41.4659 112.914 42.6807 112.572C43.8955 112.23 45.1963 112.384 46.2979 112.999C47.3995 113.615 48.212 114.643 48.5573 115.856L52.0696 123.753C52.1698 123.979 52.2203 124.223 52.2175 124.47C52.2148 124.717 52.159 124.96 52.0538 125.183C51.9486 125.406 51.7966 125.604 51.6081 125.763C51.4196 125.922 51.199 126.038 50.9613 126.105L42.6095 128.429C42.3718 128.495 42.1227 128.509 41.879 128.47C41.6354 128.431 41.4031 128.341 41.1978 128.204Z" fill="#3CC13B"/>
<path d="M29.6566 106.238C28.8281 106.253 28.0049 106.105 27.2344 105.8C26.8953 105.669 26.5434 105.562 26.205 105.431C23.2164 104.276 21.2477 101.094 21.1772 97.8905C21.1067 94.6875 22.7655 91.5786 25.2286 89.5297C27.6918 87.4809 30.8821 86.429 34.0768 86.1857C37.5179 85.9237 41.3927 86.7964 43.3156 89.6621C43.8274 90.425 44.1854 91.3505 43.8821 92.2715C43.7913 92.5495 43.629 92.7987 43.4116 92.9942C42.5529 93.7582 41.6968 93.1837 40.8214 93.133C39.6182 93.0632 38.5374 94.0372 38.149 95.1781C37.7606 96.3191 37.9316 97.5751 38.2452 98.7389C38.4841 99.4391 38.6348 100.166 38.6936 100.904C38.7189 101.274 38.6493 101.644 38.4915 101.979C38.3337 102.315 38.0928 102.604 37.7917 102.821C37.0398 103.275 36.0524 103.012 35.3001 102.558C34.5478 102.105 33.8977 101.474 33.0851 101.14C32.2725 100.806 31.1807 100.88 30.7077 101.62C30.5574 101.89 30.4557 102.184 30.4072 102.488C29.9831 104.42 30.0806 104.306 29.6566 106.238Z" fill="#2F2E41"/>
<path d="M68.301 226.283H0.594388C0.499878 226.283 0.409238 226.245 0.34241 226.178C0.275581 226.111 0.238037 226.021 0.238037 225.926C0.238037 225.832 0.275581 225.741 0.34241 225.674C0.409238 225.607 0.499878 225.57 0.594388 225.57H68.301C68.3955 225.57 68.4862 225.607 68.553 225.674C68.6198 225.741 68.6574 225.832 68.6574 225.926C68.6574 226.021 68.6198 226.111 68.553 226.178C68.4862 226.245 68.3955 226.283 68.301 226.283Z" fill="#CCCCCC"/>
<path d="M241.61 152.743L193.126 179.939C191.724 180.723 190.069 180.919 188.523 180.484C186.977 180.049 185.666 179.019 184.879 177.619L162.739 138.148C161.955 136.746 161.758 135.09 162.193 133.544C162.628 131.998 163.659 130.688 165.059 129.9L213.543 102.705C214.945 101.92 216.6 101.724 218.146 102.159C219.692 102.594 221.003 103.625 221.79 105.024L243.93 144.496C244.714 145.897 244.91 147.553 244.476 149.099C244.041 150.645 243.01 151.955 241.61 152.743Z" fill="white"/>
<path d="M241.61 152.743L193.126 179.939C191.724 180.723 190.069 180.919 188.523 180.484C186.977 180.049 185.666 179.019 184.879 177.619L162.739 138.148C161.955 136.746 161.758 135.09 162.193 133.544C162.628 131.998 163.659 130.688 165.059 129.9L213.543 102.705C214.945 101.92 216.6 101.724 218.146 102.159C219.692 102.594 221.003 103.625 221.79 105.024L243.93 144.496C244.714 145.897 244.91 147.553 244.476 149.099C244.041 150.645 243.01 151.955 241.61 152.743ZM165.407 130.522C164.172 131.217 163.263 132.373 162.879 133.737C162.495 135.101 162.668 136.562 163.36 137.799L185.5 177.27C186.195 178.505 187.351 179.414 188.716 179.798C190.08 180.182 191.541 180.009 192.777 179.317L241.262 152.121C242.497 151.426 243.406 150.27 243.79 148.906C244.174 147.542 244 146.081 243.309 144.844L221.168 105.373C220.474 104.138 219.317 103.229 217.953 102.845C216.589 102.461 215.128 102.634 213.892 103.326L165.407 130.522Z" fill="#3F3D56"/>
<path d="M214.68 117.648L190.211 131.374C189.998 131.499 189.746 131.538 189.506 131.484C189.265 131.431 189.054 131.288 188.914 131.084C188.846 130.976 188.801 130.856 188.781 130.73C188.76 130.605 188.766 130.476 188.797 130.353C188.828 130.229 188.885 130.113 188.962 130.012C189.039 129.911 189.137 129.827 189.248 129.765L214.156 115.793C215.381 116.054 215.394 117.248 214.68 117.648Z" fill="#CCCCCC"/>
<path d="M217.088 121.941L192.618 135.666C192.406 135.791 192.154 135.831 191.913 135.777C191.672 135.723 191.461 135.58 191.322 135.376C191.254 135.269 191.208 135.149 191.188 135.023C191.168 134.897 191.174 134.769 191.205 134.645C191.236 134.522 191.292 134.406 191.369 134.305C191.447 134.204 191.544 134.119 191.655 134.057L216.563 120.085C217.788 120.346 217.801 121.541 217.088 121.941Z" fill="#CCCCCC"/>
<path d="M188.7 141.077L181.232 145.266C180.988 145.402 180.7 145.436 180.431 145.361C180.162 145.285 179.934 145.105 179.797 144.862L174.853 136.049C174.717 135.805 174.683 135.517 174.758 135.248C174.834 134.979 175.014 134.751 175.257 134.614L182.725 130.425C182.969 130.288 183.257 130.254 183.526 130.33C183.795 130.406 184.023 130.585 184.161 130.829L189.104 139.641C189.24 139.885 189.274 140.173 189.199 140.443C189.123 140.712 188.944 140.94 188.7 141.077Z" fill="#CCCCCC"/>
<path d="M221.946 130.769L184.602 151.716C184.389 151.841 184.137 151.881 183.896 151.827C183.656 151.773 183.444 151.63 183.305 151.426C183.237 151.319 183.191 151.198 183.171 151.073C183.151 150.947 183.157 150.818 183.188 150.695C183.219 150.571 183.275 150.456 183.353 150.355C183.43 150.253 183.527 150.169 183.638 150.107L221.422 128.913C222.647 129.174 222.66 130.368 221.946 130.769Z" fill="#CCCCCC"/>
<path d="M224.355 135.062L187.01 156.009C186.797 156.134 186.545 156.174 186.304 156.12C186.064 156.066 185.852 155.923 185.713 155.72C185.645 155.612 185.6 155.492 185.579 155.366C185.559 155.24 185.565 155.112 185.596 154.988C185.627 154.865 185.683 154.749 185.761 154.648C185.838 154.547 185.935 154.463 186.046 154.4L223.83 133.207C225.055 133.467 225.068 134.662 224.355 135.062Z" fill="#CCCCCC"/>
<path d="M226.761 139.353L189.416 160.3C189.204 160.425 188.952 160.465 188.711 160.411C188.47 160.357 188.259 160.214 188.12 160.01C188.052 159.903 188.006 159.782 187.986 159.657C187.966 159.531 187.971 159.402 188.003 159.279C188.034 159.155 188.09 159.04 188.167 158.939C188.245 158.837 188.342 158.753 188.453 158.691L226.237 137.497C227.462 137.758 227.475 138.952 226.761 139.353Z" fill="#CCCCCC"/>
<path d="M229.169 143.646L191.825 164.593C191.612 164.718 191.36 164.758 191.119 164.704C190.878 164.65 190.667 164.507 190.528 164.303C190.46 164.196 190.414 164.075 190.394 163.95C190.374 163.824 190.38 163.695 190.411 163.572C190.442 163.448 190.498 163.333 190.575 163.232C190.653 163.13 190.75 163.046 190.861 162.984L228.645 141.79C229.87 142.051 229.883 143.245 229.169 143.646Z" fill="#CCCCCC"/>
<path d="M231.576 147.936L194.231 168.883C194.019 169.008 193.767 169.048 193.526 168.994C193.285 168.941 193.074 168.797 192.935 168.594C192.867 168.486 192.821 168.366 192.801 168.24C192.781 168.114 192.786 167.986 192.818 167.862C192.849 167.739 192.905 167.623 192.982 167.522C193.06 167.421 193.157 167.337 193.268 167.274L231.052 146.081C232.277 146.341 232.289 147.536 231.576 147.936Z" fill="#CCCCCC"/>
<path d="M225.061 164.016C225.264 163.567 225.367 163.08 225.361 162.587C225.355 162.095 225.242 161.61 225.029 161.166C224.815 160.722 224.507 160.33 224.126 160.018C223.745 159.706 223.3 159.482 222.823 159.36L221.807 147.432L216.923 151.285L218.636 162.022C218.485 162.837 218.639 163.679 219.068 164.389C219.496 165.099 220.171 165.627 220.963 165.872C221.754 166.118 222.609 166.065 223.364 165.723C224.12 165.381 224.723 164.773 225.061 164.016Z" fill="#FFB8B8"/>
<path d="M221.9 158.111L217.843 158.595C217.637 158.619 217.428 158.601 217.23 158.541C217.031 158.481 216.847 158.381 216.689 158.246C216.53 158.112 216.402 157.946 216.311 157.76C216.219 157.573 216.168 157.37 216.159 157.163L215.567 143.478L207.878 122.473C207.57 121.821 207.429 121.103 207.469 120.383C207.509 119.663 207.728 118.964 208.107 118.351C208.295 118.054 208.511 117.776 208.751 117.519C209.224 117.01 209.813 116.622 210.469 116.389C211.124 116.157 211.826 116.086 212.515 116.183C213.224 116.277 213.901 116.54 214.489 116.948C215.076 117.356 215.558 117.899 215.894 118.531L220.909 129.039C223.006 133.434 223.996 138.275 223.793 143.141L223.227 156.678C223.213 157.032 223.073 157.369 222.834 157.631C222.595 157.893 222.271 158.062 221.92 158.108L221.9 158.111Z" fill="#3CC13B"/>
<path d="M236.305 217.254L232.545 218.905L224.388 205.184L229.938 202.748L236.305 217.254Z" fill="#FFB8B8"/>
<path d="M238.865 220.479L226.738 225.801L226.671 225.648C226.399 225.028 226.252 224.361 226.237 223.684C226.223 223.007 226.343 222.334 226.588 221.704C226.834 221.073 227.202 220.497 227.671 220.008C228.139 219.52 228.699 219.128 229.319 218.856L236.726 215.605L238.865 220.479Z" fill="#2F2E41"/>
<path d="M185.815 221.82H181.707L179.753 205.978H185.815V221.82Z" fill="#FFB8B8"/>
<path d="M186.862 225.802L173.618 225.801V225.634C173.618 224.957 173.751 224.286 174.011 223.661C174.27 223.036 174.649 222.467 175.128 221.989C175.607 221.51 176.175 221.13 176.8 220.871C177.426 220.612 178.096 220.479 178.773 220.479H186.862V225.802Z" fill="#2F2E41"/>
<path d="M225.802 216.405L202.922 165.346C202.881 165.25 202.811 165.169 202.722 165.115C202.633 165.061 202.529 165.036 202.425 165.043C202.321 165.051 202.222 165.09 202.142 165.156C202.061 165.222 202.003 165.312 201.976 165.413L188.035 214.729C187.943 215.075 187.731 215.376 187.437 215.578C187.143 215.781 186.786 215.872 186.43 215.834L178.817 215.073C178.425 215.032 178.064 214.839 177.811 214.536C177.558 214.234 177.434 213.844 177.463 213.451C179.885 183.331 183.702 154.903 195.139 136.294L195.2 136.195L212.498 139.587L235.593 213.128C235.707 213.507 235.668 213.915 235.485 214.266C235.302 214.617 234.988 214.882 234.612 215.004L227.648 217.243C227.291 217.359 226.904 217.337 226.563 217.182C226.221 217.027 225.95 216.749 225.802 216.405Z" fill="#2F2E41"/>
<path d="M203.561 110.138C208.105 110.138 211.789 106.454 211.789 101.91C211.789 97.3656 208.105 93.6816 203.561 93.6816C199.016 93.6816 195.332 97.3656 195.332 101.91C195.332 106.454 199.016 110.138 203.561 110.138Z" fill="#FFB8B8"/>
<path d="M194.076 137.718L193.971 137.697L193.946 137.593C192.838 132.912 192.811 127.803 193.868 122.41C194.403 119.654 195.895 117.175 198.079 115.41C200.263 113.645 203 112.707 205.808 112.762C208.854 112.824 211.762 114.047 213.936 116.183C216.11 118.318 217.386 121.203 217.503 124.248C217.856 133.524 214.065 141.566 214.026 141.646L213.97 141.764L194.076 137.718Z" fill="#3CC13B"/>
<path d="M172.018 153.373C172.505 153.301 172.97 153.123 173.381 152.851C173.792 152.58 174.139 152.222 174.396 151.802C174.654 151.382 174.816 150.911 174.872 150.422C174.928 149.932 174.876 149.437 174.719 148.97L184.197 141.655L178.312 139.636L170.215 146.892C169.447 147.206 168.822 147.792 168.458 148.537C168.094 149.281 168.015 150.134 168.237 150.933C168.46 151.732 168.967 152.421 169.664 152.871C170.361 153.321 171.198 153.499 172.018 153.373Z" fill="#FFB8B8"/>
<path d="M177.194 147.856C176.886 148.039 176.522 148.105 176.169 148.042C175.816 147.98 175.497 147.794 175.269 147.517L172.666 144.369C172.534 144.209 172.436 144.023 172.379 143.824C172.321 143.624 172.306 143.415 172.333 143.209C172.361 143.004 172.43 142.806 172.537 142.628C172.645 142.45 172.788 142.297 172.957 142.177L184.141 134.268L197.634 116.428C198.015 115.816 198.543 115.308 199.17 114.952C199.796 114.596 200.502 114.402 201.223 114.387C201.574 114.385 201.925 114.416 202.271 114.479C202.955 114.6 203.6 114.886 204.151 115.311C204.702 115.736 205.141 116.287 205.433 116.919C205.737 117.566 205.883 118.277 205.858 118.993C205.833 119.708 205.638 120.407 205.289 121.031L195.298 137.212L195.276 137.247L177.194 147.856Z" fill="#3CC13B"/>
<path d="M205.032 101.4C204.426 100.402 203.088 100.121 201.926 100.234C200.764 100.348 199.634 100.757 198.466 100.748C195.225 100.722 192.722 96.7715 194.085 93.8301C195.203 91.4179 197.995 90.3587 200.52 89.5273C205.814 87.7843 211.896 86.1096 216.701 88.9358C218.232 89.863 219.488 91.1823 220.339 92.7572C221.189 94.3321 221.604 96.1056 221.54 97.8944C221.432 100.119 220.58 102.403 221.301 104.51C222.132 106.941 224.767 108.246 227.257 108.876C231.623 109.982 236.226 109.804 240.619 110.796C245.011 111.788 249.513 114.422 250.697 118.767C251.475 121.621 250.663 124.693 249.319 127.328C247.948 130.017 246.042 132.397 243.719 134.323C241.396 136.249 238.703 137.681 235.808 138.53C232.912 139.38 229.873 139.629 226.877 139.263C223.881 138.897 220.992 137.923 218.386 136.401C213.075 133.3 209.241 128.06 206.956 122.351C205.66 119.02 204.747 115.553 204.236 112.017C203.724 108.706 204.158 105.36 205.086 102.141C205.13 102.02 205.147 101.892 205.138 101.765C205.129 101.637 205.093 101.513 205.032 101.4Z" fill="#2F2E41"/>
<path d="M234.717 226.283H167.01C166.916 226.283 166.825 226.245 166.758 226.178C166.691 226.111 166.654 226.021 166.654 225.926C166.654 225.832 166.691 225.741 166.758 225.674C166.825 225.607 166.916 225.57 167.01 225.57H234.717C234.811 225.57 234.902 225.607 234.969 225.674C235.036 225.741 235.073 225.832 235.073 225.926C235.073 226.021 235.036 226.111 234.969 226.178C234.902 226.245 234.811 226.283 234.717 226.283Z" fill="#CCCCCC"/>
</g>
<defs>
<clipPath id="clip0">
<rect width="251" height="227" fill="white"/>
</clipPath>
</defs>
</svg>
