<svg width="184" height="166" viewBox="0 0 184 166" fill="none" xmlns="http://www.w3.org/2000/svg">
<path d="M94.2105 0.361979L88.2249 1.90554L14.4812 20.9226L8.49564 22.4661C5.5903 23.2188 3.10218 25.0933 1.57715 27.6782C0.0521125 30.2631 -0.385295 33.3474 0.360887 36.2544L26.3157 136.901C27.0684 139.807 28.9429 142.295 31.5278 143.82C34.1127 145.345 37.197 145.782 40.104 145.036L40.1195 145.032L125.803 122.936L125.819 122.932C128.724 122.179 131.212 120.305 132.737 117.72C134.262 115.135 134.7 112.051 133.954 109.144L107.999 8.49678C107.246 5.59144 105.372 3.10331 102.787 1.57827C100.202 0.0532199 97.1175 -0.384198 94.2105 0.361979Z" fill="#F2F2F2"/>
<path d="M95.0233 3.51549L87.9338 5.34374L16.3977 23.7915L9.30831 25.6197C7.23935 26.1557 5.46749 27.4905 4.38147 29.3313C3.29545 31.1721 2.98396 33.3685 3.51533 35.4386L29.4702 136.086C30.0062 138.155 31.341 139.926 33.1818 141.012C35.0226 142.098 37.219 142.41 39.2892 141.879L39.3046 141.875L124.989 119.778L125.004 119.774C127.073 119.238 128.845 117.904 129.931 116.063C131.017 114.222 131.328 112.026 130.797 109.955L104.842 9.30848C104.306 7.23954 102.971 5.4677 101.131 4.38168C99.2898 3.29566 97.0934 2.98415 95.0233 3.51549Z" fill="white"/>
<path d="M89.6695 36.1077L46.3241 47.2856C45.84 47.4104 45.3261 47.3379 44.8955 47.0838C44.4649 46.8298 44.1528 46.4151 44.028 45.9309C43.9031 45.4468 43.9757 44.9329 44.2298 44.5023C44.4838 44.0717 44.8985 43.7597 45.3826 43.6348L88.7281 32.4569C89.212 32.3325 89.7255 32.4054 90.1558 32.6595C90.586 32.9136 90.8978 33.3281 91.0226 33.812C91.1473 34.2958 91.0749 34.8094 90.8212 35.2399C90.5675 35.6703 90.1533 35.9825 89.6695 36.1077Z" fill="#F2F2F2"/>
<path d="M98.7879 40.3266L47.9127 53.4463C47.4286 53.5711 46.9147 53.4985 46.4841 53.2445C46.0535 52.9904 45.7415 52.5757 45.6166 52.0916C45.4918 51.6075 45.5643 51.0936 45.8184 50.663C46.0724 50.2324 46.4871 49.9203 46.9713 49.7955L97.8464 36.6758C98.3306 36.551 98.8445 36.6236 99.2751 36.8776C99.7057 37.1316 100.018 37.5463 100.143 38.0305C100.267 38.5146 100.195 39.0285 99.9408 39.4591C99.6867 39.8897 99.272 40.2017 98.7879 40.3266Z" fill="#F2F2F2"/>
<path d="M96.7896 63.7167L53.4442 74.8946C53.2045 74.9565 52.955 74.9705 52.7098 74.9358C52.4647 74.9012 52.2288 74.8187 52.0156 74.6929C51.8024 74.5671 51.616 74.4005 51.4672 74.2027C51.3183 74.0049 51.2099 73.7797 51.1481 73.54C51.0863 73.3003 51.0723 73.0507 51.1069 72.8056C51.1415 72.5605 51.2241 72.3246 51.3499 72.1114C51.4757 71.8981 51.6422 71.7118 51.84 71.563C52.0379 71.4141 52.263 71.3057 52.5028 71.2439L95.8482 60.0659C96.0879 60.0041 96.3374 59.9901 96.5826 60.0248C96.8277 60.0594 97.0636 60.1419 97.2768 60.2677C97.49 60.3935 97.6764 60.5601 97.8252 60.7579C97.9741 60.9557 98.0825 61.1809 98.1443 61.4206C98.2061 61.6603 98.2201 61.9099 98.1855 62.155C98.1509 62.4001 98.0683 62.636 97.9425 62.8492C97.8167 63.0624 97.6502 63.2488 97.4524 63.3976C97.2545 63.5465 97.0294 63.6549 96.7896 63.7167Z" fill="#F2F2F2"/>
<path d="M105.908 67.9356L55.0328 81.0553C54.7931 81.1171 54.5436 81.1311 54.2985 81.0965C54.0533 81.0619 53.8174 80.9793 53.6042 80.8535C53.391 80.7277 53.2047 80.5612 53.0558 80.3633C52.907 80.1655 52.7985 79.9404 52.7367 79.7006C52.6749 79.4609 52.6609 79.2114 52.6955 78.9663C52.7302 78.7211 52.8127 78.4852 52.9385 78.272C53.0643 78.0588 53.2308 77.8724 53.4287 77.7236C53.6265 77.5748 53.8517 77.4663 54.0914 77.4045L104.967 64.2848C105.451 64.16 105.965 64.2326 106.395 64.4866C106.826 64.7407 107.138 65.1554 107.263 65.6395C107.388 66.1236 107.315 66.6375 107.061 67.0681C106.807 67.4987 106.392 67.8108 105.908 67.9356Z" fill="#F2F2F2"/>
<path d="M103.909 91.3257L60.5639 102.504C60.0799 102.628 59.5663 102.555 59.136 102.301C58.7056 102.047 58.3938 101.633 58.269 101.149C58.1442 100.665 58.2167 100.151 58.4705 99.7206C58.7243 99.2901 59.1386 98.978 59.6224 98.8529L102.968 87.675C103.452 87.5501 103.966 87.6227 104.396 87.8767C104.827 88.1308 105.139 88.5455 105.264 89.0296C105.389 89.5137 105.316 90.0276 105.062 90.4582C104.808 90.8888 104.393 91.2009 103.909 91.3257Z" fill="#F2F2F2"/>
<path d="M113.028 95.5447L62.1523 108.664C61.9125 108.726 61.6629 108.741 61.4176 108.706C61.1723 108.672 60.9362 108.589 60.7228 108.463C60.5094 108.338 60.3229 108.171 60.1739 107.973C60.025 107.775 59.9164 107.55 59.8546 107.31C59.7927 107.07 59.7787 106.821 59.8134 106.575C59.8481 106.33 59.9308 106.094 60.0568 105.881C60.1828 105.668 60.3495 105.481 60.5475 105.332C60.7456 105.184 60.971 105.075 61.2109 105.014L112.086 91.894C112.57 91.7691 113.084 91.8417 113.515 92.0957C113.945 92.3498 114.257 92.7645 114.382 93.2486C114.507 93.7327 114.434 94.2466 114.18 94.6772C113.926 95.1078 113.512 95.4199 113.028 95.5447Z" fill="#F2F2F2"/>
<path d="M38.9245 58.7469L23.585 62.7027C23.3528 62.7622 23.1066 62.7273 22.9002 62.6055C22.6938 62.4838 22.5441 62.2851 22.484 62.0531L18.9628 48.3988C18.9032 48.1667 18.9381 47.9204 19.0599 47.714C19.1817 47.5076 19.3804 47.3579 19.6124 47.2978L34.9519 43.342C35.184 43.2824 35.4303 43.3174 35.6367 43.4391C35.8431 43.5609 35.9928 43.7596 36.0529 43.9916L39.5741 57.6459C39.6337 57.878 39.5987 58.1243 39.477 58.3307C39.3552 58.5371 39.1565 58.6868 38.9245 58.7469Z" fill="#E6E6E6"/>
<path d="M46.0446 86.3559L30.7051 90.3117C30.473 90.3712 30.2267 90.3363 30.0203 90.2145C29.8139 90.0928 29.6642 89.8941 29.6041 89.6621L26.0829 76.0078C26.0233 75.7757 26.0583 75.5294 26.18 75.323C26.3018 75.1166 26.5005 74.9669 26.7325 74.9068L42.072 70.951C42.3041 70.8914 42.5504 70.9264 42.7568 71.0481C42.9632 71.1699 43.1129 71.3686 43.173 71.6006L46.6942 85.2549C46.7538 85.487 46.7188 85.7333 46.5971 85.9397C46.4753 86.1461 46.2766 86.2958 46.0446 86.3559Z" fill="#E6E6E6"/>
<path d="M53.164 113.965L37.8245 117.921C37.5924 117.98 37.3461 117.945 37.1397 117.824C36.9333 117.702 36.7836 117.503 36.7235 117.271L33.2023 103.617C33.1427 103.385 33.1776 103.139 33.2994 102.932C33.4212 102.726 33.6199 102.576 33.8519 102.516L49.1914 98.5602C49.4235 98.5006 49.6698 98.5355 49.8762 98.6573C50.0826 98.779 50.2323 98.9777 50.2924 99.2097L53.8136 112.864C53.8732 113.096 53.8382 113.342 53.7165 113.549C53.5947 113.755 53.396 113.905 53.164 113.965Z" fill="#E6E6E6"/>
<path d="M153.99 25.8727H65.4712C62.47 25.8761 59.5926 27.0698 57.4704 29.192C55.3482 31.3142 54.1544 34.1916 54.1511 37.1929V141.133C54.1544 144.134 55.3482 147.011 57.4704 149.133C59.5926 151.256 62.47 152.449 65.4712 152.453H153.99C156.992 152.449 159.869 151.256 161.991 149.133C164.113 147.011 165.307 144.134 165.31 141.133V37.1929C165.307 34.1916 164.113 31.3142 161.991 29.192C159.869 27.0698 156.992 25.8761 153.99 25.8727Z" fill="#E6E6E6"/>
<path d="M153.992 29.1316H65.4725C63.3352 29.134 61.2862 29.9841 59.7749 31.4954C58.2636 33.0066 57.4135 35.0557 57.4111 37.1929V141.133C57.4135 143.27 58.2636 145.319 59.7749 146.83C61.2862 148.342 63.3352 149.192 65.4725 149.194H153.992C156.129 149.192 158.178 148.342 159.689 146.83C161.2 145.319 162.051 143.27 162.053 141.133V37.1929C162.051 35.0557 161.2 33.0067 159.689 31.4954C158.178 29.9841 156.129 29.134 153.992 29.1316Z" fill="white"/>
<path d="M163.29 165.099C174.703 165.099 183.955 155.847 183.955 144.435C183.955 133.022 174.703 123.77 163.29 123.77C151.878 123.77 142.626 133.022 142.626 144.435C142.626 155.847 151.878 165.099 163.29 165.099Z" fill="#3E66FB"/>
<path d="M173.174 141.739H165.986V134.551C165.986 133.837 165.702 133.151 165.196 132.646C164.691 132.14 164.005 131.856 163.291 131.856C162.576 131.856 161.89 132.14 161.385 132.646C160.879 133.151 160.595 133.837 160.595 134.551V141.739H153.408C152.693 141.739 152.007 142.023 151.502 142.529C150.996 143.034 150.712 143.72 150.712 144.434C150.712 145.149 150.996 145.835 151.502 146.34C152.007 146.846 152.693 147.13 153.408 147.13H160.595V154.317C160.595 155.032 160.879 155.718 161.385 156.223C161.89 156.729 162.576 157.013 163.291 157.013C164.005 157.013 164.691 156.729 165.196 156.223C165.702 155.718 165.986 155.032 165.986 154.317V147.13H173.174C173.888 147.13 174.574 146.846 175.08 146.34C175.585 145.835 175.869 145.149 175.869 144.434C175.869 143.72 175.585 143.034 175.08 142.529C174.574 142.023 173.888 141.739 173.174 141.739Z" fill="white"/>
<path d="M140.669 86.2462H95.9055C95.6577 86.2465 95.4124 86.1979 95.1834 86.1033C94.9545 86.0087 94.7464 85.8699 94.5711 85.6948C94.3959 85.5197 94.2568 85.3118 94.1619 85.0829C94.0671 84.8541 94.0182 84.6088 94.0182 84.3611C94.0182 84.1133 94.0671 83.868 94.1619 83.6392C94.2568 83.4103 94.3959 83.2024 94.5711 83.0273C94.7464 82.8523 94.9545 82.7135 95.1834 82.6188C95.4124 82.5242 95.6577 82.4757 95.9055 82.476H140.669C141.169 82.4765 141.648 82.6754 142.001 83.0288C142.354 83.3823 142.552 83.8615 142.552 84.3611C142.552 84.8607 142.354 85.3398 142.001 85.6933C141.648 86.0468 141.169 86.2456 140.669 86.2462Z" fill="#E6E6E6"/>
<path d="M148.445 92.6085H95.9055C95.6577 92.6088 95.4124 92.5602 95.1834 92.4656C94.9545 92.371 94.7464 92.2322 94.5711 92.0571C94.3959 91.882 94.2568 91.6741 94.1619 91.4453C94.0671 91.2164 94.0182 90.9711 94.0182 90.7234C94.0182 90.4756 94.0671 90.2303 94.1619 90.0015C94.2568 89.7726 94.3959 89.5647 94.5711 89.3896C94.7464 89.2146 94.9545 89.0758 95.1834 88.9811C95.4124 88.8865 95.6577 88.838 95.9055 88.8383H148.445C148.945 88.8383 149.425 89.0369 149.778 89.3904C150.132 89.7439 150.33 90.2234 150.33 90.7234C150.33 91.2233 150.132 91.7028 149.778 92.0563C149.425 92.4099 148.945 92.6085 148.445 92.6085Z" fill="#E6E6E6"/>
<path d="M140.669 114.759H95.9055C95.6577 114.759 95.4124 114.71 95.1834 114.616C94.9545 114.521 94.7464 114.382 94.5711 114.207C94.3959 114.032 94.2568 113.824 94.1619 113.595C94.0671 113.366 94.0182 113.121 94.0182 112.873C94.0182 112.626 94.0671 112.38 94.1619 112.152C94.2568 111.923 94.3959 111.715 94.5711 111.54C94.7464 111.365 94.9545 111.226 95.1834 111.131C95.4124 111.037 95.6577 110.988 95.9055 110.988H140.669C141.169 110.988 141.648 111.187 142.002 111.54C142.355 111.894 142.554 112.373 142.554 112.873C142.554 113.373 142.355 113.853 142.002 114.206C141.648 114.56 141.169 114.759 140.669 114.759Z" fill="#E6E6E6"/>
<path d="M148.445 121.121H95.9055C95.6577 121.121 95.4124 121.072 95.1834 120.978C94.9545 120.883 94.7464 120.744 94.5711 120.569C94.3959 120.394 94.2568 120.186 94.1619 119.957C94.0671 119.729 94.0182 119.483 94.0182 119.236C94.0182 118.988 94.0671 118.743 94.1619 118.514C94.2568 118.285 94.3959 118.077 94.5711 117.902C94.7464 117.727 94.9545 117.588 95.1834 117.493C95.4124 117.399 95.6577 117.35 95.9055 117.35H148.445C148.693 117.35 148.938 117.399 149.167 117.493C149.396 117.588 149.604 117.727 149.779 117.902C149.955 118.077 150.094 118.285 150.189 118.514C150.283 118.743 150.332 118.988 150.332 119.236C150.332 119.483 150.283 119.729 150.189 119.957C150.094 120.186 149.955 120.394 149.779 120.569C149.604 120.744 149.396 120.883 149.167 120.978C148.938 121.072 148.693 121.121 148.445 121.121Z" fill="#E6E6E6"/>
<path d="M85.8775 95.4967H70.0361C69.7965 95.4965 69.5667 95.4012 69.3972 95.2317C69.2278 95.0622 69.1325 94.8325 69.1322 94.5928V80.4918C69.1325 80.2522 69.2278 80.0224 69.3972 79.8529C69.5667 79.6835 69.7965 79.5882 70.0361 79.5879H85.8775C86.1171 79.5882 86.3469 79.6835 86.5164 79.8529C86.6858 80.0224 86.7811 80.2522 86.7814 80.4918V94.5928C86.7811 94.8325 86.6858 95.0622 86.5164 95.2317C86.3469 95.4012 86.1171 95.4965 85.8775 95.4967Z" fill="#E6E6E6"/>
<path d="M85.8775 124.009H70.0361C69.7965 124.009 69.5667 123.913 69.3972 123.744C69.2278 123.574 69.1325 123.345 69.1322 123.105V109.004C69.1325 108.764 69.2278 108.535 69.3972 108.365C69.5667 108.196 69.7965 108.1 70.0361 108.1H85.8775C86.1171 108.1 86.3469 108.196 86.5164 108.365C86.6858 108.535 86.7811 108.764 86.7814 109.004V123.105C86.7811 123.345 86.6858 123.574 86.5164 123.744C86.3469 123.913 86.1171 124.009 85.8775 124.009Z" fill="#E6E6E6"/>
<path d="M140.718 54.5063H107.716C107.216 54.5063 106.736 54.3077 106.383 53.9542C106.029 53.6006 105.831 53.1212 105.831 52.6212C105.831 52.1212 106.029 51.6417 106.383 51.2882C106.736 50.9347 107.216 50.7361 107.716 50.7361H140.718C141.218 50.7361 141.698 50.9347 142.051 51.2882C142.405 51.6417 142.603 52.1212 142.603 52.6212C142.603 53.1212 142.405 53.6006 142.051 53.9542C141.698 54.3077 141.218 54.5063 140.718 54.5063Z" fill="#CCCCCC"/>
<path d="M148.494 60.8686H107.716C107.468 60.8686 107.223 60.8198 106.994 60.7251C106.766 60.6304 106.558 60.4915 106.383 60.3165C106.208 60.1414 106.069 59.9336 105.974 59.7049C105.879 59.4762 105.831 59.2311 105.831 58.9835C105.831 58.7359 105.879 58.4908 105.974 58.2621C106.069 58.0334 106.208 57.8256 106.383 57.6505C106.558 57.4755 106.766 57.3366 106.994 57.2419C107.223 57.1471 107.468 57.0984 107.716 57.0984H148.494C148.994 57.0984 149.474 57.297 149.827 57.6505C150.181 58.004 150.379 58.4835 150.379 58.9835C150.379 59.4835 150.181 59.9629 149.827 60.3165C149.474 60.67 148.994 60.8686 148.494 60.8686Z" fill="#CCCCCC"/>
<path d="M100.413 68.5789H69.9873C69.7477 68.5786 69.5179 68.4833 69.3485 68.3139C69.179 68.1444 69.0837 67.9147 69.0834 67.675V43.9298C69.0837 43.6901 69.179 43.4604 69.3485 43.2909C69.5179 43.1215 69.7477 43.0261 69.9873 43.0259H100.413C100.652 43.0261 100.882 43.1215 101.051 43.2909C101.221 43.4604 101.316 43.6901 101.317 43.9298V67.675C101.316 67.9147 101.221 68.1444 101.051 68.3139C100.882 68.4833 100.652 68.5786 100.413 68.5789Z" fill="#3E66FB"/>
<path d="M100.413 68.5789H69.9873C69.7477 68.5786 69.5179 68.4833 69.3485 68.3139C69.179 68.1444 69.0837 67.9147 69.0834 67.675V43.9298C69.0837 43.6901 69.179 43.4604 69.3485 43.2909C69.5179 43.1215 69.7477 43.0261 69.9873 43.0259H100.413C100.652 43.0261 100.882 43.1215 101.051 43.2909C101.221 43.4604 101.316 43.6901 101.317 43.9298V67.675C101.316 67.9147 101.221 68.1444 101.051 68.3139C100.882 68.4833 100.652 68.5786 100.413 68.5789Z" fill="white" fill-opacity="0.5"/>
</svg>
