<svg width="24" height="24" viewBox="0 0 24 24" fill="none" xmlns="http://www.w3.org/2000/svg">
<path d="M12.0023 2.898C5.96753 1.20855 0 5.77033 0 11.9999C0 18.2415 5.9784 22.7883 12.0023 21.1018C18.0455 22.795 24 18.217 24 11.9999C24 5.77593 18.038 1.2069 12.0023 2.898ZM1.41176 11.9999C1.41176 7.52365 5.08894 3.88972 9.58362 3.9621C6.89374 5.62986 5.09821 8.60897 5.09821 11.9999C5.09821 15.3909 6.89374 18.37 9.58362 20.0378C5.08904 20.1101 1.41176 16.4763 1.41176 11.9999ZM14.5491 20.039C10.1163 20.039 6.51002 16.4327 6.51002 11.9999C6.51002 7.56718 10.1163 3.96083 14.5491 3.96083C18.9819 3.96083 22.5882 7.56718 22.5882 11.9999C22.5882 16.4327 18.9819 20.039 14.5491 20.039Z" fill="white"/>
<path d="M15.5494 11.294H13.5482C12.9464 11.294 12.4569 10.8044 12.4569 10.2027C12.4569 9.59894 12.9456 9.11141 13.5479 9.11141C13.5524 9.11146 13.5569 9.11141 13.5614 9.11146H15.479C15.8828 9.11518 16.2806 9.29485 16.571 9.60464C16.8376 9.88911 17.2844 9.90365 17.5687 9.63697C17.8532 9.37038 17.8677 8.92369 17.6011 8.63922C16.9334 7.9268 16.1653 7.69969 15.2547 7.69969V6.85395C15.2547 6.46412 14.9387 6.14807 14.5488 6.14807C14.159 6.14807 13.843 6.46412 13.843 6.85395V7.69969C11.9688 7.69969 11.0452 8.91889 11.0452 10.2027C11.0452 11.5829 12.168 12.7057 13.5482 12.7057H15.5494C16.1512 12.7057 16.6407 13.1952 16.6407 13.797C16.6407 14.4007 16.152 14.8883 15.5496 14.8883C15.5452 14.8883 15.5407 14.8882 15.5361 14.8882H13.444C13.1533 14.8855 12.8593 14.7867 12.5937 14.6024C12.2734 14.3802 11.8336 14.4597 11.6114 14.78C11.3892 15.1003 11.4686 15.5401 11.7889 15.7623C12.652 16.3611 13.389 16.3 13.8429 16.3V17.1457C13.8429 17.5356 14.1589 17.8516 14.5487 17.8516C14.9386 17.8516 15.2546 17.5356 15.2546 17.1457V16.3C17.1511 16.3 18.0524 15.0575 18.0524 13.797C18.0525 12.4168 16.9296 11.294 15.5494 11.294Z" fill="white"/>
</svg>
