<svg width="24" height="24" viewBox="0 0 24 24" fill="none" xmlns="http://www.w3.org/2000/svg">
<path d="M14.8125 8.48438C14.8125 6.93356 13.5508 5.67188 12 5.67188C10.4492 5.67188 9.1875 6.93356 9.1875 8.48438C9.1875 10.0352 10.4492 11.2969 12 11.2969C13.5508 11.2969 14.8125 10.0352 14.8125 8.48438ZM12 9.89062C11.2246 9.89062 10.5938 9.25978 10.5938 8.48438C10.5938 7.70897 11.2246 7.07812 12 7.07812C12.7754 7.07812 13.4062 7.70897 13.4062 8.48438C13.4062 9.25978 12.7754 9.89062 12 9.89062Z" fill="white"/>
<path d="M12 11.2969C10.0615 11.2969 8.48438 12.874 8.48438 14.8125V18.3281H15.5156V14.8125C15.5156 12.874 13.9385 11.2969 12 11.2969ZM14.1094 16.9219H9.89062V14.8125C9.89062 13.6494 10.8369 12.7031 12 12.7031C13.1631 12.7031 14.1094 13.6494 14.1094 14.8125V16.9219Z" fill="white"/>
<path d="M12.7031 1.47675V0H11.2969V1.47675C6.03422 1.82086 1.82142 6.02564 1.47675 11.2969H0V12.7031H1.47675C1.82086 17.9657 6.02564 22.1786 11.2969 22.5233V24H12.7031V22.5233C17.9657 22.1791 22.1786 17.9744 22.5233 12.7031H24V11.2969H22.5233C22.1791 6.03431 17.9744 1.82142 12.7031 1.47675ZM12.7031 21.1139V19.7344H11.2969V21.1139C6.81605 20.7714 3.22861 17.184 2.88614 12.7031H4.26562V11.2969H2.88614C3.22861 6.81605 6.81605 3.22861 11.2969 2.88614V4.26562H12.7031V2.88614C17.184 3.22861 20.7714 6.81605 21.1139 11.2969H19.7344V12.7027H21.1139C20.7714 17.1835 17.184 20.7714 12.7031 21.1139Z" fill="white"/>
</svg>
