<svg width="21" height="21" viewBox="0 0 21 21" fill="none" xmlns="http://www.w3.org/2000/svg">
<path d="M19.2572 13.002C19.5501 12.6751 19.7285 12.2436 19.7285 11.7715C19.7285 10.7539 18.9004 9.92578 17.8828 9.92578H14.3005C14.6553 8.84912 14.8066 7.42055 14.8066 6.80818V6.19336C14.8066 4.83656 13.7025 3.73242 12.3457 3.73242H11.7305C11.4483 3.73242 11.2022 3.92438 11.1337 4.19836L10.7986 5.53916C10.329 7.41686 8.83805 9.48855 7.29504 9.86508C7.02475 9.18094 6.35742 8.69531 5.57812 8.69531H1.88672C1.54711 8.69531 1.27148 8.97094 1.27148 9.31055V20.3848C1.27148 20.7244 1.54711 21 1.88672 21H5.57812C6.31189 21 6.94682 20.5697 7.24418 19.948L9.35812 20.6526C10.0492 20.8831 10.7695 21 11.4983 21H16.6523C17.6699 21 18.498 20.1719 18.498 19.1543C18.498 18.9144 18.4521 18.6847 18.3684 18.4743C19.151 18.2606 19.7285 17.5432 19.7285 16.6934C19.7285 16.2213 19.5501 15.7898 19.2572 15.4629C19.5501 15.136 19.7285 14.7045 19.7285 14.2324C19.7285 13.7603 19.5501 13.3288 19.2572 13.002ZM6.19336 19.1543C6.19336 19.4935 5.91732 19.7695 5.57812 19.7695H2.50195V9.92578H5.57812C5.91732 9.92578 6.19336 10.2018 6.19336 10.541V19.1543ZM16.6523 13.6172H17.8828C18.222 13.6172 18.498 13.8932 18.498 14.2324C18.498 14.5716 18.222 14.8477 17.8828 14.8477H16.6523C16.3127 14.8477 16.0371 15.1233 16.0371 15.4629C16.0371 15.8025 16.3127 16.0781 16.6523 16.0781H17.8828C18.222 16.0781 18.498 16.3542 18.498 16.6934C18.498 17.0326 18.222 17.3086 17.8828 17.3086H16.6523C16.3127 17.3086 16.0371 17.5842 16.0371 17.9238C16.0371 18.2634 16.3127 18.5391 16.6523 18.5391C16.9915 18.5391 17.2676 18.8151 17.2676 19.1543C17.2676 19.4935 16.9915 19.7695 16.6523 19.7695H11.4983C10.902 19.7695 10.3126 19.674 9.74695 19.4853L7.42383 18.7109V11.098C8.38893 10.9147 9.33352 10.3035 10.1862 9.30316C11.0188 8.32617 11.694 7.0309 11.9921 5.83775L12.2108 4.96289H12.3457C13.0241 4.96289 13.5762 5.51496 13.5762 6.19336V6.80818C13.5762 7.63424 13.3178 9.21867 12.9872 9.92578H11.7305C11.3909 9.92578 11.1152 10.2014 11.1152 10.541C11.1152 10.8806 11.3909 11.1562 11.7305 11.1562H17.8828C18.222 11.1562 18.498 11.4323 18.498 11.7715C18.498 12.1107 18.222 12.3867 17.8828 12.3867H16.6523C16.3127 12.3867 16.0371 12.6623 16.0371 13.002C16.0371 13.3416 16.3127 13.6172 16.6523 13.6172Z" fill="white"/>
<path d="M4.34766 18.5391C4.68744 18.5391 4.96289 18.2636 4.96289 17.9238C4.96289 17.584 4.68744 17.3086 4.34766 17.3086C4.00787 17.3086 3.73242 17.584 3.73242 17.9238C3.73242 18.2636 4.00787 18.5391 4.34766 18.5391Z" fill="white"/>
<path d="M12.9609 0C12.6212 0 12.3457 0.275461 12.3457 0.615234V1.88672C12.3457 2.22649 12.6212 2.50195 12.9609 2.50195C13.3007 2.50195 13.5762 2.22649 13.5762 1.88672V0.615234C13.5762 0.275461 13.3007 0 12.9609 0Z" fill="white"/>
<path d="M10.3503 2.71311L9.4802 1.84304C9.23997 1.60277 8.85041 1.60277 8.61013 1.84304C8.36986 2.08331 8.36986 2.47284 8.61013 2.71311L9.4802 3.58317C9.72043 3.8234 10.11 3.82344 10.3503 3.58317C10.5905 3.3429 10.5905 2.95338 10.3503 2.71311Z" fill="white"/>
<path d="M17.3117 1.84304C17.0715 1.60277 16.6819 1.60277 16.4416 1.84304L15.5716 2.71307C15.3313 2.95334 15.3313 3.34286 15.5716 3.58313C15.8118 3.8234 16.2014 3.82345 16.4416 3.58318L17.3117 2.71311C17.552 2.47284 17.552 2.08331 17.3117 1.84304Z" fill="white"/>
</svg>
