<svg width="20" height="21" viewBox="0 0 20 21" fill="none" xmlns="http://www.w3.org/2000/svg">
<path fill-rule="evenodd" clip-rule="evenodd" d="M10 20.1998C4.891 20.1998 0.750004 15.9827 0.750004 10.7819C0.750004 5.58124 4.891 1.36407 10 1.36407C15.108 1.36407 19.25 5.58125 19.25 10.782C19.25 15.9827 15.108 20.1998 10 20.1998Z" stroke="#B57BFF" stroke-width="1.5" stroke-linecap="round" stroke-linejoin="round"/>
<path fill-rule="evenodd" clip-rule="evenodd" d="M10 20.1998C4.891 20.1998 0.750004 15.9827 0.750004 10.7819C0.750004 5.58124 4.891 1.36407 10 1.36407C15.108 1.36407 19.25 5.58125 19.25 10.782C19.25 15.9827 15.108 20.1998 10 20.1998Z" stroke="white" stroke-opacity="0.5" stroke-width="1.5" stroke-linecap="round" stroke-linejoin="round"/>
<path d="M10.0049 14.6467V10.1475" stroke="#B57BFF" stroke-width="1.5" stroke-linecap="round" stroke-linejoin="round"/>
<path d="M10.005 6.9172H9.995" stroke="#B57BFF" stroke-width="1.5" stroke-linecap="round" stroke-linejoin="round"/>
</svg>
