<svg width="14" height="14" viewBox="0 0 14 14" fill="none" xmlns="http://www.w3.org/2000/svg">
<path d="M13.0674 5.39191H12.2654V4.60774C12.2654 4.27296 11.9969 4 11.6661 4C11.3359 4 11.0667 4.27296 11.0667 4.60774V5.39191H10.2661C9.93524 5.39191 9.66675 5.66487 9.66675 5.99965C9.66675 6.33443 9.93524 6.6074 10.2661 6.6074H11.0667V7.39226C11.0667 7.72704 11.3359 8 11.6661 8C11.9969 8 12.2654 7.72704 12.2654 7.39226V6.6074H13.0674C13.3976 6.6074 13.6667 6.33443 13.6667 5.99965C13.6667 5.66487 13.3976 5.39191 13.0674 5.39191Z" fill="#B57BFF"/>
<path d="M5.33337 9.01172C2.63619 9.01172 0.333374 9.44294 0.333374 11.1658C0.333374 12.888 2.62218 13.3347 5.33337 13.3347C8.02989 13.3347 10.3334 12.9035 10.3334 11.1807C10.3334 9.45781 8.04457 9.01172 5.33337 9.01172Z" fill="#B57BFF"/>
<path opacity="0.4" d="M5.33332 7.37078C7.1697 7.37078 8.64174 5.87976 8.64174 4.01971C8.64174 2.15966 7.1697 0.667969 5.33332 0.667969C3.49694 0.667969 2.0249 2.15966 2.0249 4.01971C2.0249 5.87976 3.49694 7.37078 5.33332 7.37078Z" fill="#B57BFF"/>
</svg>
