<svg width="240" height="110" viewBox="0 0 240 110" fill="none" xmlns="http://www.w3.org/2000/svg">
<rect x="0.597826" y="0.597826" width="237.935" height="108.804" rx="29.4022" fill="#3E66FB" stroke="white" stroke-width="1.19565"/>
<path d="M39.2597 70.806C38.9582 70.806 38.702 70.7005 38.4909 70.4895C38.2799 70.2784 38.1744 70.0221 38.1744 69.7206V40.2799C38.1744 39.9483 38.2799 39.6769 38.4909 39.4659C38.702 39.2548 38.9582 39.1493 39.2597 39.1493H52.3746C54.8167 39.1493 56.8066 39.5262 58.3442 40.2799C59.8818 41.0035 61.0124 42.0135 61.736 43.3099C62.4897 44.6063 62.8666 46.1138 62.8666 47.8323C62.8666 48.978 62.6555 49.988 62.2335 50.8623C61.8415 51.7065 61.344 52.3999 60.7411 52.9426C60.1682 53.4853 59.5954 53.9074 59.0226 54.2089C60.1984 54.7515 61.2385 55.656 62.143 56.9223C63.0475 58.1886 63.4997 59.696 63.4997 61.4447C63.4997 63.2536 63.0927 64.8666 62.2787 66.2836C61.4646 67.7006 60.2587 68.8162 58.6608 69.6302C57.0629 70.4141 55.0881 70.806 52.7364 70.806H39.2597ZM44.4605 66.0123H52.0129C53.6409 66.0123 54.877 65.5751 55.7212 64.7008C56.5654 63.7963 56.9875 62.7109 56.9875 61.4447C56.9875 60.1181 56.5503 59.0177 55.676 58.1433C54.8318 57.269 53.6108 56.8318 52.0129 56.8318H44.4605V66.0123ZM44.4605 52.1286H51.5606C53.1585 52.1286 54.3494 51.7517 55.1333 50.998C55.9473 50.2141 56.3543 49.2041 56.3543 47.968C56.3543 46.7017 55.9473 45.7068 55.1333 44.9832C54.3494 44.2596 53.1585 43.8978 51.5606 43.8978H44.4605V52.1286ZM81.845 71.2583C79.0411 71.2583 76.6593 70.7759 74.6996 69.8111C72.77 68.8162 71.2927 67.4142 70.2677 65.6053C69.2426 63.7662 68.6697 61.5653 68.5492 59.0026C68.519 57.7665 68.5039 56.4399 68.5039 55.0229C68.5039 53.6059 68.519 52.2492 68.5492 50.9527C68.6697 48.4202 69.2426 46.2344 70.2677 44.3953C71.3229 42.5562 72.8153 41.1542 74.7448 40.1895C76.7045 39.1945 79.0712 38.6971 81.845 38.6971C83.8951 38.6971 85.7342 38.9684 87.3623 39.5111C88.9903 40.0538 90.3772 40.8075 91.5229 41.7723C92.6686 42.7069 93.558 43.8074 94.1911 45.0736C94.8242 46.3399 95.1559 47.7117 95.186 49.189C95.2162 49.4604 95.1257 49.6865 94.9147 49.8674C94.7338 50.0483 94.5077 50.1387 94.2363 50.1387H89.94C89.6084 50.1387 89.3371 50.0633 89.126 49.9126C88.915 49.7317 88.7642 49.4453 88.6738 49.0533C88.1914 47.0635 87.3623 45.7068 86.1865 44.9832C85.0106 44.2596 83.5484 43.8978 81.7997 43.8978C79.7797 43.8978 78.1668 44.4707 76.9608 45.6163C75.7548 46.7318 75.1066 48.586 75.0162 51.1789C74.9257 53.6511 74.9257 56.1836 75.0162 58.7765C75.1066 61.3693 75.7548 63.2386 76.9608 64.3842C78.1668 65.4998 79.7797 66.0575 81.7997 66.0575C83.5484 66.0575 85.0106 65.6957 86.1865 64.9721C87.3924 64.2184 88.2215 62.8617 88.6738 60.902C88.7642 60.4799 88.915 60.1935 89.126 60.0427C89.3371 59.892 89.6084 59.8166 89.94 59.8166H94.2363C94.5077 59.8166 94.7338 59.9071 94.9147 60.088C95.1257 60.2689 95.2162 60.495 95.186 60.7663C95.1559 62.2436 94.8242 63.6154 94.1911 64.8817C93.558 66.148 92.6686 67.2635 91.5229 68.2283C90.3772 69.1629 88.9903 69.9015 87.3623 70.4442C85.7342 70.9869 83.8951 71.2583 81.845 71.2583ZM102.137 70.806C101.805 70.806 101.534 70.7005 101.323 70.4895C101.112 70.2784 101.006 70.0221 101.006 69.7206V40.2799C101.006 39.9483 101.112 39.6769 101.323 39.4659C101.534 39.2548 101.805 39.1493 102.137 39.1493H105.71C106.132 39.1493 106.448 39.2699 106.659 39.5111C106.87 39.7221 107.006 39.888 107.066 40.0086L115.795 56.2892L124.613 40.0086C124.674 39.888 124.809 39.7221 125.02 39.5111C125.231 39.2699 125.548 39.1493 125.97 39.1493H129.497C129.829 39.1493 130.1 39.2548 130.311 39.4659C130.522 39.6769 130.628 39.9483 130.628 40.2799V69.7206C130.628 70.0221 130.522 70.2784 130.311 70.4895C130.1 70.7005 129.829 70.806 129.497 70.806H125.699C125.367 70.806 125.096 70.7005 124.885 70.4895C124.704 70.2784 124.613 70.0221 124.613 69.7206V50.1387L118.282 62.2135C118.131 62.4848 117.935 62.726 117.694 62.9371C117.453 63.118 117.136 63.2084 116.744 63.2084H114.89C114.468 63.2084 114.136 63.118 113.895 62.9371C113.684 62.726 113.503 62.4848 113.352 62.2135L107.021 50.1387V69.7206C107.021 70.0221 106.916 70.2784 106.705 70.4895C106.494 70.7005 106.237 70.806 105.936 70.806H102.137ZM148.397 70.806C148.202 70.806 148.046 70.7475 147.929 70.6305C147.812 70.5135 147.753 70.3575 147.753 70.1624V56.2377C147.753 56.0426 147.812 55.8866 147.929 55.7696C148.046 55.6526 148.202 55.5941 148.397 55.5941H148.894C149.089 55.5941 149.245 55.6526 149.362 55.7696C149.479 55.8866 149.538 56.0426 149.538 56.2377V57.6126C150.064 56.93 150.698 56.3742 151.439 55.9451C152.2 55.5161 153.204 55.3015 154.452 55.3015C155.778 55.3015 156.88 55.5941 157.758 56.1792C158.655 56.7447 159.318 57.5248 159.747 58.5195C160.196 59.4946 160.42 60.6062 160.42 61.8544V70.1624C160.42 70.3575 160.361 70.5135 160.244 70.6305C160.127 70.7475 159.971 70.806 159.776 70.806H159.279C159.084 70.806 158.928 70.7475 158.811 70.6305C158.694 70.5135 158.635 70.3575 158.635 70.1624V62.0006C158.635 60.4405 158.255 59.2215 157.495 58.3439C156.734 57.4468 155.622 56.9983 154.16 56.9983C152.775 56.9983 151.654 57.4468 150.795 58.3439C149.957 59.2215 149.538 60.4405 149.538 62.0006V70.1624C149.538 70.3575 149.479 70.5135 149.362 70.6305C149.245 70.7475 149.089 70.806 148.894 70.806H148.397ZM171.111 71.0986C169.22 71.0986 167.718 70.4842 166.606 69.2556C165.495 68.0074 164.861 66.379 164.705 64.3702C164.685 64.0777 164.675 63.6876 164.675 63.2001C164.675 62.7125 164.685 62.3224 164.705 62.0299C164.802 60.7037 165.114 59.5336 165.641 58.5195C166.167 57.5053 166.889 56.7155 167.806 56.1499C168.742 55.5843 169.844 55.3015 171.111 55.3015C172.476 55.3015 173.637 55.6038 174.592 56.2084C175.548 56.813 176.279 57.6808 176.786 58.812C177.313 59.9431 177.576 61.2888 177.576 62.849V63.2878C177.576 63.4828 177.508 63.6389 177.372 63.7559C177.255 63.8729 177.099 63.9314 176.904 63.9314H166.489C166.489 63.9314 166.489 63.9704 166.489 64.0484C166.489 64.1264 166.489 64.1849 166.489 64.2239C166.528 65.1015 166.733 65.9402 167.104 66.7398C167.474 67.5199 168.001 68.1634 168.683 68.6705C169.366 69.1581 170.175 69.4018 171.111 69.4018C171.95 69.4018 172.642 69.2751 173.188 69.0215C173.754 68.768 174.202 68.495 174.534 68.2024C174.866 67.8904 175.08 67.6564 175.178 67.5004C175.353 67.2468 175.49 67.1005 175.587 67.0615C175.685 67.003 175.841 66.9738 176.055 66.9738H176.523C176.699 66.9738 176.845 67.0323 176.962 67.1493C177.099 67.2468 177.157 67.3833 177.138 67.5589C177.118 67.8319 176.962 68.1732 176.669 68.5827C176.396 68.9728 175.997 69.3628 175.47 69.7529C174.963 70.1429 174.339 70.4647 173.598 70.7183C172.857 70.9718 172.028 71.0986 171.111 71.0986ZM166.489 62.2932H175.792V62.1762C175.792 61.201 175.607 60.3234 175.236 59.5433C174.866 58.7632 174.329 58.1489 173.627 57.7004C172.925 57.2323 172.086 56.9983 171.111 56.9983C170.136 56.9983 169.298 57.2323 168.595 57.7004C167.913 58.1489 167.386 58.7632 167.016 59.5433C166.665 60.3234 166.489 61.201 166.489 62.1762V62.2932ZM180.903 70.806C180.747 70.806 180.61 70.7475 180.493 70.6305C180.376 70.5135 180.318 70.377 180.318 70.2209C180.318 70.1429 180.327 70.0649 180.347 69.9869C180.386 69.8894 180.454 69.7724 180.552 69.6359L185.7 63.0245L180.815 56.7642C180.718 56.6277 180.649 56.5205 180.61 56.4424C180.591 56.3449 180.581 56.2572 180.581 56.1792C180.581 56.0231 180.64 55.8866 180.757 55.7696C180.874 55.6526 181.01 55.5941 181.166 55.5941H181.78C181.975 55.5941 182.122 55.6428 182.219 55.7403C182.336 55.8379 182.434 55.9354 182.512 56.0329L186.9 61.6789L191.288 56.0621C191.385 55.9646 191.483 55.8671 191.58 55.7696C191.678 55.6526 191.824 55.5941 192.019 55.5941H192.604C192.76 55.5941 192.897 55.6526 193.014 55.7696C193.131 55.8866 193.189 56.0231 193.189 56.1792C193.189 56.2572 193.17 56.3449 193.131 56.4424C193.111 56.5205 193.053 56.6277 192.955 56.7642L188.011 63.1123L193.16 69.6359C193.258 69.7724 193.316 69.8894 193.336 69.9869C193.375 70.0649 193.394 70.1429 193.394 70.2209C193.394 70.377 193.336 70.5135 193.219 70.6305C193.102 70.7475 192.965 70.806 192.809 70.806H192.195C192 70.806 191.844 70.7573 191.727 70.6598C191.629 70.5622 191.541 70.4647 191.463 70.3672L186.841 64.458L182.219 70.3672C182.141 70.4647 182.044 70.5622 181.927 70.6598C181.829 70.7573 181.683 70.806 181.488 70.806H180.903ZM202.381 70.806C201.367 70.806 200.567 70.5915 199.982 70.1624C199.397 69.7334 198.988 69.1483 198.754 68.4072C198.52 67.6661 198.402 66.8373 198.402 65.9206V57.2908H196.121C195.926 57.2908 195.77 57.2323 195.653 57.1153C195.536 56.9983 195.477 56.8422 195.477 56.6472V56.2377C195.477 56.0426 195.536 55.8866 195.653 55.7696C195.77 55.6526 195.926 55.5941 196.121 55.5941H198.402V50.6795C198.402 50.4844 198.461 50.3284 198.578 50.2114C198.695 50.0944 198.851 50.0359 199.046 50.0359H199.543C199.738 50.0359 199.894 50.0944 200.011 50.2114C200.128 50.3284 200.187 50.4844 200.187 50.6795V55.5941H203.814C204.009 55.5941 204.165 55.6526 204.282 55.7696C204.4 55.8866 204.458 56.0426 204.458 56.2377V56.6472C204.458 56.8422 204.4 56.9983 204.282 57.1153C204.165 57.2323 204.009 57.2908 203.814 57.2908H200.187V65.8036C200.187 66.8373 200.353 67.6466 200.684 68.2317C201.035 68.8168 201.65 69.1093 202.527 69.1093H204.107C204.302 69.1093 204.458 69.1678 204.575 69.2848C204.692 69.4018 204.751 69.5579 204.751 69.7529V70.1624C204.751 70.3575 204.692 70.5135 204.575 70.6305C204.458 70.7475 204.302 70.806 204.107 70.806H202.381Z" fill="white"/>
</svg>
