<svg width="15" height="15" viewBox="0 0 15 15" fill="none" xmlns="http://www.w3.org/2000/svg">
<path d="M6.8443 12.8368C10.1538 12.8368 12.8367 10.1539 12.8367 6.84442C12.8367 3.53493 10.1538 0.85205 6.8443 0.85205C3.5348 0.85205 0.851929 3.53493 0.851929 6.84442C0.851929 10.1539 3.5348 12.8368 6.8443 12.8368Z" stroke="#C2C9D1" stroke-width="1.5" stroke-linecap="round" stroke-linejoin="round"/>
<path d="M6.8443 12.8368C10.1538 12.8368 12.8367 10.1539 12.8367 6.84442C12.8367 3.53493 10.1538 0.85205 6.8443 0.85205C3.5348 0.85205 0.851929 3.53493 0.851929 6.84442C0.851929 10.1539 3.5348 12.8368 6.8443 12.8368Z" stroke="black" stroke-opacity="0.25" stroke-width="1.5" stroke-linecap="round" stroke-linejoin="round"/>
<g opacity="0.4">
<path opacity="0.4" d="M11.0121 11.3235L13.3614 13.6667" stroke="#C2C9D1" stroke-width="1.5" stroke-linecap="round" stroke-linejoin="round"/>
<path opacity="0.4" d="M11.0121 11.3235L13.3614 13.6667" stroke="black" stroke-opacity="0.25" stroke-width="1.5" stroke-linecap="round" stroke-linejoin="round"/>
</g>
</svg>
