<svg width="336" height="336" viewBox="0 0 336 336" fill="none" xmlns="http://www.w3.org/2000/svg">
<path d="M0 16C0 7.16344 7.16763 -0.0397508 15.9942 0.380874C54.6551 2.22325 92.749 10.7341 128.582 25.5765C169.347 42.4621 206.387 67.2116 237.588 98.4121C268.788 129.613 293.538 166.653 310.424 207.418C325.266 243.251 333.777 281.345 335.619 320.006C336.04 328.832 328.837 336 320 336H285.204C276.367 336 269.253 328.83 268.729 320.009C266.95 290.125 260.197 260.708 248.712 232.98C235.183 200.319 215.354 170.642 190.356 145.644C165.358 120.646 135.681 100.817 103.02 87.288C75.2925 75.803 45.8752 69.0497 15.9908 67.2714C7.16983 66.7466 0 59.6327 0 50.7961V16Z" fill="#3E66FB"/>
</svg>
