<svg width="336" height="336" viewBox="0 0 336 336" fill="none" xmlns="http://www.w3.org/2000/svg">
<path d="M336 320C336 328.837 328.832 336.04 320.006 335.619C281.345 333.777 243.251 325.266 207.418 310.424C166.653 293.538 129.613 268.788 98.4121 237.588C67.2116 206.387 42.462 169.347 25.5765 128.582C10.7341 92.749 2.22324 54.6551 0.380873 15.9942C-0.0397516 7.16763 7.16344 0 16 0H50.7961C59.6327 0 66.7466 7.16983 67.2714 15.9908C69.0497 45.8752 75.803 75.2925 87.288 103.02C100.817 135.681 120.646 165.358 145.644 190.356C170.642 215.354 200.319 235.183 232.98 248.712C260.707 260.197 290.125 266.95 320.009 268.729C328.83 269.253 336 276.367 336 285.204V320Z" fill="#3E66FB"/>
</svg>
