<svg width="336" height="336" viewBox="0 0 336 336" fill="none" xmlns="http://www.w3.org/2000/svg">
<path d="M336 16C336 7.16344 328.832 -0.0397508 320.006 0.380874C281.345 2.22325 243.251 10.7341 207.418 25.5765C166.653 42.4621 129.613 67.2116 98.4121 98.4121C67.2116 129.613 42.462 166.653 25.5765 207.418C10.7341 243.251 2.22324 281.345 0.380873 320.006C-0.0397516 328.832 7.16344 336 16 336H50.7961C59.6327 336 66.7466 328.83 67.2714 320.009C69.0497 290.125 75.803 260.708 87.288 232.98C100.817 200.319 120.646 170.642 145.644 145.644C170.642 120.646 200.319 100.817 232.98 87.288C260.707 75.803 290.125 69.0497 320.009 67.2714C328.83 66.7466 336 59.6327 336 50.7961V16Z" fill="#3E66FB"/>
<path d="M336 16C336 7.16344 328.832 -0.0397508 320.006 0.380874C281.345 2.22325 243.251 10.7341 207.418 25.5765C166.653 42.4621 129.613 67.2116 98.4121 98.4121C67.2116 129.613 42.462 166.653 25.5765 207.418C10.7341 243.251 2.22324 281.345 0.380873 320.006C-0.0397516 328.832 7.16344 336 16 336H50.7961C59.6327 336 66.7466 328.83 67.2714 320.009C69.0497 290.125 75.803 260.708 87.288 232.98C100.817 200.319 120.646 170.642 145.644 145.644C170.642 120.646 200.319 100.817 232.98 87.288C260.707 75.803 290.125 69.0497 320.009 67.2714C328.83 66.7466 336 59.6327 336 50.7961V16Z" fill="white" fill-opacity="0.5"/>
</svg>
