<svg width="336" height="336" viewBox="0 0 336 336" fill="none" xmlns="http://www.w3.org/2000/svg">
<path d="M0 320C0 328.837 7.16763 336.04 15.9942 335.619C54.6551 333.777 92.749 325.266 128.582 310.424C169.347 293.538 206.387 268.788 237.588 237.588C268.788 206.387 293.538 169.347 310.424 128.582C325.266 92.749 333.777 54.6551 335.619 15.9942C336.04 7.16763 328.837 0 320 0H285.204C276.367 0 269.253 7.16983 268.729 15.9908C266.95 45.8752 260.197 75.2925 248.712 103.02C235.183 135.681 215.354 165.358 190.356 190.356C165.358 215.354 135.681 235.183 103.02 248.712C75.2925 260.197 45.8752 266.95 15.9908 268.729C7.16983 269.253 0 276.367 0 285.204V320Z" fill="#3E66FB"/>
</svg>
