<svg width="24" height="28" viewBox="0 0 24 28" fill="none" xmlns="http://www.w3.org/2000/svg">
<path d="M22.3594 13.5272C21.3854 12.3898 20.9428 11.4042 20.9428 9.72962V9.16026C20.9428 6.97813 20.4406 5.57217 19.3487 4.16621C17.6658 1.98274 14.8326 0.666748 12.0591 0.666748H11.9411C9.22588 0.666748 6.4815 1.92231 4.76941 4.01715C3.61785 5.45131 3.05732 6.9177 3.05732 9.16026V9.72962C3.05732 11.4042 2.64387 12.3898 1.64073 13.5272C0.902625 14.3651 0.666748 15.4421 0.666748 16.6077C0.666748 17.7746 1.04972 18.8798 1.8183 19.7781C2.82144 20.8551 4.23802 21.5427 5.68509 21.6622C7.78015 21.9012 9.87521 21.9912 12.0007 21.9912C14.125 21.9912 16.22 21.8408 18.3164 21.6622C19.7621 21.5427 21.1787 20.8551 22.1819 19.7781C22.9491 18.8798 23.3334 17.7746 23.3334 16.6077C23.3334 15.4421 23.0975 14.3651 22.3594 13.5272Z" fill="#b2c2fd"/>
<path opacity="0.4" d="M14.6783 23.638C14.0118 23.4957 9.95021 23.4957 9.28366 23.638C8.71385 23.7696 8.09766 24.0758 8.09766 24.7472C8.13078 25.3877 8.5058 25.9531 9.02526 26.3116L9.02394 26.313C9.69579 26.8367 10.4842 27.1697 11.3098 27.2892C11.7498 27.3496 12.1977 27.347 12.6535 27.2892C13.4778 27.1697 14.2662 26.8367 14.9381 26.313L14.9367 26.3116C15.4562 25.9531 15.8312 25.3877 15.8644 24.7472C15.8644 24.0758 15.2482 23.7696 14.6783 23.638Z" fill="#3E66FB"/>
</svg>
