<svg width="24" height="27" viewBox="0 0 24 27" fill="none" xmlns="http://www.w3.org/2000/svg">
<path fill-rule="evenodd" clip-rule="evenodd" d="M15.6483 0.765625H6.77899C4.03366 0.765625 1.66699 3.04181 1.66699 5.85123V20.4943C1.66699 23.462 3.87766 25.7954 6.77899 25.7954H17.4297C20.1763 25.7954 22.403 23.3038 22.403 20.4943V7.96103L15.6483 0.765625Z" stroke="#B57BFF" stroke-width="1.5" stroke-linecap="round" stroke-linejoin="round"/>
<path d="M15.2979 0.75V4.71729C15.2979 6.65389 16.8299 8.22498 18.7232 8.22907C20.4779 8.23317 22.2739 8.23453 22.3952 8.22635" stroke="#B57BFF" stroke-width="1.5" stroke-linecap="round" stroke-linejoin="round"/>
<path fill-rule="evenodd" clip-rule="evenodd" d="M12.0577 9.35183C11.9165 9.20679 11.7227 9.12498 11.5203 9.125C11.3178 9.12502 11.124 9.20686 10.9828 9.35192L7.19885 13.2401C6.90996 13.537 6.91641 14.0118 7.21325 14.3007C7.51009 14.5896 7.98492 14.5831 8.27381 14.2863L10.7709 11.7204V18.8399C10.7709 19.2541 11.1067 19.5899 11.5209 19.5899C11.9351 19.5899 12.2709 19.2541 12.2709 18.8399V11.7211L14.7683 14.2864C15.0572 14.5832 15.532 14.5895 15.8288 14.3006C16.1256 14.0116 16.132 13.5368 15.8431 13.24L12.0577 9.35183Z" fill="#B57BFF"/>
</svg>
