<svg width="64" height="64" viewBox="0 0 64 64" fill="none" xmlns="http://www.w3.org/2000/svg">
<circle cx="32" cy="32" r="32" fill="#B57BFF"/>
<path d="M22.8566 14C21.5995 14 20.5709 15.0286 20.5709 16.2857V48.2857C20.5709 49.5429 21.5995 50.5714 22.8566 50.5714H45.7138C46.9709 50.5714 47.9995 49.5429 47.9995 48.2857V23.1429L38.8566 14H22.8566Z" fill="white" fill-opacity="0.7"/>
<path d="M41.1422 23.1429H47.9993L38.8564 14V20.8571C38.8564 22.1143 39.885 23.1429 41.1422 23.1429Z" fill="white"/>
<path d="M48.0007 29.9997L41.1436 23.1426H48.0007V29.9997Z" fill="#B57BFF"/>
<path d="M48.0007 29.9997L41.1436 23.1426H48.0007V29.9997Z" fill="black" fill-opacity="0.25"/>
<path d="M43.4286 43.714C43.4286 44.3426 42.9143 44.8569 42.2857 44.8569H17.1429C16.5143 44.8569 16 44.3426 16 43.714V32.2854C16 31.6569 16.5143 31.1426 17.1429 31.1426H42.2857C42.9143 31.1426 43.4286 31.6569 43.4286 32.2854V43.714Z" fill="#B57BFF"/>
<path d="M43.4286 43.714C43.4286 44.3426 42.9143 44.8569 42.2857 44.8569H17.1429C16.5143 44.8569 16 44.3426 16 43.714V32.2854C16 31.6569 16.5143 31.1426 17.1429 31.1426H42.2857C42.9143 31.1426 43.4286 31.6569 43.4286 32.2854V43.714Z" fill="black" fill-opacity="0.25"/>
<path d="M21.2466 35.6543C21.2466 35.3526 21.4843 35.0234 21.8672 35.0234H23.978C25.1666 35.0234 26.2363 35.8189 26.2363 37.3434C26.2363 38.788 25.1666 39.5926 23.978 39.5926H22.4523V40.7994C22.4523 41.2017 22.1974 41.4292 21.8683 41.4292C21.5666 41.4292 21.2477 41.2017 21.2477 40.7994V35.6543H21.2466ZM22.4523 36.1743V38.4509H23.978C24.5906 38.4509 25.0752 37.9103 25.0752 37.3434C25.0752 36.7046 24.5906 36.1743 23.978 36.1743H22.4523Z" fill="white"/>
<path d="M27.4009 35.6543C27.4009 35.3526 27.6386 35.0234 28.0226 35.0234H30.1335C31.322 35.0234 32.3917 35.8189 32.3917 37.3434C32.3917 38.788 31.322 39.5926 30.1335 39.5926H28.6077V40.7994C28.6077 41.2017 28.3517 41.4292 28.0226 41.4292C27.7209 41.4292 27.4009 41.2017 27.4009 40.7994V35.6543ZM28.6066 36.1743V38.4509H30.1323C30.7449 38.4509 31.2295 37.9103 31.2295 37.3434C31.2295 36.7046 30.7449 36.1743 30.1323 36.1743H28.6066Z" fill="white"/>
<path d="M35.264 36.2492H33.6663C32.8708 36.2492 32.8708 35.0801 33.6663 35.0801H37.9874C38.8011 35.0801 38.8011 36.2492 37.9874 36.2492H36.4708V40.8641C36.4708 41.6584 35.264 41.6778 35.264 40.8641V36.2492Z" fill="white"/>
<path d="M42.2852 44.8577H20.5709V46.0006H42.2852C42.9138 46.0006 43.4281 45.4863 43.4281 44.8577V43.7148C43.4281 44.3434 42.9138 44.8577 42.2852 44.8577Z" fill="black" fill-opacity="0.25"/>
</svg>
