<svg width="14" height="14" viewBox="0 0 14 14" fill="none" xmlns="http://www.w3.org/2000/svg">
<path opacity="0.4" d="M13.6667 7.00065C13.6667 10.6833 10.682 13.6673 7.00001 13.6673C3.31801 13.6673 0.333344 10.6833 0.333344 7.00065C0.333344 3.31932 3.31801 0.333984 7.00001 0.333984C10.682 0.333984 13.6667 3.31932 13.6667 7.00065Z" fill="#F3BB1C"/>
<path fill-rule="evenodd" clip-rule="evenodd" d="M6.99974 6.20312C6.55907 6.20312 6.20107 6.56112 6.20107 7.00046C6.20107 7.44046 6.55907 7.79912 6.99974 7.79912C7.4404 7.79912 7.7984 7.44046 7.7984 7.00046C7.7984 6.56112 7.4404 6.20312 6.99974 6.20312ZM4.01382 6.20315C3.57315 6.20315 3.21515 6.56115 3.21515 7.00048C3.21515 7.44048 3.57315 7.79915 4.01382 7.79915C4.45448 7.79915 4.81248 7.44048 4.81248 7.00048C4.81248 6.56115 4.45448 6.20315 4.01382 6.20315ZM9.18748 7.00046C9.18748 6.56112 9.54548 6.20312 9.98615 6.20312C10.4268 6.20312 10.7848 6.56112 10.7848 7.00046C10.7848 7.44046 10.4268 7.79912 9.98615 7.79912C9.54548 7.79912 9.18748 7.44046 9.18748 7.00046Z" fill="#F3BB1C"/>
</svg>
