<svg width="20" height="20" viewBox="0 0 20 20" fill="none" xmlns="http://www.w3.org/2000/svg">
<path d="M17.7477 11.6529H11.7488V17.5997C11.7488 18.5572 10.9658 19.3334 9.99996 19.3334C9.03408 19.3334 8.25108 18.5572 8.25108 17.5997V11.6529H2.25223C1.35128 11.5604 0.666626 10.8077 0.666626 9.90983C0.666626 9.01191 1.35128 8.25928 2.25223 8.16679H8.23227V2.2386C8.32557 1.34546 9.08479 0.666748 9.99056 0.666748C10.8963 0.666748 11.6555 1.34546 11.7488 2.2386V8.16679H17.7477C18.6486 8.25928 19.3333 9.01191 19.3333 9.90983C19.3333 10.8077 18.6486 11.5604 17.7477 11.6529Z" fill="white"/>
</svg>
