<svg width="24" height="28" viewBox="0 0 24 28" fill="none" xmlns="http://www.w3.org/2000/svg">
<path opacity="0.4" d="M21.0786 10.0293C20.4767 10.0293 19.6793 10.016 18.6866 10.016C16.2654 10.016 14.2747 8.01197 14.2747 5.56797V1.27997C14.2747 0.942635 14.004 0.667969 13.67 0.667969H6.61922C3.32813 0.667969 0.666748 3.3693 0.666748 6.67997V21.0466C0.666748 24.52 3.45487 27.3346 6.89381 27.3346H17.3941C20.6747 27.3346 23.3334 24.6506 23.3334 21.3373V10.6293C23.3334 10.2906 23.0641 10.0173 22.7288 10.0186C22.1651 10.0226 21.4892 10.0293 21.0786 10.0293Z" fill="#B57BFF"/>
<path opacity="0.4" d="M17.4457 1.42316C17.0471 1.00849 16.3511 1.29383 16.3511 1.86849V5.38449C16.3511 6.85916 17.5644 8.07249 19.0391 8.07249C19.9697 8.08316 21.2604 8.08583 22.3564 8.08316C22.9177 8.08183 23.2031 7.41116 22.8137 7.00583C21.4071 5.54316 18.8884 2.92183 17.4457 1.42316Z" fill="#B57BFF"/>
<path d="M16.1404 14.9458C15.7511 14.5604 15.1244 14.5578 14.7351 14.9484L12.6164 17.0778V10.6418C12.6164 10.0938 12.1711 9.64844 11.6231 9.64844C11.0751 9.64844 10.6297 10.0938 10.6297 10.6418V17.0778L8.50973 14.9484C8.12173 14.5578 7.49373 14.5604 7.10573 14.9458C6.7164 15.3324 6.7164 15.9604 7.10173 16.3498L10.9191 20.1844H10.9204C11.0111 20.2751 11.1191 20.3484 11.2404 20.3991C11.3604 20.4484 11.4911 20.4751 11.6231 20.4751C11.7564 20.4751 11.8871 20.4484 12.0071 20.3978C12.1257 20.3484 12.2337 20.2751 12.3244 20.1858L12.3271 20.1844L16.1431 16.3498C16.5297 15.9604 16.5297 15.3324 16.1404 14.9458Z" fill="#B57BFF"/>
</svg>
