<svg width="20" height="20" viewBox="0 0 20 20" fill="none" xmlns="http://www.w3.org/2000/svg">
<path opacity="0.4" d="M15.554 5.29687C18.005 5.29688 20 7.35667 20 9.88831V14.9206C20 17.4461 18.01 19.5007 15.564 19.5007L4.448 19.5007C1.996 19.5007 0 17.4419 0 14.9103V9.87798C0 7.35254 1.991 5.29687 4.438 5.29687H5.378L15.554 5.29687Z" fill="#B57BFF"/>
<path d="M10.5462 14.0374L13.4552 11.0695C13.7552 10.7627 13.7552 10.2691 13.4532 9.96338C13.1512 9.65867 12.6642 9.65968 12.3642 9.96541L10.7712 11.5905L10.7712 1.2821C10.7712 0.85042 10.4262 0.5 10.0002 0.5C9.57518 0.5 9.23118 0.85042 9.23118 1.2821L9.23118 11.5905L7.63718 9.96541C7.33718 9.65968 6.85018 9.65867 6.54818 9.96338C6.39718 10.1168 6.32118 10.3168 6.32118 10.518C6.32118 10.717 6.39718 10.9171 6.54618 11.0695L9.45518 14.0374C9.60018 14.1847 9.79618 14.268 10.0002 14.268C10.2052 14.268 10.4012 14.1847 10.5462 14.0374Z" fill="#B57BFF"/>
</svg>
