<svg width="14" height="12" viewBox="0 0 14 12" fill="none" xmlns="http://www.w3.org/2000/svg">
<path d="M1.16659 6.83268H11.0499L8.02492 10.466C7.95488 10.5503 7.90212 10.6475 7.86966 10.7522C7.8372 10.8568 7.82567 10.9668 7.83573 11.076C7.85605 11.2963 7.96307 11.4996 8.13325 11.641C8.30343 11.7825 8.52283 11.8505 8.74319 11.8302C8.96354 11.8099 9.1668 11.7029 9.30825 11.5327L13.4749 6.53268C13.503 6.49291 13.528 6.45113 13.5499 6.40768C13.5499 6.36602 13.5916 6.34102 13.6083 6.29935C13.646 6.2038 13.6658 6.10209 13.6666 5.99935C13.6658 5.89661 13.646 5.7949 13.6083 5.69935C13.6083 5.65768 13.5666 5.63268 13.5499 5.59102C13.528 5.54757 13.503 5.50579 13.4749 5.46602L9.30825 0.466017C9.2299 0.371948 9.13178 0.296298 9.02088 0.244447C8.90998 0.192597 8.78901 0.165818 8.66658 0.166017C8.47187 0.165637 8.28318 0.23345 8.13325 0.357684C8.04887 0.427642 7.97912 0.513559 7.92799 0.610515C7.87686 0.70747 7.84537 0.813561 7.8353 0.922708C7.82524 1.03186 7.83681 1.14192 7.86935 1.24659C7.90188 1.35125 7.95475 1.44848 8.02492 1.53268L11.0499 5.16602H1.16659C0.945571 5.16602 0.73361 5.25382 0.57733 5.4101C0.421049 5.56638 0.333252 5.77834 0.333252 5.99935C0.333252 6.22037 0.421049 6.43233 0.57733 6.58861C0.73361 6.74489 0.945571 6.83268 1.16659 6.83268Z" fill="white"/>
</svg>
