<svg width="26" height="28" viewBox="0 0 26 28" fill="none" xmlns="http://www.w3.org/2000/svg">
<path opacity="0.4" d="M25.3068 17.1601C25.0479 16.7601 24.68 16.3601 24.203 16.1067C23.8215 15.9201 23.5762 15.6134 23.3582 15.2534C22.6633 14.1067 23.0721 12.6001 24.2303 11.9201C25.5929 11.1601 26.0289 9.46675 25.2386 8.14675L24.3257 6.57341C23.549 5.25341 21.8457 4.78675 20.4967 5.56008C19.2976 6.20008 17.7579 5.77341 17.063 4.64008C16.845 4.26675 16.7223 3.86675 16.7496 3.46675C16.7904 2.94675 16.6269 2.45341 16.3817 2.05341C15.8775 1.22675 14.9646 0.666748 13.9562 0.666748H12.0349C11.0402 0.693415 10.1273 1.22675 9.62312 2.05341C9.36422 2.45341 9.21434 2.94675 9.24159 3.46675C9.26884 3.86675 9.14621 4.26675 8.92819 4.64008C8.23326 5.77341 6.69351 6.20008 5.50804 5.56008C4.14543 4.78675 2.45579 5.25341 1.66548 6.57341L0.752531 8.14675C-0.0241571 9.46675 0.411878 11.1601 1.76086 11.9201C2.91908 12.6001 3.32786 14.1067 2.64656 15.2534C2.41491 15.6134 2.16964 15.9201 1.78811 16.1067C1.32483 16.3601 0.916044 16.7601 0.698026 17.1601C0.193861 17.9867 0.221113 19.0267 0.725278 19.8934L1.66548 21.4934C2.16964 22.3467 3.10985 22.8801 4.09092 22.8801C4.55421 22.8801 5.09926 22.7467 5.53529 22.4801C5.87594 22.2534 6.28473 22.1734 6.73439 22.1734C8.08337 22.1734 9.21434 23.2801 9.24159 24.6001C9.24159 26.1334 10.4952 27.3334 12.0758 27.3334H13.929C15.496 27.3334 16.7496 26.1334 16.7496 24.6001C16.7904 23.2801 17.9214 22.1734 19.2704 22.1734C19.7064 22.1734 20.1152 22.2534 20.4695 22.4801C20.9055 22.7467 21.4369 22.8801 21.9139 22.8801C22.8813 22.8801 23.8215 22.3467 24.3257 21.4934L25.2795 19.8934C25.77 19.0001 25.8109 17.9867 25.3068 17.1601Z" fill="#3E66FB"/>
<path d="M13.0163 17.7733C10.877 17.7733 9.14648 16.1067 9.14648 14.0133C9.14648 11.92 10.877 10.24 13.0163 10.24C15.1556 10.24 16.8452 11.92 16.8452 14.0133C16.8452 16.1067 15.1556 17.7733 13.0163 17.7733Z" fill="white"/>
</svg>
