<svg width="43" height="78" viewBox="0 0 43 78" fill="none" xmlns="http://www.w3.org/2000/svg">
<path fill-rule="evenodd" clip-rule="evenodd" d="M9.99529 0.0914191C8.78081 0.393553 7.67258 1.43319 7.34346 2.57922C7.24072 2.93638 5.54895 8.10345 3.58371 14.0615C-0.40119 26.1423 -0.361404 25.9742 0.405058 27.5124C1.14652 29.0002 1.13356 28.994 11.0538 32.7251C17.7159 35.2307 20.1317 36.2025 20.1299 36.3763C20.1284 36.5165 19.7831 36.7619 19.2816 36.979C18.1915 37.4511 17.1697 38.4516 16.654 39.5519C16.3111 40.2833 16.2453 40.6325 16.2453 41.7196C16.2453 42.8052 16.3113 43.156 16.6523 43.8836C17.2309 45.1182 18.2079 46.0359 19.6459 46.6953C19.6716 46.7072 19.0209 48.7822 18.1995 51.3066L16.7063 55.8964H11.0467C5.50155 55.8964 5.37868 55.9029 4.97395 56.2212C4.74682 56.4 4.49697 56.7144 4.41877 56.92C4.1264 57.6891 4.55429 58.1113 9.15245 61.5906L13.5552 64.922L11.5846 70.716C10.5009 73.9026 9.61419 76.6768 9.61419 76.8808C9.61419 77.4783 10.2555 78 10.9904 78C11.5709 78 11.9767 77.734 16.3707 74.4724C18.9846 72.5323 21.1925 70.8913 21.277 70.8258C21.3646 70.7579 23.5593 72.2712 26.3837 74.3473C31.0082 77.7462 31.3802 77.9881 31.9914 77.9938C32.7465 78.0009 33.3946 77.4942 33.3946 76.8969C33.3946 76.7018 32.5036 73.9393 31.4146 70.7581C29.8585 66.2127 29.475 64.9366 29.6235 64.7993C29.7273 64.7032 31.6844 63.2028 33.9725 61.4651C36.2606 59.7275 38.2416 58.1395 38.3747 57.9365C38.698 57.4429 38.5483 56.5258 38.0861 56.1702C37.7701 55.9269 37.235 55.9028 32.0794 55.8997L26.4197 55.8964L25.0166 51.6054C24.2448 49.2452 23.602 47.1587 23.588 46.9686C23.5687 46.7103 23.7706 46.4758 24.3879 46.0388C27.7357 43.6691 27.2791 38.583 23.5748 36.979C23.0733 36.7619 22.728 36.5165 22.7265 36.3763C22.7247 36.2025 25.1393 35.2315 31.7998 32.7273C41.7209 28.9975 41.7082 29.0036 42.4513 27.5124C43.2332 25.9434 43.2881 26.1607 39.0945 14.2175C37.0314 8.34141 35.2052 3.16459 35.0364 2.71337C34.6736 1.74279 33.8849 0.820229 33.0239 0.359559C32.4047 0.0280046 32.3875 0.0275473 21.4282 0.00269975C15.3916 -0.0110197 10.2468 0.0289192 9.99529 0.0914191ZM23.0056 16.6338C25.8015 24.3807 28.0995 30.8359 28.1123 30.9786C28.1305 31.1812 27.4924 31.4809 25.1998 32.3464C23.5852 32.956 22.2376 33.4109 22.2053 33.3571C21.9187 32.8805 9.76663 3.99126 9.76663 3.78623C9.76663 3.42175 10.0537 3.08181 10.605 2.79385C10.9802 2.59797 11.6788 2.55437 14.4922 2.55178L17.9221 2.54858L23.0056 16.6338ZM32.0102 2.80956C32.243 2.99995 33.4957 6.32479 36.3823 14.414C40.1251 24.9025 40.4143 25.7848 40.2436 26.197C40.0202 26.7362 39.7913 26.8594 37.2202 27.8251C35.8805 28.3284 35.1829 28.5231 35.1413 28.4056C35.1068 28.3083 33.0192 22.5085 30.502 15.5169C27.9847 8.5254 25.9251 2.74599 25.9251 2.67388C25.9251 2.60178 27.2209 2.54279 28.8046 2.54279C31.321 2.54279 31.7251 2.57648 32.0102 2.80956ZM27.8041 15.8501C30.3885 23.0838 32.5151 29.1283 32.5297 29.2824C32.5498 29.495 32.3222 29.6508 31.5835 29.9299C31.0485 30.1321 30.5928 30.2778 30.571 30.2539C30.5491 30.2299 28.3533 24.1053 25.6916 16.6434C23.0299 9.1815 20.82 2.99065 20.7808 2.88577C20.7276 2.7434 21.0123 2.69553 21.9073 2.6966L23.105 2.69797L27.8041 15.8501ZM10.2139 12.199L11.9303 16.2149L9.76587 22.2219C8.57547 25.5257 7.55703 28.2745 7.50261 28.3306C7.37913 28.4577 3.37975 26.9749 3.03493 26.674C2.45612 26.169 2.52076 25.9086 5.4549 16.9402C7.0299 12.1259 8.35871 8.18592 8.40794 8.18485C8.45703 8.18394 9.26983 9.99019 10.2139 12.199ZM14.1014 21.4435C14.4002 22.1521 14.6447 22.8438 14.6447 22.9809C14.6447 23.2231 12.268 29.9703 12.1363 30.102C12.0525 30.1857 10.0715 29.4799 10.0715 29.3662C10.0715 29.2845 12.955 21.3484 13.2974 20.4876C13.3903 20.2543 13.4869 20.0842 13.5122 20.1094C13.5375 20.1347 13.8026 20.7351 14.1014 21.4435ZM17.6194 29.6103C18.3268 31.2719 18.8869 32.6501 18.8642 32.6728C18.8198 32.7171 14.7607 31.2136 14.6622 31.1165C14.63 31.0847 14.9651 30.0252 15.4069 28.7623C15.8486 27.4993 16.2378 26.4937 16.2717 26.5275C16.3055 26.5613 16.912 27.9485 17.6194 29.6103ZM20.5745 41.433C21.0822 41.8441 21.891 41.8042 22.3497 41.3453C22.6381 41.0571 22.7239 40.811 22.7239 40.2729C22.7239 39.6223 22.7447 39.5859 23.0283 39.7376C23.8224 40.1626 24.1794 41.8621 23.691 42.8915C23.1018 44.133 21.2073 44.6078 20.0085 43.8145C19.3082 43.351 18.913 42.5984 18.913 41.7286C18.913 41.029 19.3744 39.9891 19.7884 39.7555C20.025 39.6222 20.0659 39.6947 20.1384 40.3755C20.198 40.934 20.3181 41.2254 20.5745 41.433ZM24.5226 58.3034C24.8631 58.5267 25.4852 58.575 28.8722 58.6403L32.8247 58.7165L29.6864 61.0793C27.2517 62.9125 26.5108 63.5503 26.3814 63.9249C26.2158 64.4043 26.6384 65.8032 28.8094 71.9656C28.9843 72.4614 29.1099 72.8823 29.0887 72.9009C29.0675 72.9195 27.4825 71.7709 25.5665 70.3485C23.3088 68.6724 21.914 67.7363 21.603 67.6881C21.173 67.6217 20.7405 67.8989 17.4267 70.366C15.3935 71.8797 13.73 73.0893 13.73 73.0543C13.73 73.0192 14.3817 71.0857 15.1782 68.7575C15.9747 66.4294 16.6264 64.4104 16.6264 64.2708C16.6264 63.8012 16.0447 63.2701 13.0314 60.9881L10.032 58.7165L13.9843 58.6403C17.3768 58.5749 17.993 58.527 18.3352 58.3025C18.6723 58.0814 18.9416 57.416 20.0799 53.9929L21.4261 49.9449L22.7758 53.9938C23.9142 57.4093 24.1875 58.0836 24.5226 58.3034Z" fill="#B57BFF"/>
</svg>
