<svg width="269" height="175" viewBox="0 0 269 175" fill="none" xmlns="http://www.w3.org/2000/svg">
<path d="M250.591 94.1044L249.88 103.814C249.842 104.334 249.617 104.822 249.248 105.19C248.878 105.557 248.387 105.779 247.867 105.814C247.567 105.834 247.267 105.791 246.984 105.688C246.702 105.586 246.444 105.425 246.227 105.217C246.01 105.01 245.839 104.759 245.724 104.481C245.61 104.203 245.554 103.905 245.561 103.604L245.787 94.1044L254.145 67.298L253.133 50.8753L261.045 50.5928L260.48 69.5231L250.591 94.1044Z" fill="#A0616A"/>
<path d="M262.68 53.928C259.151 53.1142 256.131 54.0628 253.788 57.3618L251.974 43.6394C251.885 42.7773 252.11 41.912 252.607 41.2021C253.104 40.4921 253.84 39.985 254.68 39.7738C255.573 39.5495 256.517 39.6749 257.319 40.1242C258.122 40.5734 258.722 41.3126 258.998 42.1903L262.68 53.928Z" fill="#3E66FB"/>
<path d="M262.68 53.928C259.151 53.1142 256.131 54.0628 253.788 57.3618L251.974 43.6394C251.885 42.7773 252.11 41.912 252.607 41.2021C253.104 40.4921 253.84 39.985 254.68 39.7738C255.573 39.5495 256.517 39.6749 257.319 40.1242C258.122 40.5734 258.722 41.3126 258.998 42.1903L262.68 53.928Z" fill="white" fill-opacity="0.5"/>
<path d="M263.096 37.8214C254.943 34.3538 246.568 36.5508 236.651 38.0757C236.559 36.2291 235.44 33.9817 236.612 32.6934C238.035 31.1283 237.904 29.4837 237.048 27.8297C234.857 23.6002 237.996 19.0998 241.164 15.3577C241.879 14.5161 242.781 13.8549 243.799 13.4277C244.817 13.0006 245.921 12.8195 247.022 12.8992L252.892 13.3185C255.817 13.5274 256.526 15.5301 257.355 18.3429C258.756 20.2492 259.507 22.1501 259.034 24.0412C261.134 25.4759 261.486 27.2077 260.543 29.16C259.743 30.3893 259.752 31.5859 260.579 32.7493C261.667 34.2326 262.499 35.8866 263.043 37.6433L263.096 37.8214Z" fill="#2F2E41"/>
<path d="M233.995 164.379H230.095L227.779 132.169L237.668 131.887L233.995 164.379Z" fill="#A0616A"/>
<path d="M234.277 174.833C233.237 175.308 232.366 171.463 231.489 172.324C229.036 174.736 223.15 174.195 223.15 174.195C222.953 174.132 222.77 174.029 222.613 173.892C222.457 173.756 222.329 173.59 222.239 173.403C222.149 173.216 222.097 173.013 222.088 172.805C222.078 172.598 222.111 172.391 222.184 172.196C222.271 171.964 222.413 171.756 222.599 171.591C222.784 171.425 223.007 171.307 223.248 171.247L225.857 170.595L229.954 163.39L234.136 163.107C235.068 164.296 235.719 165.681 236.039 167.157C236.359 168.634 236.34 170.163 235.984 171.631C235.605 173.18 235.019 174.495 234.277 174.833Z" fill="#2F2E41"/>
<path d="M259.961 164.379H256.061L253.745 132.169L263.916 130.191L259.961 164.379Z" fill="#A0616A"/>
<path d="M260.243 174.833C259.203 175.308 258.332 171.463 257.455 172.325C255.002 174.736 249.116 174.195 249.116 174.195C248.918 174.132 248.736 174.029 248.579 173.893C248.423 173.757 248.295 173.59 248.205 173.403C248.114 173.216 248.063 173.013 248.053 172.806C248.044 172.598 248.077 172.391 248.149 172.197C248.237 171.964 248.379 171.756 248.564 171.591C248.75 171.426 248.972 171.308 249.213 171.247L251.823 170.595L255.92 163.39L260.384 162.825L260.497 163.01C261.36 164.401 261.917 165.96 262.13 167.583C262.342 169.206 262.206 170.856 261.731 172.423C261.36 173.613 260.854 174.554 260.243 174.833Z" fill="#2F2E41"/>
<path d="M268.705 133.624C262.402 136.413 258.627 133.395 252.211 134.307C250.379 134.567 248.221 107.628 246.38 107.741C244.037 107.884 242.007 135.033 239.65 134.94C233.723 134.686 227.844 133.757 222.128 132.169C228.238 108.473 235.452 87.046 235.407 69.4449L253.736 68.0322L256.259 72.0324C260.304 81.523 264.437 92.0628 266.496 103.093L268.705 133.624Z" fill="#2F2E41"/>
<path d="M244.448 32.9965C249.13 32.9965 252.925 29.2016 252.925 24.5202C252.925 19.8389 249.13 16.0439 244.448 16.0439C239.767 16.0439 235.972 19.8389 235.972 24.5202C235.972 29.2016 239.767 32.9965 244.448 32.9965Z" fill="#A0616A"/>
<path d="M253.773 39.4957L243.319 40.0606L241.624 30.7367L250.1 29.3242L253.773 39.4957Z" fill="#A0616A"/>
<path d="M254.584 69.4447L241.189 69.7672L235.407 70.5747C232.569 61.1991 230.179 51.8451 235.972 44.0158L242.753 37.2347L252.925 36.9521L253.06 37.0291C254.675 37.9546 255.927 39.4027 256.609 41.1349C257.291 42.8671 257.363 44.78 256.812 46.5584C254.288 54.7609 254.608 62.5067 254.584 69.4447Z" fill="#3E66FB"/>
<path d="M254.584 69.4447L241.189 69.7672L235.407 70.5747C232.569 61.1991 230.179 51.8451 235.972 44.0158L242.753 37.2347L252.925 36.9521L253.06 37.0291C254.675 37.9546 255.927 39.4027 256.609 41.1349C257.291 42.8671 257.363 44.78 256.812 46.5584C254.288 54.7609 254.608 62.5067 254.584 69.4447Z" fill="white" fill-opacity="0.5"/>
<path d="M254.071 24.4773C254.075 21.947 253.147 19.5038 251.465 17.6133V14.6025H242.274C241.573 14.6025 240.879 14.7406 240.232 15.0088C239.584 15.277 238.996 15.6701 238.5 16.1657C238.005 16.6613 237.611 17.2496 237.343 17.8971C237.075 18.5446 236.937 19.2386 236.937 19.9395H243.064C241.411 22.9806 240.699 26.1692 242.29 29.241C243.25 31.0941 243.292 34.7756 241.977 36.5433C242.669 36.5828 243.362 36.5828 244.053 36.5433C246.892 36.5433 254.636 36.9127 256.506 35.0608C258.399 33.1856 254.071 27.3527 254.071 24.4773Z" fill="#2F2E41"/>
<path d="M239.819 94.9932H185.521C185.178 94.9942 184.85 95.1308 184.607 95.3733C184.365 95.6158 184.228 95.9444 184.227 96.2873V153.28C184.228 153.623 184.365 153.951 184.607 154.194C184.85 154.436 185.178 154.573 185.521 154.574H239.819C240.162 154.573 240.49 154.436 240.733 154.194C240.975 153.951 241.112 153.623 241.113 153.28V96.2873C241.112 95.9444 240.975 95.6158 240.733 95.3733C240.49 95.1308 240.162 94.9942 239.819 94.9932Z" fill="#E6E6E6"/>
<path d="M238.524 96.6104H186.815C186.558 96.6113 186.312 96.7139 186.13 96.8957C185.948 97.0775 185.846 97.3238 185.845 97.581V151.985C185.845 152.242 185.948 152.489 186.13 152.671C186.312 152.853 186.558 152.955 186.815 152.956H238.524C238.782 152.955 239.028 152.853 239.21 152.671C239.392 152.489 239.494 152.242 239.495 151.985V97.581C239.494 97.3238 239.392 97.0773 239.21 96.8955C239.028 96.7136 238.782 96.6111 238.524 96.6104Z" fill="white"/>
<path d="M235.125 95.7215L234.414 105.431C234.376 105.951 234.152 106.44 233.782 106.807C233.412 107.175 232.922 107.396 232.401 107.431C232.101 107.451 231.801 107.408 231.518 107.305C231.236 107.203 230.978 107.042 230.761 106.835C230.544 106.627 230.373 106.376 230.258 106.098C230.144 105.82 230.088 105.522 230.095 105.221L230.322 95.7215L237.385 68.88L237.668 52.4925L245.579 52.21L245.014 71.1403L235.125 95.7215Z" fill="#A0616A"/>
<path d="M246.426 53.622C243.072 52.2581 239.94 52.7148 237.103 55.5998L237.491 41.7635C237.54 40.8983 237.899 40.0796 238.503 39.4576C239.106 38.8356 239.914 38.4519 240.777 38.3768C241.694 38.2972 242.606 38.5709 243.327 39.1419C244.048 39.713 244.523 40.5382 244.656 41.4484L246.426 53.622Z" fill="#3E66FB"/>
<path d="M246.426 53.622C243.072 52.2581 239.94 52.7148 237.103 55.5998L237.491 41.7635C237.54 40.8983 237.899 40.0796 238.503 39.4576C239.106 38.8356 239.914 38.4519 240.777 38.3768C241.694 38.2972 242.606 38.5709 243.327 39.1419C244.048 39.713 244.523 40.5382 244.656 41.4484L246.426 53.622Z" fill="white" fill-opacity="0.5"/>
<path d="M234.687 110.372C234.835 110.372 234.977 110.431 235.081 110.535C235.186 110.64 235.244 110.782 235.244 110.929V112.044C235.244 112.192 235.186 112.334 235.081 112.438C234.977 112.543 234.835 112.602 234.687 112.602H190.652C190.579 112.602 190.506 112.587 190.439 112.559C190.371 112.531 190.31 112.49 190.258 112.438C190.206 112.387 190.165 112.325 190.137 112.258C190.109 112.19 190.095 112.117 190.095 112.044V110.929C190.095 110.856 190.109 110.784 190.137 110.716C190.165 110.649 190.206 110.587 190.258 110.535C190.31 110.484 190.371 110.442 190.439 110.414C190.506 110.386 190.579 110.372 190.652 110.372H234.687Z" fill="#E6E6E6"/>
<path d="M234.687 115.668C234.835 115.668 234.977 115.727 235.081 115.831C235.186 115.936 235.244 116.078 235.244 116.225V117.34C235.244 117.488 235.186 117.63 235.081 117.734C234.977 117.839 234.835 117.898 234.687 117.898H190.652C190.579 117.898 190.506 117.883 190.439 117.855C190.371 117.827 190.31 117.786 190.258 117.734C190.206 117.683 190.165 117.621 190.137 117.554C190.109 117.486 190.095 117.413 190.095 117.34V116.225C190.095 116.152 190.109 116.08 190.137 116.012C190.165 115.944 190.206 115.883 190.258 115.831C190.31 115.779 190.371 115.738 190.439 115.71C190.506 115.682 190.579 115.668 190.652 115.668H234.687Z" fill="#E6E6E6"/>
<path d="M234.687 120.963C234.835 120.963 234.977 121.022 235.081 121.126C235.186 121.231 235.244 121.372 235.244 121.52V122.635C235.244 122.783 235.186 122.925 235.081 123.029C234.977 123.134 234.835 123.192 234.687 123.192H190.652C190.504 123.192 190.363 123.134 190.258 123.029C190.153 122.925 190.095 122.783 190.095 122.635V121.52C190.095 121.372 190.153 121.231 190.258 121.126C190.363 121.022 190.504 120.963 190.652 120.963H234.687Z" fill="#3E66FB"/>
<path d="M234.687 120.963C234.835 120.963 234.977 121.022 235.081 121.126C235.186 121.231 235.244 121.372 235.244 121.52V122.635C235.244 122.783 235.186 122.925 235.081 123.029C234.977 123.134 234.835 123.192 234.687 123.192H190.652C190.504 123.192 190.363 123.134 190.258 123.029C190.153 122.925 190.095 122.783 190.095 122.635V121.52C190.095 121.372 190.153 121.231 190.258 121.126C190.363 121.022 190.504 120.963 190.652 120.963H234.687Z" fill="white" fill-opacity="0.5"/>
<path d="M234.687 126.374C234.835 126.374 234.977 126.433 235.081 126.537C235.186 126.642 235.244 126.784 235.244 126.931V128.046C235.244 128.194 235.186 128.336 235.081 128.44C234.977 128.545 234.835 128.604 234.687 128.604H190.652C190.579 128.604 190.506 128.589 190.439 128.561C190.371 128.533 190.31 128.492 190.258 128.44C190.206 128.389 190.165 128.327 190.137 128.26C190.109 128.192 190.095 128.119 190.095 128.046V126.931C190.095 126.858 190.109 126.786 190.137 126.718C190.165 126.651 190.206 126.589 190.258 126.537C190.31 126.486 190.371 126.444 190.439 126.416C190.506 126.388 190.579 126.374 190.652 126.374H234.687Z" fill="#E6E6E6"/>
<path d="M234.687 131.67C234.835 131.67 234.977 131.729 235.081 131.833C235.186 131.938 235.244 132.079 235.244 132.227V133.342C235.244 133.49 235.186 133.632 235.081 133.736C234.977 133.841 234.835 133.9 234.687 133.9H190.652C190.579 133.9 190.506 133.885 190.439 133.857C190.371 133.829 190.31 133.788 190.258 133.736C190.206 133.685 190.165 133.623 190.137 133.555C190.109 133.488 190.095 133.415 190.095 133.342V132.227C190.095 132.154 190.109 132.082 190.137 132.014C190.165 131.946 190.206 131.885 190.258 131.833C190.31 131.781 190.371 131.74 190.439 131.712C190.506 131.684 190.579 131.67 190.652 131.67H234.687Z" fill="#E6E6E6"/>
<path d="M234.687 136.965C234.835 136.965 234.977 137.024 235.081 137.128C235.186 137.233 235.244 137.374 235.244 137.522V138.637C235.244 138.785 235.186 138.927 235.081 139.031C234.977 139.136 234.835 139.194 234.687 139.194H190.652C190.504 139.194 190.363 139.136 190.258 139.031C190.153 138.927 190.095 138.785 190.095 138.637V137.522C190.095 137.374 190.153 137.233 190.258 137.128C190.363 137.024 190.504 136.965 190.652 136.965H234.687Z" fill="#E6E6E6"/>
<path d="M40.3549 162.866L36.0312 163.106L26.1828 96.8089L16.9348 162.986L12.2508 161.905C9.64971 133.378 6.26308 103.892 8.64772 91.0439H41.556C46.4428 103.815 43.1808 133.801 40.3549 162.866Z" fill="#2F2E41"/>
<path d="M13.4546 174.869C12.885 174.839 12.3288 174.685 11.826 174.415C11.3231 174.146 10.886 173.769 10.5458 173.312C10.2056 172.854 9.97072 172.326 9.85804 171.767C9.74536 171.208 9.75762 170.631 9.89394 170.077L11.8615 162.084C13.5062 160.041 14.9785 160.13 16.3002 162.084L17.6511 161.505L18.6161 168.453L17.2852 172.341C16.9998 173.116 16.4741 173.779 15.7849 174.234C15.0957 174.688 14.2792 174.911 13.4546 174.869Z" fill="#2F2E41"/>
<path d="M39.6312 174.869C40.2008 174.839 40.7569 174.685 41.2598 174.415C41.7627 174.146 42.1998 173.769 42.54 173.312C42.8802 172.854 43.1151 172.326 43.2277 171.767C43.3404 171.208 43.3282 170.631 43.1918 170.077L41.2243 162.084C39.5796 160.041 38.1073 160.13 36.7856 162.084L35.4347 161.505L34.4697 168.453L35.8006 172.341C36.086 173.116 36.6117 173.779 37.3009 174.234C37.9901 174.688 38.8066 174.911 39.6312 174.869Z" fill="#2F2E41"/>
<path d="M27.1434 23.3054C32.4499 23.3054 36.7516 19.0036 36.7516 13.6971C36.7516 8.39062 32.4499 4.08887 27.1434 4.08887C21.8369 4.08887 17.5352 8.39062 17.5352 13.6971C17.5352 19.0036 21.8369 23.3054 27.1434 23.3054Z" fill="#FFB8B8"/>
<path d="M32.9082 31.4721H20.6577L21.3783 18.7412H32.9082V31.4721Z" fill="#FFB8B8"/>
<path d="M45.8792 92.4853H6.96582C12.6395 73.3546 11.642 52.8607 7.44624 31.7132L18.0153 28.3503L20.8978 25.9482C24.5149 30.3536 28.5146 30.3172 32.9081 25.708L36.5112 28.3503L47.0802 31.9534C41.5056 52.3278 40.5989 72.5244 45.8792 92.4853Z" fill="#3E66FB"/>
<path d="M45.8792 92.4853H6.96582C12.6395 73.3546 11.642 52.8607 7.44624 31.7132L18.0153 28.3503L20.8978 25.9482C24.5149 30.3536 28.5146 30.3172 32.9081 25.708L36.5112 28.3503L47.0802 31.9534C41.5056 52.3278 40.5989 72.5244 45.8792 92.4853Z" fill="white" fill-opacity="0.5"/>
<path d="M16.8816 11.215C16.4781 10.0621 16.3221 8.83704 16.4237 7.61976C16.5253 6.40248 16.8822 5.22026 17.4712 4.15014C18.6454 2.0679 20.9065 0.116011 25.2534 0.00590948C34.7377 -0.234299 38.8475 6.91669 38.3131 9.01364C37.7788 11.1106 35.867 16.0997 35.867 16.0997C35.867 16.0997 37.0525 11.2956 34.6815 10.8152C32.3104 10.3348 23.1226 8.41312 20.4551 10.575C19.6944 11.1575 19.1017 11.9312 18.7372 12.8172C18.3728 13.7033 18.2497 14.6702 18.3805 15.6193L16.8816 11.215Z" fill="#2F2E41"/>
<path d="M55.7215 95.3164H1.42406C1.08159 95.3189 0.753837 95.456 0.511664 95.6982C0.26949 95.9404 0.132348 96.2681 0.129883 96.6106V153.603C0.130887 153.946 0.267559 154.275 0.510048 154.517C0.752537 154.76 1.08113 154.896 1.42406 154.897H55.7215C56.0644 154.896 56.393 154.76 56.6355 154.517C56.878 154.275 57.0147 153.946 57.0157 153.603V96.6106C57.0147 96.2677 56.878 95.9391 56.6355 95.6966C56.393 95.4541 56.0644 95.3174 55.7215 95.3164Z" fill="#E6E6E6"/>
<path d="M54.4268 96.9346H2.71771C2.46051 96.9353 2.21406 97.0378 2.0322 97.2197C1.85033 97.4016 1.74782 97.648 1.74707 97.9052V152.309C1.74782 152.567 1.85033 152.813 2.0322 152.995C2.21406 153.177 2.46051 153.279 2.71771 153.28H54.4268C54.684 153.279 54.9304 153.177 55.1123 152.995C55.2942 152.813 55.3967 152.567 55.3974 152.309V97.9052C55.3967 97.648 55.2942 97.4016 55.1123 97.2197C54.9304 97.0378 54.684 96.9353 54.4268 96.9346Z" fill="white"/>
<path d="M44.6195 99.9623C44.1282 99.7712 43.6803 99.4834 43.3024 99.1159C42.9245 98.7484 42.6243 98.3087 42.4196 97.8229C42.2149 97.3372 42.1099 96.8152 42.1108 96.2881C42.1118 95.761 42.2186 95.2394 42.425 94.7544L45.6392 87.2009L45.1588 63.1803L43.4774 55.0133L52.1248 51.6504L53.8063 62.9401L50.6836 88.8823L49.9636 96.6578C49.9075 97.2643 49.7113 97.8495 49.3905 98.3673C49.0697 98.8851 48.633 99.3214 48.115 99.6417C47.5969 99.9621 47.0115 100.158 46.4049 100.213C45.7984 100.269 45.1872 100.183 44.6195 99.9623Z" fill="#FFB8B8"/>
<path d="M9.18677 99.9623C9.67805 99.7712 10.1259 99.4834 10.5038 99.1159C10.8817 98.7484 11.182 98.3087 11.3866 97.8229C11.5913 97.3372 11.6963 96.8152 11.6954 96.2881C11.6945 95.761 11.5876 95.2394 11.3812 94.7543L8.167 87.2009L8.64742 63.1803L10.3289 55.0133L1.68144 51.6504L0 62.9401L3.12267 88.8823L3.84263 96.6578C3.89879 97.2643 4.09499 97.8495 4.41579 98.3673C4.73659 98.8851 5.17321 99.3214 5.69129 99.6417C6.20936 99.962 6.79474 100.158 7.4013 100.213C8.00787 100.269 8.61907 100.183 9.18677 99.9623Z" fill="#FFB8B8"/>
<path d="M52.8453 52.3706C49.4171 53.2467 46.1663 54.7095 43.2371 56.6943L41.0752 50.2088L46.5999 31.7129C48.0905 32.2097 49.3988 33.1402 50.3573 34.3852C51.3158 35.6301 51.8809 37.1329 51.9801 38.7009C51.8523 43.2743 52.1419 47.8498 52.8453 52.3706Z" fill="#3E66FB"/>
<path d="M52.8453 52.3706C49.4171 53.2467 46.1663 54.7095 43.2371 56.6943L41.0752 50.2088L46.5999 31.7129C48.0905 32.2097 49.3988 33.1402 50.3573 34.3852C51.3158 35.6301 51.8809 37.1329 51.9801 38.7009C51.8523 43.2743 52.1419 47.8498 52.8453 52.3706Z" fill="white" fill-opacity="0.5"/>
<path d="M0.960938 52.3706C4.38917 53.2466 7.6399 54.7095 10.5692 56.6943L12.731 50.2087L7.92692 31.4727C4.87781 32.489 2.02915 35.4932 1.82612 38.7009C1.9539 43.2743 1.66431 47.8498 0.960938 52.3706Z" fill="#3E66FB"/>
<path d="M0.960938 52.3706C4.38917 53.2466 7.6399 54.7095 10.5692 56.6943L12.731 50.2087L7.92692 31.4727C4.87781 32.489 2.02915 35.4932 1.82612 38.7009C1.9539 43.2743 1.66431 47.8498 0.960938 52.3706Z" fill="white" fill-opacity="0.5"/>
<path d="M50.5898 110.396C50.7377 110.396 50.8795 110.454 50.984 110.559C51.0885 110.663 51.1472 110.805 51.1472 110.953V112.068C51.1472 112.216 51.0885 112.357 50.984 112.462C50.8795 112.566 50.7377 112.625 50.5898 112.625H6.55496C6.48176 112.625 6.40928 112.611 6.34165 112.583C6.27402 112.555 6.21257 112.514 6.16082 112.462C6.10906 112.41 6.068 112.349 6.03999 112.281C6.01198 112.213 5.99756 112.141 5.99756 112.068V110.953C5.99756 110.88 6.01198 110.807 6.03999 110.74C6.068 110.672 6.10906 110.611 6.16082 110.559C6.21257 110.507 6.27402 110.466 6.34165 110.438C6.40928 110.41 6.48176 110.396 6.55496 110.396H50.5898Z" fill="#E6E6E6"/>
<path d="M50.5898 115.69C50.7377 115.69 50.8795 115.749 50.984 115.854C51.0885 115.958 51.1472 116.1 51.1472 116.248V117.363C51.1472 117.51 51.0885 117.652 50.984 117.757C50.8795 117.861 50.7377 117.92 50.5898 117.92H6.55496C6.48176 117.92 6.40928 117.906 6.34165 117.878C6.27402 117.85 6.21257 117.809 6.16082 117.757C6.10906 117.705 6.068 117.644 6.03999 117.576C6.01198 117.508 5.99756 117.436 5.99756 117.363V116.248C5.99756 116.175 6.01198 116.102 6.03999 116.035C6.068 115.967 6.10906 115.905 6.16082 115.854C6.21257 115.802 6.27402 115.761 6.34165 115.733C6.40928 115.705 6.48176 115.69 6.55496 115.69H50.5898Z" fill="#E6E6E6"/>
<path d="M50.5898 120.985C50.7377 120.985 50.8795 121.044 50.984 121.149C51.0885 121.253 51.1472 121.395 51.1472 121.543V122.658C51.1472 122.805 51.0885 122.947 50.984 123.052C50.8795 123.156 50.7377 123.215 50.5898 123.215H6.55496C6.40713 123.215 6.26535 123.156 6.16082 123.052C6.05628 122.947 5.99756 122.805 5.99756 122.658V121.543C5.99756 121.395 6.05628 121.253 6.16082 121.149C6.26535 121.044 6.40713 120.985 6.55496 120.985H50.5898Z" fill="#3E66FB"/>
<path d="M50.5898 120.985C50.7377 120.985 50.8795 121.044 50.984 121.149C51.0885 121.253 51.1472 121.395 51.1472 121.543V122.658C51.1472 122.805 51.0885 122.947 50.984 123.052C50.8795 123.156 50.7377 123.215 50.5898 123.215H6.55496C6.40713 123.215 6.26535 123.156 6.16082 123.052C6.05628 122.947 5.99756 122.805 5.99756 122.658V121.543C5.99756 121.395 6.05628 121.253 6.16082 121.149C6.26535 121.044 6.40713 120.985 6.55496 120.985H50.5898Z" fill="white" fill-opacity="0.5"/>
<path d="M50.5898 126.396C50.7377 126.396 50.8795 126.455 50.984 126.56C51.0885 126.664 51.1472 126.806 51.1472 126.954V128.069C51.1472 128.217 51.0885 128.358 50.984 128.463C50.8795 128.567 50.7377 128.626 50.5898 128.626H6.55496C6.48176 128.626 6.40928 128.612 6.34165 128.584C6.27402 128.556 6.21257 128.515 6.16082 128.463C6.10906 128.411 6.068 128.35 6.03999 128.282C6.01198 128.214 5.99756 128.142 5.99756 128.069V126.954C5.99756 126.881 6.01198 126.808 6.03999 126.741C6.068 126.673 6.10906 126.612 6.16082 126.56C6.21257 126.508 6.27402 126.467 6.34165 126.439C6.40928 126.411 6.48176 126.396 6.55496 126.396H50.5898Z" fill="#E6E6E6"/>
<path d="M50.5898 131.692C50.7377 131.692 50.8795 131.751 50.984 131.856C51.0885 131.96 51.1472 132.102 51.1472 132.25V133.365C51.1472 133.512 51.0885 133.654 50.984 133.759C50.8795 133.863 50.7377 133.922 50.5898 133.922H6.55496C6.48176 133.922 6.40928 133.908 6.34165 133.88C6.27402 133.852 6.21257 133.81 6.16082 133.759C6.10906 133.707 6.068 133.646 6.03999 133.578C6.01198 133.51 5.99756 133.438 5.99756 133.365V132.25C5.99756 132.177 6.01198 132.104 6.03999 132.036C6.068 131.969 6.10906 131.907 6.16082 131.856C6.21257 131.804 6.27402 131.763 6.34165 131.735C6.40928 131.707 6.48176 131.692 6.55496 131.692H50.5898Z" fill="#E6E6E6"/>
<path d="M50.5898 136.987C50.7377 136.987 50.8795 137.046 50.984 137.151C51.0885 137.255 51.1472 137.397 51.1472 137.545V138.66C51.1472 138.807 51.0885 138.949 50.984 139.054C50.8795 139.158 50.7377 139.217 50.5898 139.217H6.55496C6.40713 139.217 6.26535 139.158 6.16082 139.054C6.05628 138.949 5.99756 138.807 5.99756 138.66V137.545C5.99756 137.397 6.05628 137.255 6.16082 137.151C6.26535 137.046 6.40713 136.987 6.55496 136.987H50.5898Z" fill="#E6E6E6"/>
<path d="M160.479 56.9443H106.181C105.838 56.9448 105.509 57.0813 105.267 57.3239C105.024 57.5665 104.888 57.8954 104.887 58.2385V153.287C104.888 153.629 105.025 153.958 105.267 154.201C105.51 154.443 105.838 154.58 106.181 154.581H160.479C160.822 154.58 161.15 154.443 161.393 154.201C161.635 153.958 161.772 153.629 161.773 153.287V58.2385C161.773 57.8954 161.636 57.5665 161.393 57.3239C161.151 57.0813 160.822 56.9448 160.479 56.9443Z" fill="#E6E6E6"/>
<path d="M160.133 59.3251C160.106 59.2092 160.06 59.0987 159.997 58.9983C159.908 58.8644 159.787 58.7545 159.645 58.6784C159.504 58.6022 159.345 58.5621 159.185 58.5615H107.476C107.218 58.5617 106.971 58.6641 106.789 58.846C106.607 59.028 106.505 59.2748 106.505 59.5322V151.992C106.506 152.249 106.608 152.495 106.79 152.677C106.972 152.859 107.218 152.962 107.476 152.962H159.185C159.442 152.962 159.688 152.859 159.87 152.677C160.052 152.495 160.154 152.249 160.155 151.992V59.5322C160.156 59.4625 160.148 59.393 160.133 59.3251Z" fill="white"/>
<path d="M155.348 108.777C155.496 108.777 155.637 108.836 155.742 108.941C155.846 109.045 155.905 109.187 155.905 109.335V110.45C155.905 110.597 155.846 110.739 155.742 110.844C155.637 110.948 155.496 111.007 155.348 111.007H111.313C111.24 111.007 111.167 110.993 111.099 110.965C111.032 110.937 110.97 110.895 110.919 110.844C110.867 110.792 110.826 110.73 110.798 110.663C110.77 110.595 110.755 110.523 110.755 110.45V109.335C110.755 109.262 110.77 109.189 110.798 109.121C110.826 109.054 110.867 108.992 110.919 108.941C110.97 108.889 111.032 108.848 111.099 108.82C111.167 108.792 111.24 108.777 111.313 108.777H155.348Z" fill="#E6E6E6"/>
<path d="M155.348 114.073C155.496 114.073 155.637 114.132 155.742 114.236C155.846 114.341 155.905 114.483 155.905 114.631V115.745C155.905 115.893 155.846 116.035 155.742 116.14C155.637 116.244 155.496 116.303 155.348 116.303H111.313C111.24 116.303 111.167 116.288 111.099 116.26C111.032 116.232 110.97 116.191 110.919 116.14C110.867 116.088 110.826 116.026 110.798 115.959C110.77 115.891 110.755 115.819 110.755 115.745V114.631C110.755 114.557 110.77 114.485 110.798 114.417C110.826 114.35 110.867 114.288 110.919 114.236C110.97 114.185 111.032 114.144 111.099 114.116C111.167 114.088 111.24 114.073 111.313 114.073H155.348Z" fill="#E6E6E6"/>
<path d="M155.348 119.368C155.496 119.368 155.637 119.427 155.742 119.531C155.846 119.636 155.905 119.778 155.905 119.926V121.04C155.905 121.188 155.846 121.33 155.742 121.435C155.637 121.539 155.496 121.598 155.348 121.598H111.313C111.165 121.598 111.023 121.539 110.919 121.435C110.814 121.33 110.755 121.188 110.755 121.04V119.926C110.755 119.778 110.814 119.636 110.919 119.531C111.023 119.427 111.165 119.368 111.313 119.368H155.348Z" fill="#3E66FB"/>
<path d="M155.348 119.368C155.496 119.368 155.637 119.427 155.742 119.531C155.846 119.636 155.905 119.778 155.905 119.926V121.04C155.905 121.188 155.846 121.33 155.742 121.435C155.637 121.539 155.496 121.598 155.348 121.598H111.313C111.165 121.598 111.023 121.539 110.919 121.435C110.814 121.33 110.755 121.188 110.755 121.04V119.926C110.755 119.778 110.814 119.636 110.919 119.531C111.023 119.427 111.165 119.368 111.313 119.368H155.348Z" fill="white" fill-opacity="0.5"/>
<path d="M155.348 124.779C155.496 124.779 155.637 124.838 155.742 124.943C155.846 125.047 155.905 125.189 155.905 125.337V126.452C155.905 126.599 155.846 126.741 155.742 126.846C155.637 126.95 155.496 127.009 155.348 127.009H111.313C111.24 127.009 111.167 126.994 111.099 126.966C111.032 126.938 110.97 126.897 110.919 126.846C110.867 126.794 110.826 126.732 110.798 126.665C110.77 126.597 110.755 126.525 110.755 126.452V125.337C110.755 125.264 110.77 125.191 110.798 125.123C110.826 125.056 110.867 124.994 110.919 124.943C110.97 124.891 111.032 124.85 111.099 124.822C111.167 124.794 111.24 124.779 111.313 124.779H155.348Z" fill="#E6E6E6"/>
<path d="M155.348 130.074C155.496 130.074 155.637 130.133 155.742 130.237C155.846 130.342 155.905 130.484 155.905 130.632V131.746C155.905 131.894 155.846 132.036 155.742 132.141C155.637 132.245 155.496 132.304 155.348 132.304H111.313C111.24 132.304 111.167 132.289 111.099 132.261C111.032 132.233 110.97 132.192 110.919 132.141C110.867 132.089 110.826 132.027 110.798 131.96C110.77 131.892 110.755 131.82 110.755 131.746V130.632C110.755 130.558 110.77 130.486 110.798 130.418C110.826 130.351 110.867 130.289 110.919 130.237C110.97 130.186 111.032 130.145 111.099 130.117C111.167 130.089 111.24 130.074 111.313 130.074H155.348Z" fill="#E6E6E6"/>
<path d="M155.348 135.37C155.496 135.37 155.637 135.429 155.742 135.533C155.846 135.638 155.905 135.78 155.905 135.928V137.042C155.905 137.19 155.846 137.332 155.742 137.436C155.637 137.541 155.496 137.6 155.348 137.6H111.313C111.165 137.6 111.023 137.541 110.919 137.436C110.814 137.332 110.755 137.19 110.755 137.042V135.928C110.755 135.78 110.814 135.638 110.919 135.533C111.023 135.429 111.165 135.37 111.313 135.37H155.348Z" fill="#E6E6E6"/>
<path d="M111.631 67.4434C111.459 67.4435 111.295 67.5118 111.174 67.6331C111.052 67.7544 110.984 67.9189 110.984 68.0905V98.1529C110.984 98.3244 111.052 98.4889 111.174 98.6102C111.295 98.7315 111.459 98.7998 111.631 98.8H155.028C155.2 98.7998 155.364 98.7315 155.486 98.6102C155.607 98.4889 155.675 98.3244 155.676 98.1529V68.0905C155.675 67.9189 155.607 67.7544 155.486 67.6331C155.365 67.5118 155.2 67.4435 155.028 67.4434H111.631Z" fill="#3E66FB"/>
<path d="M111.631 67.4434C111.459 67.4435 111.295 67.5118 111.174 67.6331C111.052 67.7544 110.984 67.9189 110.984 68.0905V98.1529C110.984 98.3244 111.052 98.4889 111.174 98.6102C111.295 98.7315 111.459 98.7998 111.631 98.8H155.028C155.2 98.7998 155.364 98.7315 155.486 98.6102C155.607 98.4889 155.675 98.3244 155.676 98.1529V68.0905C155.675 67.9189 155.607 67.7544 155.486 67.6331C155.365 67.5118 155.2 67.4435 155.028 67.4434H111.631Z" fill="white" fill-opacity="0.5"/>
<path d="M179.028 44.0966C180.207 44.5977 181.38 45.1533 182.512 45.7481L182.813 45.1753C181.665 44.5723 180.476 44.0091 179.281 43.501L179.028 44.0966Z" fill="#CCCCCC"/>
<path d="M192.427 51.8428L191.996 52.3253C192.95 53.1787 193.88 54.0825 194.76 55.0113L195.229 54.5664C194.338 53.6246 193.395 52.7082 192.427 51.8428Z" fill="#CCCCCC"/>
<path d="M185.851 47.6783C186.932 48.3642 187.998 49.1033 189.018 49.875L189.409 49.3587C188.374 48.5766 187.293 47.8273 186.197 47.1318L185.851 47.6783Z" fill="#CCCCCC"/>
<path d="M171.719 41.6698C172.964 41.9737 174.21 42.3322 175.423 42.7349L175.627 42.1207C174.397 41.7126 173.134 41.3492 171.872 41.041L171.719 41.6698Z" fill="#CCCCCC"/>
<path d="M207.224 78.7041L206.585 78.8066C206.787 80.0673 206.937 81.3546 207.031 82.6326L207.676 82.5852C207.581 81.2888 207.429 79.9831 207.224 78.7041Z" fill="#CCCCCC"/>
<path d="M204.71 71.3426C205.128 72.551 205.498 73.793 205.81 75.0341L206.437 74.8764C206.121 73.6173 205.746 72.3571 205.322 71.1309L204.71 71.3426Z" fill="#CCCCCC"/>
<path d="M201.576 64.3131C202.196 65.4338 202.774 66.5937 203.295 67.7603L203.886 67.4968C203.358 66.3133 202.771 65.1368 202.142 64L201.576 64.3131Z" fill="#CCCCCC"/>
<path d="M197.291 57.9168C198.091 58.9164 198.857 59.962 199.569 61.0245L200.107 60.6643C199.385 59.5867 198.607 58.5263 197.797 57.5127L197.291 57.9168Z" fill="#CCCCCC"/>
<path d="M165.901 37.1514C164.433 38.3179 162.103 39.3762 160.236 39.9729C162.04 40.7378 164.265 42.0039 165.621 43.2993L164.752 40.5068C165.82 40.6059 166.889 40.7388 167.94 40.9072L168.043 40.2683C166.967 40.0958 165.872 39.9602 164.779 39.8595L165.901 37.1514Z" fill="#CCCCCC"/>
<path d="M62.8779 67.4968L63.4688 67.7603C63.989 66.5942 64.5672 65.4343 65.1875 64.3131L64.6213 64C63.992 65.1373 63.4056 66.3138 62.8779 67.4968Z" fill="#CCCCCC"/>
<path d="M60.3262 74.8763L60.9537 75.0339C61.2649 73.7946 61.6349 72.5525 62.0535 71.3422L61.4418 71.1309C61.0173 72.3587 60.6418 73.6189 60.3262 74.8763Z" fill="#CCCCCC"/>
<path d="M59.0874 82.5844L59.7329 82.6318C59.8261 81.3537 59.976 80.0665 60.1786 78.8058L59.5397 78.7031C59.3343 79.9821 59.1822 81.288 59.0874 82.5844Z" fill="#CCCCCC"/>
<path d="M66.6567 60.6643L67.1942 61.0245C67.9059 59.9628 68.6724 58.9173 69.4728 57.9168L68.9675 57.5127C68.1558 58.5271 67.3784 59.5875 66.6567 60.6643Z" fill="#CCCCCC"/>
<path d="M83.9502 45.1753L84.251 45.7481C85.3851 45.1528 86.5575 44.5972 87.7354 44.0966L87.4823 43.501C86.2883 44.0086 85.1 44.5718 83.9502 45.1753Z" fill="#CCCCCC"/>
<path d="M91.1372 42.1207L91.341 42.7349C92.5537 42.3322 93.8 41.9738 95.0452 41.6698L94.8916 41.041C93.6295 41.3493 92.3663 41.7126 91.1372 42.1207Z" fill="#CCCCCC"/>
<path d="M71.5337 54.5654L72.0035 55.0103C72.8827 54.0821 73.8127 53.1783 74.7677 52.3243L74.3364 51.8418C73.368 52.7079 72.425 53.6242 71.5337 54.5654Z" fill="#CCCCCC"/>
<path d="M77.3545 49.3586L77.7447 49.8749C78.7659 49.103 79.8318 48.3639 80.913 47.6783L80.5664 47.1318C79.4703 47.827 78.3897 48.5761 77.3545 49.3586Z" fill="#CCCCCC"/>
<path d="M106.528 39.9725C104.661 39.3752 102.33 38.3169 100.862 37.1504L101.984 39.8592C100.892 39.9598 99.7967 40.0955 98.7212 40.268L98.8236 40.9068C99.8743 40.7384 100.944 40.6056 102.011 40.5065L101.143 43.2983C102.499 42.0029 104.723 40.7368 106.528 39.9725Z" fill="#CCCCCC"/>
<path d="M133.33 50.0022C131.346 50.0022 129.407 49.414 127.757 48.3119C126.108 47.2098 124.822 45.6433 124.063 43.8106C123.304 41.9779 123.106 39.9612 123.493 38.0156C123.88 36.07 124.835 34.2828 126.238 32.8801C127.64 31.4774 129.427 30.5221 131.373 30.1351C133.319 29.7481 135.335 29.9467 137.168 30.7059C139.001 31.465 140.567 32.7506 141.669 34.4C142.771 36.0494 143.36 37.9886 143.36 39.9723C143.357 42.6315 142.299 45.1809 140.419 47.0612C138.538 48.9415 135.989 49.9992 133.33 50.0022ZM133.33 30.5895C131.474 30.5895 129.66 31.1398 128.117 32.1708C126.574 33.2018 125.371 34.6672 124.661 36.3816C123.951 38.0961 123.765 39.9827 124.127 41.8028C124.489 43.6229 125.383 45.2947 126.695 46.607C128.007 47.9192 129.679 48.8128 131.499 49.1748C133.319 49.5369 135.206 49.3511 136.92 48.6409C138.635 47.9307 140.1 46.7281 141.131 45.1851C142.162 43.6421 142.713 41.8281 142.713 39.9723C142.71 37.4847 141.72 35.0998 139.961 33.3407C138.202 31.5817 135.817 30.5923 133.33 30.5895Z" fill="#3E66FB"/>
<path d="M133.33 50.0022C131.346 50.0022 129.407 49.414 127.757 48.3119C126.108 47.2098 124.822 45.6433 124.063 43.8106C123.304 41.9779 123.106 39.9612 123.493 38.0156C123.88 36.07 124.835 34.2828 126.238 32.8801C127.64 31.4774 129.427 30.5221 131.373 30.1351C133.319 29.7481 135.335 29.9467 137.168 30.7059C139.001 31.465 140.567 32.7506 141.669 34.4C142.771 36.0494 143.36 37.9886 143.36 39.9723C143.357 42.6315 142.299 45.1809 140.419 47.0612C138.538 48.9415 135.989 49.9992 133.33 50.0022ZM133.33 30.5895C131.474 30.5895 129.66 31.1398 128.117 32.1708C126.574 33.2018 125.371 34.6672 124.661 36.3816C123.951 38.0961 123.765 39.9827 124.127 41.8028C124.489 43.6229 125.383 45.2947 126.695 46.607C128.007 47.9192 129.679 48.8128 131.499 49.1748C133.319 49.5369 135.206 49.3511 136.92 48.6409C138.635 47.9307 140.1 46.7281 141.131 45.1851C142.162 43.6421 142.713 41.8281 142.713 39.9723C142.71 37.4847 141.72 35.0998 139.961 33.3407C138.202 31.5817 135.817 30.5923 133.33 30.5895Z" fill="white" fill-opacity="0.5"/>
<path d="M134.301 35.1201H132.359V44.8265H134.301V35.1201Z" fill="#3E66FB"/>
<path d="M134.301 35.1201H132.359V44.8265H134.301V35.1201Z" fill="white" fill-opacity="0.5"/>
<path d="M138.183 40.9442V39.0029H128.477V40.9442H138.183Z" fill="#3E66FB"/>
<path d="M138.183 40.9442V39.0029H128.477V40.9442H138.183Z" fill="white" fill-opacity="0.5"/>
</svg>
