<svg width="20" height="20" viewBox="0 0 20 20" fill="none" xmlns="http://www.w3.org/2000/svg">
<path opacity="0.4" d="M14.0841 20L5.91611 20C2.37711 20 0.000106911 17.724 0.000107059 14.335L0.000107438 5.665C0.000107586 2.276 2.37711 -7.70326e-07 5.91611 -6.15631e-07L14.0841 -2.58597e-07C17.6221 -1.03946e-07 20.0001 2.277 20.0001 5.666L20.0001 14.335C20.0001 17.724 17.6221 20 14.0841 20Z" fill="#B57BFF"/>
<path d="M9.1446 14.2797L5.3796 10.5317C5.0966 10.2497 5.0966 9.75067 5.3796 9.46767L9.1446 5.71967C9.4386 5.42767 9.9136 5.42867 10.2056 5.72267C10.4976 6.01667 10.4976 6.49067 10.2036 6.78367L7.7266 9.25067L14.0816 9.25067C14.4966 9.25067 14.8316 9.58667 14.8316 10.0007C14.8316 10.4147 14.4966 10.7507 14.0816 10.7507L7.7266 10.7507L10.2036 13.2167C10.3506 13.3637 10.4236 13.5557 10.4236 13.7487C10.4236 13.9397 10.3506 14.1317 10.2056 14.2777C9.9136 14.5707 9.4386 14.5717 9.1446 14.2797Z" fill="#B57BFF"/>
</svg>
