<svg width="20" height="20" viewBox="0 0 20 20" fill="none" xmlns="http://www.w3.org/2000/svg">
<path opacity="0.4" d="M5.91589 20L14.0839 20C17.6229 20 19.9999 17.724 19.9999 14.335L19.9999 5.665C19.9999 2.276 17.6229 -7.70326e-07 14.0839 -6.15631e-07L5.91589 -2.58597e-07C2.37789 -1.03946e-07 -0.000107586 2.277 -0.000107438 5.666L-0.000107059 14.335C-0.000106911 17.724 2.37789 20 5.91589 20Z" fill="#B57BFF"/>
<path d="M10.8554 14.2797L14.6204 10.5317C14.9034 10.2497 14.9034 9.75067 14.6204 9.46767L10.8554 5.71967C10.5614 5.42767 10.0864 5.42867 9.7944 5.72267C9.5024 6.01667 9.5024 6.49067 9.7964 6.78367L12.2734 9.25067L5.9184 9.25067C5.5034 9.25067 5.1684 9.58667 5.1684 10.0007C5.1684 10.4147 5.5034 10.7507 5.9184 10.7507L12.2734 10.7507L9.7964 13.2167C9.6494 13.3637 9.5764 13.5557 9.5764 13.7487C9.5764 13.9397 9.6494 14.1317 9.7944 14.2777C10.0864 14.5707 10.5614 14.5717 10.8554 14.2797Z" fill="#B57BFF"/>
</svg>
