<svg width="134" height="220" viewBox="0 0 134 220" fill="none" xmlns="http://www.w3.org/2000/svg">
<path d="M38.8412 208.537C38.8198 208.696 38.7461 208.823 38.6202 208.919C38.4942 209.015 38.3519 209.052 38.1934 209.031L22.7097 206.942C22.5352 206.918 22.3989 206.851 22.3008 206.741C22.2048 206.615 22.1685 206.465 22.1921 206.291L22.9751 200.487C23.6062 195.81 26.0846 193.714 30.4104 194.201C31.3343 194.293 31.9549 194.361 32.272 194.404C32.5733 194.444 33.1816 194.543 34.097 194.699C36.3083 195.061 37.8681 195.885 38.7765 197.17C39.6711 198.437 39.959 200.252 39.6403 202.615L38.8412 208.537ZM36.8652 202.361C37.0428 201.045 36.8778 200.054 36.3703 199.389C35.8628 198.723 34.9293 198.282 33.5699 198.066C32.6228 197.906 32.0304 197.81 31.7925 197.778C31.5388 197.744 30.95 197.68 30.0261 197.588C28.7216 197.444 27.7263 197.641 27.0403 198.178C26.3385 198.713 25.8977 199.647 25.718 200.979L25.3265 203.88L36.4577 205.382L36.8652 202.361Z" fill="white"/>
<path d="M42.1062 186.939C42.0746 187.096 41.9928 187.218 41.8609 187.306C41.729 187.394 41.5846 187.422 41.4278 187.39L26.1115 184.305C25.939 184.27 25.8073 184.194 25.7165 184.078C25.6288 183.946 25.6023 183.794 25.6371 183.621L27.7274 173.246C27.7622 173.073 27.8455 172.943 27.9774 172.856C28.1093 172.768 28.2616 172.741 28.4341 172.776L30.0104 173.094C30.1829 173.128 30.3131 173.212 30.4007 173.344C30.4727 173.472 30.4913 173.623 30.4566 173.796L28.9019 181.513L33.0191 182.342L34.4696 175.143C34.5043 174.97 34.5877 174.84 34.7196 174.752C34.8515 174.665 35.0037 174.638 35.1762 174.673L36.6585 174.972C36.831 175.006 36.9611 175.09 37.0488 175.222C37.1208 175.35 37.1394 175.501 37.1046 175.674L35.6542 182.873L39.9126 183.731L41.5053 175.826C41.54 175.653 41.6234 175.523 41.7553 175.435C41.8715 175.345 42.0159 175.317 42.1884 175.351L43.7883 175.674C43.9608 175.708 44.0909 175.792 44.1786 175.924C44.2506 176.052 44.2692 176.203 44.2344 176.376L42.1062 186.939Z" fill="white"/>
<path d="M46.3209 167.54C46.2797 167.695 46.1906 167.812 46.0535 167.891C45.9165 167.971 45.7706 167.99 45.616 167.949L30.5188 163.926C30.3488 163.88 30.222 163.797 30.1385 163.675C30.0591 163.538 30.042 163.385 30.0874 163.215L32.7755 153.127C32.8208 152.957 32.912 152.832 33.0491 152.752C33.1861 152.673 33.3397 152.656 33.5097 152.701L35.1795 153.146C35.3341 153.188 35.4511 153.277 35.5305 153.414C35.6099 153.551 35.6269 153.704 35.5816 153.874L33.6041 161.295L37.964 162.457L39.8178 155.5C39.8632 155.33 39.9544 155.205 40.0914 155.126C40.2285 155.046 40.3743 155.027 40.5289 155.069L42.1987 155.513C42.3533 155.555 42.4703 155.644 42.5496 155.781C42.629 155.918 42.6461 156.071 42.6007 156.242L40.7469 163.199L46.475 164.725C46.6296 164.766 46.7466 164.855 46.826 164.993C46.9054 165.13 46.9224 165.283 46.8771 165.453L46.3209 167.54Z" fill="white"/>
<path d="M51.7634 148.425C51.7144 148.577 51.6195 148.689 51.4786 148.762C51.3377 148.834 51.191 148.846 51.0387 148.797L36.1426 144.004C35.975 143.95 35.8627 143.856 35.8056 143.72C35.7333 143.579 35.7216 143.432 35.7706 143.28L36.4762 141.086C36.5301 140.919 36.6251 140.807 36.7611 140.749C36.8868 140.672 37.0334 140.661 37.201 140.714L52.0971 145.507C52.2494 145.556 52.3617 145.651 52.4341 145.791C52.5113 145.917 52.5229 146.064 52.469 146.231L51.7634 148.425Z" fill="white"/>
<path d="M55.841 136.215C55.7839 136.364 55.683 136.471 55.5384 136.536C55.3938 136.601 55.2468 136.604 55.0973 136.547L40.5034 130.968C40.339 130.905 40.2217 130.809 40.1513 130.679C40.0867 130.535 40.0858 130.38 40.1487 130.216L40.8172 128.467C40.9257 128.183 41.1356 128.015 41.4468 127.963L53.8513 125.357L44.0772 121.62C43.9128 121.557 43.7955 121.461 43.7251 121.331C43.6605 121.187 43.6596 121.032 43.7225 120.868L44.4595 118.94C44.5224 118.775 44.6261 118.661 44.7707 118.596C44.9153 118.532 45.0698 118.531 45.2342 118.594L59.8057 124.164C59.9701 124.227 60.0846 124.331 60.1492 124.475C60.2138 124.62 60.2176 124.767 60.1604 124.917L59.4834 126.688C59.3691 126.986 59.1564 127.162 58.8452 127.214L46.6734 129.884L56.2457 133.543C56.3952 133.601 56.5022 133.701 56.5668 133.846C56.6372 133.976 56.6409 134.123 56.5781 134.287L55.841 136.215Z" fill="white"/>
<path d="M63.9647 115.939C63.898 116.084 63.7905 116.185 63.642 116.24C63.4935 116.295 63.3465 116.289 63.2011 116.222L48.9984 109.711C48.8384 109.638 48.7275 109.534 48.6657 109.401C48.6106 109.252 48.6197 109.098 48.693 108.938L53.1037 99.3166C53.1771 99.1566 53.288 99.0491 53.4365 98.9939C53.585 98.9388 53.7392 98.9479 53.8992 99.0213L55.3609 99.6914C55.5209 99.7647 55.6285 99.8756 55.6836 100.024C55.7242 100.166 55.7078 100.317 55.6345 100.477L52.354 107.633L56.1719 109.383L59.2324 102.707C59.3057 102.547 59.4166 102.44 59.5651 102.384C59.7136 102.329 59.8678 102.338 60.0278 102.412L61.4023 103.042C61.5623 103.115 61.6698 103.226 61.725 103.375C61.7656 103.516 61.7492 103.667 61.6758 103.827L58.6153 110.503L62.5642 112.313L65.9247 104.983C65.998 104.823 66.109 104.715 66.2574 104.66C66.3914 104.599 66.5384 104.604 66.6983 104.678L68.1819 105.358C68.3419 105.431 68.4494 105.542 68.5046 105.691C68.5452 105.832 68.5288 105.983 68.4554 106.143L63.9647 115.939Z" fill="white"/>
<path d="M77.6233 88.3915C77.542 88.5293 77.4246 88.6179 77.2713 88.6575C77.1179 88.697 76.9723 88.6762 76.8345 88.5949L63.3781 80.6554C63.2265 80.5659 63.1269 80.4514 63.0792 80.3118C63.0397 80.1584 63.0646 80.006 63.1541 79.8544L64.1419 78.1801C64.2964 77.9183 64.5493 77.7888 64.9005 77.7917L74.6543 78.1684L69.6081 69.813C69.4357 69.5069 69.4268 69.2229 69.5813 68.9611L70.5569 67.3075C70.6464 67.1559 70.7678 67.0604 70.9212 67.0208C71.0745 66.9813 71.227 67.0062 71.3786 67.0956L84.835 75.0351C84.9865 75.1246 85.0821 75.246 85.1217 75.3993C85.1474 75.5446 85.1156 75.693 85.0262 75.8446L83.9773 77.6222C83.896 77.76 83.7787 77.8487 83.6253 77.8883C83.4719 77.9278 83.3263 77.9069 83.1885 77.8256L74.3003 72.5814L78.062 78.6743C78.2758 79.0047 78.2932 79.3215 78.1143 79.6247L77.6021 80.4929C77.4313 80.7822 77.1415 80.9271 76.7327 80.9273L69.5805 80.5808L78.4687 85.825C78.6065 85.9063 78.6952 86.0237 78.7348 86.1771C78.7824 86.3166 78.7616 86.4622 78.6721 86.6138L77.6233 88.3915Z" fill="white"/>
<path d="M94.1442 62.5018C92.8967 64.3042 91.473 65.3911 89.8732 65.7627C88.2734 66.1342 86.5606 65.7271 84.735 64.5413C84.3444 64.2904 83.7807 63.91 83.0439 63.4C82.294 62.881 81.7329 62.4828 81.3605 62.2056C79.6471 60.9419 78.6786 59.4737 78.4548 57.801C78.231 56.1283 78.7246 54.4171 79.9357 52.6673C81.1377 50.9307 82.5609 49.8726 84.2052 49.493C85.8587 49.1002 87.5785 49.483 89.3646 50.6415C90.1459 51.1433 90.7207 51.5217 91.0891 51.7767C91.4443 52.0225 91.9943 52.4227 92.7392 52.9772C94.492 54.2682 95.4717 55.7344 95.6783 57.3757C95.894 59.0039 95.3826 60.7126 94.1442 62.5018ZM91.8551 60.9174C92.4652 60.0359 92.6847 59.1565 92.5135 58.2792C92.3424 57.4019 91.7246 56.5656 90.6599 55.7703C89.8888 55.1976 89.3651 54.8157 89.0888 54.6245C88.7862 54.415 88.2443 54.0594 87.463 53.5575C86.3569 52.8503 85.3586 52.5777 84.4681 52.7397C83.5645 52.8926 82.8167 53.3966 82.2248 54.2518C81.6238 55.1201 81.4109 56.004 81.5861 56.9036C81.7481 57.7941 82.3594 58.6258 83.42 59.3988C83.7924 59.6761 84.3206 60.0514 85.0048 60.5249C85.6757 60.9893 86.2131 61.3516 86.6169 61.6116C87.7139 62.332 88.7097 62.6223 89.6042 62.4825C90.4947 62.3205 91.245 61.7988 91.8551 60.9174Z" fill="white"/>
<path d="M103.284 49.4535C103.185 49.5786 103.056 49.65 102.899 49.6678C102.741 49.6855 102.6 49.6445 102.475 49.5447L90.2597 39.8031C90.1221 39.6934 90.0395 39.5661 90.0118 39.4212C89.9941 39.2638 90.0401 39.1163 90.1498 38.9787L93.801 34.4003C96.7439 30.7101 99.9466 30.1843 103.409 32.8227C104.154 33.3763 104.652 33.7528 104.902 33.9523C105.14 34.1419 105.612 34.5385 106.317 35.1421C108.029 36.5888 108.944 38.0966 109.064 39.6657C109.181 41.2123 108.497 42.9175 107.01 44.7813L103.284 49.4535ZM104.759 43.1393C105.587 42.1011 105.954 41.166 105.86 40.334C105.767 39.5021 105.192 38.6446 104.136 37.7617C103.406 37.1381 102.946 36.7515 102.759 36.6018C102.559 36.4422 102.086 36.0856 101.34 35.532C100.295 34.739 99.3396 34.3969 98.4751 34.5056C97.5982 34.6044 96.7408 35.1792 95.9028 36.23L94.0772 38.5192L102.859 45.5223L104.759 43.1393Z" fill="white"/>
<path d="M117.173 32.5945C117.066 32.7129 116.933 32.7758 116.775 32.7834C116.616 32.7909 116.478 32.7408 116.36 32.6332L104.8 22.1223C104.67 22.0039 104.595 21.8715 104.577 21.7251C104.57 21.5669 104.625 21.4227 104.743 21.2925L111.864 13.4616C111.982 13.3314 112.12 13.2625 112.279 13.255C112.437 13.2475 112.581 13.3029 112.711 13.4213L113.901 14.5031C114.031 14.6215 114.1 14.7598 114.108 14.918C114.103 15.0655 114.042 15.2043 113.923 15.3345L108.628 21.1588L111.735 23.9843L116.676 18.5507C116.794 18.4205 116.932 18.3516 117.091 18.3441C117.249 18.3365 117.393 18.392 117.523 18.5104L118.642 19.5276C118.772 19.646 118.841 19.7843 118.849 19.9425C118.844 20.0899 118.783 20.2288 118.665 20.359L113.724 25.7927L116.938 28.715L122.363 22.7487C122.481 22.6184 122.62 22.5496 122.778 22.5421C122.924 22.5238 123.063 22.5738 123.193 22.6922L124.4 23.7901C124.53 23.9085 124.599 24.0469 124.607 24.2051C124.603 24.3525 124.541 24.4913 124.423 24.6216L117.173 32.5945Z" fill="white"/>
</svg>
