<svg width="128" height="204" viewBox="0 0 128 204" fill="none" xmlns="http://www.w3.org/2000/svg">
<path d="M21.3927 191.016C21.2861 191.135 21.1537 191.199 20.9955 191.208C20.8374 191.217 20.6987 191.168 20.5794 191.062L8.92825 180.652C8.797 180.535 8.7216 180.403 8.70204 180.257C8.69314 180.099 8.74732 179.954 8.86458 179.823L15.9163 171.93C16.0335 171.799 16.1712 171.729 16.3294 171.72C16.4875 171.711 16.6322 171.765 16.7635 171.882L17.9626 172.954C18.0938 173.071 18.1639 173.209 18.1728 173.367C18.1698 173.514 18.1096 173.654 17.9924 173.785L12.7476 179.655L15.8796 182.453L20.7726 176.977C20.8899 176.846 21.0276 176.776 21.1857 176.767C21.3438 176.758 21.4885 176.812 21.6198 176.929L22.7473 177.937C22.8786 178.054 22.9486 178.192 22.9575 178.35C22.9545 178.497 22.8944 178.636 22.7771 178.768L17.8841 184.244L21.1235 187.139L26.4962 181.125C26.6135 180.994 26.7512 180.924 26.9093 180.915C27.0555 180.895 27.1942 180.944 27.3255 181.061L28.5425 182.149C28.6738 182.266 28.7438 182.404 28.7527 182.562C28.7497 182.709 28.6895 182.849 28.5723 182.98L21.3927 191.016Z" fill="white"/>
<path d="M34.6375 175.815C34.539 175.941 34.4112 176.014 34.254 176.033C34.0968 176.053 33.9552 176.013 33.829 175.915L21.5124 166.302C21.3736 166.194 21.2896 166.067 21.2604 165.923C21.241 165.765 21.2855 165.617 21.3938 165.479L22.5898 163.946C22.7769 163.706 23.0444 163.611 23.3923 163.659L33.0155 165.294L29.0922 156.356C28.9608 156.03 28.9886 155.748 29.1757 155.508L30.357 153.994C30.4653 153.856 30.598 153.777 30.7552 153.757C30.9124 153.738 31.0604 153.782 31.1991 153.891L43.5158 163.504C43.6546 163.612 43.7336 163.745 43.753 163.902C43.7598 164.049 43.709 164.192 43.6007 164.331L42.3308 165.958C42.2324 166.084 42.1045 166.157 41.9473 166.176C41.7901 166.196 41.6485 166.156 41.5223 166.058L33.3869 159.708L36.3292 166.236C36.4984 166.592 36.4747 166.908 36.2581 167.185L35.6379 167.98C35.4312 168.245 35.1251 168.351 34.7196 168.298L27.6723 167.03L35.8077 173.38C35.9339 173.478 36.0066 173.606 36.026 173.763C36.0552 173.908 36.0157 174.049 35.9074 174.188L34.6375 175.815Z" fill="white"/>
<path d="M49.8018 155.732C49.7123 155.865 49.5898 155.946 49.4343 155.976C49.2789 156.006 49.1348 155.977 49.0021 155.887L36.0484 147.152C35.9025 147.053 35.81 146.933 35.7708 146.791C35.7405 146.635 35.7746 146.485 35.873 146.339L39.7645 140.568C40.8111 139.016 41.9388 138.088 43.1475 137.784C44.3429 137.471 45.5309 137.712 46.7115 138.508C47.4013 138.974 47.8753 139.544 48.1335 140.22C48.3875 140.874 48.4685 141.498 48.3765 142.092C49.0043 141.705 49.7331 141.511 50.563 141.511C51.3928 141.511 52.1725 141.757 52.9021 142.249C54.1358 143.081 54.8489 144.17 55.0415 145.515C55.234 146.861 54.8248 148.283 53.814 149.782L49.8018 155.732ZM45.2337 144.778C45.6899 144.101 45.873 143.472 45.7829 142.89C45.7018 142.295 45.3826 141.81 44.8255 141.434C44.2683 141.058 43.7164 140.946 43.1698 141.099C42.6231 141.251 42.1172 141.672 41.652 142.362L39.5721 145.446L43.1538 147.862L45.2337 144.778ZM51.4567 148.685C51.9219 147.995 52.0985 147.332 51.9865 146.697C51.8612 146.053 51.5068 145.534 50.9231 145.141C50.3394 144.747 49.7277 144.624 49.0879 144.771C48.4437 144.897 47.8935 145.298 47.4373 145.974L45.2232 149.257L49.2426 151.968L51.4567 148.685Z" fill="white"/>
<path d="M61.8993 137.18C61.8182 137.318 61.701 137.407 61.5477 137.447C61.3944 137.487 61.2488 137.466 61.1109 137.385L47.6406 129.469C47.4888 129.38 47.389 129.266 47.3411 129.126C47.3013 128.973 47.3259 128.82 47.4151 128.669L52.7775 119.544C52.8667 119.392 52.9879 119.296 53.1412 119.256C53.2945 119.216 53.447 119.241 53.5988 119.33L54.9851 120.145C55.1368 120.234 55.2326 120.355 55.2724 120.509C55.2985 120.654 55.2669 120.802 55.1777 120.954L51.1894 127.741L54.8104 129.869L58.5313 123.537C58.6204 123.385 58.7417 123.29 58.895 123.25C59.0483 123.21 59.2008 123.235 59.3525 123.324L60.6561 124.09C60.8078 124.179 60.9036 124.3 60.9434 124.454C60.9695 124.599 60.9379 124.747 60.8487 124.899L57.1279 131.231L60.8731 133.432L64.9587 126.479C65.0479 126.327 65.1691 126.232 65.3224 126.192C65.4619 126.144 65.6075 126.165 65.7593 126.254L67.1663 127.081C67.3181 127.17 67.4138 127.291 67.4537 127.444C67.4797 127.589 67.4481 127.738 67.3589 127.89L61.8993 137.18Z" fill="white"/>
<path d="M71.866 119.669C71.7937 119.812 71.6822 119.908 71.5317 119.957C71.3811 120.006 71.2345 119.995 71.0918 119.922L57.1567 112.857C56.9998 112.777 56.893 112.669 56.8366 112.533C56.7873 112.382 56.8025 112.229 56.8821 112.072L59.5304 106.849C61.6649 102.639 64.6947 101.475 68.6196 103.358C69.4618 103.749 70.0256 104.017 70.311 104.161C70.5821 104.299 71.1243 104.592 71.9375 105.04C73.9064 106.11 75.1084 107.401 75.5436 108.914C75.9717 110.404 75.6467 112.213 74.5686 114.339L71.866 119.669ZM72.0312 113.187C72.6318 112.003 72.8019 111.013 72.5417 110.217C72.2814 109.421 71.5448 108.698 70.3321 108.047C69.4903 107.584 68.9624 107.299 68.7483 107.19C68.52 107.074 67.9848 106.821 67.1426 106.43C65.958 105.865 64.9534 105.723 64.129 106.005C63.2902 106.279 62.5669 107.016 61.9591 108.215L60.635 110.826L70.6528 115.906L72.0312 113.187Z" fill="white"/>
<path d="M85.9978 89.5837C85.9403 89.733 85.8392 89.8398 85.6945 89.9041C85.5497 89.9684 85.4027 89.9718 85.2533 89.9144L70.6718 84.3028C70.5076 84.2396 70.3904 84.1431 70.3204 84.0133C70.2561 83.8685 70.2555 83.714 70.3187 83.5498L71.017 81.7355C71.1261 81.4518 71.3542 81.2824 71.7011 81.2273L81.3835 79.9903L75.0284 72.5814C74.8079 72.308 74.7522 72.0294 74.8614 71.7457L75.551 69.9538C75.6142 69.7896 75.7182 69.6753 75.8629 69.611C76.0077 69.5467 76.1622 69.5461 76.3265 69.6093L90.908 75.2209C91.0722 75.2841 91.1865 75.3881 91.2508 75.5328C91.3002 75.6718 91.2932 75.8235 91.23 75.9877L90.4887 77.914C90.4313 78.0633 90.3301 78.1701 90.1854 78.2344C90.0406 78.2987 89.8936 78.3021 89.7443 78.2447L80.1129 74.5381L84.828 79.9272C85.0933 80.2179 85.1627 80.5275 85.0363 80.856L84.6742 81.7967C84.5536 82.1103 84.2916 82.3009 83.8884 82.3686L76.777 83.2064L86.4084 86.9129C86.5577 86.9704 86.6645 87.0715 86.7288 87.2163C86.7989 87.3461 86.8023 87.4931 86.7391 87.6574L85.9978 89.5837Z" fill="white"/>
<path d="M96.6233 60.3829C95.9798 62.4783 94.9518 63.9452 93.5395 64.7835C92.1272 65.6218 90.3715 65.7522 88.2726 65.1745C87.8244 65.0536 87.172 64.8616 86.3155 64.5986C85.4437 64.3309 84.7883 64.1212 84.3495 63.9697C82.334 63.2838 80.9665 62.1776 80.2469 60.6511C79.5274 59.1246 79.4799 57.3442 80.1047 55.31C80.7247 53.2911 81.7609 51.8518 83.2132 50.9923C84.6702 50.1175 86.4252 49.9619 88.4782 50.5254C89.3747 50.7673 90.0371 50.9539 90.4654 51.0855C90.8783 51.2123 91.5237 51.4272 92.4014 51.7302C94.4627 52.4302 95.8402 53.5311 96.5339 55.0329C97.2323 56.5195 97.2621 58.3028 96.6233 60.3829ZM93.9619 59.5656C94.2766 58.5408 94.2197 57.6363 93.7911 56.8519C93.3625 56.0675 92.5205 55.4574 91.2651 55.0217C90.3568 54.7092 89.742 54.5037 89.4208 54.4051C89.069 54.297 88.4449 54.1221 87.5484 53.8803C86.2801 53.541 85.2461 53.5833 84.4464 54.0072C83.6315 54.4264 83.0713 55.1331 82.766 56.1273C82.456 57.1368 82.5206 58.0437 82.9598 58.8481C83.3837 59.6478 84.2181 60.2555 85.4629 60.6712C85.9017 60.8228 86.5188 61.0206 87.3142 61.2649C88.0942 61.5044 88.716 61.687 89.1795 61.8126C90.4431 62.1672 91.4801 62.1425 92.2903 61.7386C93.09 61.3147 93.6472 60.5904 93.9619 59.5656Z" fill="white"/>
<path d="M100.853 44.6838C100.816 44.8395 100.73 44.9589 100.595 45.042C100.46 45.1251 100.315 45.1482 100.159 45.1112L84.9575 41.504C84.7863 41.4634 84.6572 41.3834 84.5704 41.2641C84.4873 41.1293 84.4661 40.9763 84.5067 40.805L85.8587 35.1072C86.9485 30.5148 89.6217 28.6742 93.8782 29.5856C94.7886 29.7687 95.3994 29.8972 95.7107 29.9711C96.0065 30.0413 96.6022 30.1991 97.4977 30.4445C99.6624 31.0239 101.133 31.9978 101.91 33.3662C102.676 34.7153 102.783 36.5497 102.233 38.8692L100.853 44.6838ZM99.4961 38.3432C99.8027 37.0511 99.7363 36.0487 99.297 35.336C98.8577 34.6233 97.9723 34.0926 96.6408 33.7438C95.7142 33.491 95.1341 33.3369 94.9006 33.2815C94.6515 33.2224 94.0718 33.1013 93.1615 32.9181C91.8775 32.6464 90.8677 32.7439 90.1321 33.2106C89.3809 33.6737 88.8501 34.5591 88.5398 35.8668L87.8638 38.7157L98.7923 41.3089L99.4961 38.3432Z" fill="white"/>
<path d="M105.632 23.0579C105.604 23.2156 105.526 23.3401 105.397 23.4314C105.267 23.5227 105.124 23.5548 104.966 23.5276L89.5697 20.8695C89.3963 20.8396 89.2625 20.7678 89.1685 20.6541C89.0772 20.5247 89.0465 20.3733 89.0764 20.1999L90.877 9.77015C90.907 9.59672 90.9866 9.46434 91.1161 9.37303C91.2455 9.28171 91.3969 9.25103 91.5703 9.28097L93.1549 9.55453C93.3283 9.58447 93.4607 9.66415 93.552 9.79357C93.6276 9.92027 93.6504 10.0703 93.6204 10.2438L92.2812 18.001L96.42 18.7155L97.6694 11.4786C97.6993 11.3052 97.779 11.1728 97.9084 11.0815C98.0378 10.9902 98.1893 10.9595 98.3627 10.9894L99.8527 11.2466C100.026 11.2766 100.158 11.3563 100.25 11.4857C100.325 11.6124 100.348 11.7625 100.318 11.9359L99.0688 19.1728L103.349 19.9118L104.721 11.9654C104.751 11.792 104.831 11.6596 104.96 11.5683C105.074 11.4742 105.218 11.4422 105.391 11.4721L106.999 11.7498C107.173 11.7797 107.305 11.8594 107.396 11.9888C107.472 12.1155 107.495 12.2656 107.465 12.439L105.632 23.0579Z" fill="white"/>
</svg>
