<svg width="158" height="237" viewBox="0 0 158 237" fill="none" xmlns="http://www.w3.org/2000/svg">
<path d="M27.6789 14.8508C27.662 14.6917 27.7033 14.5505 27.8028 14.4273C27.9023 14.3041 28.0317 14.234 28.1908 14.2171L43.751 12.5622C43.926 12.5436 44.0672 12.5849 44.1745 12.6861C44.2977 12.7856 44.3678 12.915 44.3847 13.0741L44.6284 15.3651C44.647 15.5401 44.6057 15.6813 44.5044 15.7886C44.4208 15.9101 44.2915 15.9802 44.1165 15.9988L28.5563 17.6537C28.3971 17.6706 28.256 17.6293 28.1328 17.5298C28.0112 17.4462 27.9412 17.3169 27.9226 17.1419L27.6789 14.8508Z" fill="white"/>
<path d="M29.1963 27.9169C29.1694 27.7592 29.2017 27.6157 29.2933 27.4865C29.3848 27.3572 29.5095 27.2792 29.6672 27.2523L45.0687 24.6245C45.2421 24.5949 45.3922 24.618 45.5187 24.6938C45.648 24.7854 45.7274 24.9179 45.757 25.0914L46.0839 27.0077C46.1351 27.3074 46.0256 27.5695 45.7555 27.7942L38.0649 33.8052L47.3136 36.9262C47.6429 37.0486 47.8331 37.2596 47.8842 37.5592L48.2071 39.4519C48.2367 39.6254 48.2057 39.7768 48.1142 39.906C48.0226 40.0352 47.8901 40.1147 47.7166 40.1443L32.3151 42.772C32.1416 42.8016 31.9903 42.7706 31.861 42.679C31.7476 42.5848 31.676 42.4509 31.6464 42.2774L31.2993 40.2428C31.2724 40.0851 31.3047 39.9416 31.3963 39.8124C31.4878 39.6831 31.6125 39.605 31.7702 39.5781L41.9432 37.8425L35.1364 35.6196C34.7598 35.5053 34.5419 35.2747 34.4827 34.9277L34.3132 33.934C34.2567 33.6028 34.3844 33.3051 34.6964 33.0409L40.3811 28.6868L30.2081 30.4224C30.0504 30.4494 29.9069 30.417 29.7777 30.3255C29.6511 30.2497 29.573 30.125 29.5434 29.9515L29.1963 27.9169Z" fill="white"/>
<path d="M33.8857 52.6576C33.8468 52.5024 33.8681 52.3569 33.9496 52.221C34.031 52.0852 34.1494 51.9978 34.3046 51.959L49.4609 48.1649C49.6316 48.1221 49.783 48.1337 49.9149 48.1996C50.0508 48.2811 50.1401 48.4072 50.1828 48.5779L51.7448 54.8174C52.2149 56.6954 52.1417 58.2807 51.5251 59.5731C50.9085 60.8655 49.7543 61.7235 48.0625 62.147C46.3862 62.5666 44.9794 62.3498 43.8421 61.4964C42.7204 60.6391 41.9244 59.2715 41.4543 57.3934L40.5976 53.971L35.1497 55.3348C34.9789 55.3776 34.8256 55.3582 34.6898 55.2768C34.5695 55.1914 34.4879 55.0634 34.4452 54.8927L33.8857 52.6576ZM44.0327 56.6243C44.258 57.5245 44.6385 58.155 45.1742 58.5157C45.7292 58.8881 46.418 58.9713 47.2407 58.7653C48.0478 58.5633 48.6181 58.1731 48.9516 57.5948C49.2891 57.032 49.3412 56.285 49.1081 55.3537L48.2688 52.0012L43.1934 53.2717L44.0327 56.6243Z" fill="white"/>
<path d="M39.3566 73.1088C39.3068 72.9567 39.3176 72.81 39.3892 72.6687C39.4608 72.5274 39.5726 72.4319 39.7246 72.382L54.572 67.5174C54.7393 67.4626 54.891 67.4634 55.0274 67.5198C55.1687 67.5913 55.2667 67.7107 55.3215 67.878L57.2569 73.785C57.8697 75.6552 57.9146 77.2568 57.3916 78.5899C56.8737 79.9382 55.8165 80.8739 54.22 81.3969C53.11 81.7606 52.0878 81.8009 51.1532 81.5178C50.2338 81.2298 49.4499 80.6616 48.8016 79.8133L44.0693 85.0258C43.993 85.1013 43.9168 85.1515 43.8408 85.1764C43.704 85.2212 43.5725 85.2054 43.4464 85.1288C43.3253 85.0675 43.2448 84.976 43.2049 84.8544L42.5175 82.7561C42.4378 82.5129 42.4287 82.3054 42.4903 82.1337C42.5671 81.957 42.6793 81.7855 42.8269 81.6193L47.2757 76.929L46.2519 73.8044L40.7782 75.5978C40.6262 75.6477 40.4795 75.6368 40.3382 75.5652C40.1969 75.4937 40.0989 75.3743 40.0441 75.207L39.3566 73.1088ZM49.8906 76.1227C50.1895 77.035 50.6114 77.6545 51.1561 77.9811C51.7161 78.3027 52.3838 78.3365 53.1593 78.0824C53.9347 77.8284 54.453 77.406 54.714 76.8154C54.9903 76.2197 54.979 75.4658 54.6801 74.5535L53.6414 71.3833L48.8519 72.9526L49.8906 76.1227Z" fill="white"/>
<path d="M48.63 99.6167C47.7974 97.589 47.6608 95.803 48.2202 94.2588C48.7796 92.7146 50.0536 91.4997 52.0422 90.614C52.4654 90.4229 53.0914 90.1573 53.9202 89.8169C54.7639 89.4705 55.4034 89.2166 55.8387 89.0552C57.8315 88.3061 59.5904 88.2931 61.1153 89.0161C62.6402 89.7391 63.8067 91.0849 64.615 93.0534C65.4172 95.0071 65.5298 96.7769 64.953 98.3629C64.3822 99.9636 63.1247 101.198 61.1805 102.065C60.3342 102.447 59.7039 102.723 59.2894 102.894C58.8898 103.058 58.2547 103.301 57.3841 103.624C55.3468 104.391 53.5836 104.415 52.0944 103.694C50.6113 102.989 49.4565 101.63 48.63 99.6167ZM51.2053 98.5593C51.6125 99.551 52.2306 100.214 53.0597 100.548C53.8887 100.882 54.9266 100.819 56.1733 100.359C57.0735 100.024 57.679 99.7929 57.9898 99.6653C58.3303 99.5255 58.9236 99.2646 59.7699 98.8825C60.9654 98.3398 61.7376 97.6508 62.0865 96.8157C62.4503 95.9745 62.4346 95.0729 62.0396 94.1108C61.6385 93.1339 61.013 92.4741 60.1631 92.1312C59.328 91.7822 58.2975 91.8421 57.0717 92.3109C56.6364 92.4723 56.0339 92.711 55.2642 93.027C54.5094 93.337 53.913 93.5905 53.475 93.7876C52.2735 94.3155 51.4878 94.9927 51.118 95.8191C50.7691 96.6542 50.7982 97.5676 51.2053 98.5593Z" fill="white"/>
<path d="M57.2987 118.3C57.0845 117.871 57.1458 117.492 57.4824 117.163L68.979 105.691C69.0148 105.655 69.0757 105.616 69.1616 105.573C69.2904 105.508 69.4192 105.498 69.548 105.541C69.6768 105.584 69.7733 105.67 69.8375 105.799L70.7908 107.71C70.8836 107.896 70.9084 108.072 70.8653 108.236C70.8222 108.401 70.7541 108.533 70.661 108.633L61.4531 117.704L74.249 115.828C74.3778 115.8 74.5209 115.818 74.6782 115.882C74.8356 115.947 74.9607 116.072 75.0535 116.258L76.0174 118.191C76.0746 118.306 76.0816 118.428 76.0385 118.556C76.0026 118.699 75.9202 118.803 75.7913 118.867L75.5766 118.921L59.5067 121.222C59.0344 121.279 58.6947 121.1 58.4876 120.684L57.2987 118.3Z" fill="white"/>
<path d="M65.6056 134.096C65.5244 133.958 65.5036 133.813 65.5433 133.659C65.5829 133.506 65.6717 133.389 65.8096 133.308L79.2722 125.379C79.4238 125.289 79.5723 125.258 79.7175 125.284C79.8708 125.323 79.9922 125.419 80.0815 125.571L85.4527 134.69C85.542 134.842 85.5668 134.995 85.5271 135.148C85.4875 135.301 85.3918 135.423 85.2402 135.512L83.8546 136.328C83.703 136.417 83.5505 136.442 83.3971 136.402C83.2576 136.355 83.1431 136.255 83.0538 136.103L79.0589 129.32L75.4399 131.452L79.1669 137.78C79.2562 137.931 79.281 138.084 79.2413 138.237C79.2017 138.39 79.106 138.512 78.9544 138.601L77.6515 139.368C77.4999 139.458 77.3474 139.483 77.194 139.443C77.0545 139.395 76.94 139.295 76.8507 139.144L73.1238 132.816L69.3807 135.02L73.473 141.969C73.5624 142.12 73.5872 142.273 73.5475 142.426C73.5216 142.571 73.4329 142.689 73.2812 142.778L71.875 143.606C71.7233 143.695 71.5708 143.72 71.4175 143.681C71.2779 143.633 71.1635 143.533 71.0742 143.381L65.6056 134.096Z" fill="white"/>
<path d="M82.355 160.492C82.259 160.364 82.2222 160.221 82.2446 160.064C82.2671 159.908 82.3423 159.781 82.4703 159.685L94.9705 150.312C95.1113 150.207 95.2553 150.159 95.4025 150.168C95.5593 150.191 95.6905 150.272 95.7961 150.413L96.9623 151.968C97.1447 152.212 97.167 152.495 97.0294 152.818L92.9341 161.678L102.587 160.23C102.936 160.188 103.201 160.289 103.384 160.532L104.536 162.068C104.641 162.209 104.683 162.358 104.66 162.515C104.638 162.672 104.556 162.803 104.416 162.908L91.9154 172.281C91.7746 172.387 91.6258 172.429 91.469 172.406C91.325 172.374 91.2002 172.288 91.0946 172.147L89.8564 170.496C89.7604 170.368 89.7236 170.225 89.746 170.068C89.7684 169.912 89.8436 169.785 89.9716 169.689L98.2283 163.498L91.1578 164.63C90.7706 164.701 90.4714 164.595 90.2602 164.313L89.6555 163.507C89.4539 163.238 89.4316 162.915 89.5884 162.537L92.6563 156.067L84.3996 162.258C84.2716 162.354 84.1292 162.391 83.9724 162.369C83.8252 162.359 83.6988 162.284 83.5932 162.143L82.355 160.492Z" fill="white"/>
<path d="M101.542 184.959C100.095 183.313 99.3837 181.669 99.4097 180.027C99.4356 178.385 100.244 176.821 101.836 175.336C102.174 175.017 102.679 174.562 103.352 173.971C104.037 173.368 104.559 172.92 104.918 172.625C106.558 171.268 108.217 170.683 109.894 170.87C111.571 171.057 113.113 171.949 114.518 173.547C115.913 175.133 116.596 176.77 116.567 178.457C116.548 180.156 115.762 181.733 114.206 183.186C113.53 183.823 113.024 184.29 112.688 184.585C112.363 184.871 111.842 185.308 111.124 185.897C109.448 187.286 107.788 187.882 106.146 187.686C104.514 187.502 102.979 186.593 101.542 184.959ZM103.633 183.12C104.341 183.925 105.141 184.351 106.034 184.397C106.926 184.443 107.887 184.045 108.916 183.204C109.658 182.594 110.155 182.178 110.407 181.956C110.684 181.713 111.16 181.273 111.836 180.637C112.789 179.734 113.295 178.831 113.353 177.928C113.423 177.014 113.114 176.167 112.427 175.386C111.73 174.593 110.924 174.173 110.008 174.125C109.105 174.067 108.15 174.46 107.144 175.302C106.785 175.596 106.293 176.018 105.668 176.568C105.056 177.107 104.574 177.541 104.224 177.87C103.26 178.76 102.738 179.656 102.658 180.558C102.6 181.461 102.925 182.315 103.633 183.12Z" fill="white"/>
<path d="M112.741 196.774C112.627 196.661 112.569 196.526 112.568 196.368C112.566 196.209 112.622 196.073 112.734 195.959L123.682 184.813C123.806 184.687 123.941 184.618 124.088 184.606C124.246 184.604 124.388 184.665 124.514 184.788L128.691 188.892C132.059 192.2 132.252 195.439 129.27 198.611C128.643 199.296 128.217 199.752 127.993 199.981C127.78 200.197 127.337 200.626 126.664 201.265C125.048 202.818 123.454 203.574 121.881 203.531C120.331 203.489 118.705 202.632 117.004 200.961L112.741 196.774ZM118.87 198.891C119.817 199.822 120.709 200.283 121.546 200.276C122.384 200.268 123.296 199.785 124.283 198.826C124.978 198.163 125.41 197.746 125.578 197.575C125.758 197.393 126.161 196.959 126.789 196.275C127.685 195.316 128.124 194.401 128.105 193.53C128.097 192.648 127.614 191.736 126.655 190.794L124.566 188.742L116.695 196.755L118.87 198.891Z" fill="white"/>
<path d="M128.822 212.029C128.7 211.925 128.633 211.794 128.621 211.636C128.608 211.478 128.654 211.338 128.758 211.217L138.904 199.335C139.018 199.201 139.148 199.123 139.294 199.1C139.452 199.088 139.598 199.139 139.732 199.253L147.78 206.126C147.914 206.241 147.987 206.377 148 206.535C148.012 206.692 147.961 206.838 147.847 206.972L146.803 208.195C146.689 208.329 146.553 208.402 146.395 208.414C146.247 208.415 146.106 208.358 145.973 208.243L139.986 203.131L137.259 206.325L142.844 211.094C142.977 211.209 143.051 211.345 143.063 211.503C143.075 211.661 143.025 211.806 142.91 211.94L141.928 213.09C141.814 213.224 141.678 213.297 141.52 213.309C141.373 213.31 141.232 213.253 141.098 213.138L135.513 208.369L132.692 211.673L138.825 216.909C138.958 217.024 139.032 217.16 139.044 217.318C139.067 217.463 139.021 217.603 138.907 217.737L137.847 218.978C137.733 219.112 137.597 219.185 137.439 219.198C137.291 219.198 137.151 219.141 137.017 219.027L128.822 212.029Z" fill="white"/>
</svg>
