<svg width="135" height="224" viewBox="0 0 135 224" fill="none" xmlns="http://www.w3.org/2000/svg">
<path d="M9.84401 25.4146C9.73474 25.2977 9.68276 25.1601 9.68808 25.0018C9.69341 24.8435 9.7545 24.7097 9.87138 24.6005L21.2842 13.9301C21.4128 13.8099 21.5507 13.7466 21.6981 13.7402C21.8564 13.7456 21.9957 13.8125 22.1159 13.9411L26.1152 18.2187C29.3387 21.6665 29.3938 24.9116 26.2803 27.9539C25.6243 28.611 25.1794 29.0489 24.9457 29.2674C24.7236 29.475 24.2627 29.884 23.563 30.4944C21.883 31.9775 20.2581 32.6643 18.6883 32.5549C17.1411 32.4463 15.5535 31.5213 13.9253 29.7799L9.84401 25.4146ZM15.877 27.7909C16.7839 28.7609 17.6558 29.26 18.4925 29.2882C19.3293 29.3163 20.2611 28.8722 21.2881 27.9558C22.0112 27.3236 22.4604 26.9255 22.6357 26.7616C22.8227 26.5868 23.2442 26.1708 23.9002 25.5136C24.8368 24.5942 25.314 23.699 25.332 22.8279C25.3616 21.946 24.9175 21.0141 23.9996 20.0324L22 17.8936L13.7953 25.5644L15.877 27.7909Z" fill="white"/>
<path d="M24.4786 41.6137C24.3777 41.4895 24.3354 41.3486 24.3518 41.1911C24.3681 41.0335 24.4383 40.9043 24.5625 40.8034L36.6905 30.9534C36.8271 30.8425 36.9691 30.7889 37.1166 30.7929C37.2741 30.8092 37.4084 30.8857 37.5193 31.0223L44.1919 39.238C44.3029 39.3746 44.3502 39.5217 44.3339 39.6792C44.3176 39.8368 44.2411 39.971 44.1045 40.082L42.8563 41.0957C42.7197 41.2067 42.5726 41.254 42.415 41.2377C42.2699 41.2112 42.1419 41.1297 42.0309 40.9931L37.0681 34.8826L33.8079 37.5304L38.4378 43.2311C38.5488 43.3677 38.5961 43.5148 38.5798 43.6724C38.5634 43.8299 38.487 43.9642 38.3504 44.0751L37.1767 45.0283C37.0401 45.1393 36.893 45.1866 36.7354 45.1703C36.5903 45.1439 36.4623 45.0624 36.3513 44.9257L31.7213 39.2251L28.3494 41.9637L33.4333 48.2233C33.5442 48.3599 33.5915 48.507 33.5752 48.6645C33.5713 48.812 33.501 48.9412 33.3644 49.0521L32.0976 50.081C31.961 50.192 31.8139 50.2393 31.6563 50.223C31.5112 50.1966 31.3832 50.115 31.2722 49.9784L24.4786 41.6137Z" fill="white"/>
<path d="M39.5856 61.6617C38.7558 60.4848 38.2224 59.3534 37.9854 58.2676C37.7484 57.1818 37.7655 56.2203 38.0366 55.3831C38.3077 54.5459 38.774 53.8745 39.4356 53.3689C39.5402 53.2951 39.6594 53.2698 39.7931 53.293C39.94 53.3069 40.0549 53.3727 40.1379 53.4904L41.3964 55.2753C41.4978 55.4192 41.5481 55.5599 41.5472 55.6976C41.5464 55.8352 41.5148 55.9847 41.4524 56.1462C41.1 56.5904 40.9348 57.1474 40.9567 57.8171C40.9879 58.4999 41.2892 59.2467 41.8609 60.0575C42.5063 60.9728 43.1407 61.5533 43.7641 61.7989C44.4099 62.0484 45.0008 61.9841 45.537 61.6061C45.89 61.3572 46.1013 61.0321 46.1707 60.6307C46.2401 60.2294 46.1893 59.7269 46.0181 59.1232C45.8693 58.5234 45.5872 57.6651 45.1718 56.5484C44.45 54.7472 44.1364 53.275 44.2308 52.1317C44.3252 50.9883 44.9347 50.0202 46.0593 49.2273C46.8178 48.6926 47.6387 48.427 48.5222 48.4306C49.4188 48.4249 50.309 48.688 51.193 49.2198C52.0861 49.7647 52.8969 50.5536 53.6253 51.5867C54.3905 52.672 54.8601 53.7407 55.0341 54.7927C55.2172 55.8577 55.1641 56.7957 54.8745 57.6068C54.6072 58.4217 54.2017 59.0404 53.6578 59.463C53.5532 59.5368 53.4275 59.5667 53.2806 59.5528C53.1469 59.5297 53.0385 59.4592 52.9555 59.3415L51.6417 57.4781C51.4389 57.1905 51.4182 56.9113 51.5799 56.6408C51.9522 56.2803 52.119 55.781 52.0801 55.1428C52.0543 54.4954 51.8109 53.8447 51.3499 53.1909C50.8429 52.4717 50.3045 51.9997 49.7349 51.7748C49.1744 51.5631 48.6327 51.6416 48.1096 52.0104C47.7566 52.2593 47.5361 52.5714 47.4482 52.9466C47.3604 53.3217 47.3816 53.7962 47.512 54.3699C47.6555 54.9343 47.9157 55.7199 48.2927 56.7266C48.8518 58.0748 49.2075 59.2042 49.36 60.1146C49.5218 61.0382 49.4694 61.8386 49.203 62.5159C48.9366 63.1931 48.4176 63.8037 47.6461 64.3477C46.7961 64.947 45.8913 65.2325 44.9318 65.2043C43.9945 65.18 43.0627 64.858 42.1365 64.2386C41.2196 63.6322 40.3692 62.7732 39.5856 61.6617Z" fill="white"/>
<path d="M48.4416 74.4783C48.3569 74.3426 48.3324 74.1975 48.3682 74.0432C48.4039 73.8889 48.4897 73.7694 48.6255 73.6848L61.9023 65.4031C62.0516 65.3099 62.1966 65.2855 62.3374 65.3297C62.4917 65.3654 62.6111 65.4512 62.6958 65.587L63.9152 67.5418C64.0084 67.6911 64.0328 67.8362 63.9886 67.9769C63.9664 68.1227 63.8807 68.2422 63.7313 68.3354L50.4545 76.6171C50.3188 76.7017 50.1738 76.7262 50.0194 76.6905C49.8736 76.6683 49.7541 76.5825 49.661 76.4332L48.4416 74.4783Z" fill="white"/>
<path d="M57.7709 90.8321C56.713 88.894 56.3875 87.1122 56.7943 85.4865C57.2088 83.8749 58.2887 82.5472 60.034 81.5034C60.4336 81.267 61.0828 80.9035 61.9816 80.4129C62.8804 79.9223 63.5373 79.5728 63.9522 79.3645C65.7243 78.4701 67.4009 78.3023 68.9819 78.8611C70.577 79.4123 71.8958 80.6428 72.9384 82.5528C73.6437 83.8449 74.0246 85.077 74.0811 86.2492C74.1594 87.4278 73.9988 88.436 73.5994 89.2738C73.214 90.1039 72.713 90.7055 72.0963 91.0786C71.9699 91.1476 71.8416 91.1629 71.7114 91.1247C71.5811 91.0864 71.4776 90.997 71.401 90.8566L70.1936 88.6447C70.1169 88.5042 70.0875 88.3836 70.1054 88.2827C70.1232 88.1818 70.18 88.0688 70.2757 87.9436C70.688 87.4634 70.9426 86.8778 71.0394 86.1869C71.1363 85.4961 70.9547 84.7293 70.4947 83.8867C69.9581 82.9036 69.2697 82.2769 68.4293 82.0064C67.6107 81.7423 66.639 81.8991 65.5142 82.4766C65.0993 82.6849 64.4775 83.0152 63.6489 83.4674C62.8344 83.9121 62.2203 84.2564 61.8066 84.5004C60.6844 85.1495 60.0028 85.9043 59.7617 86.7651C59.5347 87.6181 59.6895 88.5362 60.2261 89.5193C60.7704 90.5164 61.4742 91.1713 62.3375 91.4838C63.2008 91.7964 64.1661 91.6614 65.2334 91.0788L65.8865 90.7223L64.4836 88.1523C64.4069 88.0118 64.3909 87.8656 64.4356 87.7137C64.4802 87.5617 64.5728 87.4474 64.7132 87.3707L65.8718 86.7383C66.0123 86.6616 66.1585 86.6456 66.3104 86.6903C66.4624 86.7349 66.5767 86.8274 66.6534 86.9679L69.4131 92.0237C69.4975 92.1782 69.5173 92.3314 69.4727 92.4834C69.428 92.6353 69.3355 92.7497 69.195 92.8263L66.9621 94.0452C65.7964 94.6815 64.6364 94.9775 63.482 94.9331C62.3417 94.8811 61.2792 94.5041 60.2944 93.8021C59.3097 93.1001 58.4685 92.1101 57.7709 90.8321Z" fill="white"/>
<path d="M65.2628 104.795C65.1966 104.649 65.1913 104.502 65.2469 104.354C65.3025 104.206 65.4031 104.098 65.5488 104.032L79.772 97.5664C79.9323 97.4935 80.0832 97.4776 80.2249 97.5187C80.3732 97.5743 80.4838 97.6822 80.5566 97.8424L81.3313 99.5466C81.4571 99.8233 81.4294 100.091 81.248 100.349L74.3879 111.008L83.9138 106.677C84.074 106.604 84.225 106.588 84.3666 106.629C84.515 106.685 84.6255 106.793 84.6984 106.953L85.5525 108.832C85.6254 108.992 85.634 109.147 85.5784 109.295C85.5228 109.443 85.4149 109.554 85.2546 109.627L71.0532 116.083C70.893 116.155 70.7387 116.164 70.5904 116.108C70.4421 116.053 70.3348 115.952 70.2686 115.807L69.484 114.081C69.3515 113.789 69.376 113.514 69.5574 113.256L76.2089 102.719L66.8797 106.96C66.734 107.026 66.587 107.031 66.4387 106.976C66.297 106.935 66.1898 106.834 66.1169 106.674L65.2628 104.795Z" fill="white"/>
<path d="M77.7992 135.016C77.75 134.864 77.7616 134.717 77.8337 134.576C77.9059 134.435 78.0181 134.34 78.1704 134.291L93.0391 129.492C93.2066 129.438 93.3583 129.439 93.4944 129.496C93.6354 129.568 93.7329 129.688 93.787 129.856L94.3841 131.706C94.4775 131.995 94.4066 132.27 94.1713 132.531L87.4175 139.578L97.0169 141.347C97.3603 141.421 97.5787 141.603 97.6721 141.892L98.2618 143.719C98.3159 143.887 98.3068 144.041 98.2346 144.182C98.1625 144.323 98.0426 144.421 97.8751 144.475L83.0065 149.274C82.839 149.328 82.6847 149.319 82.5438 149.247C82.418 149.17 82.3281 149.047 82.274 148.88L81.64 146.916C81.5909 146.763 81.6024 146.617 81.6746 146.476C81.7468 146.335 81.859 146.24 82.0113 146.19L91.8323 143.021L84.7779 141.792C84.3889 141.733 84.1403 141.535 84.0322 141.2L83.7226 140.241C83.6193 139.921 83.7033 139.609 83.9744 139.302L88.9793 134.182L79.1583 137.352C79.006 137.401 78.8594 137.389 78.7184 137.317C78.5823 137.26 78.4872 137.148 78.4332 136.98L77.7992 135.016Z" fill="white"/>
<path d="M86.1403 164.558C85.6315 162.426 85.7729 160.64 86.5645 159.201C87.3561 157.762 88.8027 156.759 90.9044 156.191C91.3521 156.068 92.0116 155.902 92.8832 155.694C93.7703 155.483 94.4413 155.331 94.8964 155.239C96.9811 154.807 98.7208 155.066 100.115 156.017C101.51 156.967 102.454 158.477 102.948 160.547C103.439 162.601 103.276 164.367 102.461 165.845C101.649 167.338 100.216 168.362 98.1609 168.919C97.2656 169.165 96.6001 169.34 96.1644 169.444C95.7442 169.545 95.079 169.687 94.169 169.871C92.0375 170.314 90.2919 170.064 88.9321 169.122C87.576 168.196 86.6454 166.674 86.1403 164.558ZM88.8483 163.911C89.0971 164.954 89.6052 165.705 90.3726 166.163C91.1399 166.622 92.175 166.72 93.4779 166.458C94.4191 166.267 95.0531 166.132 95.38 166.054C95.7379 165.968 96.3645 165.802 97.2597 165.556C98.5247 165.205 99.3942 164.644 99.8682 163.872C100.358 163.098 100.482 162.204 100.24 161.193C99.9953 160.166 99.4794 159.417 98.6928 158.947C97.9217 158.473 96.8943 158.373 95.6108 158.646C95.1557 158.738 94.5236 158.881 93.7143 159.074C92.9206 159.263 92.2921 159.421 91.8289 159.548C90.5602 159.884 89.6792 160.432 89.186 161.191C88.712 161.962 88.5994 162.869 88.8483 163.911Z" fill="white"/>
<path d="M89.7237 180.067C89.698 179.909 89.7315 179.766 89.824 179.637C89.9166 179.509 90.0418 179.432 90.1997 179.406L105.621 176.897C105.795 176.869 105.945 176.893 106.071 176.97C106.199 177.063 106.277 177.196 106.306 177.369L107.246 183.149C108.004 187.808 106.243 190.534 101.963 191.328C101.052 191.508 100.439 191.624 100.123 191.676C99.8226 191.725 99.2121 191.808 98.291 191.925C96.0698 192.222 94.3376 191.887 93.0945 190.923C91.8698 189.971 91.0661 188.318 90.6833 185.965L89.7237 180.067ZM93.4119 185.4C93.6251 186.711 94.0714 187.611 94.7508 188.1C95.4302 188.589 96.4515 188.739 97.8148 188.55C98.7675 188.427 99.3623 188.347 99.5992 188.308C99.8518 188.267 100.434 188.156 101.344 187.976C102.634 187.733 103.529 187.255 104.029 186.542C104.545 185.826 104.695 184.805 104.479 183.478L104.009 180.588L92.9225 182.391L93.4119 185.4Z" fill="white"/>
<path d="M92.8601 201.672C92.8455 201.512 92.8888 201.372 92.9901 201.25C93.0914 201.128 93.2217 201.06 93.381 201.046L108.939 199.616C109.115 199.6 109.263 199.635 109.383 199.72C109.505 199.822 109.574 199.96 109.59 200.135L110.558 210.675C110.574 210.85 110.531 210.998 110.43 211.12C110.329 211.242 110.19 211.311 110.015 211.327L108.414 211.474C108.239 211.49 108.09 211.448 107.968 211.346C107.863 211.244 107.802 211.105 107.785 210.929L107.065 203.09L102.883 203.475L103.555 210.788C103.571 210.963 103.528 211.112 103.427 211.233C103.326 211.355 103.187 211.424 103.012 211.44L101.507 211.578C101.331 211.595 101.183 211.552 101.061 211.451C100.955 211.348 100.894 211.209 100.878 211.034L100.206 203.72L95.8805 204.118L96.6181 212.148C96.6342 212.323 96.5917 212.472 96.4904 212.594C96.405 212.714 96.2747 212.782 96.0994 212.798L94.4743 212.947C94.299 212.964 94.1505 212.921 94.0287 212.82C93.9229 212.717 93.8619 212.578 93.8458 212.403L92.8601 201.672Z" fill="white"/>
</svg>
