<svg width="14" height="14" viewBox="0 0 14 14" fill="none" xmlns="http://www.w3.org/2000/svg">
<path opacity="0.4" d="M9.89356 0.333984H4.11356C1.85356 0.333984 0.333557 1.92065 0.333557 4.28065V9.72732C0.333557 12.0807 1.85356 13.6673 4.11356 13.6673H9.89356C12.1536 13.6673 13.6669 12.0807 13.6669 9.72732V4.28065C13.6669 1.92065 12.1536 0.333984 9.89356 0.333984Z" fill="#3CC13B"/>
<path d="M6.20891 9.16694C6.05958 9.16694 5.91024 9.11027 5.79624 8.99627L4.21424 7.41427C3.98624 7.18627 3.98624 6.81694 4.21424 6.5896C4.44224 6.3616 4.81091 6.36094 5.03891 6.58894L6.20891 7.75894L8.96091 5.00694C9.18891 4.77894 9.55758 4.77894 9.78557 5.00694C10.0136 5.23494 10.0136 5.60427 9.78557 5.83227L6.62158 8.99627C6.50758 9.11027 6.35824 9.16694 6.20891 9.16694Z" fill="#3CC13B"/>
</svg>
