<svg width="20" height="20" viewBox="0 0 20 20" fill="none" xmlns="http://www.w3.org/2000/svg">
<g opacity="0.4">
<path d="M19.9998 10C19.9998 15.524 15.5228 20 9.99976 20C4.47676 20 -0.000244141 15.524 -0.000244141 10C-0.000244141 4.478 4.47676 0 9.99976 0C15.5228 0 19.9998 4.478 19.9998 10Z" fill="#B57BFF"/>
<path d="M19.9998 10C19.9998 15.524 15.5228 20 9.99976 20C4.47676 20 -0.000244141 15.524 -0.000244141 10C-0.000244141 4.478 4.47676 0 9.99976 0C15.5228 0 19.9998 4.478 19.9998 10Z" fill="white" fill-opacity="0.5"/>
</g>
<path d="M13.5734 13.8148C13.4424 13.8148 13.3104 13.7808 13.1894 13.7098L9.26344 11.3678C9.03744 11.2318 8.89844 10.9868 8.89844 10.7228V5.67578C8.89844 5.26178 9.23444 4.92578 9.64844 4.92578C10.0624 4.92578 10.3984 5.26178 10.3984 5.67578V10.2968L13.9584 12.4198C14.3134 12.6328 14.4304 13.0928 14.2184 13.4488C14.0774 13.6838 13.8284 13.8148 13.5734 13.8148Z" fill="#B57BFF"/>
</svg>
