<svg xmlns="http://www.w3.org/2000/svg" width="18" height="18.02" viewBox="0 0 18 18.02">
  <g id="Group_1" data-name="Group 1" transform="translate(-200 -3506)">
    <g id="arrow-down" transform="translate(197 3503)">
      <path id="Path_2" data-name="Path 2" d="M17,7.02H16a1,1,0,0,0,0,2h1a2.006,2.006,0,0,1,2,2v6a2.006,2.006,0,0,1-2,2H7a2.006,2.006,0,0,1-2-2v-6a2.006,2.006,0,0,1,2-2H8a1,1,0,0,0,0-2H7a4,4,0,0,0-4,4v6a4,4,0,0,0,4,4H17a4,4,0,0,0,4-4v-6a4,4,0,0,0-4-4Z" fill="#b880fc"/>
      <path id="Path_3" data-name="Path 3" d="M8.19,12.25a1,1,0,0,0,0,1.41l2.99,3a1.142,1.142,0,0,0,.42.26.915.915,0,0,0,.41.09.872.872,0,0,0,.4-.09,1.142,1.142,0,0,0,.42-.26l3-3.01a1,1,0,1,0-1.41-1.41l-1.4,1.4V4a1,1,0,0,0-2,0v9.64l-1.4-1.4a1,1,0,0,0-1.41,0Z" fill="#b880fc"/>
    </g>
  </g>
</svg>
