<svg width="650" height="297" viewBox="0 0 650 297" fill="none" xmlns="http://www.w3.org/2000/svg">
<path d="M555.1 0H146.93C138.883 0 132.36 6.52321 132.36 14.57V274.62C132.36 282.667 138.883 289.19 146.93 289.19H555.1C563.147 289.19 569.67 282.667 569.67 274.62V14.57C569.67 6.52321 563.147 0 555.1 0Z" fill="#455A64"/>
<path d="M115.27 270.51H589.06V278.02C589.06 287.84 581.09 295.82 571.26 295.82H133.07C123.25 295.82 115.27 287.85 115.27 278.02V270.51Z" fill="#455A64"/>
<path d="M556.71 11.4902H144.1V255.71H556.71V11.4902Z" fill="#263238"/>
<path d="M307.91 267.8L313.79 277.15H396.52L401.98 267.8H307.91Z" fill="#263238"/>
<path d="M155.87 19.7598H545.79C547.6 19.7598 549.06 21.2298 549.06 23.0298V251.65C549.06 253.46 547.59 254.92 545.79 254.92H155.87C154.06 254.92 152.6 253.45 152.6 251.65V23.0298C152.6 21.2198 154.07 19.7598 155.87 19.7598Z" fill="#EBEBEB"/>
<path d="M548.64 255.27H152.17L152.6 37.3301H548.64V255.27Z" fill="#FAFAFA"/>
<path d="M185.11 28.8399C185.11 30.5899 183.69 32.0099 181.94 32.0099C180.19 32.0099 178.77 30.5899 178.77 28.8399C178.77 27.0899 180.19 25.6699 181.94 25.6699C183.69 25.6699 185.11 27.0899 185.11 28.8399V28.8399Z" fill="#263238"/>
<path d="M165.92 28.8399C165.92 30.5899 164.5 32.0099 162.75 32.0099C161 32.0099 159.58 30.5899 159.58 28.8399C159.58 27.0899 161 25.6699 162.75 25.6699C164.5 25.6699 165.92 27.0899 165.92 28.8399V28.8399Z" fill="#263238"/>
<path d="M175.14 28.8399C175.14 30.5899 173.72 32.0099 171.97 32.0099C170.22 32.0099 168.8 30.5899 168.8 28.8399C168.8 27.0899 170.22 25.6699 171.97 25.6699C173.72 25.6699 175.14 27.0899 175.14 28.8399V28.8399Z" fill="#263238"/>
<path d="M565.91 267.8C565.91 267.96 468.85 268.08 349.14 268.08C229.43 268.08 132.35 267.95 132.35 267.8C132.35 267.65 229.39 267.52 349.14 267.52C468.89 267.52 565.91 267.65 565.91 267.8Z" fill="#263238"/>
<path d="M269.04 295.309L306.6 294.909L303.63 281.469L270.06 278.979L269.04 295.309Z" fill="#B78876"/>
<path d="M288 278.53L305.4 279.67C305.4 279.67 312.4 262.37 315.64 262.27L314.64 296.08L287.46 295.41L288.01 278.52L288 278.53Z" fill="#E8505B"/>
<path d="M303.62 290.079C303.78 290.739 304.5 291.209 305.17 291.079C305.84 290.949 306.32 290.219 306.18 289.549C306.03 288.889 305.18 288.289 304.54 288.499C303.89 288.709 303.37 289.589 303.67 290.199" fill="#E0E0E0"/>
<path d="M314.63 296.079L311.89 295.909L313.88 263.559C313.88 263.559 314.58 262.069 315.63 262.279L314.63 296.089V296.079Z" fill="#E0E0E0"/>
<path d="M305.24 279.119C305.4 279.129 305.46 279.959 305.96 280.789C306.45 281.629 307.15 282.069 307.08 282.219C307.04 282.369 306.06 282.099 305.47 281.079C304.87 280.069 305.09 279.079 305.24 279.119V279.119Z" fill="#263238"/>
<path d="M306.81 275.609C306.97 275.579 307.23 276.299 307.91 276.879C308.57 277.479 309.33 277.649 309.31 277.809C309.33 277.969 308.36 278.049 307.53 277.309C306.69 276.579 306.65 275.609 306.81 275.609Z" fill="#263238"/>
<path d="M311.12 273.729C311.15 273.879 310.32 274.089 309.43 273.639C308.53 273.199 308.2 272.409 308.34 272.339C308.48 272.249 308.95 272.769 309.69 273.129C310.42 273.509 311.11 273.569 311.12 273.739V273.729Z" fill="#263238"/>
<path d="M301.25 279.299C301.4 279.369 301.15 280.119 301.18 281.059C301.2 281.999 301.49 282.729 301.34 282.809C301.22 282.899 300.63 282.169 300.6 281.069C300.57 279.969 301.11 279.209 301.24 279.289L301.25 279.299Z" fill="#263238"/>
<path d="M297.73 279.129C297.8 279.129 297.88 279.789 297.67 280.819C297.56 281.339 297.38 281.939 297.07 282.579C296.92 282.899 296.74 283.219 296.53 283.539C296.43 283.689 296.32 283.869 296.12 284.039C295.94 284.219 295.5 284.309 295.24 284.089C294.99 283.909 294.88 283.599 294.88 283.359C294.88 283.109 294.94 282.909 294.99 282.729C295.09 282.359 295.23 282.009 295.38 281.689C295.69 281.049 296.08 280.539 296.45 280.159C297.2 279.399 297.82 279.149 297.85 279.209C297.9 279.289 297.37 279.649 296.75 280.429C296.44 280.819 296.12 281.319 295.85 281.909C295.72 282.209 295.61 282.529 295.52 282.869C295.42 283.229 295.4 283.529 295.56 283.629C295.62 283.669 295.64 283.669 295.75 283.599C295.85 283.529 295.95 283.379 296.05 283.229C296.25 282.939 296.43 282.639 296.59 282.349C296.9 281.769 297.12 281.209 297.27 280.729C297.57 279.769 297.63 279.129 297.72 279.139L297.73 279.129Z" fill="#263238"/>
<path d="M297.96 279.349C297.98 279.409 297.38 279.719 296.31 279.749C295.78 279.759 295.14 279.689 294.46 279.459C294.12 279.349 293.78 279.189 293.44 278.999C293.11 278.789 292.67 278.539 292.62 277.889C292.62 277.559 292.89 277.279 293.11 277.199C293.34 277.089 293.54 277.079 293.74 277.039C294.14 276.989 294.52 277.009 294.88 277.069C295.6 277.199 296.19 277.509 296.61 277.849C297.47 278.539 297.64 279.229 297.59 279.239C297.51 279.289 297.2 278.709 296.38 278.179C295.97 277.919 295.43 277.679 294.8 277.599C294.49 277.559 294.16 277.549 293.82 277.599C293.46 277.639 293.17 277.769 293.2 277.899C293.2 278.069 293.45 278.359 293.74 278.509C294.04 278.689 294.34 278.839 294.65 278.959C295.25 279.189 295.84 279.299 296.33 279.339C297.32 279.419 297.94 279.259 297.97 279.339L297.96 279.349Z" fill="#263238"/>
<path d="M35.52 284.739L32.65 295.739L0.459961 295.439C0.459961 295.439 4.85996 292.109 21.04 292.359L22.61 284.739H35.53H35.52Z" fill="#B78876"/>
<path d="M68.4799 135.809C67.5899 133.969 66.6899 132.119 66.1699 130.139C65.6499 128.159 65.5399 126.029 66.2199 124.099C66.8999 122.169 68.4499 120.489 70.4299 119.989C71.6499 119.679 72.9899 119.819 74.1499 119.329C75.4899 118.759 76.3499 117.449 77.3599 116.399C78.9499 114.759 81.0799 113.649 83.3299 113.299C84.5099 113.119 85.7599 113.139 86.8599 113.629C87.9599 114.119 88.8699 115.119 89.0099 116.309C90.3799 115.769 91.7699 115.229 93.2399 115.059C94.6999 114.899 96.2799 115.149 97.4299 116.069C98.5799 116.989 99.1799 118.669 98.5899 120.019C99.7599 119.259 101.47 119.719 102.27 120.859C103.07 121.999 102.98 123.619 102.24 124.799C101.49 125.969 99.6799 127.079 98.3099 127.339C96.9399 127.599 95.3499 127.809 94.0099 127.439" fill="#263238"/>
<path d="M84.3899 179.2C90.1599 178.49 94.2799 173.25 93.6099 167.47C93.2299 164.24 92.8999 161.55 92.8999 161.55C92.8999 161.55 101.04 159.86 100.73 151.64C100.41 143.43 98.0299 124.66 98.0299 124.66C88.3199 121.06 77.4299 122.99 69.5499 129.72L68.3799 130.72L72.5699 169.83C73.1999 175.71 78.5299 179.93 84.3899 179.21V179.2Z" fill="#B78876"/>
<path d="M92.8998 161.43C92.8998 161.43 87.7298 162.12 82.0498 158.93C82.0498 158.93 84.8798 164.71 93.0298 163.55L92.8998 161.42V161.43Z" fill="#AA6550"/>
<path d="M69.8299 139.16C69.6899 139.11 64.1099 137.78 64.5699 143.38C65.0299 148.98 70.5599 147.36 70.5599 147.2C70.5599 147.04 69.8299 139.16 69.8299 139.16V139.16Z" fill="#B78876"/>
<path d="M68.6698 145.22C68.6698 145.22 68.5798 145.3 68.4198 145.39C68.2698 145.48 67.9898 145.55 67.6898 145.47C67.0798 145.3 66.4998 144.4 66.3898 143.4C66.3298 142.89 66.3998 142.4 66.5498 141.98C66.6898 141.56 66.9298 141.25 67.2198 141.17C67.5098 141.08 67.7398 141.24 67.8198 141.39C67.9098 141.54 67.8798 141.66 67.9098 141.66C67.9298 141.67 68.0198 141.56 67.9598 141.33C67.9298 141.22 67.8498 141.09 67.7098 141C67.5698 140.9 67.3598 140.86 67.1598 140.9C66.7298 140.97 66.3698 141.4 66.2098 141.85C66.0198 142.31 65.9398 142.87 65.9998 143.44C66.1298 144.57 66.7898 145.57 67.6198 145.74C68.0198 145.81 68.3398 145.66 68.4998 145.52C68.6598 145.37 68.6798 145.24 68.6598 145.23L68.6698 145.22Z" fill="#AA6550"/>
<path d="M98.57 127.159C98.57 127.159 93.17 129.289 86.57 127.159C82.24 125.759 77.39 125.499 76.48 126.469C75.57 127.439 75.98 131.619 72.18 133.439C72.18 133.439 73.66 141.309 70.46 141.509C67.26 141.709 67.36 129.149 67.36 129.149L74.51 124.199L82.69 121.319L90.58 120.119L98.26 121.259L98.56 127.169L98.57 127.159Z" fill="#263238"/>
<path d="M110.62 178.31L135.26 201.37L174.21 174.75L186.39 188.77L148.94 218.76C145.18 222.11 140.38 224.06 135.35 224.28C128.45 224.58 121.82 221.59 117.47 216.23L104.27 205.09L110.64 178.31H110.62Z" fill="#3E66FB"/>
<path d="M87.7299 168.4L110.62 178.31L109.85 184.65L120.5 226.88L132.09 235.34L122.49 249.42C120.34 252.58 117.51 255.24 114.22 257.19L91.3899 270.77C86.9399 272.4 81.9899 270.3 80.0799 265.97L59.8899 220.16L39.5999 283.09C38.2899 287.16 34.2299 289.69 29.9899 289.08L21.9499 287.91C19.2199 287.51 17.4299 284.83 18.1199 282.16L40.8099 193.94C42.0199 189.29 43.9799 184.97 46.5699 181.06C51.4799 173.66 59.7499 169.18 68.6299 168.93L87.7199 168.39L87.7299 168.4Z" fill="#3E66FB"/>
<path d="M95.7499 169.06L94.8999 164.47L70.6399 162.84L70.6199 168.94C70.7899 170.67 73.6099 170.16 76.2599 171.25L88.1399 173.62C91.0599 173.85 97.2399 172.76 95.7499 169.06Z" fill="#3E66FB"/>
<path d="M120.75 227.089C120.75 227.089 120.49 226.529 120.12 225.479C119.75 224.429 119.24 222.909 118.63 221.019C117.42 217.239 115.86 211.979 114.35 206.109C112.84 200.239 111.68 194.879 110.92 190.979C110.54 189.029 110.25 187.449 110.08 186.359C109.9 185.259 109.82 184.659 109.85 184.649C109.89 184.649 110.03 185.239 110.27 186.319C110.53 187.489 110.86 189.039 111.27 190.909C112.12 194.779 113.34 200.119 114.85 205.979C116.36 211.839 117.86 217.109 118.98 220.909C119.52 222.749 119.97 224.269 120.31 225.419C120.62 226.479 120.78 227.079 120.74 227.089H120.75Z" fill="#263238"/>
<path d="M67.2299 199.299C67.2999 199.329 66.9199 200.529 66.2599 202.449C65.5399 204.509 64.6399 207.099 63.6399 209.949C62.6399 212.799 61.7399 215.389 61.0199 217.449C60.3499 219.369 59.9399 220.559 59.8699 220.539C59.7999 220.519 60.0899 219.289 60.6699 217.339C61.2499 215.389 62.1199 212.709 63.1499 209.779C64.1799 206.849 65.1699 204.219 65.9099 202.319C66.6599 200.429 67.1599 199.269 67.2299 199.299Z" fill="#263238"/>
<g opacity="0.2">
<path d="M59.8198 220.28C61.7598 224.7 63.6998 229.12 65.6498 233.54C65.9598 234.26 66.2898 234.99 66.8298 235.55C67.3698 236.12 68.1698 236.5 68.9298 236.32C70.3698 235.99 70.7298 234.14 70.7898 232.67C71.1298 223 70.7798 213.1 67.4198 204.03C67.1798 203.37 66.7198 202.59 66.0198 202.68C65.3898 202.76 65.0998 203.48 64.9298 204.09C63.3498 209.76 61.7698 215.44 60.1898 221.11" fill="black"/>
</g>
<g opacity="0.2">
<path d="M122.77 221.18C123.57 220.75 123.96 219.78 123.95 218.88C123.94 217.97 123.59 217.11 123.23 216.27C120.59 210.1 117.01 204.33 112.66 199.22L117.44 216.23L122.76 221.18H122.77Z" fill="black"/>
</g>
<g opacity="0.3">
<path d="M71.3999 169.47C75.3099 172.57 79.7899 174.93 84.5599 176.4C86.6099 177.03 88.7699 177.5 90.8799 177.12C92.9899 176.74 95.0199 175.35 95.6199 173.29C95.7699 172.78 95.7499 172.1 95.2699 171.88C94.7599 171.64 94.2299 172.11 93.7799 172.44C92.3399 173.51 88.0899 173.77 86.2999 173.56C80.4699 172.88 76.6799 171.46 71.3999 169.49" fill="black"/>
</g>
<path d="M108.98 210.05C108.98 210.05 109.05 210.21 109.15 210.54C109.23 210.87 109.39 211.34 109.51 211.97C109.79 213.22 110.08 215.06 110.18 217.36C110.4 221.92 109.52 228.46 106.1 234.65C102.68 240.84 97.6099 245.07 93.6299 247.32C91.6399 248.46 89.9199 249.2 88.7099 249.63C88.1099 249.86 87.6299 249.98 87.3099 250.09C86.9899 250.18 86.8099 250.23 86.8099 250.21C86.7999 250.17 87.4599 249.93 88.6399 249.45C89.8199 248.97 91.4899 248.19 93.4399 247.02C97.3199 244.72 102.27 240.51 105.64 234.42C109 228.33 109.92 221.9 109.8 217.39C109.75 215.12 109.52 213.28 109.3 212.03C109.08 210.77 108.93 210.08 108.97 210.07L108.98 210.05Z" fill="#263238"/>
<g opacity="0.2">
<path d="M109.82 216.62C109.99 220.94 108.06 225.3 104.74 228.06C102.59 229.86 99.9399 230.98 97.7899 232.79C95.8299 234.44 94.3399 236.65 93.5399 239.09C93.1299 240.35 92.9499 241.9 93.8699 242.87C94.8999 243.96 96.6999 243.68 98.0799 243.1C102.59 241.19 105.81 236.96 107.53 232.37C109.25 227.78 109.68 222.82 109.98 217.93" fill="black"/>
</g>
<path d="M135.12 212.919C135.01 212.979 133.93 210.299 133.98 206.789C134.01 203.279 135.15 200.629 135.26 200.689C135.42 200.739 134.53 203.389 134.5 206.799C134.44 210.199 135.27 212.879 135.11 212.919H135.12Z" fill="#263238"/>
<path d="M138.14 211.71C138.05 211.8 136.4 209.61 135.68 206.38C134.93 203.15 135.48 200.47 135.6 200.51C135.76 200.52 135.47 203.15 136.19 206.27C136.88 209.4 138.29 211.64 138.15 211.72L138.14 211.71Z" fill="#263238"/>
<path d="M187.59 183.459C187.59 183.459 187.29 183.229 186.73 182.959C186.19 182.699 185.3 182.469 184.34 182.739L183.89 182.869L184.12 182.459C184.42 181.919 184.64 181.269 184.74 180.569C184.97 179.069 184.6 177.679 184.16 176.789C183.73 175.879 183.26 175.439 183.32 175.389C183.34 175.359 183.9 175.729 184.43 176.649C184.97 177.539 185.41 179.019 185.17 180.629C185.06 181.379 184.81 182.079 184.47 182.649L184.25 182.369C185.35 182.089 186.31 182.419 186.86 182.759C187.42 183.109 187.63 183.449 187.6 183.469L187.59 183.459Z" fill="#AA6550"/>
<path d="M194.3 179.09C195.23 176.81 204.55 172.79 203.33 171.36C201.74 169.5 193.79 176 193.07 176.5C192.38 176.99 191.64 175.97 192.3 175.55C193.26 174.95 203.17 168.42 201.62 166.58C200.76 165.56 199.1 167.32 199.1 167.32C199.1 167.32 190.26 174.12 189.56 173.23C188.85 172.32 193.91 168.15 195.71 166.86C197.49 165.59 197.63 164.21 196.44 163.88C195.62 163.65 190.02 167.45 188.26 168.76C186.51 170.07 181.76 173.76 182.67 170C183.58 166.24 182.91 163.02 182.13 162.28C181.35 161.54 180.06 162.39 180.28 163.57C180.46 164.52 180.27 166.2 180.07 167.46C179.91 168.5 179.49 169.46 179.1 170.43C178.69 171.47 177.49 173.82 174.73 175.88L184.58 187.48L185.84 186.62C190.71 183.31 195.28 182.04 197.92 180.52C202.83 177.69 202.59 177.24 202.18 176.71C201.07 175.3 193.36 181.36 194.29 179.08L194.3 179.09Z" fill="#B78876"/>
<path d="M180.95 160.749L184.14 181.449L196.63 181.239L197.21 177.369C197.21 177.369 204.28 177.349 204.83 171.369C205.37 165.389 199.31 165.309 199.31 165.309L200.23 159.899L180.96 160.739L180.95 160.749ZM197.5 175.269L198.97 167.589C198.97 167.589 203.25 167.519 202.92 170.969C202.59 174.419 197.5 175.269 197.5 175.269Z" fill="#455A64"/>
<path d="M190.28 132.89C190.28 132.89 190.37 132.94 190.51 133.08C190.65 133.22 190.82 133.44 190.99 133.77C191.33 134.42 191.53 135.53 191.29 136.83C191.1 138.14 190.37 139.55 189.65 141.06C189.3 141.82 188.97 142.64 188.8 143.51C188.63 144.38 188.68 145.31 189.01 146.18C189.68 147.95 191.06 149.26 192.17 150.54C193.3 151.8 194.22 153.15 194.47 154.48C194.74 155.79 194.45 156.9 194.06 157.53C193.88 157.85 193.67 158.06 193.53 158.19C193.38 158.31 193.3 158.37 193.28 158.35C193.24 158.31 193.58 158.07 193.88 157.44C194.19 156.82 194.4 155.78 194.11 154.57C193.84 153.36 192.95 152.1 191.82 150.87C190.71 149.63 189.26 148.3 188.53 146.37C188.16 145.41 188.11 144.36 188.3 143.42C188.49 142.48 188.85 141.63 189.22 140.86C189.98 139.33 190.71 138.01 190.93 136.76C191.21 135.53 191.07 134.5 190.81 133.86C190.54 133.22 190.24 132.93 190.28 132.9V132.89Z" fill="#263238"/>
<path d="M186.96 132.939C186.96 132.939 187.05 132.989 187.19 133.129C187.33 133.269 187.5 133.489 187.67 133.819C188.01 134.469 188.21 135.579 187.97 136.879C187.78 138.189 187.05 139.599 186.33 141.109C185.98 141.869 185.65 142.689 185.48 143.559C185.31 144.429 185.36 145.359 185.69 146.229C186.36 147.999 187.74 149.309 188.85 150.589C189.98 151.849 190.9 153.199 191.15 154.529C191.42 155.839 191.13 156.949 190.74 157.579C190.56 157.899 190.35 158.109 190.21 158.239C190.06 158.359 189.98 158.419 189.96 158.399C189.92 158.359 190.26 158.119 190.56 157.489C190.87 156.869 191.08 155.829 190.79 154.619C190.52 153.409 189.63 152.149 188.49 150.919C187.38 149.679 185.93 148.349 185.2 146.419C184.83 145.459 184.78 144.409 184.97 143.469C185.16 142.529 185.52 141.679 185.89 140.909C186.65 139.379 187.38 138.059 187.6 136.809C187.88 135.579 187.74 134.549 187.48 133.909C187.21 133.269 186.91 132.979 186.95 132.949L186.96 132.939Z" fill="#263238"/>
<path d="M182.17 169.259C182.17 169.259 182.2 168.959 182.6 168.639C182.99 168.329 183.74 168.079 184.63 168.299C185.52 168.529 186.33 169.249 187.13 169.999C187.92 170.729 188.91 171.569 190.1 171.409C191.28 171.249 192.27 170.429 193.31 169.969C193.83 169.729 194.38 169.569 194.91 169.539C195.44 169.539 195.93 169.649 196.34 169.829C197.15 170.199 197.64 170.769 197.87 171.199C198.1 171.629 198.13 171.899 198.11 171.909C198.07 171.919 197.97 171.679 197.7 171.309C197.43 170.949 196.95 170.469 196.2 170.169C195.83 170.029 195.39 169.949 194.94 169.969C194.48 170.009 194 170.159 193.52 170.399C192.55 170.839 191.57 171.709 190.16 171.919C189.46 172.009 188.75 171.799 188.21 171.469C187.66 171.139 187.21 170.729 186.8 170.339C186.01 169.549 185.28 168.889 184.53 168.639C183.78 168.399 183.09 168.559 182.72 168.789C182.34 169.019 182.22 169.269 182.18 169.249L182.17 169.259Z" fill="#FAFAFA"/>
<path d="M181.72 166.59C181.72 166.59 181.76 166.27 182.18 165.93C182.59 165.6 183.39 165.34 184.33 165.58C185.27 165.83 186.13 166.58 186.98 167.39C187.82 168.16 188.88 169.06 190.15 168.89C191.41 168.72 192.46 167.85 193.57 167.36C194.12 167.11 194.7 166.93 195.27 166.91C195.83 166.9 196.35 167.02 196.78 167.21C197.64 167.6 198.16 168.21 198.41 168.66C198.66 169.12 198.69 169.41 198.67 169.41C198.63 169.43 198.53 169.16 198.24 168.77C197.96 168.38 197.44 167.87 196.64 167.55C196.24 167.4 195.78 167.31 195.29 167.34C194.8 167.38 194.29 167.54 193.77 167.8C192.73 168.27 191.7 169.19 190.2 169.41C189.46 169.51 188.71 169.29 188.13 168.94C187.54 168.59 187.07 168.16 186.64 167.74C185.8 166.91 185.03 166.19 184.21 165.93C183.4 165.68 182.67 165.85 182.28 166.1C181.87 166.35 181.75 166.62 181.71 166.59H181.72Z" fill="#FAFAFA"/>
<path d="M88.25 271.329L105.48 295.649L294.63 295.559L294.52 274.089L198.87 264.989L119.4 253.169L88.25 271.329Z" fill="#263238"/>
<path d="M118.66 253.889L132.09 235.349L169.92 188.629C175.21 182.929 182.87 180.059 190.61 180.879C200.08 181.879 208.12 188.249 211.28 197.229L236.24 273.469L203.14 268.279L186.32 221.119L159.81 258.149L118.66 253.899V253.889Z" fill="#263238"/>
<path d="M236.25 268.539C236.25 268.539 236.15 268.539 235.95 268.539C235.73 268.529 235.44 268.509 235.09 268.489C234.3 268.429 233.19 268.349 231.78 268.249C228.87 268.019 224.72 267.689 219.61 267.289C209.31 266.419 195.14 265.229 179.49 263.919C171.66 263.239 164.2 262.589 157.41 261.999C154.02 261.689 150.79 261.449 147.77 261.119C144.75 260.769 141.96 260.309 139.44 259.709C136.93 259.119 134.67 258.389 132.87 257.379C131.06 256.379 129.68 255.229 128.71 254.149C127.74 253.069 127.17 252.079 126.84 251.399C126.51 250.709 126.41 250.319 126.41 250.319C126.49 250.269 126.9 251.899 128.86 254.009C129.83 255.059 131.21 256.169 133 257.129C134.79 258.099 137.02 258.789 139.52 259.349C142.02 259.919 144.81 260.359 147.81 260.679C150.82 260.989 154.05 261.219 157.44 261.509C164.23 262.089 171.69 262.719 179.53 263.389C195.17 264.769 209.34 266.009 219.63 266.909C224.73 267.379 228.87 267.769 231.78 268.039C233.18 268.179 234.29 268.289 235.08 268.369C235.43 268.409 235.72 268.439 235.94 268.469C236.13 268.499 236.23 268.509 236.23 268.519L236.25 268.539Z" fill="#455A64"/>
<path d="M188.96 204.039C189.03 204.069 188.67 204.979 188.19 206.479C187.71 207.979 187.14 210.079 186.78 212.449C186.43 214.819 186.35 216.999 186.37 218.569C186.39 220.139 186.47 221.119 186.38 221.129C186.32 221.129 186.11 220.169 186 218.579C185.88 216.989 185.9 214.779 186.26 212.369C186.62 209.959 187.26 207.839 187.83 206.359C188.41 204.869 188.89 204.009 188.94 204.039H188.96Z" fill="#455A64"/>
<path d="M181.7 210.409C181.86 210.389 182.2 213.089 183.52 216.119C184.81 219.169 186.52 221.279 186.39 221.379C186.31 221.469 184.37 219.459 183.04 216.319C181.69 213.189 181.58 210.399 181.7 210.399V210.409Z" fill="#455A64"/>
<path d="M289.71 280.52C289.87 280.58 288.46 283.79 288.12 288.03C287.74 292.27 288.59 295.67 288.42 295.7C288.36 295.72 288.07 294.89 287.83 293.5C287.58 292.11 287.43 290.15 287.61 287.99C287.8 285.83 288.28 283.93 288.76 282.6C289.24 281.27 289.66 280.5 289.72 280.53L289.71 280.52Z" fill="#455A64"/>
<path d="M95.81 171.249C95.81 171.249 95.77 171.339 95.65 171.469C95.54 171.609 95.35 171.789 95.09 172.009C94.57 172.449 93.7 172.959 92.52 173.309C90.15 174.029 86.74 173.859 83.12 173.289C79.48 172.699 76.3 171.649 74.08 170.699C72.97 170.239 72.1 169.799 71.5 169.479C70.91 169.149 70.59 168.959 70.61 168.929C70.65 168.849 71.98 169.519 74.21 170.359C76.44 171.209 79.6 172.189 83.2 172.769C86.79 173.329 90.12 173.549 92.42 172.949C94.74 172.379 95.74 171.149 95.81 171.239V171.249Z" fill="#263238"/>
<path d="M627.52 216.24C631.71 214.08 636.65 213.79 641.31 214.56C643.81 214.97 646.42 215.72 648.12 217.6C649.82 219.48 650.14 222.78 648.19 224.4C647.03 225.36 645.4 225.51 643.9 225.49C640.26 225.45 636.21 224.81 633.3 227C631.64 228.25 630.53 230.33 628.55 230.95C626.61 231.55 624.41 230.41 623.38 228.65C622.35 226.89 622.32 224.7 622.8 222.73C622.8 222.73 623.31 218.42 627.53 216.24H627.52Z" fill="#3CC13B"/>
<path d="M617.91 197.7C620.47 201.36 625.46 200.15 627.77 197.91C630.08 195.67 631.06 192.43 631.95 189.35C633.98 182.29 636.03 174.89 634.52 167.7C634.07 165.55 633.26 163.41 631.75 161.81C630.24 160.22 627.92 159.27 625.79 159.83C623.28 160.49 621.72 162.95 620.59 165.3C617.27 172.18 615.52 179.81 615.49 187.45C615.48 191.02 615.9 194.76 617.91 197.71" fill="#3CC13B"/>
<path d="M610.87 202.95C613.65 199.65 614.18 194.83 612.94 190.69C611.7 186.55 608.9 183.03 605.68 180.15C601.9 176.78 597.45 174.16 592.67 172.48C590.79 171.82 588.81 171.3 586.82 171.49C584.84 171.68 582.84 172.69 581.91 174.46C580.54 177.07 581.85 180.24 583.27 182.82C585.77 187.37 588.63 191.73 591.81 195.83C594.37 199.13 597.3 202.39 601.21 203.88C605.11 205.37 609.17 205.2 611.23 202.49" fill="#3CC13B"/>
<path d="M617.74 252.939C617.74 252.939 617.87 252.349 617.97 251.279C618.09 250.069 618.24 248.549 618.41 246.739C618.62 244.829 618.9 242.549 619.43 240.079C619.96 237.609 620.79 234.929 621.85 232.219C622.95 229.519 624.29 227.069 625.86 225.109C627.42 223.139 629.23 221.709 630.94 220.889C632.64 220.049 634.16 219.709 635.21 219.559C636.27 219.449 636.87 219.369 636.87 219.319C636.87 219.269 636.27 219.259 635.18 219.289C634.1 219.359 632.51 219.639 630.72 220.449C628.92 221.249 627 222.699 625.37 224.709C623.72 226.709 622.33 229.219 621.21 231.969C620.13 234.729 619.31 237.439 618.81 239.959C618.31 242.479 618.08 244.779 617.92 246.709C617.78 248.639 617.72 250.199 617.7 251.279C617.68 252.359 617.69 252.959 617.73 252.959L617.74 252.939Z" fill="#263238"/>
<path d="M618.05 249.45C618.05 249.45 618.09 249.18 618.09 248.68C618.09 248.1 618.09 247.37 618.09 246.47C618.09 244.55 618.09 241.78 618.19 238.36C618.36 231.51 618.95 224.14 620.09 213.75C621.17 203.98 622.62 192.61 624.14 185.21C624.47 183.53 624.8 182.01 625.11 180.69C625.41 179.36 625.66 178.22 625.9 177.29C626.11 176.42 626.28 175.71 626.42 175.14C626.53 174.65 626.58 174.38 626.56 174.38C626.54 174.38 626.45 174.62 626.29 175.1C626.12 175.66 625.91 176.36 625.65 177.22C625.37 178.14 625.07 179.28 624.74 180.6C624.39 181.92 624.03 183.43 623.67 185.11C622.16 191.81 620.56 201.17 619.41 211.59C618.27 222 617.75 231.49 617.71 238.35C617.67 241.78 617.74 244.56 617.83 246.48C617.88 247.38 617.93 248.11 617.96 248.69C618 249.19 618.03 249.46 618.05 249.46V249.45Z" fill="#263238"/>
<path d="M618.1 231.159C618.1 231.159 618.14 230.339 618.08 228.849C618 227.369 617.79 225.229 617.37 222.599C616.93 219.979 616.31 216.869 615.34 213.489C614.92 211.949 613.93 208.249 611.53 202.719C608.37 195.229 604.08 189.099 600.35 185.309C599.47 184.299 598.5 183.579 597.72 182.859C597.32 182.519 596.96 182.179 596.6 181.909C596.23 181.659 595.89 181.419 595.58 181.209C594.35 180.369 593.66 179.929 593.64 179.969C593.53 180.119 596.39 181.799 600.01 185.649C603.61 189.489 607.78 195.569 610.91 202.999C612.66 207.029 613.87 210.619 614.74 213.669C615.74 217.019 616.4 220.089 616.9 222.679C617.38 225.279 617.65 227.399 617.82 228.869C617.96 230.339 618.06 231.159 618.1 231.149V231.159Z" fill="#263238"/>
<path d="M600.42 263.42L602.25 288.52H634.5L636.34 263.42H600.42Z" fill="#263238"/>
<path d="M640.18 253.52H597.3V263.42H640.18V253.52Z" fill="#263238"/>
<path d="M597.3 287.56V290.31H599.32H639.48V287.56H597.3Z" fill="#455A64"/>
<path d="M601.29 295.13L599.32 290.31H637.94L635.64 295.13H601.29Z" fill="#455A64"/>
<path d="M635.74 271.62C635.74 271.62 635.7 271.7 635.59 271.85C635.46 272.02 635.3 272.23 635.11 272.49C634.65 273.08 634.02 273.88 633.23 274.89L633.15 275L633.07 274.89C631.89 273.26 630.31 271.07 628.45 268.51H628.72C627.35 270.45 625.82 272.62 624.18 274.94L624.04 275.14L623.88 274.95C622.2 272.95 620.38 270.79 618.49 268.54H618.8L618.5 268.91C616.83 271.01 615.21 273.03 613.68 274.95L613.52 275.15L613.37 274.94C611.73 272.63 610.21 270.46 608.82 268.51H609.08C606.84 271.08 604.94 273.24 603.48 274.9L603.38 275.01L603.3 274.88C602.56 273.64 601.97 272.65 601.55 271.93C601.37 271.61 601.22 271.35 601.1 271.15C601 270.97 600.95 270.88 600.96 270.87C600.96 270.87 601.03 270.95 601.15 271.12C601.28 271.32 601.44 271.57 601.65 271.87C602.1 272.57 602.72 273.54 603.49 274.76H603.31C604.75 273.06 606.62 270.87 608.82 268.29L608.96 268.13L609.09 268.31C610.48 270.26 612.03 272.41 613.68 274.71H613.37C614.9 272.78 616.51 270.75 618.18 268.65C618.28 268.52 618.38 268.39 618.48 268.28L618.63 268.09L618.79 268.28C620.68 270.53 622.49 272.71 624.16 274.71H623.86C625.52 272.41 627.06 270.25 628.45 268.32L628.58 268.13L628.71 268.32C630.53 270.92 632.07 273.12 633.23 274.77H633.07C633.89 273.78 634.55 272.99 635.02 272.42C635.23 272.17 635.4 271.98 635.54 271.81C635.66 271.68 635.73 271.61 635.73 271.61L635.74 271.62Z" fill="#E0E0E0"/>
<path d="M636.79 263.25C636.79 263.36 628.71 263.45 618.74 263.45C608.77 263.45 600.69 263.36 600.69 263.25C600.69 263.14 608.77 263.05 618.74 263.05C628.71 263.05 636.79 263.14 636.79 263.25Z" fill="#455A64"/>
<path d="M638.41 290.58C638.41 290.69 629.63 290.78 618.8 290.78C607.97 290.78 599.18 290.69 599.18 290.58C599.18 290.47 607.96 290.38 618.8 290.38C629.64 290.38 638.41 290.47 638.41 290.58Z" fill="#263238"/>
</svg>
