<svg id="upload-illustration" xmlns="http://www.w3.org/2000/svg" xmlns:xlink="http://www.w3.org/1999/xlink" width="281" height="188" viewBox="0 0 281 188">
  <defs>
    <clipPath id="clip-path">
      <rect id="Rectangle_2" data-name="Rectangle 2" width="252" height="173.65" transform="translate(16 14)" fill="#fff"/>
    </clipPath>
  </defs>
  <path id="Path_35" data-name="Path 35" d="M0,23.829A23.829,23.829,0,0,1,23.829,0H255.171A23.829,23.829,0,0,1,279,23.829V186.662H0Z" transform="translate(1 1)" fill="#3e66fb"/>
  <path id="Path_36" data-name="Path 36" d="M0,24A24,24,0,0,1,24,0H257a24,24,0,0,1,24,24V188H0Z" fill="rgba(255,255,255,0.95)"/>
  <g id="Mask_Group_1" data-name="Mask Group 1" clip-path="url(#clip-path)">
    <g id="Group_4" data-name="Group 4">
      <g id="Group_3" data-name="Group 3" opacity="0.8">
        <path id="Path_37" data-name="Path 37" d="M68.223,32.761a3.349,3.349,0,0,0-2.845,4.275l-9.683,6.919,5.772,2.221,8.31-6.911a3.367,3.367,0,0,0-1.554-6.5Z" fill="#ffb8b8"/>
        <path id="Path_38" data-name="Path 38" d="M67.322,43.184,55.312,55.269a9.956,9.956,0,0,1-6.134,2.874L34.336,59.5a4.09,4.09,0,0,1-3.036-.954,4,4,0,0,1,1.763-6.977l15.162-3.228,13.8-10.175a1.263,1.263,0,0,1,1.255.009l3.754,3.075a1.233,1.233,0,0,1,.622,1.294A1.2,1.2,0,0,1,67.322,43.184Z" fill="#2f2e41"/>
        <path id="Path_39" data-name="Path 39" d="M211.322,49.677a4.041,4.041,0,0,0-2.238-4.063L134.338,9.082a4.029,4.029,0,0,0-5.391,1.849v0l-28.035,57.36a4.036,4.036,0,0,0,1.851,5.392l74.747,36.533a4.038,4.038,0,0,0,5.392-1.852l28.035-57.359A4.011,4.011,0,0,0,211.322,49.677Z" fill="#f2f2f2"/>
        <path id="Path_40" data-name="Path 40" d="M167.532,176.986H70.545a4.612,4.612,0,0,1-4.605-4.606V40.715a4.611,4.611,0,0,1,4.605-4.605h96.987a4.612,4.612,0,0,1,4.606,4.605V172.38a4.613,4.613,0,0,1-4.606,4.606Z" fill="#fff"/>
        <path id="Path_41" data-name="Path 41" d="M96.269,75.374a6.328,6.328,0,1,0-6.328-6.328A6.327,6.327,0,0,0,96.269,75.374Z" fill="#e6e6e6"/>
        <path id="Path_42" data-name="Path 42" d="M86.625,86.341a18.124,18.124,0,0,0,2.8,1.289l.171.059a18.238,18.238,0,0,0,6.063,1.03c.416,0,.816-.015,1.19-.043a18.039,18.039,0,0,0,2.705-.373c.489-.107.976-.235,1.448-.379.114-.034.22-.067.335-.1a18.36,18.36,0,0,0,5.346-2.77,8.282,8.282,0,0,0-.426-.716A9.131,9.131,0,0,0,98.6,80.2H95.27a9.164,9.164,0,0,0-8.334,5.358A8.325,8.325,0,0,0,86.625,86.341Z" fill="#e6e6e6"/>
        <path id="Path_43" data-name="Path 43" d="M98.416,88.145a1.2,1.2,0,0,0-.593.208,17.715,17.715,0,0,0,2.655-.368Z" fill="#2f2e41"/>
        <path id="Path_44" data-name="Path 44" d="M96.653,51.875a18.505,18.505,0,0,0-9.232,34.542,18.2,18.2,0,0,0,2.941,1.369l.173.06a18.4,18.4,0,0,0,6.118,1.039c.4,0,.806-.013,1.2-.043a18.194,18.194,0,0,0,2.727-.376c.5-.11,1-.24,1.462-.383.114-.033.22-.067.337-.1a18.507,18.507,0,0,0-5.728-36.1ZM107.39,84.243a17.557,17.557,0,0,1-5.312,2.8l-.317.1c-.443.137-.909.257-1.388.36a17.074,17.074,0,0,1-2.581.36c-.376.027-.759.04-1.139.04a17.5,17.5,0,0,1-5.792-.982l-.163-.057a17.069,17.069,0,0,1-2.917-1.372,17.508,17.508,0,1,1,19.609-1.249Z" fill="#ccc"/>
        <path id="Path_45" data-name="Path 45" d="M167.532,176.986H70.545a4.612,4.612,0,0,1-4.605-4.606V40.715a4.611,4.611,0,0,1,4.605-4.605h96.987a4.612,4.612,0,0,1,4.606,4.605V172.38a4.613,4.613,0,0,1-4.606,4.606ZM70.545,36.651a4.068,4.068,0,0,0-4.064,4.064V172.38a4.069,4.069,0,0,0,4.064,4.064h96.987a4.07,4.07,0,0,0,4.064-4.064V40.715a4.069,4.069,0,0,0-4.064-4.064Z" fill="#ccc"/>
        <path id="Path_46" data-name="Path 46" d="M148.757,70.307H121.312a2.171,2.171,0,0,1,0-4.342h27.445a2.171,2.171,0,0,1,0,4.342Z" fill="#e6e6e6"/>
        <path id="Path_47" data-name="Path 47" d="M157.713,77.635h-36.4a2.171,2.171,0,0,1,0-4.342h36.4a2.171,2.171,0,0,1,0,4.342Z" fill="#e6e6e6"/>
        <path id="Path_48" data-name="Path 48" d="M148.717,105.741H80.364a2.171,2.171,0,0,1,0-4.343h68.353a2.171,2.171,0,0,1,0,4.343Z" fill="#e6e6e6"/>
        <path id="Path_49" data-name="Path 49" d="M157.673,113.069H80.364a2.171,2.171,0,1,1,0-4.342h77.309a2.171,2.171,0,0,1,0,4.342Z" fill="#e6e6e6"/>
        <path id="Path_50" data-name="Path 50" d="M148.717,129.909H80.364a2.171,2.171,0,0,1,0-4.343h68.353a2.171,2.171,0,0,1,0,4.343Z" fill="#e6e6e6"/>
        <path id="Path_51" data-name="Path 51" d="M157.673,137.237H80.364a2.171,2.171,0,1,1,0-4.342h77.309a2.171,2.171,0,0,1,0,4.342Z" fill="#e6e6e6"/>
        <path id="Path_52" data-name="Path 52" d="M148.716,154.081H80.364a2.171,2.171,0,0,1,0-4.343h68.352a2.171,2.171,0,1,1,0,4.343Z" fill="#e6e6e6"/>
        <path id="Path_53" data-name="Path 53" d="M157.672,161.409H80.364a2.172,2.172,0,0,1,0-4.343h77.308a2.172,2.172,0,0,1,0,4.343Z" fill="#e6e6e6"/>
        <path id="Path_54" data-name="Path 54" d="M207.991,87.31a4.038,4.038,0,0,0-2.237-4.063L131.007,46.715a4.029,4.029,0,0,0-5.39,1.849l0,0L97.58,105.926a4.037,4.037,0,0,0,1.852,5.392l74.747,36.533A4.039,4.039,0,0,0,179.571,146l28.035-57.36A4.009,4.009,0,0,0,207.991,87.31Z" fill="#fff"/>
        <path id="Path_55" data-name="Path 55" d="M207.991,87.31a4.038,4.038,0,0,0-2.237-4.063L131.007,46.715a4.029,4.029,0,0,0-5.39,1.849l0,0L97.58,105.926a4.037,4.037,0,0,0,1.852,5.392l74.747,36.533A4.039,4.039,0,0,0,179.571,146l28.035-57.36A4.009,4.009,0,0,0,207.991,87.31Zm-28.846,58.481a3.563,3.563,0,0,1-4.758,1.634L99.64,110.892a3.562,3.562,0,0,1-1.634-4.758l28.034-57.36a3.562,3.562,0,0,1,4.758-1.634l74.747,36.533a3.561,3.561,0,0,1,1.633,4.757Z"/>
        <path id="Path_56" data-name="Path 56" d="M199.839,89.921l-19.576,40.052a1.122,1.122,0,0,1-1.5.516h0L110.77,97.258a.93.93,0,0,1-.139-.082,1.122,1.122,0,0,1-.377-1.419L129.83,55.7a1.119,1.119,0,0,1,.644-.569,1.118,1.118,0,0,1,.433-.059,1.13,1.13,0,0,1,.424.112L199.323,88.42a1.122,1.122,0,0,1,.516,1.5h0Z" fill="#e6e6e6"/>
        <path id="Path_57" data-name="Path 57" d="M140.146,87.885a9.847,9.847,0,1,0-9.846-9.847A9.847,9.847,0,0,0,140.146,87.885Z" fill="#3e66fb"/>
        <path id="Path_58" data-name="Path 58" d="M154.564,118.859l-43.4-21.211a.961.961,0,0,1-.156-.092l37.9-25.521a1.6,1.6,0,0,1,2.5,1.223l2.114,30.592.1,1.464Z"/>
        <path id="Path_59" data-name="Path 59" d="M154.564,118.858l-14.818-7.242,12.438-7.011.9-.505.447-.252.1,1.464Z" opacity="0.2"/>
        <path id="Path_60" data-name="Path 60" d="M178.728,130.67l-37.536-18.346,12.437-7.01.9-.506,16.208-9.136a2.135,2.135,0,0,1,2.93,1.221,1.918,1.918,0,0,1,.053.237Z"/>
        <path id="Path_61" data-name="Path 61" d="M62.911,134.167h4.083l1.943-15.748H62.91Z" fill="#ffb8b8"/>
        <path id="Path_62" data-name="Path 62" d="M61.869,132.832H69.91a5.124,5.124,0,0,1,5.124,5.124v.167H61.869Z" fill="#2f2e41"/>
        <path id="Path_63" data-name="Path 63" d="M31.175,131.566l4.23.828,5.2-15.923-6.243-1.221Z" fill="#ffb8b8"/>
        <path id="Path_64" data-name="Path 64" d="M30.366,129.973,38.7,131.6h0a5.41,5.41,0,0,1,4.27,6.348l-.034.172-13.64-2.668Z" fill="#2f2e41"/>
        <path id="Path_65" data-name="Path 65" d="M68.851,79.839a3.349,3.349,0,0,0-4.708-2.051l-8.51-8.319-1.174,6.072,8.262,6.969a3.367,3.367,0,0,0,6.131-2.671Z" fill="#ffb8b8"/>
        <path id="Path_66" data-name="Path 66" d="M37.276,37.02a8.18,8.18,0,1,0-8.18-8.18A8.18,8.18,0,0,0,37.276,37.02Z" fill="#ffb8b8"/>
        <path id="Path_67" data-name="Path 67" d="M35.558,37.146c.435.19,1.325-3.273.926-3.965-.593-1.03-.558-1.023-.951-1.7a1.976,1.976,0,0,1,.028-2.214,1.165,1.165,0,0,1,1.922.232c-.15-1.428,1.263-2.576,2.662-2.9s2.875-.122,4.282-.409c1.633-.333,3.331-1.7,2.68-3.5a2.529,2.529,0,0,0-.493-.811,6.237,6.237,0,0,0-2.835-1.557,18.774,18.774,0,0,0-6.6-1.383,9.591,9.591,0,0,0-8.474,6.2,8.706,8.706,0,0,0-.361,1.341,8.99,8.99,0,0,0,5.58,9.874Z" fill="#2f2e41"/>
        <path id="Path_68" data-name="Path 68" d="M33.55,82.082a1.251,1.251,0,0,1-.592-1.238L29.267,62.56,25.525,48.528h0A7.018,7.018,0,0,1,29.039,40.5l2.474-2.34,5.4,2.325L39.473,43.1a14.663,14.663,0,0,1,7.658,9.079l4.112,14.072,9.5,14.13a1.256,1.256,0,0,1-.123,1.558C59.3,83.356,33.55,82.082,33.55,82.082Z" fill="#2f2e41"/>
        <path id="Path_69" data-name="Path 69" d="M58.432,80.781l-14-9.7a9.957,9.957,0,0,1-3.905-5.535L36.586,51.168a4.09,4.09,0,0,1,.407-3.156,3.995,3.995,0,0,1,7.178.512l5.838,14.361,12.439,11.8a1.263,1.263,0,0,1,.211,1.238L60.29,80.161A1.233,1.233,0,0,1,59.125,81,1.2,1.2,0,0,1,58.432,80.781Z" fill="#2f2e41"/>
        <path id="Path_70" data-name="Path 70" d="M29.338,129.128a1.247,1.247,0,0,1-.149-1.14l6.479-23.552.479-23.078,21.809-1.5.106-.007,6.569,11.906a30.631,30.631,0,0,1,3.7,12.068l2.165,23.722A1.237,1.237,0,0,1,69.41,128.9l-6.576.626a1.224,1.224,0,0,1-1.358-1.037l-2.67-24.106L49.2,88.154l-3.225,17.09-6.682,23.6a1.237,1.237,0,0,1-1.152.808l-7.793,0a1.212,1.212,0,0,1-1.007-.529Z" fill="#2f2e41"/>
        <path id="Path_71" data-name="Path 71" d="M196.331,206.588H31.99A11,11,0,0,1,21,195.6V105.346A11,11,0,0,1,31.99,94.355H52.14a10.965,10.965,0,0,1,7.392,2.857l21.851,15.6a7.718,7.718,0,0,0,5.215,2.021H197.351a10.988,10.988,0,0,1,10.989,11.151l-1.02,69.771a11.036,11.036,0,0,1-10.989,10.829Z" fill="#fff"/>
        <path id="Path_72" data-name="Path 72" d="M194.871,201.261H32.963a5.307,5.307,0,0,1-5.3-5.3V104.231a5.307,5.307,0,0,1,5.3-5.3,4.7,4.7,0,0,1,4.689,4.689v86.013a4.973,4.973,0,0,0,4.969,4.968h151.7a3.372,3.372,0,0,1,3.3,2.527,3.235,3.235,0,0,1-1.434,3.725A2.524,2.524,0,0,1,194.871,201.261Z" fill="#f2f2f2"/>
        <path id="Path_73" data-name="Path 73" d="M115.39,157.207l-.426-.427a.457.457,0,0,1-.021-.645l.021-.021,3.74-3.743a.454.454,0,0,1,.145-.1.465.465,0,0,1,.173-.04.455.455,0,0,1,.327.123l.021.021,3.74,3.74a.459.459,0,0,1,.1.148.49.49,0,0,1,.039.177.454.454,0,0,1-.033.178.469.469,0,0,1-.1.152l-.012.011-.426.426a.459.459,0,0,1-.148.1.456.456,0,0,1-.355.006.469.469,0,0,1-.152-.1l-.011-.012-2.211-2.331V160.4a.463.463,0,0,1-.034.176.456.456,0,0,1-.1.15.44.44,0,0,1-.148.1.463.463,0,0,1-.176.037h-.619a.464.464,0,0,1-.463-.463v-5.525l-2.211,2.331a.462.462,0,0,1-.655.008Z" fill="#3e66fb"/>
        <path id="Path_74" data-name="Path 74" d="M119.03,148.972a7.595,7.595,0,1,1-5.365,2.225A7.588,7.588,0,0,1,119.03,148.972Zm0-1a8.587,8.587,0,1,0,6.074,2.515A8.585,8.585,0,0,0,119.03,147.973Z"/>
        <path id="Path_75" data-name="Path 75" d="M196.331,206.588H31.99A11,11,0,0,1,21,195.6V105.346A11,11,0,0,1,31.99,94.355H52.14a10.965,10.965,0,0,1,7.392,2.857l21.851,15.6a7.718,7.718,0,0,0,5.215,2.021H197.351a10.988,10.988,0,0,1,10.989,11.151l-1.02,69.771a11.036,11.036,0,0,1-10.989,10.829ZM31.99,95.021a10.336,10.336,0,0,0-10.324,10.325V195.6A10.335,10.335,0,0,0,31.99,205.922H196.331a10.366,10.366,0,0,0,10.323-10.173l1.02-69.771A10.326,10.326,0,0,0,197.351,115.5H86.6a8.382,8.382,0,0,1-5.649-2.182L59.1,97.718a10.3,10.3,0,0,0-6.958-2.7Z"/>
        <path id="Path_76" data-name="Path 76" d="M242.459,159.66a3.76,3.76,0,0,0,.1-4.763,3.06,3.06,0,0,0-.356-.364l3.075-11.353-5.125,1.7L238.015,155.4a3.785,3.785,0,0,0,.339,4.146,2.631,2.631,0,0,0,4.1.113Z" fill="#ffb8b8"/>
        <path id="Path_77" data-name="Path 77" d="M242.262,152.676a1.241,1.241,0,0,1-.192-.015l-2.671-.4a1.449,1.449,0,0,1-1-.7,1.858,1.858,0,0,1-.234-1.289l3.332-18.611-2.26-11.956a4.827,4.827,0,0,1,2.615-5.406,3.57,3.57,0,0,1,3.494.448,4.76,4.76,0,0,1,1.872,3.4l1.6,15.246-.019.066-5.148,18.067a1.492,1.492,0,0,1-1.386,1.149Z" fill="#3e66fb"/>
        <path id="Path_78" data-name="Path 78" d="M241.474,107.715a8.18,8.18,0,1,0-8.18-8.18A8.179,8.179,0,0,0,241.474,107.715Z" fill="#ffb8b8"/>
        <path id="Path_79" data-name="Path 79" d="M237.286,137.558a1.662,1.662,0,0,1-.6-.111l-12.929-4.973a1.659,1.659,0,0,1-1.053-1.774l.519-3.894a8.827,8.827,0,0,1,2.082-7.857l.315-.346,3.825-6.975a4.083,4.083,0,0,1,5.572-1.6l6.754,3.774a4.076,4.076,0,0,1,1.882,2.273,12.456,12.456,0,0,1-.191,8.392l-4.624,12.024a1.677,1.677,0,0,1-1.556,1.068Z" fill="#3e66fb"/>
        <path id="Path_80" data-name="Path 80" d="M203.4,204.478l-.017,0a1.66,1.66,0,0,1-1.326-1.351,1.648,1.648,0,0,1,.02-.667l9.907-43.307a116.767,116.767,0,0,1,6.7-20.031l4.215-9.61,15.728,7.18,2.245,4.107a40.215,40.215,0,0,1,2.657,14.328l15.981,46.835a1.666,1.666,0,0,1-1.3,2.181l-8.749-.1a1.306,1.306,0,0,1-.25.021,1.653,1.653,0,0,1-1.539-1.044L229.4,155.664a.335.335,0,0,0-.128-.153.332.332,0,0,0-.193-.053.319.319,0,0,0-.3.218l-17.334,47.589a1.656,1.656,0,0,1-1.861,1.069Z"/>
        <path id="Path_81" data-name="Path 81" d="M215.364,151.222a3.35,3.35,0,0,0,1.787-4.814l7.834-8.959-6.128-.836-6.5,8.636a3.367,3.367,0,0,0,3.007,5.973Z" fill="#ffb8b8"/>
        <path id="Path_82" data-name="Path 82" d="M219.057,144.909a1.666,1.666,0,0,1-.782-.195l-2.757-1.47a1.665,1.665,0,0,1-.622-2.362l10.182-16.044,1.766-12.108a4.674,4.674,0,1,1,9.165,1.783l-3.645,14.924-12.011,14.855a1.659,1.659,0,0,1-1.3.617Z" fill="#3e66fb"/>
        <path id="Path_83" data-name="Path 83" d="M234.111,92.785c.946-3.1,6.412-4.487,10.956-3.2s7.808,4.662,8.568,7.962c1.682,7.308-7.094,13.239-5.5,20.547,1.052,4.835,7.139,9.407,13.994,10.511a36.864,36.864,0,0,1-23.782-3.583c-4.36-2.349-8.018-5.894-7.963-9.47.034-2.165,1.411-4.08,3.1-5.733s3.7-3.125,5.246-4.851,2.617-3.794,2.166-5.985-2.743-4.477-5.826-5.115Z"/>
      </g>
    </g>
  </g>
</svg>
